<svg width="17" height="17" viewBox="0 0 17 17" fill="none" xmlns="http://www.w3.org/2000/svg">
<path d="M9.32338 5.80264H7.67722V4.15646H9.32338M9.32338 12.3874H7.67722V7.44882H9.32338M8.5003 0.0410156C7.41942 0.0410156 6.34912 0.253914 5.35052 0.667555C4.35192 1.0812 3.44457 1.68748 2.68027 2.45179C1.1367 3.99538 0.269531 6.08894 0.269531 8.27191C0.269531 10.4549 1.1367 12.5484 2.68027 14.092C3.44457 14.8563 4.35192 15.4626 5.35052 15.8763C6.34912 16.2899 7.41942 16.5028 8.5003 16.5028C10.6832 16.5028 12.7768 15.6356 14.3203 14.092C15.8639 12.5484 16.7311 10.4549 16.7311 8.27191C16.7311 7.19101 16.5182 6.1207 16.1045 5.12208C15.6909 4.12346 15.0846 3.2161 14.3203 2.45179C13.556 1.68748 12.6487 1.0812 11.6501 0.667555C10.6515 0.253914 9.58118 0.0410156 8.5003 0.0410156Z" fill="#4B4A4A"/>
</svg>
