<svg width="48" height="54" viewBox="0 0 48 54" fill="none" xmlns="http://www.w3.org/2000/svg">
<rect x="7.91406" y="0.575195" width="32.9231" height="32.9231" rx="16.4615" fill="#FFA216"/>
<path d="M31.9218 12.8266C31.8495 12.7538 31.7635 12.6959 31.6688 12.6565C31.5741 12.617 31.4725 12.5967 31.3699 12.5967C31.2672 12.5967 31.1656 12.617 31.0709 12.6565C30.9762 12.6959 30.8902 12.7538 30.818 12.8266L25.9284 17.7239L22.5936 14.3813C22.5213 14.3085 22.4353 14.2506 22.3406 14.2112C22.2459 14.1717 22.1443 14.1514 22.0417 14.1514C21.939 14.1514 21.8374 14.1717 21.7427 14.2112C21.648 14.2506 21.562 14.3085 21.4897 14.3813L16.8256 19.0454C16.7528 19.1177 16.695 19.2037 16.6555 19.2984C16.616 19.3931 16.5957 19.4947 16.5957 19.5973C16.5957 19.7 16.616 19.8016 16.6555 19.8963C16.695 19.991 16.7528 20.077 16.8256 20.1493C16.8979 20.2221 16.9839 20.28 17.0786 20.3194C17.1733 20.3589 17.2749 20.3792 17.3776 20.3792C17.4802 20.3792 17.5818 20.3589 17.6765 20.3194C17.7712 20.28 17.8572 20.2221 17.9295 20.1493L22.0417 16.0293L25.3765 19.3719C25.4488 19.4448 25.5347 19.5026 25.6295 19.5421C25.7242 19.5815 25.8258 19.6018 25.9284 19.6018C26.031 19.6018 26.1326 19.5815 26.2274 19.5421C26.3221 19.5026 26.4081 19.4448 26.4803 19.3719L31.9218 13.9305C31.9946 13.8582 32.0525 13.7722 32.0919 13.6775C32.1314 13.5828 32.1517 13.4812 32.1517 13.3785C32.1517 13.2759 32.1314 13.1743 32.0919 13.0796C32.0525 12.9849 31.9946 12.8989 31.9218 12.8266Z" fill="white" fill-opacity="0.67"/>
<path d="M9.20177 50.9854L8.22651 48.4936H5.08639L4.12185 50.9854H3.20017L6.29743 43.119H7.0637L10.1449 50.9854H9.20177ZM7.94251 47.6738L7.03155 45.2463C6.91366 44.9391 6.7922 44.5622 6.66717 44.1157C6.58858 44.4586 6.47605 44.8355 6.32958 45.2463L5.4079 47.6738H7.94251ZM15.1069 50.9854V47.1861C15.1069 46.7074 14.998 46.3502 14.78 46.1144C14.5621 45.8786 14.221 45.7607 13.7566 45.7607C13.1421 45.7607 12.692 45.9269 12.4062 46.2591C12.1204 46.5913 11.9775 47.1397 11.9775 47.9042V50.9854H11.088V45.1124H11.8114L11.9561 45.9161H11.9989C12.1811 45.6268 12.4366 45.4035 12.7652 45.2463C13.0939 45.0856 13.4601 45.0052 13.8637 45.0052C14.5711 45.0052 15.1033 45.1767 15.4606 45.5196C15.8178 45.859 15.9964 46.4038 15.9964 47.154V50.9854H15.1069ZM21.4408 50.9854L21.2639 50.1494H21.2211C20.9281 50.5174 20.6352 50.7674 20.3422 50.8996C20.0529 51.0282 19.6903 51.0925 19.2545 51.0925C18.6722 51.0925 18.2149 50.9425 17.8827 50.6424C17.554 50.3423 17.3897 49.9154 17.3897 49.3617C17.3897 48.1757 18.3381 47.5541 20.2351 47.4969L21.2318 47.4648V47.1004C21.2318 46.6395 21.1317 46.3002 20.9317 46.0823C20.7352 45.8608 20.4191 45.75 19.9832 45.75C19.4938 45.75 18.9401 45.9001 18.3221 46.2001L18.0488 45.5196C18.3381 45.3624 18.6543 45.2392 18.9972 45.1499C19.3438 45.0606 19.6903 45.0159 20.0368 45.0159C20.737 45.0159 21.255 45.1713 21.5908 45.4821C21.9302 45.7929 22.0999 46.2912 22.0999 46.9771V50.9854H21.4408ZM19.4313 50.3584C19.985 50.3584 20.4191 50.2066 20.7334 49.9029C21.0514 49.5993 21.2103 49.1742 21.2103 48.6276V48.0971L20.3208 48.1346C19.6135 48.1596 19.1026 48.2703 18.7883 48.4668C18.4775 48.6597 18.3221 48.9616 18.3221 49.3724C18.3221 49.6939 18.4185 49.9386 18.6114 50.1065C18.8079 50.2744 19.0812 50.3584 19.4313 50.3584ZM24.8274 50.9854H23.9379V42.6474H24.8274V50.9854ZM25.7812 45.1124H26.735L28.0211 48.4615C28.3033 49.226 28.4783 49.7779 28.5462 50.1173H28.5891C28.6355 49.9351 28.732 49.6243 28.8785 49.1849C29.0285 48.7419 29.5143 47.3844 30.336 45.1124H31.2898L28.7659 51.7999C28.5159 52.4607 28.2229 52.9287 27.8871 53.2038C27.5549 53.4824 27.1459 53.6218 26.66 53.6218C26.3885 53.6218 26.1206 53.5914 25.8562 53.5307V52.818C26.0527 52.8609 26.2724 52.8823 26.5153 52.8823C27.1262 52.8823 27.562 52.5393 27.8228 51.8534L28.1497 51.0175L25.7812 45.1124ZM36.0321 49.3831C36.0321 49.9297 35.8285 50.3513 35.4213 50.6478C35.014 50.9443 34.4424 51.0925 33.7065 51.0925C32.9277 51.0925 32.3204 50.9693 31.8846 50.7228V49.8976C32.1668 50.0405 32.4687 50.153 32.7902 50.2352C33.1153 50.3173 33.4279 50.3584 33.728 50.3584C34.1924 50.3584 34.5496 50.2852 34.7997 50.1387C35.0497 49.9887 35.1748 49.7618 35.1748 49.4582C35.1748 49.2295 35.0748 49.0348 34.8747 48.8741C34.6782 48.7097 34.2924 48.5168 33.7172 48.2953C33.1707 48.0917 32.7813 47.9149 32.5491 47.7648C32.3204 47.6112 32.149 47.438 32.0347 47.2451C31.9239 47.0522 31.8685 46.8217 31.8685 46.5538C31.8685 46.0751 32.0632 45.6982 32.4526 45.4232C32.842 45.1445 33.3761 45.0052 34.0548 45.0052C34.6871 45.0052 35.3052 45.1338 35.9089 45.391L35.5927 46.1144C35.0033 45.8715 34.4692 45.75 33.9905 45.75C33.569 45.75 33.2511 45.8161 33.0367 45.9483C32.8224 46.0805 32.7152 46.2627 32.7152 46.4949C32.7152 46.6521 32.7545 46.786 32.8331 46.8968C32.9152 47.0075 33.0456 47.1129 33.2243 47.2129C33.4029 47.3129 33.7458 47.4576 34.2531 47.647C34.9497 47.9006 35.4195 48.156 35.6624 48.4132C35.9089 48.6704 36.0321 48.9937 36.0321 49.3831ZM38.3738 50.9854H37.4843V45.1124H38.3738V50.9854ZM37.4093 43.5209C37.4093 43.3172 37.4593 43.169 37.5593 43.0761C37.6594 42.9796 37.7844 42.9314 37.9344 42.9314C38.0773 42.9314 38.2006 42.9796 38.3042 43.0761C38.4078 43.1726 38.4596 43.3208 38.4596 43.5209C38.4596 43.7209 38.4078 43.871 38.3042 43.971C38.2006 44.0674 38.0773 44.1157 37.9344 44.1157C37.7844 44.1157 37.6594 44.0674 37.5593 43.971C37.4593 43.871 37.4093 43.7209 37.4093 43.5209ZM44.0486 49.3831C44.0486 49.9297 43.845 50.3513 43.4377 50.6478C43.0304 50.9443 42.4589 51.0925 41.723 51.0925C40.9442 51.0925 40.3369 50.9693 39.901 50.7228V49.8976C40.1833 50.0405 40.4851 50.153 40.8066 50.2352C41.1317 50.3173 41.4443 50.3584 41.7444 50.3584C42.2088 50.3584 42.566 50.2852 42.8161 50.1387C43.0662 49.9887 43.1912 49.7618 43.1912 49.4582C43.1912 49.2295 43.0912 49.0348 42.8911 48.8741C42.6946 48.7097 42.3088 48.5168 41.7337 48.2953C41.1871 48.0917 40.7977 47.9149 40.5655 47.7648C40.3369 47.6112 40.1654 47.438 40.0511 47.2451C39.9403 47.0522 39.885 46.8217 39.885 46.5538C39.885 46.0751 40.0797 45.6982 40.469 45.4232C40.8584 45.1445 41.3925 45.0052 42.0713 45.0052C42.7036 45.0052 43.3216 45.1338 43.9253 45.391L43.6092 46.1144C43.0197 45.8715 42.4857 45.75 42.007 45.75C41.5854 45.75 41.2675 45.8161 41.0531 45.9483C40.8388 46.0805 40.7316 46.2627 40.7316 46.4949C40.7316 46.6521 40.7709 46.786 40.8495 46.8968C40.9317 47.0075 41.0621 47.1129 41.2407 47.2129C41.4193 47.3129 41.7623 47.4576 42.2695 47.647C42.9661 47.9006 43.4359 48.156 43.6788 48.4132C43.9253 48.6704 44.0486 48.9937 44.0486 49.3831Z" fill="#434141"/>
</svg>
