<svg width="42" height="17" viewBox="0 0 42 17" fill="none" xmlns="http://www.w3.org/2000/svg">
<g clip-path="url(#clip0_393_14820)">
<path d="M7.6742 2.18365C7.18202 2.75569 6.39435 3.20704 5.60677 3.1425C5.50833 2.36904 5.89388 1.54708 6.34513 1.03942C6.83732 0.451265 7.69881 0.0322275 8.39616 0C8.47819 0.805768 8.15819 1.59542 7.6742 2.18365ZM8.38796 3.29566C7.24756 3.23121 6.27131 3.93216 5.72982 3.93216C5.18021 3.93216 4.35153 3.32789 3.4491 3.344C2.27597 3.36012 1.18479 4.01273 0.585883 5.05222C-0.644749 7.13114 0.265961 10.2093 1.4555 11.9014C2.038 12.7394 2.73535 13.6579 3.65418 13.6257C4.52388 13.5935 4.86841 13.0698 5.91857 13.0698C6.97686 13.0698 7.28045 13.6257 8.19929 13.6096C9.15093 13.5935 9.74984 12.7717 10.3323 11.9336C10.9968 10.9828 11.2676 10.0561 11.284 10.0078C11.2676 9.99165 9.44633 9.30682 9.42992 7.24393C9.41351 5.5196 10.8656 4.69772 10.9313 4.64938C10.1108 3.4568 8.83101 3.32789 8.38796 3.29566ZM14.9759 0.958848V13.521H16.9612V9.22625H19.7096C22.22 9.22625 23.9839 7.53414 23.9839 5.08453C23.9839 2.635 22.2528 0.958929 19.7752 0.958929H14.9758L14.9759 0.958848ZM16.9612 2.60269H19.2501C20.973 2.60269 21.9575 3.50514 21.9575 5.09251C21.9575 6.67987 20.973 7.59046 19.2419 7.59046H16.9612V2.60269ZM27.6101 13.6176C28.8571 13.6176 30.0139 12.9973 30.5389 12.0142H30.58V13.521H32.4177V7.2681C32.4177 5.45515 30.941 4.28674 28.6684 4.28674C26.5599 4.28674 25.0012 5.47126 24.9437 7.09891H26.7323C26.8799 6.32537 27.61 5.81771 28.611 5.81771C29.8252 5.81771 30.5061 6.37371 30.5061 7.39709V8.08999L28.0285 8.23501C25.7231 8.37198 24.4762 9.29868 24.4762 10.9103C24.4762 12.5379 25.7641 13.6176 27.6101 13.6176ZM28.1433 12.127C27.0851 12.127 26.4123 11.6274 26.4123 10.8619C26.4123 10.0723 27.0604 9.61298 28.2992 9.54047L30.5061 9.4035V10.1125C30.5061 11.289 29.4889 12.127 28.1434 12.127H28.1433ZM34.8707 16.9375C36.8069 16.9375 37.7175 16.2124 38.5133 14.0125L42 4.40759H39.9818L37.6437 11.8288H37.6026L35.2645 4.40759H33.1889L36.5525 13.5532L36.372 14.1092C36.0685 15.0519 35.5762 15.4146 34.6984 15.4146C34.5426 15.4146 34.239 15.3985 34.1159 15.3823V16.8891C34.2308 16.9214 34.7229 16.9375 34.8707 16.9375Z" fill="black"/>
</g>
<defs>
<clipPath id="clip0_393_14820">
<rect width="42" height="17" fill="white"/>
</clipPath>
</defs>
</svg>
