<svg width="30" height="64" viewBox="0 0 30 64" fill="none" xmlns="http://www.w3.org/2000/svg">
<g style="mix-blend-mode:multiply">
<path opacity="0.04" d="M24.2451 52.4158L15.3879 63.0576C15.2795 63.1944 15.1416 63.3049 14.9844 63.3809C14.8272 63.4569 14.6549 63.4964 14.4803 63.4964C14.3057 63.4964 14.1334 63.4569 13.9763 63.3809C13.8191 63.3049 13.6811 63.1944 13.5727 63.0576L4.79878 52.3969C1.70717 48.6437 0 43.7909 0 38.7643V3.5562C14.4036 -4.41889 29.1111 3.5562 29.1111 3.5562V38.7015C29.1111 43.7661 27.3776 48.6525 24.2451 52.4158Z" fill="#FAFAFA"/>
<path opacity="0.08" d="M24.2451 52.1718L15.3879 62.7624C15.2784 62.8975 15.1401 63.0065 14.9831 63.0814C14.826 63.1562 14.6543 63.1951 14.4803 63.1951C14.3064 63.1951 14.1346 63.1562 13.9776 63.0814C13.8206 63.0065 13.6822 62.8975 13.5727 62.7624L4.79878 52.1469C1.70717 48.4113 0 43.5804 0 38.5772V3.52826C14.4036 -4.41032 29.1111 3.52826 29.1111 3.52826V38.5202C29.1111 43.5614 27.3776 48.4245 24.2451 52.1718Z" fill="#F5F5F6"/>
<path opacity="0.12" d="M24.2451 51.9263L15.3879 62.4687C15.2784 62.6039 15.1401 62.7128 14.9831 62.7877C14.826 62.8626 14.6543 62.9014 14.4803 62.9014C14.3064 62.9014 14.1346 62.8626 13.9776 62.7877C13.8206 62.7128 13.6822 62.6039 13.5727 62.4687L4.79878 51.9132C1.70717 48.1951 0 43.3875 0 38.4076V3.52375C14.4036 -4.37832 29.1111 3.52375 29.1111 3.52375V38.3405C29.1111 43.3583 27.3776 48.2038 24.2451 51.9263Z" fill="#F0F1F1"/>
<path opacity="0.15" d="M24.2451 51.681L15.3879 62.1737C15.2784 62.3089 15.1401 62.4179 14.9831 62.4927C14.826 62.5676 14.6543 62.6064 14.4803 62.6064C14.3064 62.6064 14.1346 62.5676 13.9776 62.4927C13.8206 62.4179 13.6822 62.3089 13.5727 62.1737L4.79878 51.6678C1.70717 47.9658 0 43.1816 0 38.2251V3.50623C14.4036 -4.35642 29.1111 3.50623 29.1111 3.50623V38.1594C29.1111 43.1539 27.3776 47.9702 24.2451 51.681Z" fill="#EBECEC"/>
<path opacity="0.19" d="M24.2451 51.4369L15.3879 61.8786C15.2784 62.0137 15.1401 62.1227 14.9831 62.1975C14.826 62.2724 14.6543 62.3112 14.4803 62.3112C14.3064 62.3112 14.1346 62.2724 13.9776 62.1975C13.8206 62.1227 13.6822 62.0137 13.5727 61.8786L4.79878 51.4165C1.70717 47.7334 0 42.9711 0 38.038V3.49C14.4036 -4.33613 29.1111 3.49 29.1111 3.49V37.9811C29.1111 42.9463 27.3776 47.7436 24.2451 51.4369Z" fill="#E7E7E8"/>
<path opacity="0.23" d="M24.2452 51.1922L15.3881 61.5857C15.2785 61.7208 15.1402 61.8298 14.9832 61.9047C14.8261 61.9795 14.6544 62.0184 14.4804 62.0184C14.3065 62.0184 14.1347 61.9795 13.9777 61.9047C13.8207 61.8298 13.6824 61.7208 13.5728 61.5857L4.7989 51.1805C1.68268 47.4447 -0.0165218 42.7297 0.000121105 37.8649V3.47312C14.4038 -4.31504 29.1112 3.47312 29.1112 3.47312V37.7919C29.1297 42.6944 27.405 47.4438 24.2452 51.1922Z" fill="#E2E2E3"/>
<path opacity="0.27" d="M24.2452 50.9482L15.388 61.2905C15.2775 61.424 15.1388 61.5315 14.9819 61.6053C14.825 61.679 14.6538 61.7173 14.4804 61.7173C14.3071 61.7173 14.1358 61.679 13.979 61.6053C13.8221 61.5315 13.6834 61.424 13.5728 61.2905L4.79888 50.9336C1.68464 47.2217 -0.0153334 42.5274 0.000104225 37.6822V3.4569C14.4037 -4.29475 29.1112 3.4569 29.1112 3.4569V37.6179C29.1267 42.4987 27.4014 47.2251 24.2452 50.9482Z" fill="#DDDDDE"/>
<path opacity="0.31" d="M24.2452 50.7027L15.388 60.9968C15.277 61.1297 15.1382 61.2365 14.9814 61.3098C14.8245 61.3831 14.6535 61.4211 14.4804 61.4211C14.3073 61.4211 14.1363 61.3831 13.9795 61.3098C13.8226 61.2365 13.6838 61.1297 13.5728 60.9968L4.79886 50.6866C1.68689 46.998 -0.0137849 42.324 8.41607e-05 37.498V3.44067C14.4037 -4.27447 29.1111 3.44067 29.1111 3.44067V37.4367C29.1252 42.2978 27.3991 47.0035 24.2452 50.7027Z" fill="#D8D9D9"/>
<path opacity="0.35" d="M24.2452 50.457L15.388 60.7015C15.2766 60.8337 15.1376 60.9399 14.9808 61.0128C14.8241 61.0856 14.6533 61.1234 14.4804 61.1234C14.3075 61.1234 14.1367 61.0856 13.98 61.0128C13.8232 60.9399 13.6842 60.8337 13.5728 60.7015L4.79885 50.4439C1.68878 46.7793 -0.0126956 42.1259 7.13272e-05 37.3195V3.42282C14.4037 -4.25435 29.1111 3.42282 29.1111 3.42282V37.2509C29.1248 42.0939 27.3979 46.7807 24.2452 50.457Z" fill="#D3D4D5"/>
<path opacity="0.38" d="M24.2451 50.2133L15.388 60.4067C15.2763 60.5384 15.1372 60.6442 14.9805 60.7168C14.8237 60.7893 14.6531 60.8269 14.4804 60.8269C14.3077 60.8269 14.137 60.7893 13.9803 60.7168C13.8235 60.6442 13.6845 60.5384 13.5728 60.4067L4.79883 50.2001C1.6912 46.5588 -0.0109832 41.9257 5.33333e-05 37.1386V3.40692C14.4037 -4.23228 29.1111 3.40692 29.1111 3.40692V37.0743C29.1224 41.8967 27.3948 46.5615 24.2451 50.2133Z" fill="#CECFD0"/>
<path opacity="0.42" d="M24.2451 49.9678L15.388 60.113C15.276 60.2443 15.1368 60.3497 14.9801 60.4219C14.8234 60.4942 14.6529 60.5317 14.4804 60.5317C14.3078 60.5317 14.1373 60.4942 13.9806 60.4219C13.8239 60.3497 13.6848 60.2443 13.5727 60.113L4.79882 49.9561C1.69313 46.3389 -0.00986747 41.7264 4.30124e-05 36.9588V3.39069C14.4037 -4.212 29.1111 3.39069 29.1111 3.39069V36.8945C29.1206 41.6968 27.3922 46.3404 24.2451 49.9678Z" fill="#C9CACB"/>
<path opacity="0.46" d="M24.2451 49.7245L15.388 59.8186C15.2755 59.9492 15.1363 60.0541 14.9796 60.1259C14.823 60.1978 14.6527 60.235 14.4803 60.235C14.308 60.235 14.1377 60.1978 13.9811 60.1259C13.8244 60.0541 13.6852 59.9492 13.5727 59.8186L4.79881 49.7099C1.69536 46.1166 -0.00841635 41.5248 3.12633e-05 36.7769V3.37089C14.4037 -4.19384 29.1111 3.37089 29.1111 3.37089V36.7112C29.1199 41.4953 27.3907 46.1199 24.2451 49.7245Z" fill="#C4C5C7"/>
<path opacity="0.5" d="M24.2451 49.479L15.388 59.5235C15.2753 59.6537 15.1359 59.7581 14.9793 59.8296C14.8227 59.9012 14.6525 59.9383 14.4803 59.9383C14.3082 59.9383 14.138 59.9012 13.9814 59.8296C13.8248 59.7581 13.6854 59.6537 13.5727 59.5235L4.7988 49.4659C1.69758 45.896 -0.00697155 41.3244 2.14316e-05 36.5956V3.35759C14.4037 -4.17062 29.1111 3.35759 29.1111 3.35759V36.5329C29.1178 41.2965 27.3878 45.8991 24.2451 49.479Z" fill="#C0C1C2"/>
<path opacity="0.54" d="M24.2451 49.2335L15.3879 59.2298C15.2747 59.3591 15.1352 59.4628 14.9787 59.5338C14.8221 59.6048 14.6522 59.6415 14.4803 59.6415C14.3084 59.6415 14.1386 59.6048 13.982 59.5338C13.8255 59.4628 13.6859 59.3591 13.5727 59.2298L4.79879 49.2204C1.69963 45.6746 -0.00575195 41.1237 1.45763e-05 36.4144V3.34137C14.4037 -4.15034 29.1111 3.34137 29.1111 3.34137V36.3458C29.1182 41.0919 27.3872 45.6764 24.2451 49.2335Z" fill="#BBBCBD"/>
<path opacity="0.58" d="M24.2451 48.9897L15.3879 58.9348C15.2745 59.0637 15.1348 59.167 14.9783 59.2377C14.8218 59.3084 14.6521 59.345 14.4803 59.345C14.3086 59.345 14.1388 59.3084 13.9823 59.2377C13.8258 59.167 13.6862 59.0637 13.5727 58.9348L4.79879 48.9765C1.70125 45.4529 -0.00493411 40.9205 1.07182e-05 36.2289V3.32385C14.4037 -4.12405 29.1111 3.32385 29.1111 3.32385V36.172C29.1146 40.8965 27.383 45.4578 24.2451 48.9897Z" fill="#B6B7B9"/>
<path opacity="0.62" d="M24.2451 48.7442L15.3879 58.6411C15.2741 58.7694 15.1343 58.8721 14.9779 58.9424C14.8214 59.0127 14.6518 59.0491 14.4803 59.0491C14.3088 59.0491 14.1392 59.0127 13.9828 58.9424C13.8263 58.8721 13.6866 58.7694 13.5727 58.6411L4.79878 48.7325C1.70468 45.2345 -0.0022652 40.725 2.25612e-06 36.055V3.30761C14.4036 -4.10815 29.1111 3.30761 29.1111 3.30761V35.9907C29.1125 40.6956 27.3801 45.236 24.2451 48.7442Z" fill="#B1B2B4"/>
<path opacity="0.65" d="M24.2451 48.4957L15.3879 58.3416C15.2737 58.4692 15.1338 58.5713 14.9774 58.6413C14.821 58.7112 14.6516 58.7473 14.4803 58.7473C14.309 58.7473 14.1396 58.7112 13.9832 58.6413C13.8268 58.5713 13.6869 58.4692 13.5727 58.3416L4.79878 48.4826C1.707 45.0081 -0.000745565 40.5189 2.4418e-07 35.8679V3.29139C14.4036 -4.08787 29.1111 3.29139 29.1111 3.29139V35.8095C29.1105 40.4939 27.3773 45.0125 24.2451 48.4957Z" fill="#ACADAF"/>
<path opacity="0.69" d="M24.2451 48.2554L15.3879 58.0516C15.2734 58.1788 15.1335 58.2806 14.9771 58.3503C14.8208 58.4199 14.6515 58.4559 14.4803 58.4559C14.3091 58.4559 14.1399 58.4199 13.9835 58.3503C13.8272 58.2806 13.6872 58.1788 13.5727 58.0516L4.79878 48.2423C1.70939 44.7918 0.00080983 40.3233 0 35.6918V3.27451C14.4036 -4.06677 29.1111 3.27451 29.1111 3.27451V35.6305C29.1098 40.2964 27.3757 44.7956 24.2451 48.2554Z" fill="#A7A8AB"/>
<path opacity="0.73" d="M24.2451 48.0096L15.3879 57.7576C15.2731 57.8842 15.133 57.9854 14.9767 58.0547C14.8204 58.124 14.6513 58.1597 14.4803 58.1597C14.3093 58.1597 14.1403 58.124 13.9839 58.0547C13.8276 57.9854 13.6876 57.8842 13.5727 57.7576L4.79878 47.9994C1.71188 44.5723 0.0025047 40.1241 0 35.5117V3.25797C14.4036 -4.04389 29.1111 3.25797 29.1111 3.25797V35.4489C29.1084 40.0954 27.3734 44.574 24.2451 48.0096Z" fill="#A2A4A6"/>
<path opacity="0.77" d="M24.2451 47.7659L15.3879 57.4627C15.2727 57.5888 15.1325 57.6894 14.9763 57.7583C14.82 57.8272 14.6511 57.8628 14.4803 57.8628C14.3095 57.8628 14.1406 57.8272 13.9844 57.7583C13.8281 57.6894 13.6879 57.5888 13.5727 57.4627L4.79878 47.7527C1.71432 44.3497 0.00409408 39.9222 0 35.3293V3.24206C14.4036 -4.02621 29.1111 3.24206 29.1111 3.24206V35.268C29.1066 39.8954 27.3708 44.3537 24.2451 47.7659Z" fill="#9D9FA1"/>
<path opacity="0.81" d="M24.2451 47.5202L15.3879 57.1674C15.2724 57.2929 15.132 57.393 14.9758 57.4615C14.8196 57.53 14.6509 57.5654 14.4803 57.5654C14.3097 57.5654 14.141 57.53 13.9848 57.4615C13.8286 57.393 13.6883 57.2929 13.5727 57.1674L4.79878 47.5085C1.71699 44.1289 0.00596857 39.7217 0 35.1479V3.22421C14.4036 -4.00609 29.1111 3.22421 29.1111 3.22421V35.0866C29.1051 39.6946 27.3684 44.1322 24.2451 47.5202Z" fill="#989A9C"/>
<path opacity="0.85" d="M24.2451 47.2765L15.3879 56.874C15.2719 56.9987 15.1314 57.0982 14.9753 57.1661C14.8191 57.2341 14.6506 57.2692 14.4803 57.2692C14.31 57.2692 14.1415 57.2341 13.9854 57.1661C13.8292 57.0982 13.6887 56.9987 13.5727 56.874L4.79878 47.2633C1.71924 43.908 0.00731051 39.5213 0 34.967V3.20831C14.4036 -3.98402 29.1111 3.20831 29.1111 3.20831V34.9144C29.1011 39.5004 27.3637 43.9142 24.2451 47.2765Z" fill="#949598"/>
<path opacity="0.88" d="M24.2451 47.0354L15.3879 56.5833C15.2717 56.7076 15.1311 56.8066 14.975 56.8744C14.8189 56.9421 14.6505 56.9771 14.4803 56.9771C14.3101 56.9771 14.1417 56.9421 13.9856 56.8744C13.8295 56.8066 13.689 56.7076 13.5727 56.5833L4.79878 47.0237C1.72197 43.6917 0.0092264 39.3254 0 34.7901V3.19208C14.4036 -3.96374 29.1111 3.19208 29.1111 3.19208V34.7259C29.1027 39.2965 27.3641 43.6944 24.2451 47.0354Z" fill="#8F9093"/>
<path opacity="0.92" d="M24.2451 46.7863L15.3879 56.2787C15.2713 56.4024 15.1307 56.501 14.9746 56.5684C14.8185 56.6357 14.6503 56.6705 14.4803 56.6705C14.3103 56.6705 14.1421 56.6357 13.986 56.5684C13.83 56.501 13.6893 56.4024 13.5727 56.2787L4.79878 46.7688C1.72426 43.4611 0.0105985 39.1154 0 34.5995V3.17521C14.4036 -3.94264 29.1111 3.17521 29.1111 3.17521V34.5454C29.0999 39.0951 27.3605 43.4706 24.2451 46.7863Z" fill="#8A8C8E"/>
<path opacity="0.96" d="M24.2451 46.5422L15.3879 55.9908C15.2709 56.1138 15.1301 56.2117 14.9741 56.2786C14.8181 56.3455 14.6501 56.38 14.4803 56.38C14.3106 56.38 14.1426 56.3455 13.9866 56.2786C13.8305 56.2117 13.6897 56.1138 13.5727 55.9908L4.79878 46.5306C1.72705 43.2463 0.012557 38.9209 0 34.4241V3.15898C14.4036 -3.92236 29.1111 3.15898 29.1111 3.15898V34.3642C29.0981 38.8949 27.3579 43.2502 24.2451 46.5422Z" fill="#85878A"/>
<path d="M24.2451 46.2967L15.3879 55.6957C15.2707 55.8183 15.1298 55.9158 14.9738 55.9825C14.8178 56.0492 14.65 56.0835 14.4803 56.0835C14.3107 56.0835 14.1428 56.0492 13.9868 55.9825C13.8308 55.9158 13.69 55.8183 13.5727 55.6957L4.79878 46.285C1.72953 43.025 0.0141064 38.7203 0 34.2428V3.14276C14.4036 -3.90208 29.1111 3.14276 29.1111 3.14276V34.1844C29.096 38.6952 27.3549 43.0292 24.2451 46.2967Z" fill="#808285"/>
</g>
<path d="M24.2451 46.2967L15.3879 55.6957C15.2707 55.8183 15.1298 55.9158 14.9738 55.9825C14.8178 56.0492 14.65 56.0835 14.4803 56.0835C14.3107 56.0835 14.1428 56.0492 13.9868 55.9825C13.8308 55.9158 13.69 55.8183 13.5727 55.6957L4.79878 46.285C1.72953 43.025 0.0141064 38.7203 0 34.2428V3.14276C14.4036 -3.90208 29.1111 3.14276 29.1111 3.14276V34.1844C29.096 38.6952 27.3549 43.0292 24.2451 46.2967Z" fill="url(#paint0_linear_1195_935)"/>
<g style="mix-blend-mode:multiply">
<path opacity="0.17" d="M15.0931 9.24904C20.3914 9.3279 24.6147 14.0683 24.5227 19.8294C24.4307 25.5906 20.0599 30.1981 14.7616 30.1221C9.46339 30.0462 5.23999 25.3029 5.33053 19.5417C5.42107 13.7806 9.79344 9.17018 15.0931 9.24904Z" fill="#D6D8DE"/>
<path opacity="0.33" d="M14.9579 9.63284C20.151 9.71024 24.2897 14.2622 24.2021 19.7985C24.1145 25.3348 19.8326 29.7597 14.641 29.6823C9.44939 29.6049 5.30925 25.0544 5.39687 19.5166C5.4845 13.9789 9.7663 9.55544 14.9579 9.63284Z" fill="#B7B9BE"/>
<path opacity="0.5" d="M14.8233 10.0166C19.9098 10.0925 23.9652 14.4576 23.8776 19.7675C23.79 25.0774 19.6016 29.3183 14.5166 29.2424C9.43162 29.1664 5.37471 24.8014 5.46233 19.4915C5.54995 14.1816 9.73829 9.94211 14.8233 10.0166Z" fill="#999A9D"/>
<path opacity="0.67" d="M14.6894 10.3994C19.6693 10.4739 23.6401 14.655 23.5597 19.7371C23.4794 24.8192 19.3772 28.8775 14.3974 28.8045C9.41751 28.7315 5.44822 24.549 5.52854 19.4669C5.60886 14.3848 9.71104 10.325 14.6894 10.3994Z" fill="#7A7A7C"/>
<path opacity="0.83" d="M14.5546 10.7838C16.2914 10.8174 17.9793 11.3649 19.4052 12.357C20.8311 13.3491 21.9312 14.7414 22.5665 16.3582C23.2019 17.9749 23.344 19.7437 22.975 21.4411C22.606 23.1386 21.7424 24.6887 20.4931 25.8958C19.2439 27.1028 17.6651 27.9128 15.956 28.2233C14.2468 28.5339 12.484 28.3312 10.89 27.6408C9.29599 26.9503 7.94225 25.8032 6.99965 24.344C6.05704 22.8849 5.56782 21.1792 5.59375 19.4423C5.61181 18.2849 5.85811 17.1424 6.31856 16.0803C6.779 15.0182 7.44452 14.0575 8.27697 13.2531C9.10943 12.4487 10.0925 11.8165 11.1697 11.3928C12.2469 10.9691 13.3972 10.7621 14.5546 10.7838Z" fill="#5B5B5C"/>
<path d="M14.42 11.168C19.1852 11.2396 22.9895 15.0468 22.9165 19.6761C22.8435 24.3055 18.9209 28.0003 14.1543 27.9258C9.38761 27.8513 5.5848 24.0456 5.65928 19.4177C5.73376 14.7897 9.65485 11.0965 14.42 11.168Z" fill="#1A1A1A"/>
</g>
<path d="M14.4309 10.919C19.3596 10.9935 23.2924 14.9321 23.2165 19.7192C23.1405 24.5063 19.0851 28.3252 14.1622 28.2521C9.23925 28.1791 5.29916 24.2376 5.3751 19.4519C5.45104 14.6663 9.50065 10.846 14.4309 10.919Z" fill="url(#paint1_linear_1195_935)"/>
<path d="M22.2937 19.7058C22.2251 23.9949 18.5888 27.4209 14.1697 27.3552C9.7506 27.2895 6.22381 23.7568 6.29098 19.4692C6.35816 15.1815 9.99741 11.7526 14.4165 11.8183C18.8356 11.884 22.3682 15.4137 22.2937 19.7058Z" fill="url(#paint2_linear_1195_935)"/>
<path style="mix-blend-mode:color-dodge" d="M13.7625 30.5892C19.6914 30.5892 24.4977 25.6195 24.4977 19.489C24.4977 13.3584 19.6914 8.38867 13.7625 8.38867C7.83364 8.38867 3.02734 13.3584 3.02734 19.489C3.02734 25.6195 7.83364 30.5892 13.7625 30.5892Z" fill="url(#paint3_radial_1195_935)"/>
<path style="mix-blend-mode:color-dodge" d="M13.8481 13.7468C16.9149 13.795 19.3625 16.4061 19.3143 19.5766C19.2661 22.747 16.744 25.2793 13.6773 25.2297C10.6105 25.18 8.16291 22.5718 8.20964 19.3999C8.25637 16.2279 10.7814 13.6986 13.8481 13.7468Z" fill="url(#paint4_radial_1195_935)"/>
<defs>
<linearGradient id="paint0_linear_1195_935" x1="0" y1="28.0465" x2="29.1111" y2="28.0465" gradientUnits="userSpaceOnUse">
<stop stop-color="#323232"/>
<stop offset="0.42" stop-color="#424242"/>
<stop offset="0.46" stop-color="#484848"/>
<stop offset="0.56" stop-color="#525252"/>
<stop offset="0.69" stop-color="#555555"/>
<stop offset="1" stop-color="#5C5C5C"/>
</linearGradient>
<linearGradient id="paint1_linear_1195_935" x1="19.7159" y1="25.5914" x2="8.28373" y2="12.9749" gradientUnits="userSpaceOnUse">
<stop stop-color="#BFC1C5"/>
<stop offset="0.02" stop-color="#B7BABD"/>
<stop offset="0.06" stop-color="#A3A5A8"/>
<stop offset="0.08" stop-color="#A8ABAC"/>
<stop offset="0.09" stop-color="#C3C5C6"/>
<stop offset="0.1" stop-color="#EAEBEB"/>
<stop offset="0.11" stop-color="#F5F6F7"/>
<stop offset="0.13" stop-color="#FCFDFD"/>
<stop offset="0.16" stop-color="#FEFFFF"/>
<stop offset="0.18" stop-color="#F1F2F3"/>
<stop offset="0.2" stop-color="#CFD1D3"/>
<stop offset="0.23" stop-color="#999BA0"/>
<stop offset="0.25" stop-color="#6B6D75"/>
<stop offset="0.26" stop-color="#7B7E84"/>
<stop offset="0.27" stop-color="#87898F"/>
<stop offset="0.29" stop-color="#8D9095"/>
<stop offset="0.35" stop-color="#8F9297"/>
<stop offset="0.36" stop-color="#8B8E93"/>
<stop offset="0.38" stop-color="#808388"/>
<stop offset="0.4" stop-color="#6E7176"/>
<stop offset="0.41" stop-color="#54575C"/>
<stop offset="0.42" stop-color="#4D5055"/>
<stop offset="0.44" stop-color="#696B70"/>
<stop offset="0.46" stop-color="#848589"/>
<stop offset="0.49" stop-color="#9A9B9E"/>
<stop offset="0.52" stop-color="#ABABAE"/>
<stop offset="0.55" stop-color="#B6B7BA"/>
<stop offset="0.61" stop-color="#BDBDC0"/>
<stop offset="0.75" stop-color="#BFBFC2"/>
<stop offset="0.8" stop-color="#BDBDC0"/>
<stop offset="0.82" stop-color="#B6B7B9"/>
<stop offset="0.83" stop-color="#ABABAE"/>
<stop offset="0.85" stop-color="#858587"/>
<stop offset="0.86" stop-color="#6A6B6B"/>
<stop offset="0.87" stop-color="#4A4B4B"/>
<stop offset="0.88" stop-color="#1A1B1A"/>
<stop offset="0.93" stop-color="#3C3D3D"/>
<stop offset="0.94" stop-color="#5D5F60"/>
<stop offset="0.95" stop-color="#797C7D"/>
<stop offset="0.96" stop-color="#8F9293"/>
<stop offset="0.97" stop-color="#9EA1A3"/>
<stop offset="0.98" stop-color="#A7AAAC"/>
<stop offset="1" stop-color="#AAADAF"/>
</linearGradient>
<linearGradient id="paint2_linear_1195_935" x1="8.89056" y1="24.4684" x2="20.2347" y2="14.1896" gradientUnits="userSpaceOnUse">
<stop stop-color="#BFC1C5"/>
<stop offset="0.05" stop-color="#B1B3B7"/>
<stop offset="0.18" stop-color="#909395"/>
<stop offset="0.24" stop-color="#979A9B"/>
<stop offset="0.33" stop-color="#ABACAD"/>
<stop offset="0.41" stop-color="#C2C2C2"/>
<stop offset="0.44" stop-color="#B7B7B7"/>
<stop offset="0.57" stop-color="#8F8F8F"/>
<stop offset="0.63" stop-color="#808080"/>
<stop offset="0.68" stop-color="#8B8B8B"/>
<stop offset="0.76" stop-color="#A7A7A8"/>
<stop offset="0.83" stop-color="#BFBFC2"/>
<stop offset="0.87" stop-color="#BDBDC0"/>
<stop offset="0.88" stop-color="#B6B7B9"/>
<stop offset="0.89" stop-color="#ABABAE"/>
<stop offset="0.9" stop-color="#9A9B9D"/>
<stop offset="0.91" stop-color="#6A6B6B"/>
<stop offset="0.92" stop-color="#4A4B4B"/>
<stop offset="0.93" stop-color="#3C3D3D"/>
<stop offset="0.94" stop-color="#5D5F60"/>
<stop offset="0.95" stop-color="#797C7D"/>
<stop offset="0.96" stop-color="#8F9293"/>
<stop offset="0.97" stop-color="#9EA1A3"/>
<stop offset="0.98" stop-color="#A7AAAC"/>
<stop offset="1" stop-color="#AAADAF"/>
</linearGradient>
<radialGradient id="paint3_radial_1195_935" cx="0" cy="0" r="1" gradientUnits="userSpaceOnUse" gradientTransform="translate(12.1546 19.6749) rotate(-89.2361) scale(11.0896 10.72)">
<stop stop-color="#FFDD99"/>
<stop offset="0.34" stop-color="#E1C089"/>
<stop offset="0.51" stop-color="#9C855F"/>
<stop offset="0.68" stop-color="#5A4D37"/>
<stop offset="0.83" stop-color="#292319"/>
<stop offset="0.94" stop-color="#0B0A07"/>
<stop offset="1"/>
</radialGradient>
<radialGradient id="paint4_radial_1195_935" cx="0" cy="0" r="1" gradientUnits="userSpaceOnUse" gradientTransform="translate(12.1541 19.6749) rotate(-89.2361) scale(5.73758 5.54636)">
<stop stop-color="#FFDD99"/>
<stop offset="0.34" stop-color="#E1C089"/>
<stop offset="0.51" stop-color="#9C855F"/>
<stop offset="0.68" stop-color="#5A4D37"/>
<stop offset="0.83" stop-color="#292319"/>
<stop offset="0.94" stop-color="#0B0A07"/>
<stop offset="1"/>
</radialGradient>
</defs>
</svg>
