<svg width="322" height="260" viewBox="0 0 322 260" fill="none" xmlns="http://www.w3.org/2000/svg">
<mask id="mask0_393_24691" style="mask-type:luminance" maskUnits="userSpaceOnUse" x="37" y="2" width="257" height="251">
<path d="M37.0001 252.046L293.865 252.046L293.865 1.99998L37.0001 1.99998L37.0001 252.046Z" fill="white"/>
</mask>
<g mask="url(#mask0_393_24691)">
<path d="M52.3215 227.505C52.3215 227.505 50.1083 231.202 50.4305 233.907C50.7527 236.611 53.1825 238.729 53.8744 240.446C54.5664 242.163 52.1525 245.654 54.4027 249.426C56.6528 253.197 73.2493 269.218 77.9504 270.422C82.6515 271.627 94.0187 270.317 95.9097 265.457C97.8007 260.597 97.3042 242.865 97.3042 242.865L83.6921 213.206L52.3215 227.505Z" fill="url(#paint0_linear_393_24691)"/>
<path d="M95.9248 265.452C96.3079 264.292 96.5647 263.095 96.6907 261.881L94.2504 249.33L79.1434 239.722L75.1026 237.609C75.1026 237.609 68.2358 244.835 66.6512 246.468C65.3042 247.841 59.2562 251.686 54.666 249.822C57.7349 254.227 73.3912 269.223 77.9391 270.39C82.6614 271.621 94.0496 270.332 95.9248 265.452Z" fill="url(#paint1_linear_393_24691)"/>
<path d="M89.613 257.962C88.3083 255.062 85.0968 253.504 81.9909 252.844C78.885 252.183 75.6523 252.178 72.6045 251.222C70.0896 250.449 67.8529 248.962 66.1656 246.943C64.1954 248.528 58.8657 251.539 54.6875 249.849C57.7564 254.254 73.4127 269.25 77.9606 270.417C82.6617 271.622 94.0289 270.312 95.9199 265.452C96.3047 264.293 96.5633 263.096 96.6911 261.881L95.8723 257.656L89.613 257.962Z" fill="url(#paint2_linear_393_24691)"/>
<path d="M281.962 227.504C281.962 227.504 284.18 231.202 283.853 233.906C283.525 236.611 281.106 238.729 280.414 240.446C279.722 242.162 282.131 245.654 279.886 249.425C277.641 253.197 261.044 269.217 256.343 270.422C251.642 271.626 240.27 270.316 238.384 265.457C236.498 260.597 237.005 242.865 237.005 242.865L250.612 213.211L281.962 227.504Z" fill="url(#paint3_linear_393_24691)"/>
<path d="M238.385 265.452C237.993 264.297 237.729 263.104 237.598 261.892L240.033 249.341L255.155 239.733L259.196 237.62C259.196 237.62 266.063 244.846 267.648 246.478C268.995 247.852 275.016 251.697 279.628 249.832C276.559 254.238 260.902 269.234 256.36 270.401C251.648 271.621 240.276 270.332 238.385 265.452Z" fill="url(#paint4_linear_393_24691)"/>
<path d="M244.692 257.962C245.997 255.062 249.208 253.504 252.32 252.844C255.431 252.183 258.658 252.178 261.706 251.222C264.219 250.448 266.454 248.962 268.14 246.943C270.11 248.528 275.445 251.539 279.618 249.849C276.549 254.254 260.892 269.25 256.35 270.417C251.649 271.622 240.276 270.312 238.391 265.452C237.999 264.298 237.735 263.104 237.604 261.892L238.422 257.666L244.692 257.962Z" fill="url(#paint5_linear_393_24691)"/>
<path d="M191.881 109.687C175.089 102.82 149.054 104.986 138.986 109.687C128.918 114.388 158.281 142.489 165.724 141.908C173.167 141.327 201.014 113.453 191.881 109.687Z" fill="#055257"/>
<path d="M132.77 129.479C133.8 132.004 134.925 134.492 136.044 137.001C138.686 142.859 141.195 148.802 145.468 153.249C154.727 162.9 168.477 167.77 180.557 164.653C194.539 161.04 203.74 149.773 210.665 136.251C195.495 128.381 174.578 117.267 174.583 115.841C174.583 113.607 175.962 97.3535 175.962 97.3535H154.569C154.569 97.3535 155.937 113.628 155.942 115.841C155.948 116.887 144.76 123.12 132.77 129.479Z" fill="url(#paint6_linear_393_24691)"/>
<path d="M174.925 110.178C168.332 111.768 161.387 110.909 155.381 107.759C154.995 102.746 154.541 97.332 154.541 97.332H175.923C175.923 97.332 175.332 104.674 174.925 110.178Z" fill="url(#paint7_linear_393_24691)"/>
<path d="M184.556 122.311L183.272 121.582C178.645 126.584 168.963 136.599 165.498 136.752C162.672 136.879 151.949 126.484 147.121 121.651L145.816 122.39C148.251 128.893 154.796 143.181 165.429 143.154C175.328 143.128 181.957 129.04 184.556 122.311Z" fill="url(#paint8_linear_393_24691)"/>
<path style="mix-blend-mode:multiply" opacity="0.3" d="M243.329 225.329L243.055 225.038L243.329 225.329Z" fill="url(#paint9_linear_393_24691)"/>
<path d="M225.993 307.973L213.516 150.66L219.818 139.863L192.298 118.809C192.298 118.809 170.345 143.862 165.438 143.74C159.58 143.598 138.948 120.055 138.948 120.055L118.992 134.053C116.019 135.949 111.069 139.863 111.069 139.863L117.371 150.655L101.266 307.973H225.993Z" fill="url(#paint10_linear_393_24691)"/>
<path d="M219.819 139.863C222.608 142.964 222.297 150.623 222.297 150.623L246.373 189.119H214.949L211.912 150.206L219.819 139.863Z" fill="url(#paint11_linear_393_24691)"/>
<path style="mix-blend-mode:multiply" opacity="0.2" d="M214.946 189.125H225.336C218.793 177.745 214.305 165.302 212.078 152.366L214.946 189.125Z" fill="url(#paint12_linear_393_24691)"/>
<path d="M222.454 150.882C221.796 158.075 223.513 165.287 227.343 171.411C231.174 177.536 236.906 182.236 243.662 184.793L222.454 150.882Z" fill="url(#paint13_linear_393_24691)"/>
<path d="M111.049 139.863C108.26 142.964 108.572 150.623 108.572 150.623L84.4961 189.125H115.92L118.957 150.211L111.049 139.863Z" fill="url(#paint14_linear_393_24691)"/>
<path style="mix-blend-mode:multiply" opacity="0.2" d="M115.919 189.125H105.529C112.072 177.745 116.56 165.302 118.787 152.366L115.919 189.125Z" fill="url(#paint15_linear_393_24691)"/>
<path d="M108.413 150.882C109.069 158.078 107.349 165.291 103.514 171.416C99.6801 177.541 93.9436 182.24 87.1836 184.793L108.413 150.882Z" fill="url(#paint16_linear_393_24691)"/>
<path style="mix-blend-mode:multiply" opacity="0.5" d="M225.993 307.973L213.516 150.66L216.886 144.892L216.495 137.883L210.12 134.053C206.079 157.863 200.072 181.297 192.161 204.116C189.287 212.345 185.743 220.992 179.742 224.547C173.742 228.102 166.69 225.561 160.653 221.906C151.515 216.359 143.169 208.299 136.117 198.432C129.958 189.822 121.829 177.082 119.526 164.954C117.698 155.346 122.23 159.434 125.822 162.614C130.488 166.755 135.4 170.61 140.533 174.155C145.493 177.577 150.67 180.674 156.031 183.425C160.494 185.707 167.509 186.537 171.402 190.07C153.944 174.224 138.801 153.412 126.963 129.384C123.794 131.153 120.942 132.828 118.982 134.074C117.371 135.099 115.184 136.715 113.504 137.978L113.113 143.429L117.339 150.66L101.266 307.973H225.993ZM196.191 253.371C181.512 260.138 167.324 252.944 153.406 243.541C139.487 234.139 129.953 217.131 124.512 196.747C144.405 223.881 169.368 243.594 196.191 253.371Z" fill="url(#paint17_linear_393_24691)"/>
<path d="M138.537 65.5908C138.537 65.5908 134.158 57.7891 127.788 62.2261C121.417 66.6631 128.474 82.9321 135.42 82.6469C138.864 82.5042 140.116 77.3647 140.116 77.3647L138.537 65.5908Z" fill="url(#paint18_linear_393_24691)"/>
<path d="M128.295 66.9277C130.425 67.6739 132.313 68.9861 133.754 70.7235C135.196 72.4608 136.137 74.5578 136.477 76.7895C136.598 77.5556 136.449 78.34 136.054 79.008C135.851 79.3338 135.558 79.5936 135.21 79.7559C134.862 79.9181 134.475 79.9758 134.095 79.9218C133.038 79.7158 132.473 78.5484 132.22 77.4973C131.793 75.675 131.793 73.7787 132.22 71.9563C131.327 70.3928 129.716 68.0264 128.295 66.9277Z" fill="url(#paint19_linear_393_24691)"/>
<path d="M138.537 65.5908C138.537 65.5908 134.158 57.7891 127.788 62.2261C127.046 62.7523 126.451 63.4597 126.061 64.2809C127.428 63.7645 128.883 63.5222 130.344 63.5678C133.218 63.6734 135.943 64.7034 138.579 65.9183L138.537 65.5908Z" fill="url(#paint20_linear_393_24691)"/>
<path d="M192.329 65.5908C192.329 65.5908 196.708 57.7891 203.079 62.2261C209.449 66.6631 202.392 82.9321 195.446 82.6469C192.002 82.5042 190.75 77.3647 190.75 77.3647L192.329 65.5908Z" fill="url(#paint21_linear_393_24691)"/>
<path d="M202.571 66.9277C200.444 67.6771 198.562 68.9907 197.124 70.7278C195.687 72.4649 194.748 74.5602 194.41 76.7895C194.289 77.5556 194.438 78.34 194.833 79.008C195.036 79.3338 195.329 79.5936 195.677 79.7559C196.025 79.9181 196.412 79.9758 196.792 79.9218C197.849 79.7158 198.414 78.5484 198.668 77.4973C199.094 75.675 199.094 73.7787 198.668 71.9563C199.539 70.3928 201.15 68.0264 202.571 66.9277Z" fill="url(#paint22_linear_393_24691)"/>
<path d="M192.329 65.5908C192.329 65.5908 196.708 57.7891 203.079 62.2261C203.82 62.7523 204.415 63.4597 204.806 64.2809C203.438 63.7645 201.983 63.5222 200.522 63.5678C197.648 63.6734 194.923 64.7034 192.287 65.9183L192.329 65.5908Z" fill="url(#paint23_linear_393_24691)"/>
<path d="M165.428 22.7168C140.348 22.7168 133.867 50.1047 133.867 50.1047C133.867 50.1047 137.38 85.4263 140.829 91.8336C141.854 93.751 150.749 108.309 165.428 108.309C180.107 108.309 189.002 93.751 190.027 91.8336C193.476 85.4158 196.989 50.1047 196.989 50.1047C196.989 50.1047 190.508 22.7168 165.428 22.7168Z" fill="url(#paint24_linear_393_24691)"/>
<path d="M155.091 84.0054C154.617 84.4263 153.997 84.646 153.364 84.6181C153.294 84.6111 153.228 84.5879 153.169 84.5503C153.11 84.5126 153.061 84.4617 153.026 84.4016C152.904 84.1533 153.279 83.8258 153.464 83.6937C153.788 83.482 154.145 83.3249 154.521 83.2289C154.832 83.1233 155.265 83.0599 155.408 83.3346C155.551 83.6092 155.323 83.8364 155.091 84.0054Z" fill="url(#paint25_linear_393_24691)"/>
<path d="M179.124 87.1635C179.324 87.7974 179.008 88.2992 178.067 87.4963C177.872 87.3541 177.707 87.1745 177.581 86.9681C177.517 86.871 177.482 86.7571 177.482 86.6406C177.482 86.5241 177.517 86.4101 177.581 86.3131C177.709 86.2013 177.874 86.1396 178.044 86.1396C178.214 86.1396 178.378 86.2013 178.506 86.3131C178.793 86.5274 179.009 86.824 179.124 87.1635Z" fill="url(#paint26_linear_393_24691)"/>
<path d="M154.213 83.957C154.213 83.957 153.901 90.9981 157.91 94.5213C160.667 96.9141 167.819 98.1237 171.417 95.7837C174.549 93.6534 176.89 90.5489 178.077 86.952C178.077 86.952 174.184 88.8905 166.916 87.7971C159.648 86.7037 157.588 86.5981 154.213 83.957Z" fill="url(#paint27_linear_393_24691)"/>
<path d="M177.808 87.0733L175.785 87.6596C172.869 88.236 169.873 88.2772 166.942 87.7811C160.958 86.8778 157.096 85.7475 154.508 84.2051C154.508 84.2051 154.323 88.959 157.239 91.6001C158.475 92.7305 160.81 93.9506 163.958 94.3626C166.145 94.6479 169.266 94.8591 172.182 93.4013C175.431 91.7955 177.808 87.0733 177.808 87.0733Z" fill="url(#paint28_linear_393_24691)"/>
<path d="M175.243 89.1923C175.766 88.7143 176.178 88.1262 176.447 87.4703L175.787 87.6604C172.871 88.2368 169.875 88.278 166.944 87.7819C162.053 87.0477 158.583 86.155 156.068 85.0088C156.161 85.6722 156.324 86.3238 156.554 86.9526C157.003 88.0407 161.726 90.5814 165.988 90.9459C170.251 91.3104 174.424 89.6835 175.243 89.1923Z" fill="white"/>
<path d="M178.106 86.9362C170.542 90.4012 160.638 89.3712 154.215 83.957C159.148 86.1438 162.328 85.341 167.848 86.1438C170.214 86.5136 173.283 87.8288 178.106 86.9362Z" fill="url(#paint29_linear_393_24691)"/>
<path d="M161.984 22.8956C139.746 25.2514 133.867 50.1039 133.867 50.1039C133.867 50.1039 134.881 60.3143 136.355 70.7518L137.85 71.7078C139.25 68.9347 139.17 65.6756 139.16 62.5697C139.149 59.4638 139.297 56.1572 141.046 53.5901C142.794 51.023 146.116 49.0844 149.238 49.6813C149.576 45.5612 153.802 43.0945 157.917 42.6772C162.032 42.2599 166.072 43.8974 169.712 45.8465C173.351 47.7956 176.843 50.1461 180.804 51.3452C186.183 52.8898 191.954 52.2481 196.862 49.5598C195.964 46.3272 190.571 29.3662 175.026 24.2056C173.617 23.8886 172.208 23.6245 170.8 23.4132C167.881 22.9896 164.932 22.8164 161.984 22.8956Z" fill="url(#paint30_linear_393_24691)"/>
<path d="M136.466 61.5769C136.626 58.2997 137.871 55.1686 140.005 52.6765C142.118 50.215 145.108 49.0213 149.217 49.6815C150.068 44.7427 153.169 41.4995 156.898 40.1737C160.627 38.8479 165.069 39.1172 168.878 40.2265C167.23 37.1946 163.965 35.3247 160.622 34.469C157.093 33.6103 153.4 33.69 149.911 34.7C146.423 35.7101 143.259 37.6153 140.734 40.2265C135.78 45.4769 134.264 54.6784 136.466 61.5769Z" fill="url(#paint31_linear_393_24691)"/>
<path d="M184.186 56.1629C186.78 57.0555 189.278 60.3886 189.278 60.3886C189.49 61.1017 189.527 77.3654 189.527 77.3654C189.527 77.3654 176.078 79.8374 171.874 74.7243C169.328 67.3651 168.621 59.495 169.814 51.7998L184.186 56.1629Z" fill="url(#paint32_linear_393_24691)"/>
<path d="M187.486 70.3398C187.486 70.3398 184.148 76.1872 179.442 76.4883C178.148 76.6116 176.848 76.3322 175.719 75.6883C174.59 75.0444 173.687 74.0675 173.135 72.8911L187.486 70.3398Z" fill="url(#paint33_linear_393_24691)"/>
<path d="M172.696 55.0956C170.197 55.1326 169.13 51.8735 170.261 50.1621C178.633 50.3628 184.824 53.1941 188.495 58.154C188.812 58.8882 188.959 59.6383 189.276 60.3778C184.501 57.5835 179.673 54.99 172.696 55.0956Z" fill="#055257"/>
<path d="M187.485 70.3405C187.485 70.3405 183.428 63.405 177.935 63.2413C172.827 63.0934 171.739 67.092 172.035 68.7981C172.331 70.5042 187.485 70.3405 187.485 70.3405Z" fill="url(#paint34_linear_393_24691)"/>
<path d="M187.487 70.3394C186.563 71.7059 185.378 72.8761 184 73.7827C182.622 74.6892 181.079 75.3142 179.458 75.6215C174.176 76.5142 173.03 73.1389 172.75 72.0983C172.47 71.0577 172.75 67.5134 175 66.7158C177.25 65.9182 181.317 63.2718 187.487 70.3394Z" fill="#FFEBED"/>
<path d="M172.036 68.7974C173.557 65.0259 177.244 63.156 181.676 64.6667C183.26 65.195 185.342 66.8535 187.486 70.3398C183.149 65.5858 178.723 65.2636 175.221 67.2867C174.39 67.7631 173.714 68.47 173.275 69.3219C172.836 70.1739 172.654 71.1346 172.749 72.0881C172.749 72.0881 171.983 69.4365 172.036 68.7974Z" fill="url(#paint35_linear_393_24691)"/>
<mask id="mask1_393_24691" style="mask-type:luminance" maskUnits="userSpaceOnUse" x="172" y="65" width="16" height="11">
<path d="M187.487 70.3403C186.563 71.7069 185.378 72.8771 184 73.7836C182.622 74.6902 181.079 75.3151 179.458 75.6225C174.176 76.5151 173.03 73.1399 172.75 72.0993C172.47 71.0587 172.75 67.5144 175 66.7168C177.25 65.9192 181.317 63.2728 187.487 70.3403Z" fill="white"/>
</mask>
<g mask="url(#mask1_393_24691)">
<path d="M178.301 77.3015C180.708 77.3015 182.659 75.3504 182.659 72.9437C182.659 70.537 180.708 68.5859 178.301 68.5859C175.894 68.5859 173.943 70.537 173.943 72.9437C173.943 75.3504 175.894 77.3015 178.301 77.3015Z" fill="url(#paint36_linear_393_24691)"/>
<path d="M178.302 75.9543C179.965 75.9543 181.313 74.6063 181.313 72.9434C181.313 71.2806 179.965 69.9326 178.302 69.9326C176.639 69.9326 175.291 71.2806 175.291 72.9434C175.291 74.6063 176.639 75.9543 178.302 75.9543Z" fill="url(#paint37_linear_393_24691)"/>
<path d="M174.951 76.8205C174.507 76.3292 176.176 74.2639 176.932 74.771C177.687 75.2781 175.601 77.5336 174.951 76.8205ZM180.233 70.5664C180.047 70.5654 179.864 70.6196 179.709 70.7223C179.554 70.825 179.433 70.9715 179.361 71.1432C179.289 71.3149 179.269 71.5041 179.305 71.6868C179.341 71.8695 179.43 72.0376 179.561 72.1696C179.692 72.3016 179.86 72.3917 180.042 72.4284C180.225 72.4651 180.414 72.4468 180.586 72.3758C180.758 72.3048 180.906 72.1843 181.009 72.0295C181.113 71.8748 181.168 71.6928 181.168 71.5066C181.168 71.26 181.071 71.0232 180.898 70.8473C180.725 70.6715 180.49 70.5706 180.244 70.5664H180.233Z" fill="white"/>
</g>
<path d="M150.327 58.5185C147.733 59.4059 143.761 63.0506 143.761 63.0506C143.55 63.769 141.342 77.3547 141.342 77.3547C141.342 77.3547 154.79 79.8267 158.995 74.7136C158.995 74.7136 161.525 68.037 159.523 55.4443L150.327 58.5185Z" fill="url(#paint38_linear_393_24691)"/>
<path d="M143.381 70.3398C143.381 70.3398 146.719 76.1872 151.426 76.4883C152.719 76.6123 154.02 76.3333 155.149 75.6893C156.278 75.0453 157.181 74.0679 157.732 72.8911L143.381 70.3398Z" fill="url(#paint39_linear_393_24691)"/>
<path d="M157.324 58.9671C159.527 58.8403 160.113 55.5337 158.909 53.9121C151.572 54.6622 146.438 57.8843 143.739 63.0502C143.543 63.8003 143.49 64.5556 143.295 65.3057C147.214 62.2156 151.181 59.3263 157.324 58.9671Z" fill="#055257"/>
<path d="M143.381 70.3405C143.381 70.3405 147.438 63.405 152.936 63.2413C158.039 63.0934 159.127 67.092 158.831 68.7981C158.535 70.5042 143.381 70.3405 143.381 70.3405Z" fill="url(#paint40_linear_393_24691)"/>
<path d="M143.381 70.3403C144.305 71.7069 145.49 72.8771 146.867 73.7836C148.245 74.6902 149.789 75.3151 151.41 75.6225C156.692 76.5151 157.838 73.1399 158.118 72.0993C158.398 71.0587 158.118 67.5144 155.868 66.7168C153.618 65.9192 149.55 63.2728 143.381 70.3403Z" fill="#FFEBED"/>
<path d="M158.831 68.7974C157.31 65.0259 153.623 63.156 149.191 64.6667C147.607 65.195 145.525 66.8535 143.381 70.3398C147.717 65.5858 152.149 65.2636 155.646 67.2867C156.478 67.7621 157.155 68.4688 157.594 69.321C158.032 70.1732 158.215 71.1345 158.118 72.0881C158.118 72.0881 158.884 69.4365 158.831 68.7974Z" fill="url(#paint41_linear_393_24691)"/>
<mask id="mask2_393_24691" style="mask-type:luminance" maskUnits="userSpaceOnUse" x="143" y="65" width="16" height="11">
<path d="M143.383 70.3403C144.307 71.7069 145.491 72.8771 146.869 73.7836C148.247 74.6902 149.791 75.3151 151.412 75.6225C156.694 76.5151 157.84 73.1399 158.12 72.0993C158.4 71.0587 158.12 67.5144 155.87 66.7168C153.62 65.9192 149.552 63.2728 143.383 70.3403Z" fill="white"/>
</mask>
<g mask="url(#mask2_393_24691)">
<path d="M152.569 77.3024C154.975 77.3024 156.926 75.3514 156.926 72.9447C156.926 70.538 154.975 68.5869 152.569 68.5869C150.162 68.5869 148.211 70.538 148.211 72.9447C148.211 75.3514 150.162 77.3024 152.569 77.3024Z" fill="url(#paint42_linear_393_24691)"/>
<path d="M155.58 72.9395C155.58 73.535 155.404 74.1171 155.073 74.6122C154.742 75.1074 154.272 75.4933 153.722 75.7212C153.171 75.949 152.566 76.0087 151.982 75.8925C151.398 75.7763 150.862 75.4896 150.44 75.0685C150.019 74.6474 149.733 74.111 149.616 73.5269C149.5 72.9429 149.56 72.3375 149.788 71.7873C150.016 71.2372 150.402 70.767 150.897 70.4361C151.392 70.1053 151.974 69.9287 152.569 69.9287C153.368 69.9301 154.133 70.2478 154.697 70.8121C155.261 71.3764 155.579 72.1414 155.58 72.9395Z" fill="url(#paint43_linear_393_24691)"/>
<path d="M149.219 76.8224C148.775 76.3312 150.439 74.2659 151.194 74.7729C151.949 75.28 149.863 77.5355 149.219 76.8224ZM154.501 70.5684C154.315 70.5684 154.133 70.6235 153.978 70.7268C153.824 70.8301 153.703 70.977 153.632 71.1488C153.561 71.3206 153.542 71.5096 153.579 71.692C153.615 71.8744 153.704 72.0419 153.836 72.1734C153.967 72.3049 154.135 72.3945 154.317 72.4307C154.5 72.467 154.689 72.4484 154.861 72.3772C155.032 72.3061 155.179 72.1856 155.282 72.0309C155.386 71.8763 155.441 71.6945 155.441 71.5086C155.441 71.2601 155.343 71.0218 155.167 70.8456C154.992 70.6694 154.754 70.5698 154.506 70.5684H154.501Z" fill="white"/>
</g>
<path d="M164.213 71.9935C165.714 67.7149 170.156 79.51 170.156 79.51C170.156 79.51 168.18 82.6528 165.434 82.6528C162.687 82.6528 160.68 79.2934 160.68 79.2934C160.68 79.2934 161.895 78.5909 164.213 71.9935Z" fill="#FFB398"/>
<path d="M160.668 79.293C160.668 79.293 162.031 81.559 164.043 82.3672C164.476 82.543 164.939 82.6344 165.406 82.6366C168.158 82.6366 170.16 79.4673 170.16 79.4673C166.7 81.1893 163.293 80.3177 161.661 79.6891C161.322 79.5793 160.99 79.4469 160.668 79.293Z" fill="url(#paint44_linear_393_24691)"/>
<path d="M160.668 79.2934C160.668 79.2934 162.031 81.5595 164.043 82.3676C162.136 81.0735 161.661 79.7266 161.661 79.7266C161.661 79.7266 163.922 76.2509 164.735 68.333C163.415 75.8706 160.737 78.7864 160.668 79.2934Z" fill="#CB4D7A"/>
<path d="M168.033 81.232C168.338 81.067 168.668 80.9512 169.01 80.8887C168.458 81.452 167.81 81.9133 167.098 82.2515C167.301 81.8259 167.626 81.4709 168.033 81.232Z" fill="#2D8085"/>
<path d="M179.188 82.2406C179.188 83.9942 181.211 85.4099 183.714 85.4099C186.218 85.4099 188.241 83.989 188.241 82.2406C188.241 80.4922 186.213 79.0713 183.714 79.0713C181.216 79.0713 179.188 80.4816 179.188 82.2406Z" fill="url(#paint45_linear_393_24691)"/>
<path d="M151.679 82.2406C151.679 83.9942 149.656 85.4099 147.152 85.4099C144.648 85.4099 142.625 83.989 142.625 82.2406C142.625 80.4922 144.653 79.0713 147.152 79.0713C149.65 79.0713 151.679 80.4816 151.679 82.2406Z" fill="url(#paint46_linear_393_24691)"/>
<path d="M126.974 129.384C123.731 126.183 126.446 122.823 130.524 121.682C134.602 120.541 129.436 112.058 138.975 109.687C138.975 109.687 135.806 115.529 165.428 139.953V145.626C165.428 145.626 139.62 141.871 126.974 129.384Z" fill="url(#paint47_linear_393_24691)"/>
<path d="M203.92 129.384C207.163 126.183 204.448 122.823 200.37 121.682C196.293 120.541 201.458 112.058 191.919 109.687C191.919 109.687 195.088 115.983 165.477 139.953V145.626C165.477 145.626 191.243 141.871 203.92 129.384Z" fill="url(#paint48_linear_393_24691)"/>
<path d="M197.808 42.8259C198.865 42.5935 200.349 46.7083 200.513 47.4108C201.112 50.071 200.737 52.8579 199.456 55.2653C196.958 59.9559 194.924 66.5585 193.699 76.1826C192.642 71.117 193.292 65.6975 193.435 60.521C193.577 55.3445 192.748 49.7032 189.029 46.0955C191.771 44.0249 194.47 43.5548 197.808 42.8259Z" fill="url(#paint49_linear_393_24691)"/>
<path d="M197.808 42.8259C198.865 42.5935 200.349 46.7083 200.513 47.4108C201.112 50.071 200.737 52.8579 199.456 55.2653C196.958 59.9559 194.924 66.5585 193.699 76.1826C192.642 71.117 193.292 65.6975 193.435 60.521C193.577 55.3445 192.748 49.7032 189.029 46.0955C191.771 44.0249 194.47 43.5548 197.808 42.8259Z" fill="url(#paint50_linear_393_24691)"/>
<path d="M149.237 49.6816C147.552 46.8187 147.378 40.6333 149.861 38.4307C152.343 36.228 155.93 35.5889 159.21 36.096C162.49 36.6031 165.549 38.119 168.385 39.7935C171.222 41.4679 174 43.3695 177.032 44.7217C180.872 46.4096 185.052 47.1795 189.241 46.9705C193.431 46.7614 197.513 45.5791 201.166 43.5174C208.397 39.2917 213.315 31.3368 213.701 22.9804C213.904 18.0029 212.591 13.081 209.934 8.86654C205.804 13.3722 200.136 18.4695 194.616 21.6018C196.824 18.0627 198.388 12.2365 198.139 8.07422C196.507 13.2666 190.707 16.8426 185.325 17.6138C179.942 18.385 174.486 17.1331 169.188 15.8971C163.89 14.661 158.428 13.4356 153.051 14.2596C147.865 15.0562 143.148 17.7167 139.784 21.7425C136.419 25.7682 134.638 30.8828 134.775 36.1277C132.546 36.1951 130.336 36.5502 128.199 37.1841C125.975 37.8919 123.867 39.223 122.695 41.2408C120.878 44.352 121.675 48.4034 123.476 51.5304C125.278 54.6574 127.945 57.1717 130.132 60.0399C134.474 65.734 135.52 68.9773 137.712 80.0698C139.328 74.4654 139.048 68.354 137.955 62.6387C137.21 58.7458 135.884 54.5359 137.67 51.018C139.455 47.5001 145.815 47.8117 149.237 49.6816Z" fill="url(#paint51_linear_393_24691)"/>
<path d="M194.6 21.6236C189.619 24.4653 180.735 26.4409 174 26.9321C174 26.9321 184.723 37.5545 198.377 30.8303C212.031 24.1062 209.934 8.86719 209.934 8.86719C205.804 13.394 200.136 18.4912 194.6 21.6236Z" fill="url(#paint52_linear_393_24691)"/>
<path d="M135.198 36.6761C134.395 35.7464 133.802 34.6546 133.46 33.4752C133.105 32.3201 132.927 31.118 132.932 29.9097C132.939 28.7025 133.131 27.5036 133.502 26.3548C133.862 25.1809 134.473 24.0994 135.293 23.1855C135.453 24.3427 135.539 25.5089 135.552 26.677C135.552 27.781 135.583 28.8586 135.552 29.9361C135.52 31.0137 135.52 32.0912 135.478 33.1952C135.454 34.3601 135.361 35.5225 135.198 36.6761Z" fill="url(#paint53_linear_393_24691)"/>
<path d="M182.463 29.277C184.784 28.7759 187.076 28.1499 189.33 27.4019C191.452 26.678 193.506 25.7677 195.468 24.6816C197.423 23.5877 199.279 22.3239 201.014 20.9048C202.841 19.3858 204.587 17.7707 206.243 16.0664C205.782 18.5798 204.704 20.9394 203.105 22.9332C201.51 24.971 199.522 26.668 197.26 27.9237C194.997 29.1794 192.505 29.9683 189.932 30.2437C187.401 30.5429 184.835 30.2108 182.463 29.277Z" fill="#53979B"/>
<path style="mix-blend-mode:multiply" opacity="0.5" d="M149.861 38.4463C152.338 36.2437 155.93 35.6045 159.21 36.1116C162.491 36.6187 165.549 38.1347 168.386 39.8091C171.222 41.4835 174 43.3851 177.032 44.7373C180.872 46.4252 185.053 47.1951 189.242 46.9861C193.431 46.7771 197.514 45.5948 201.166 43.533C202.662 42.6569 204.061 41.6246 205.339 40.4535C204.542 40.7229 203.755 40.9817 202.931 41.2036C196.122 43.1157 188.669 43.4062 182.087 40.818C178.348 39.3443 175.025 37.0043 171.697 34.7488C168.37 32.4933 164.942 30.2801 161.096 29.1022C157.251 27.9243 152.893 27.8873 149.396 29.8734C143.2 33.386 144.288 44.9539 149.243 49.6761C147.553 46.8185 147.4 40.6331 149.861 38.4463Z" fill="url(#paint54_linear_393_24691)"/>
<path d="M134.759 36.1484C132.531 36.2159 130.32 36.571 128.183 37.2049C125.959 37.9127 123.852 39.2438 122.679 41.2615C120.862 44.3727 121.66 48.4241 123.461 51.5512C124.147 52.7144 124.924 53.8218 125.785 54.8631C136.835 53.5161 134.759 36.1484 134.759 36.1484Z" fill="url(#paint55_linear_393_24691)"/>
<path d="M179.733 22.6321C182.73 22.2304 185.606 21.1938 188.171 19.5915C190.735 17.9893 192.927 15.8582 194.602 13.3408C191.982 15.6353 188.756 17.1263 185.311 17.6352C179.923 18.4117 174.472 17.1545 169.174 15.9185C163.876 14.6825 158.414 13.457 153.037 14.281C147.857 15.0972 143.146 17.7549 139.768 21.7658C139.494 22.0986 139.24 22.4419 138.971 22.7958C140.062 23.8522 141.446 24.5554 142.943 24.8136C145.293 25.2256 147.697 24.7027 149.968 23.9632C152.239 23.2237 154.437 22.2676 156.766 21.7711C164.304 20.1653 172.09 23.5353 179.733 22.6321Z" fill="url(#paint56_linear_393_24691)"/>
<path d="M160.785 26.5248C161.87 26.2277 163.005 26.1576 164.118 26.3188C165.215 26.4732 166.283 26.7883 167.287 27.2537C168.319 27.715 169.272 28.3333 170.113 29.0866C170.959 29.8277 171.639 30.7384 172.11 31.7594C171.054 31.3527 170.108 30.8931 169.178 30.46L166.416 29.1712L163.664 27.914C162.745 27.4862 161.789 27.0742 160.785 26.5248Z" fill="#53979B"/>
<path style="mix-blend-mode:multiply" opacity="0.5" d="M135.716 48.2188C134.086 51.9941 131.204 55.0913 127.555 56.9871C128.157 57.6843 128.759 58.3816 129.34 59.1C130.11 58.6511 130.829 58.1197 131.485 57.5153C132.772 56.3243 133.809 54.8888 134.535 53.2927C135.262 51.6965 135.663 49.9716 135.716 48.2188Z" fill="url(#paint57_linear_393_24691)"/>
<path d="M149.237 49.6813C146.681 47.7428 145.012 42.0962 146.438 39.0748C146.819 38.2974 147.32 37.5845 147.922 36.9619C148.581 36.2941 149.327 35.7185 150.141 35.2505C151.879 34.2719 153.792 33.6404 155.771 33.3912C157.76 33.1208 159.776 33.1332 161.761 33.4282C163.662 33.713 165.526 34.2073 167.318 34.9019C168.971 35.5522 170.579 36.3128 172.13 37.1785C173.62 38.0183 175.02 38.9005 176.356 39.7562C177.692 40.6119 178.997 41.4729 180.307 42.2546C181.58 43.0314 182.896 43.7368 184.247 44.3675C186.75 45.6154 189.501 46.2852 192.297 46.3272C193.713 46.3286 195.119 46.0966 196.46 45.6405C197.84 45.1562 199.148 44.4863 200.347 43.6491C203.232 41.6962 205.944 39.4977 208.45 37.0781C207.51 39.7192 204.409 43.9449 202.846 45.276C201.652 46.5493 200.252 47.6118 198.705 48.4189C196.937 49.3217 195.017 49.8894 193.042 50.0933C191.056 50.2984 189.051 50.2291 187.084 49.8873C185.205 49.5676 183.365 49.0488 181.596 48.3397C178.178 46.9769 175.321 45.1704 172.616 43.4484C171.28 42.5874 169.975 41.7475 168.67 40.9869C167.396 40.2134 166.075 39.52 164.714 38.911C163.393 38.3159 162.017 37.8523 160.605 37.5271C159.91 37.3635 159.203 37.2522 158.492 37.1943C157.776 37.117 157.056 37.0922 156.337 37.1204C153.49 37.2102 150.732 38.1768 149.127 40.1206C148.314 41.0907 147.822 42.288 147.716 43.5488C147.616 44.8112 148.524 48.403 149.237 49.6813Z" fill="#53979B"/>
<path d="M228.883 223.544C229.281 222.909 229.838 222.39 230.499 222.038C232.332 221.019 248.369 220.564 253.471 220.358C253.506 220.414 253.536 220.472 253.561 220.533C254.216 222.117 252.79 224.23 251.496 225.007C249.689 226.1 247.45 226.121 245.337 226.105L233.906 226.021C232.832 226.083 231.756 225.938 230.737 225.593C230.285 225.427 229.881 225.153 229.558 224.796C229.235 224.439 229.003 224.009 228.883 223.544Z" fill="url(#paint58_linear_393_24691)"/>
<path d="M250.85 237.657C250.449 239.18 250.539 240.79 251.109 242.258C249.82 241.339 249.815 238.862 250.85 237.657Z" fill="url(#paint59_linear_393_24691)"/>
<path d="M246.387 212.989C246.498 212.165 246.604 211.346 246.71 210.527C246.342 210.812 246.103 211.231 246.042 211.692C245.982 212.153 246.106 212.619 246.387 212.989Z" fill="url(#paint60_linear_393_24691)"/>
<path d="M263.439 185.818C260.465 184.761 253.403 183.177 242.685 181.692C242.685 181.724 242.722 181.75 242.738 181.777C242.633 181.741 242.525 181.712 242.416 181.692C225.698 179.358 200.016 177.16 166.802 177.16C133.863 177.16 108.339 179.321 91.6056 181.634C91.4893 181.654 91.3746 181.682 91.2622 181.719C80.6293 183.224 73.6463 184.761 70.6936 185.818C63.0926 188.543 59.0729 194.612 63.5099 200.666C67.9469 206.719 81.4269 253.836 86.0382 255.278C87.6229 255.774 96.2697 256.133 107.431 256.398H107.494C128.934 256.894 159.375 257.031 166.802 257.031C174.229 257.031 204.664 256.894 226.105 256.398C226.194 256.398 226.29 256.371 226.379 256.361V256.398C237.699 256.133 246.515 255.769 248.105 255.267C252.711 253.825 266.217 206.719 270.633 200.666C275.049 194.612 271.035 188.554 263.439 185.818Z" fill="url(#paint61_linear_393_24691)"/>
<path style="mix-blend-mode:multiply" opacity="0.3" d="M253.132 246.52C253.476 245.517 253.819 244.455 254.162 243.351C187.634 243.3 122.004 227.991 62.3203 198.601C62.6346 199.336 63.0335 200.033 63.5088 200.676C67.9194 206.73 81.4258 253.836 86.0371 255.278C87.6218 255.774 96.2686 256.134 107.43 256.398H107.493L111.613 256.482L113.726 256.525L115.881 256.567C118.781 256.62 121.76 256.662 124.75 256.704L126.995 256.736H128.12L133.714 256.799H134.823H137.02H139.191C151.784 256.915 162.728 256.958 166.79 256.958H170.007C172.839 256.958 176.742 256.958 181.306 256.905H183.16C186.63 256.905 190.428 256.852 194.384 256.815H196.555H197.654L199.862 256.789C208.747 256.694 218.054 256.556 226.093 256.371C226.183 256.371 226.278 256.345 226.368 256.334V256.371C232.03 256.239 237.064 256.081 240.878 255.896L241.58 255.859L242.896 255.785L243.503 255.748C244.918 255.684 246.328 255.546 247.729 255.336L247.94 255.288L248.109 255.241C249.282 254.908 251.067 251.485 253.132 246.52Z" fill="url(#paint62_linear_393_24691)"/>
<g style="mix-blend-mode:overlay" opacity="0.7">
<path d="M263.437 189.383C255.836 186.657 221.613 180.726 167.064 180.726C112.516 180.726 78.2874 186.657 70.6917 189.383C66.0487 191.047 62.7685 193.963 61.8969 197.359C60.6926 192.505 64.4693 188.052 70.6917 185.818C78.2874 183.092 112.51 177.16 167.064 177.16C200.278 177.16 225.96 179.358 242.683 181.692C253.422 183.192 260.463 184.751 263.437 185.818C269.638 188.041 273.436 192.494 272.226 197.348C271.371 193.963 268.08 191.047 263.437 189.383Z" fill="white"/>
</g>
<path d="M56.2094 219.677C56.2094 219.677 54.0965 215.641 54.5877 213.75C55.079 211.859 60.7626 196.848 62.8384 195.664C64.9143 194.481 73.9309 192.596 75.7005 192.765C77.47 192.934 89.9622 194.111 91.7476 195.664C93.533 197.217 88.5783 200.947 83.6395 202.161C78.7007 203.376 71.4483 202.452 71.4483 202.452L68.7703 210.872L56.2094 219.677Z" fill="url(#paint63_linear_393_24691)"/>
<path d="M56.6847 208.003C55.5965 210.766 54.7672 213.084 54.5718 213.755C54.0436 215.646 56.1934 219.682 56.1934 219.682L68.7544 210.876L71.4324 202.457C69.5812 202.19 67.747 201.816 65.939 201.337C65.939 201.337 61.5918 205.784 56.6847 208.003Z" fill="url(#paint64_linear_393_24691)"/>
<path d="M52.3233 227.505C52.3233 227.505 49.9516 223.391 51.0503 221.167C52.149 218.943 68.5394 207.048 71.3707 206.873C74.2019 206.699 96.9362 216.27 100.385 218.98C103.835 221.69 104.083 223.644 101.637 224.991C99.1917 226.338 92.4622 225.752 87.4653 221.394L77.9575 219.693C77.9575 219.693 89.7208 226.644 90.9251 227.527C92.1295 228.409 93.9993 237.209 93.7511 239.438C93.5028 241.667 87.2224 238.593 87.2224 238.593C87.2224 238.593 87.8562 241.096 83.9105 241.139C81 241.176 75.121 237.652 75.121 237.652L67.8686 243.257L52.3233 227.505Z" fill="url(#paint65_linear_393_24691)"/>
<path d="M84.1673 234.224C84.8223 234.937 87.2256 238.576 87.2256 238.576C87.2256 238.576 93.5114 241.65 93.7543 239.421C93.9973 237.192 92.1327 228.387 90.9284 227.51C90.5587 227.235 89.1853 226.39 87.4633 225.35C85.9368 228.075 73.0748 223.733 73.0748 223.733C71.4901 224.674 61.7129 235.354 61.7129 235.354C61.7129 235.354 71.6275 228.847 72.0606 228.862C72.4937 228.878 83.5123 233.505 84.1673 234.224Z" fill="url(#paint66_linear_393_24691)"/>
<path d="M86.3173 216.217C83.3012 215.309 71.8231 212.594 71.8231 212.594C69.0817 215.715 55.7812 224.447 55.7812 224.447C55.7812 224.447 70.5712 217.485 71.39 217.078C72.2087 216.672 77.961 219.677 77.961 219.677L87.4688 221.378C92.4657 225.736 99.1793 226.322 101.641 224.975C103.69 223.85 103.838 222.302 101.826 220.221C100.622 220.446 99.4041 220.591 98.181 220.654C93.2422 220.85 89.3387 217.131 86.3173 216.217Z" fill="url(#paint67_linear_393_24691)"/>
<path d="M90.9274 227.51C90.9274 227.51 92.6283 231.894 90.1193 231.735C88.1543 231.625 78.8102 230.42 74.875 229.903C78.1922 231.281 83.3264 233.537 84.0923 234.128C84.1202 234.145 84.1452 234.167 84.1663 234.192C84.8213 234.905 87.2246 238.544 87.2246 238.544C87.2246 238.544 93.5104 241.618 93.7534 239.389C93.9963 237.16 92.1317 228.387 90.9274 227.51Z" fill="url(#paint68_linear_393_24691)"/>
<path d="M67.8678 227.875C64.6298 231.171 60.6735 235.846 57.4355 239.168C60.0977 235.064 63.8481 230.331 67.8678 227.875Z" fill="url(#paint69_linear_393_24691)"/>
<path d="M72.9802 221.784C72.628 220.619 72.2935 219.451 71.9766 218.282C73.5665 219.048 73.5876 220.152 72.9802 221.784Z" fill="url(#paint70_linear_393_24691)"/>
<path d="M71.8654 211.014L71.4375 207.924C72.3936 208.737 72.2774 209.841 71.8654 211.014Z" fill="url(#paint71_linear_393_24691)"/>
<path d="M74.3015 235.159C74.0792 233.347 73.3152 231.644 72.1094 230.273C74.1536 230.987 74.9459 233.089 74.3015 235.159Z" fill="url(#paint72_linear_393_24691)"/>
<path d="M58.2637 214.923C58.57 219.148 64.766 214.199 66.5725 212.334C68.0525 210.816 69.2986 209.085 70.27 207.2C67.7293 208.278 62.595 211.701 58.2637 214.923Z" fill="#FFCDBA"/>
<path d="M59.4419 222.725L59.3574 222.793C61.4232 223.377 63.6348 223.136 65.527 222.122C66.6573 221.504 68.9022 219.682 69.2245 218.113L59.4419 222.725Z" fill="#FFCDBA"/>
<path d="M75.7004 192.764C74.4961 192.648 69.964 193.472 66.5253 194.386C66.4491 194.815 66.491 195.257 66.6463 195.664C66.8017 196.072 67.0647 196.429 67.4074 196.699C69.7633 198.643 74.4538 199.145 77.3748 199.272C82.3884 199.464 87.348 198.178 91.6366 195.574C89.5766 194.074 77.4435 192.933 75.7004 192.764Z" fill="#FFCDBA"/>
<path d="M278.1 219.677C278.1 219.677 280.239 215.641 279.722 213.75C279.204 211.859 273.547 196.848 271.466 195.664C269.384 194.481 260.373 192.596 258.609 192.765C256.845 192.934 244.347 194.111 242.562 195.664C240.776 197.217 245.731 200.947 250.664 202.161C255.598 203.376 262.856 202.452 262.856 202.452L265.539 210.872L278.1 219.677Z" fill="url(#paint73_linear_393_24691)"/>
<path d="M277.626 208.003C278.683 210.766 279.538 213.084 279.739 213.755C280.267 215.646 278.117 219.682 278.117 219.682L265.556 210.876L262.873 202.457C264.724 202.19 266.559 201.816 268.366 201.337C268.366 201.337 272.719 205.784 277.626 208.003Z" fill="url(#paint74_linear_393_24691)"/>
<path d="M281.963 227.505C281.963 227.505 284.34 223.391 283.236 221.167C282.132 218.943 265.747 207.048 262.915 206.873C260.084 206.699 237.35 216.27 233.906 218.98C230.462 221.69 230.208 223.644 232.654 224.991C235.1 226.338 241.829 225.752 246.826 221.394L256.334 219.693C256.334 219.693 244.592 226.629 243.377 227.511C242.162 228.393 240.308 237.193 240.551 239.422C240.794 241.651 247.085 238.577 247.085 238.577C247.085 238.577 246.451 241.081 250.397 241.123C253.307 241.16 259.186 237.637 259.186 237.637L266.439 243.257L281.963 227.505Z" fill="url(#paint75_linear_393_24691)"/>
<path d="M250.141 234.224C249.481 234.937 247.083 238.576 247.083 238.576C247.083 238.576 240.792 241.65 240.549 239.421C240.306 237.192 242.171 228.387 243.375 227.51C243.75 227.235 245.123 226.39 246.845 225.35C248.366 228.075 261.228 223.733 261.228 223.733C262.813 224.674 272.596 235.354 272.596 235.354C272.596 235.354 262.676 228.847 262.248 228.862C261.82 228.878 250.796 233.505 250.141 234.224Z" fill="url(#paint76_linear_393_24691)"/>
<path d="M247.988 216.217C251.004 215.309 262.487 212.594 262.487 212.594C265.224 215.715 278.529 224.447 278.529 224.447C278.529 224.447 263.739 217.485 262.915 217.078C262.091 216.672 256.35 219.677 256.35 219.677L246.842 221.378C241.845 225.736 235.126 226.322 232.67 224.975C230.62 223.85 230.472 222.302 232.48 220.221C233.688 220.455 234.911 220.609 236.14 220.681C241.068 220.85 244.972 217.131 247.988 216.217Z" fill="url(#paint77_linear_393_24691)"/>
<path d="M243.375 227.51C243.375 227.51 241.674 231.894 244.183 231.735C246.153 231.625 255.497 230.42 259.427 229.903C256.11 231.281 250.976 233.537 250.21 234.128C250.184 234.145 250.16 234.167 250.141 234.192C249.481 234.905 247.083 238.544 247.083 238.544C247.083 238.544 240.792 241.618 240.549 239.389C240.306 237.16 242.171 228.387 243.375 227.51Z" fill="url(#paint78_linear_393_24691)"/>
<path d="M266.438 227.875C269.681 231.171 273.632 235.846 276.875 239.142C274.213 235.064 270.473 230.331 266.438 227.875Z" fill="url(#paint79_linear_393_24691)"/>
<path d="M261.329 221.784C261.66 220.619 261.995 219.451 262.333 218.282C260.738 219.048 260.717 220.152 261.329 221.784Z" fill="url(#paint80_linear_393_24691)"/>
<path d="M262.434 211.014C262.576 209.984 262.714 208.954 262.856 207.924C261.916 208.737 262.022 209.841 262.434 211.014Z" fill="url(#paint81_linear_393_24691)"/>
<path d="M260.005 235.159C260.227 233.347 260.991 231.644 262.197 230.273C260.153 230.987 259.382 233.089 260.005 235.159Z" fill="url(#paint82_linear_393_24691)"/>
<path d="M276.047 214.923C275.736 219.148 269.54 214.199 267.739 212.334C266.259 210.815 265.013 209.085 264.041 207.2C266.576 208.278 271.716 211.701 276.047 214.923Z" fill="#FFCDBA"/>
<path d="M274.869 222.725L274.953 222.793C272.882 223.381 270.664 223.14 268.768 222.122C267.637 221.504 265.387 219.682 265.07 218.113L274.869 222.725Z" fill="#FFCDBA"/>
<path d="M258.609 192.764C259.809 192.648 264.341 193.472 267.779 194.386C267.857 194.814 267.816 195.256 267.661 195.664C267.507 196.071 267.245 196.429 266.902 196.699C264.547 198.643 259.856 199.145 256.93 199.272C251.916 199.465 246.956 198.179 242.668 195.574C244.733 194.074 256.861 192.933 258.609 192.764Z" fill="#FFCDBA"/>
</g>
<path d="M75.4537 115.768C78.0464 100.094 67.4422 85.2867 51.7686 82.694C36.0949 80.1013 21.2871 90.7055 18.6945 106.379C16.1018 122.053 26.706 136.861 42.3796 139.453C58.0533 142.046 72.8611 131.442 75.4537 115.768Z" fill="#FEFEFE" fill-opacity="0.12"/>
<path d="M96.5991 96.9873C100.02 96.9873 102.794 94.2138 102.794 90.7925C102.794 87.3712 100.02 84.5977 96.5991 84.5977C93.1778 84.5977 90.4043 87.3712 90.4043 90.7925C90.4043 94.2138 93.1778 96.9873 96.5991 96.9873Z" fill="#FEFEFE"/>
<path d="M112.255 87.527C112.255 89.1117 110.959 90.4563 109.326 90.4563C107.741 90.4563 106.396 89.1597 106.396 87.527C106.396 85.9423 107.693 84.5977 109.326 84.5977C110.959 84.5977 112.255 85.8942 112.255 87.527Z" fill="#FEFEFE"/>
<path opacity="0.1" d="M57.0762 65.1494C56.0677 65.1494 55.0112 65.1974 54.0508 65.2935C56.9801 72.977 64.4235 78.4034 73.1155 78.4034C75.6606 78.4034 78.1097 77.9232 80.3668 77.0588C75.1804 69.8556 66.6805 65.1494 57.0762 65.1494Z" fill="url(#paint83_linear_393_24691)"/>
<path d="M75.5159 76.9146C86.8142 76.9146 95.9732 67.7556 95.9732 56.4573C95.9732 45.159 86.8142 36 75.5159 36C64.2176 36 55.0586 45.159 55.0586 56.4573C55.0586 67.7556 64.2176 76.9146 75.5159 76.9146Z" fill="white" fill-opacity="0.18"/>
<path d="M72.0801 61.6059L72.1597 60.0046C72.2097 58.9974 72.3778 58.1627 72.6645 57.5001C72.9507 56.838 73.3033 56.2746 73.722 55.8106C74.1405 55.3466 74.5613 54.9332 74.9852 54.5704C75.5564 54.0942 76.0667 53.6195 76.5162 53.1466C76.9657 52.6743 77.2103 52.035 77.2503 51.2291C77.2723 50.7862 77.1795 50.4076 76.9719 50.0946C76.7642 49.7815 76.5081 49.5317 76.2032 49.3448C75.8979 49.1584 75.594 49.0572 75.2903 49.0424C74.7033 49.0134 74.2062 49.1253 73.7983 49.3777C73.3904 49.6303 73.0492 49.9617 72.7754 50.3722C72.5011 50.7829 72.262 51.2152 72.0569 51.6695L68.6484 49.8658C68.7878 49.5091 69.0234 49.0565 69.3548 48.5072C69.6862 47.9584 70.1438 47.4156 70.7287 46.8787C71.3128 46.3425 72.0342 45.9032 72.893 45.5618C73.7512 45.2209 74.7674 45.0787 75.9409 45.1366C77.0941 45.1935 78.1206 45.4411 79.022 45.8792C79.9227 46.3173 80.6262 46.958 81.1319 47.8008C81.6376 48.6434 81.8573 49.7296 81.7914 51.0591C81.7364 52.1671 81.5398 53.0562 81.2024 53.7259C80.8648 54.3959 80.4614 54.9568 79.9933 55.408C79.5246 55.8597 79.056 56.3061 78.5883 56.7473C78.227 57.073 77.8798 57.4344 77.5458 57.8317C77.2113 58.2294 76.9401 58.6953 76.7309 59.2303C76.5217 59.7653 76.3981 60.4155 76.3601 61.181L76.3285 61.8155L72.0801 61.6059ZM73.8872 68.0863C73.1589 68.0503 72.5717 67.8246 72.1262 67.4089C71.6801 66.993 71.4737 66.4632 71.5058 65.8182C71.5368 65.194 71.8003 64.6818 72.2969 64.2821C72.7931 63.8826 73.3954 63.7002 74.1036 63.7349C74.8114 63.7699 75.3828 64.0102 75.8168 64.4554C76.2508 64.9009 76.4524 65.4361 76.4215 66.0604C76.3895 66.7053 76.1408 67.2127 75.6765 67.5837C75.2116 67.9548 74.6153 68.1222 73.8872 68.0863Z" fill="white"/>
<path d="M60.1618 97.219C60.1458 97.2069 60.1258 97.1928 60.1012 97.1768C59.947 97.0766 59.6939 96.9554 59.346 96.8242C58.6568 96.5644 57.6704 96.2933 56.5511 96.0772C55.4424 95.8631 54.4338 95.749 53.7 95.7341C53.3298 95.7266 53.049 95.7448 52.8662 95.7803C52.8288 95.7876 52.7993 95.7949 52.7766 95.8014L52.7735 95.8137L52.6687 95.9009C52.6316 95.9319 52.5894 95.9668 52.5424 96.0056C51.9765 96.4737 50.7277 97.5067 49.4649 98.9167C48.1021 100.438 46.7554 102.364 46.2225 104.452C46.2178 104.631 46.214 104.8 46.2184 104.969C46.3091 107.521 47.4781 109.175 48.9339 110.265C49.4997 110.688 50.1098 111.027 50.7183 111.297C50.3815 111.119 50.048 110.913 49.7294 110.673C48.4807 109.733 47.4722 108.282 47.3984 106.092L47.3983 106.09C47.3629 104.886 47.713 103.695 48.2359 102.612L48.2576 102.567L48.2894 102.528C48.6879 102.043 49.2095 101.432 50.0361 101.326L50.039 101.326L50.039 101.326C50.573 101.261 51.0439 101.426 51.4429 101.644C51.7456 101.809 52.0388 102.025 52.2951 102.213C52.3668 102.266 52.4356 102.317 52.5009 102.363L52.5029 102.365C53.0824 102.785 53.7316 103.044 54.4391 103.222L60.1618 97.219ZM60.1618 97.219L60.1533 97.2629L60.2256 97.3947C60.2351 97.412 60.245 97.4302 60.2554 97.4491C60.5977 98.0729 61.4104 99.5542 62.0771 101.411C62.7616 103.318 63.2766 105.58 62.9986 107.692C62.9365 107.859 62.8771 108.017 62.8102 108.172C61.7739 110.512 60.1134 111.618 58.3826 112.09C57.6696 112.284 56.9419 112.372 56.2385 112.389M60.1618 97.219L56.2385 112.389M56.2385 112.389C56.6489 112.351 57.0669 112.28 57.4819 112.165C58.9777 111.751 60.4162 110.77 61.2968 108.776L61.2968 108.775C61.8975 107.413 61.9375 105.855 61.7308 104.393L61.709 104.239L61.5907 104.136C60.9027 103.541 60.0864 103.073 59.0603 103.077L59.0603 103.077L59.0573 103.077C58.6179 103.081 58.1913 103.153 57.7933 103.226C57.731 103.238 57.6695 103.249 57.6087 103.261C57.2717 103.324 56.9564 103.383 56.6369 103.412L56.6369 103.412L56.6338 103.412C55.9098 103.484 55.1555 103.402 54.4392 103.222L56.2385 112.389ZM52.7132 95.8251C52.7132 95.8251 52.7138 95.8248 52.7151 95.824C52.7139 95.8248 52.7133 95.8252 52.7132 95.8251ZM50.0894 101.74C50.8236 101.65 51.4515 102.111 52.0336 102.539C52.1092 102.594 52.184 102.649 52.2582 102.702L50.0894 101.74Z" stroke="white" stroke-width="0.83395"/>
<path d="M63.3936 107.778C63.3259 107.961 63.2561 108.155 63.178 108.336C60.9936 113.281 56.1112 113.091 53.3553 112.559C50.7762 112.061 45.9973 110.385 45.8106 104.983C45.8055 104.786 45.8109 104.59 45.8182 104.385C45.649 105.094 45.5546 105.806 45.5786 106.52C45.74 111.383 51.8098 113.133 51.9756 113.95C52.3027 115.497 49.3463 128.909 49.3463 128.909L50.9895 129.226C50.9895 129.226 53.7891 114.726 54.2698 114.415C56.5823 112.942 60.8425 114.342 62.8192 109.859C63.1092 109.196 63.2972 108.501 63.3936 107.778Z" fill="#D2CFCF"/>
<path d="M56.1726 132.424C52.2762 129.953 50.8654 129.222 50.7608 129.202C50.6771 129.186 50.0219 129.039 50.0219 129.039C50.0219 129.039 49.3209 128.903 49.2163 128.883C49.1117 128.863 47.5198 129.014 42.9941 129.858C41.2484 130.188 48.6406 131.303 49.4938 131.436C49.4853 131.424 57.7585 133.428 56.1726 132.424Z" fill="#E2E1E0"/>
<path d="M59.056 97.5201C59.056 97.5201 58.6337 97.5715 57.9995 97.5968C57.6901 97.6257 57.3212 97.5692 56.9259 97.5372C56.7349 97.5151 56.5334 97.491 56.3214 97.4648C56.1199 97.4407 55.9134 97.386 55.7147 97.3477C55.5187 97.2951 55.3094 97.2547 55.1134 97.202C54.9147 97.1637 54.7242 97.0826 54.5414 97.0177C54.1626 96.9003 53.8234 96.7462 53.547 96.6042C53.2574 96.4744 53.0387 96.3141 52.8774 96.1943C52.7265 96.0765 52.6406 96.0156 52.6406 96.0156C52.6406 96.0156 52.7425 96.0501 52.9148 96.1129C53.0844 96.1899 53.3272 96.2811 53.6278 96.3539C53.7715 96.3965 53.9362 96.443 54.0981 96.5038C54.2731 96.5524 54.451 96.5867 54.6365 96.6373C55.0076 96.7385 55.4128 96.8315 55.8104 96.9083C56.0196 96.9487 56.2024 97.0135 56.4039 97.0376C56.6026 97.076 56.8014 97.1144 56.9792 97.1487C57.3586 97.2072 57.706 97.3186 58.0176 97.3344C58.6403 97.4251 59.056 97.5201 59.056 97.5201Z" fill="#C6C0C0"/>
<path d="M61.2446 104.619C60.5996 104.067 59.8813 103.672 59.0008 103.673C58.205 103.679 57.4173 103.923 56.6303 103.995C55.8536 104.069 55.0551 103.979 54.3074 103.792C53.5701 103.607 52.8714 103.333 52.2396 102.88C51.5974 102.425 50.9066 101.832 50.0826 101.93C49.4445 102.009 49.0345 102.464 48.6167 102.96C48.1181 103.986 47.7979 105.088 47.8332 106.184C47.9818 110.197 51.5612 111.454 53.4968 111.828C55.5669 112.228 59.2205 112.378 60.8542 108.698C61.4049 107.459 61.4475 106.014 61.2446 104.619ZM50.5744 102.997C50.8953 103.059 51.1044 103.366 51.0427 103.685C50.9811 104.004 50.6726 104.212 50.3518 104.15C50.0309 104.088 49.8218 103.781 49.8835 103.461C49.9451 103.142 50.2536 102.935 50.5744 102.997ZM50.467 104.888C50.4471 104.991 50.3464 105.067 50.2325 105.045C50.129 105.025 50.0518 104.925 50.0737 104.812C50.0955 104.699 50.1942 104.632 50.3081 104.654C50.4116 104.674 50.4869 104.785 50.467 104.888ZM48.914 104.535C48.9498 104.349 49.1348 104.225 49.3108 104.259C49.4971 104.295 49.6226 104.479 49.5868 104.664C49.551 104.85 49.3659 104.974 49.1796 104.938C48.9933 104.902 48.8762 104.73 48.914 104.535ZM49.5625 106.625C49.2313 106.561 49.0139 106.241 49.0775 105.912C49.1411 105.582 49.4619 105.367 49.7931 105.431C50.1244 105.494 50.3418 105.814 50.2782 106.144C50.2146 106.473 49.8937 106.689 49.5625 106.625ZM50.3322 107.254C50.2287 107.234 50.1514 107.134 50.1733 107.021C50.1932 106.918 50.2939 106.841 50.4077 106.863C50.5112 106.883 50.5885 106.983 50.5666 107.097C50.5344 107.208 50.4357 107.274 50.3322 107.254ZM50.851 105.902C50.7475 105.882 50.6702 105.781 50.6921 105.668C50.712 105.565 50.823 105.491 50.9265 105.511C51.03 105.531 51.1073 105.631 51.0854 105.744C51.0635 105.857 50.9545 105.922 50.851 105.902ZM51.2261 104.96C51.0295 104.922 50.8957 104.725 50.9335 104.529C50.9712 104.334 51.1686 104.201 51.3653 104.239C51.562 104.277 51.6958 104.473 51.658 104.669C51.6202 104.865 51.4228 104.998 51.2261 104.96ZM58.8991 106.313C58.9946 106.096 59.2378 106.004 59.4555 106.1C59.6733 106.195 59.7661 106.438 59.681 106.656C59.5875 106.862 59.3423 106.964 59.1225 106.879C58.9087 106.763 58.8056 106.519 58.8991 106.313ZM58.4877 107.387C58.7158 107.484 58.815 107.749 58.7195 107.966C58.622 108.193 58.3665 108.293 58.1384 108.195C57.9102 108.098 57.8111 107.833 57.9066 107.617C58.002 107.4 58.2596 107.289 58.4877 107.387ZM57.8406 106.568C57.9035 106.409 58.1013 106.33 58.259 106.403C58.4166 106.476 58.4987 106.663 58.4255 106.82C58.3523 106.976 58.1648 107.058 58.0071 106.984C57.8495 106.911 57.7778 106.727 57.8406 106.568ZM56.8973 107.005C56.9398 106.896 57.08 106.837 57.1878 106.89C57.2957 106.943 57.3567 107.072 57.3038 107.18C57.2612 107.289 57.1211 107.347 57.0132 107.295C56.9033 107.252 56.8547 107.114 56.8973 107.005ZM56.454 107.966C56.4966 107.857 56.6367 107.799 56.7446 107.851C56.8545 107.894 56.9134 108.034 56.8605 108.141C56.8076 108.248 56.6778 108.309 56.5699 108.256C56.4601 108.213 56.4115 108.076 56.454 107.966ZM55.7931 109.11C55.9069 108.854 56.1974 108.739 56.4566 108.843C56.7138 108.956 56.8297 109.246 56.7263 109.503C56.6125 109.759 56.3219 109.874 56.0627 109.771C55.8035 109.667 55.6793 109.365 55.7931 109.11ZM56.0287 110.725C55.9352 110.932 55.69 111.034 55.4826 110.94C55.2752 110.847 55.172 110.603 55.2655 110.396C55.359 110.19 55.6042 110.088 55.8116 110.181C56.019 110.275 56.1222 110.519 56.0287 110.725ZM56.7146 110.954C56.6617 111.061 56.532 111.121 56.4241 111.069C56.3162 111.016 56.2552 110.886 56.3082 110.779C56.3611 110.672 56.4908 110.612 56.6091 110.666C56.7086 110.707 56.7676 110.847 56.7146 110.954ZM57.5747 110.169C57.5198 110.287 57.392 110.337 57.2842 110.284C57.1659 110.229 57.1153 110.102 57.1682 109.995C57.2108 109.885 57.3509 109.827 57.4588 109.88C57.5687 109.922 57.6173 110.06 57.5747 110.169ZM58.1095 109.012C58.0546 109.13 57.9268 109.18 57.8189 109.127C57.711 109.074 57.6501 108.945 57.703 108.838C57.7579 108.72 57.8857 108.67 58.0039 108.725C58.1035 108.765 58.1521 108.903 58.1095 109.012ZM58.8315 110.166C58.738 110.373 58.4928 110.475 58.2854 110.381C58.0779 110.288 57.9748 110.044 58.0683 109.837C58.1618 109.631 58.407 109.529 58.6144 109.622C58.8342 109.708 58.927 109.95 58.8315 110.166ZM59.281 108.95C59.2281 109.057 59.0984 109.118 58.9905 109.065C58.8826 109.012 58.8216 108.883 58.8745 108.775C58.9171 108.666 59.0572 108.608 59.1651 108.661C59.275 108.703 59.3256 108.83 59.281 108.95ZM60.1355 107.972C60.0929 108.081 59.9528 108.14 59.8449 108.087C59.7267 108.032 59.6761 107.905 59.729 107.798C59.7819 107.69 59.9117 107.63 60.0196 107.683C60.1295 107.725 60.1904 107.855 60.1355 107.972ZM60.4986 106.536C60.4437 106.654 60.3159 106.704 60.208 106.651C60.1002 106.598 60.0392 106.469 60.0921 106.362C60.1451 106.254 60.2748 106.194 60.3827 106.247C60.5029 106.291 60.5535 106.419 60.4986 106.536Z" fill="white"/>
<path d="M57.946 109.04C57.8811 109.239 57.764 109.339 57.6797 109.27C57.5954 109.201 57.563 109.002 57.6246 108.82C57.6896 108.622 57.8066 108.521 57.8995 108.592C57.9785 108.642 57.9991 108.857 57.946 109.04Z" fill="#E88B86"/>
<path d="M59.5292 106.587C59.43 106.862 59.2066 107.015 59.0213 106.924C58.8386 106.818 58.7777 106.512 58.8707 106.222C58.9725 105.933 59.1933 105.794 59.376 105.899C59.5613 105.991 59.6311 106.299 59.5292 106.587Z" fill="#E88B86"/>
<path d="M57.3514 110.19C57.3061 110.286 57.2006 110.328 57.1115 110.284C57.0139 110.239 56.9721 110.134 57.0158 110.046C57.0509 109.956 57.1665 109.907 57.2556 109.951C57.3463 109.986 57.3865 110.1 57.3514 110.19Z" fill="#E88B86"/>
<path d="M56.6208 108.186C56.5771 108.275 56.4699 108.324 56.3807 108.281C56.2915 108.237 56.2411 108.13 56.2848 108.042C56.3199 107.952 56.4357 107.904 56.5249 107.947C56.6158 107.982 56.6576 108.087 56.6208 108.186Z" fill="#E88B86"/>
<path d="M59.0642 109.031C59.0205 109.119 58.9132 109.169 58.824 109.125C58.7348 109.082 58.6844 108.975 58.7281 108.887C58.7633 108.796 58.8791 108.748 58.9683 108.792C59.0591 108.827 59.101 108.932 59.0642 109.031Z" fill="#E88B86"/>
<path d="M57.1872 107.178C57.1521 107.268 57.0363 107.317 56.9471 107.273C56.8579 107.229 56.8075 107.123 56.8512 107.034C56.8864 106.944 57.0022 106.896 57.0913 106.939C57.1822 106.975 57.224 107.08 57.1872 107.178Z" fill="#E88B86"/>
<path d="M60.0158 107.949C59.9627 108.133 59.8346 108.249 59.7511 108.18C59.6592 108.11 59.6358 107.911 59.6974 107.729C59.7589 107.547 59.8785 107.429 59.962 107.498C60.0488 107.55 60.0806 107.75 60.0158 107.949Z" fill="#E88B86"/>
<path d="M56.803 111.055C56.716 111.232 56.5028 111.332 56.3258 111.245C56.1487 111.157 56.0488 110.944 56.1359 110.767C56.223 110.59 56.4361 110.49 56.6302 110.581C56.7935 110.647 56.8901 110.878 56.803 111.055Z" fill="#E88B86"/>
<path d="M60.2927 106.513C60.2279 106.712 60.1117 106.813 60.0282 106.744C59.9447 106.675 59.9128 106.475 59.9743 106.293C60.0358 106.111 60.1554 105.994 60.2389 106.063C60.3341 106.116 60.3575 106.314 60.2927 106.513Z" fill="#E88B86"/>
<path d="M58.3548 106.885C58.2706 107.066 58.055 107.159 57.8737 107.075C57.6924 106.991 57.61 106.778 57.6823 106.596C57.7546 106.413 57.9821 106.322 58.1633 106.406C58.3469 106.479 58.4412 106.693 58.3548 106.885Z" fill="#E88B86"/>
<path d="M58.8361 110.184C58.7354 110.462 58.5079 110.616 58.3303 110.511C58.1527 110.406 58.0808 110.095 58.1815 109.817C58.2822 109.54 58.5098 109.386 58.6874 109.491C58.8767 109.584 58.9395 109.893 58.8361 110.184Z" fill="#E88B86"/>
<path d="M56.1091 110.776C55.9857 111.049 55.6625 111.185 55.3894 111.061C55.1162 110.938 54.9806 110.615 55.1041 110.342C55.2275 110.068 55.5507 109.933 55.8238 110.056C56.097 110.18 56.2326 110.503 56.1091 110.776Z" fill="#E88B86"/>
<path d="M58.5345 107.891C58.4349 108.177 58.2121 108.321 58.0279 108.219C57.8436 108.117 57.7809 107.798 57.8781 107.525C57.9778 107.238 58.2005 107.095 58.3848 107.197C58.5715 107.286 58.6342 107.604 58.5345 107.891Z" fill="#E88B86"/>
<path d="M56.7217 109.547C56.6166 109.729 56.3123 109.795 56.0272 109.701C55.7435 109.6 55.5998 109.377 55.6937 109.193C55.7988 109.012 56.103 108.946 56.3881 109.04C56.6733 109.134 56.8155 109.363 56.7217 109.547Z" fill="#E88B86"/>
<path d="M50.7899 103.668C50.7323 103.966 50.4453 104.16 50.1471 104.102C49.8489 104.045 49.6548 103.758 49.7124 103.46C49.77 103.161 50.0569 102.967 50.3551 103.025C50.6534 103.082 50.8474 103.369 50.7899 103.668Z" fill="#F5C1BE"/>
<path d="M50.2229 104.676C50.2047 104.77 50.1126 104.841 50.0087 104.821C49.9142 104.802 49.8437 104.71 49.8638 104.606C49.8838 104.502 49.974 104.441 50.078 104.461C50.1725 104.48 50.2412 104.581 50.2229 104.676Z" fill="#F5C1BE"/>
<path d="M50.801 105.532C50.7828 105.627 50.6813 105.695 50.5868 105.677C50.4923 105.659 50.4218 105.567 50.4419 105.463C50.4601 105.368 50.5616 105.3 50.6561 105.318C50.7507 105.336 50.8211 105.428 50.801 105.532Z" fill="#F5C1BE"/>
<path d="M50.5257 106.97C50.5074 107.064 50.4154 107.135 50.3114 107.115C50.2169 107.096 50.1464 107.004 50.1665 106.9C50.1847 106.806 50.2768 106.735 50.3808 106.755C50.4847 106.775 50.5439 106.875 50.5257 106.97Z" fill="#F5C1BE"/>
<path d="M51.3345 104.704C51.2969 104.899 51.101 105.031 50.906 104.994C50.711 104.956 50.5786 104.76 50.6162 104.565C50.6538 104.37 50.8497 104.238 51.0447 104.275C51.2397 104.313 51.3722 104.509 51.3345 104.704Z" fill="#F5C1BE"/>
<path d="M50.3053 106.181C50.2479 106.479 49.8793 106.658 49.4829 106.581C49.0866 106.505 48.8113 106.201 48.8686 105.904C48.926 105.607 49.2947 105.427 49.691 105.504C50.0855 105.59 50.3627 105.884 50.3053 106.181Z" fill="#F5C1BE"/>
<path d="M39.3408 100.084L40.4051 105.151L40.1865 105.091L40.1077 105.069L40.1077 105.069L40.1046 105.069C39.5005 104.909 38.9251 104.931 38.3339 105.228C37.8944 105.448 37.5353 105.723 37.1912 106.035C36.9181 106.278 36.7039 106.448 36.4711 106.51C36.1516 106.593 35.7985 106.596 35.4555 106.529L35.4555 106.529L35.4503 106.528C35.319 106.504 35.1937 106.468 35.0484 106.428C35.0053 106.416 34.9605 106.403 34.9132 106.39C34.7185 106.337 34.4924 106.281 34.2488 106.268L34.2464 106.268C33.7529 106.243 33.2393 106.387 32.8266 106.645L32.8266 106.645L32.8224 106.647C32.5491 106.822 32.3334 107.044 32.163 107.298L32.0773 107.425L30.9073 101.856C30.9295 101.839 30.9585 101.819 30.9957 101.795C31.1771 101.682 31.4697 101.544 31.8649 101.395C32.6491 101.099 33.7667 100.782 35.0289 100.517C36.291 100.251 37.4419 100.092 38.2789 100.048C38.7007 100.025 39.0238 100.033 39.2356 100.064C39.2791 100.071 39.3137 100.078 39.3408 100.084ZM30.8457 101.91C30.8457 101.91 30.8463 101.91 30.8477 101.908C30.8465 101.91 30.8458 101.91 30.8457 101.91ZM39.4193 100.109C39.4192 100.109 39.4182 100.109 39.4165 100.108C39.4185 100.109 39.4193 100.109 39.4193 100.109Z" stroke="white" stroke-width="0.83395"/>
<path d="M37.6173 116.682C38.2346 116.836 40.291 128.791 40.291 128.791L40.3247 128.775C40.4048 128.758 40.9473 128.644 40.9473 128.644C40.9473 128.644 41.4491 128.557 41.5203 128.542L41.5666 128.542C41.5666 128.542 38.6653 116.764 39.1851 116.409C41.0464 115.102 42.2274 111.795 41.7259 109.408L41.449 108.399C41.9942 110.994 40.697 115.119 38.1445 115.655C35.8411 116.139 33.3109 113.555 32.4309 111.134L32.4765 111.351C32.9583 113.733 35.3056 116.11 37.6173 116.682Z" fill="#D2CFCF"/>
<path d="M46.2679 129.229C42.7349 128.658 41.5041 128.573 41.4141 128.592C41.342 128.607 40.8342 128.696 40.8342 128.696C40.8342 128.696 40.2939 128.81 40.2039 128.829C40.1228 128.846 39.0213 129.421 36.0167 131.365C34.8571 132.111 40.5111 130.694 41.1542 130.533C41.1722 130.529 47.707 129.456 46.2679 129.229Z" fill="#E2E1E0"/>
<path d="M39.9988 105.549C39.4794 105.41 39.0123 105.432 38.5274 105.677C38.1361 105.883 37.8075 106.124 37.4815 106.421C37.2257 106.656 36.9452 106.906 36.5929 106.989C36.207 107.089 35.7892 107.082 35.3953 107.012C35.0103 106.94 34.6435 106.779 34.2504 106.756C33.8484 106.736 33.4201 106.854 33.0769 107.07C32.8551 107.202 32.682 107.391 32.5414 107.602L33.217 110.818C33.6776 113.011 36.0327 115.769 38.1408 115.326C40.2488 114.884 41.2949 111.411 40.8343 109.218L40.0665 105.563L39.9988 105.549ZM34.2191 107.488C34.4937 107.43 34.7542 107.614 34.8118 107.888C34.8713 108.171 34.6959 108.437 34.4302 108.493C34.1556 108.551 33.8951 108.367 33.8375 108.093C33.7799 107.819 33.9445 107.546 34.2191 107.488ZM34.7714 109.06C34.7906 109.152 34.737 109.249 34.6396 109.269C34.551 109.288 34.4559 109.232 34.4348 109.131C34.4156 109.04 34.4692 108.943 34.5666 108.922C34.6571 108.913 34.7522 108.969 34.7714 109.06ZM33.4351 109.303C33.4006 109.139 33.4977 108.985 33.6571 108.951C33.8166 108.918 33.9674 109.019 34.002 109.184C34.0365 109.348 33.9394 109.502 33.78 109.536C33.6294 109.567 33.4697 109.467 33.4351 109.303ZM34.6505 110.774C34.3671 110.834 34.0958 110.643 34.0363 110.36C33.9768 110.076 34.1483 109.792 34.4317 109.733C34.7063 109.675 34.9846 109.855 35.046 110.148C35.1055 110.431 34.9251 110.717 34.6505 110.774ZM35.4544 111.035C35.3658 111.053 35.2707 110.997 35.2496 110.897C35.2304 110.805 35.284 110.708 35.3814 110.688C35.47 110.669 35.5651 110.725 35.5862 110.826C35.6054 110.917 35.5429 111.016 35.4544 111.035ZM35.4097 109.766C35.3212 109.785 35.2261 109.728 35.205 109.628C35.1858 109.536 35.2394 109.439 35.3368 109.419C35.4254 109.4 35.5204 109.456 35.5416 109.557C35.5608 109.648 35.4983 109.747 35.4097 109.766ZM35.378 108.866C35.2097 108.902 35.0461 108.783 35.0096 108.61C34.9732 108.436 35.0753 108.262 35.2436 108.227C35.4119 108.191 35.5843 108.308 35.6208 108.481C35.6592 108.664 35.5463 108.831 35.378 108.866ZM40.0892 108.621C40.1778 108.602 40.264 108.66 40.2851 108.761C40.3043 108.852 40.2507 108.949 40.1621 108.968C40.0736 108.987 39.9785 108.93 39.9574 108.83C39.9382 108.738 39.9918 108.641 40.0892 108.621ZM39.2227 108.898C39.3909 108.863 39.5634 108.979 39.5998 109.153C39.6363 109.326 39.5253 109.502 39.357 109.538C39.1887 109.573 39.0163 109.457 38.9798 109.283C38.9434 109.109 39.0544 108.933 39.2227 108.898ZM39.8925 110.37C39.9308 110.552 39.8218 110.738 39.6358 110.777C39.4586 110.814 39.2773 110.699 39.237 110.507C39.1986 110.325 39.3166 110.138 39.4937 110.1C39.6797 110.061 39.8541 110.187 39.8925 110.37ZM38.138 111.835C38.0494 111.854 37.9544 111.798 37.9333 111.697C37.9141 111.606 37.9676 111.509 38.0651 111.488C38.1536 111.47 38.2487 111.526 38.2698 111.626C38.2909 111.727 38.2266 111.817 38.138 111.835ZM39.0703 113.5C38.902 113.535 38.7315 113.428 38.6931 113.245C38.6566 113.072 38.7607 112.907 38.9379 112.869C39.1061 112.834 39.2678 112.943 39.3043 113.117C39.3407 113.29 39.2386 113.464 39.0703 113.5ZM39.0697 112.66C38.866 112.703 38.6612 112.565 38.6171 112.355C38.5729 112.145 38.7047 111.936 38.9085 111.893C39.1122 111.85 39.3169 111.988 39.3611 112.199C39.4052 112.409 39.2734 112.618 39.0697 112.66ZM38.781 111.242C38.7618 111.151 38.8154 111.054 38.9129 111.033C39.0014 111.015 39.0965 111.071 39.1176 111.172C39.1368 111.263 39.0832 111.36 38.9858 111.381C38.8884 111.401 38.8002 111.334 38.781 111.242ZM38.8483 110.198C38.7155 110.226 38.595 110.137 38.5681 110.009C38.5393 109.872 38.6245 109.749 38.7485 109.723C38.8814 109.695 39.0018 109.784 39.0287 109.912C39.0644 110.038 38.9812 110.17 38.8483 110.198ZM39.871 113.217C39.7824 113.236 39.6873 113.179 39.6662 113.079C39.647 112.988 39.7006 112.89 39.7981 112.87C39.8866 112.851 39.9817 112.908 40.0028 113.008C40.022 113.1 39.9684 113.197 39.871 113.217ZM39.7414 112.424C39.6528 112.443 39.5577 112.386 39.5366 112.286C39.5174 112.194 39.571 112.097 39.6684 112.077C39.757 112.058 39.8521 112.114 39.8732 112.215C39.8943 112.315 39.8388 112.403 39.7414 112.424ZM39.8977 111.847C39.7294 111.883 39.557 111.766 39.5205 111.593C39.484 111.419 39.5969 111.252 39.7652 111.217C39.9335 111.182 40.0971 111.3 40.1316 111.464C40.1789 111.645 40.066 111.812 39.8977 111.847ZM40.3587 111.092C40.2701 111.111 40.175 111.054 40.1539 110.954C40.1347 110.863 40.1883 110.765 40.2857 110.745C40.3743 110.726 40.4694 110.783 40.4905 110.883C40.5028 110.986 40.4472 111.074 40.3587 111.092ZM40.3814 109.924C40.2928 109.942 40.1977 109.886 40.1766 109.785C40.1574 109.694 40.211 109.597 40.3084 109.576C40.397 109.558 40.4921 109.614 40.5132 109.715C40.5255 109.817 40.4699 109.905 40.3814 109.924Z" fill="white"/>
<path d="M39.7491 112.165C39.7792 112.308 39.749 112.449 39.6702 112.466C39.5987 112.481 39.5102 112.38 39.4771 112.222C39.447 112.079 39.4772 111.938 39.5559 111.922C39.6347 111.905 39.719 112.022 39.7491 112.165Z" fill="#D24530"/>
<path d="M38.1873 111.499C38.2024 111.57 38.1586 111.647 38.0799 111.663C38.0083 111.678 37.9318 111.635 37.9153 111.556C37.9003 111.484 37.944 111.408 38.0227 111.391C38.0943 111.376 38.1708 111.42 38.1873 111.499Z" fill="#D24530"/>
<path d="M40.4806 110.813C40.4761 110.716 40.3942 110.641 40.2975 110.646C40.2009 110.65 40.1261 110.732 40.1306 110.829C40.1351 110.926 40.217 111 40.3137 110.996C40.4103 110.991 40.4851 110.909 40.4806 110.813Z" fill="#D24530"/>
<path d="M40.6234 109.567C40.6385 109.638 40.5375 109.727 40.38 109.76C40.2368 109.79 40.0959 109.76 40.0794 109.681C40.0643 109.609 40.1653 109.521 40.3228 109.488C40.4818 109.462 40.6084 109.495 40.6234 109.567Z" fill="#D24530"/>
<path d="M39.8905 112.845C39.9055 112.917 39.8618 112.994 39.783 113.01C39.7114 113.025 39.635 112.981 39.6184 112.903C39.6034 112.831 39.6471 112.755 39.7259 112.738C39.8046 112.721 39.8754 112.774 39.8905 112.845Z" fill="#D24530"/>
<path d="M40.1776 108.808C40.1926 108.88 40.1473 108.957 40.0738 108.972C40.0003 108.988 39.9221 108.944 39.9055 108.866C39.8905 108.794 39.9358 108.717 40.0167 108.7C40.0902 108.685 40.1625 108.737 40.1776 108.808Z" fill="#D24530"/>
<path d="M38.9626 109.774C38.9933 109.92 38.8942 110.072 38.7477 110.103C38.5907 110.136 38.4492 110.035 38.4185 109.888C38.3855 109.731 38.4869 109.59 38.6334 109.559C38.7799 109.528 38.9318 109.627 38.9626 109.774Z" fill="#D24530"/>
<path d="M40.1482 111.365C40.1953 111.59 40.1168 111.804 39.967 111.835C39.8171 111.867 39.6512 111.704 39.6041 111.48C39.5569 111.255 39.6458 111.051 39.7956 111.02C39.9351 110.978 40.101 111.141 40.1482 111.365Z" fill="#D24530"/>
<path d="M39.3459 112.953C39.3931 113.178 39.2555 113.405 39.0307 113.452C38.806 113.499 38.5795 113.361 38.5298 113.125C38.4826 112.9 38.6227 112.685 38.8593 112.636C39.084 112.588 39.2987 112.729 39.3459 112.953Z" fill="#D24530"/>
<path d="M39.9214 110.283C39.9677 110.504 39.8306 110.729 39.599 110.777C39.3785 110.824 39.1539 110.687 39.1053 110.455C39.0589 110.234 39.207 110.007 39.4276 109.961C39.6592 109.912 39.8751 110.063 39.9214 110.283Z" fill="#D24530"/>
<path d="M39.4468 112.086C39.4937 112.31 39.3479 112.533 39.1244 112.58C38.901 112.627 38.6776 112.481 38.6306 112.258C38.5837 112.034 38.7295 111.811 38.953 111.764C39.1765 111.717 39.3998 111.863 39.4468 112.086Z" fill="#D24530"/>
<path d="M34.5828 107.853C34.6472 108.16 34.5116 108.436 34.289 108.483C34.059 108.531 33.829 108.321 33.7667 108.025C33.7043 107.728 33.8379 107.442 34.0605 107.395C34.281 107.338 34.5184 107.547 34.5828 107.853Z" fill="#ED8B74"/>
<path d="M34.5682 109.136C34.5832 109.207 34.5395 109.284 34.4608 109.3C34.3892 109.315 34.3127 109.271 34.2962 109.193C34.2811 109.121 34.3249 109.045 34.4036 109.028C34.4767 109.02 34.5532 109.064 34.5682 109.136Z" fill="#ED8B74"/>
<path d="M35.4979 109.508C35.5129 109.579 35.4692 109.656 35.3904 109.672C35.3188 109.687 35.2424 109.643 35.2258 109.565C35.2108 109.493 35.2545 109.417 35.3333 109.4C35.4049 109.385 35.4828 109.436 35.4979 109.508Z" fill="#ED8B74"/>
<path d="M35.4815 110.789C35.5116 110.932 35.4814 111.073 35.4027 111.09C35.3311 111.105 35.2426 111.004 35.2095 110.846C35.1794 110.703 35.2096 110.562 35.2884 110.546C35.36 110.531 35.4515 110.646 35.4815 110.789Z" fill="#ED8B74"/>
<path d="M35.568 108.498C35.5991 108.645 35.499 108.796 35.3492 108.828C35.1994 108.859 35.055 108.76 35.0239 108.612C34.9929 108.464 35.0851 108.315 35.2349 108.284C35.3847 108.252 35.537 108.35 35.568 108.498Z" fill="#ED8B74"/>
<path d="M35.0384 110.03C35.1006 110.326 34.9141 110.625 34.6086 110.689C34.3032 110.753 34.0124 110.555 33.9502 110.259C33.8881 109.963 34.0746 109.665 34.38 109.601C34.6759 109.538 34.9742 109.725 35.0384 110.03Z" fill="#ED8B74"/>
<path d="M38.9471 111.055C38.9621 111.127 38.9184 111.203 38.8397 111.22C38.7681 111.235 38.6916 111.191 38.6751 111.113C38.66 111.041 38.7038 110.965 38.7825 110.948C38.8613 110.931 38.9321 110.984 38.9471 111.055Z" fill="#D24530"/>
<path d="M39.6623 109.059C39.6934 109.206 39.533 109.37 39.3114 109.416C39.0899 109.463 38.8772 109.378 38.8462 109.23C38.8152 109.082 38.9639 108.921 39.1971 108.872C39.4187 108.826 39.6313 108.911 39.6623 109.059Z" fill="#D24530"/>
<path d="M39.7491 112.165C39.7792 112.308 39.749 112.449 39.6702 112.466C39.5987 112.481 39.5102 112.38 39.4771 112.222C39.447 112.079 39.4772 111.938 39.5559 111.922C39.6347 111.905 39.719 112.022 39.7491 112.165Z" fill="#D24530"/>
<path d="M38.1873 111.499C38.2024 111.57 38.1586 111.647 38.0799 111.663C38.0083 111.678 37.9318 111.635 37.9153 111.556C37.9003 111.484 37.944 111.408 38.0227 111.391C38.0943 111.376 38.1708 111.42 38.1873 111.499Z" fill="#D24530"/>
<path d="M40.4806 110.813C40.4761 110.716 40.3942 110.641 40.2975 110.646C40.2009 110.65 40.1261 110.732 40.1306 110.829C40.1351 110.926 40.217 111 40.3137 110.996C40.4103 110.991 40.4851 110.909 40.4806 110.813Z" fill="#D24530"/>
<path d="M40.6234 109.567C40.6385 109.638 40.5375 109.727 40.38 109.76C40.2368 109.79 40.0959 109.76 40.0794 109.681C40.0643 109.609 40.1653 109.521 40.3228 109.488C40.4818 109.462 40.6084 109.495 40.6234 109.567Z" fill="#D24530"/>
<path d="M39.8905 112.845C39.9055 112.917 39.8618 112.994 39.783 113.01C39.7114 113.025 39.635 112.981 39.6184 112.903C39.6034 112.831 39.6471 112.755 39.7259 112.738C39.8046 112.721 39.8754 112.774 39.8905 112.845Z" fill="#D24530"/>
<path d="M40.1776 108.808C40.1926 108.88 40.1473 108.957 40.0738 108.972C40.0003 108.988 39.9221 108.944 39.9055 108.866C39.8905 108.794 39.9358 108.717 40.0167 108.7C40.0902 108.685 40.1625 108.737 40.1776 108.808Z" fill="#D24530"/>
<path d="M38.9626 109.774C38.9933 109.92 38.8942 110.072 38.7477 110.103C38.5907 110.136 38.4492 110.035 38.4185 109.888C38.3855 109.731 38.4869 109.59 38.6334 109.559C38.7799 109.528 38.9318 109.627 38.9626 109.774Z" fill="#D24530"/>
<path d="M40.1482 111.365C40.1953 111.59 40.1168 111.804 39.967 111.835C39.8171 111.867 39.6512 111.704 39.6041 111.48C39.5569 111.255 39.6458 111.051 39.7956 111.02C39.9351 110.978 40.101 111.141 40.1482 111.365Z" fill="#D24530"/>
<path d="M39.3459 112.953C39.3931 113.178 39.2555 113.405 39.0307 113.452C38.806 113.499 38.5795 113.361 38.5298 113.125C38.4826 112.9 38.6227 112.685 38.8593 112.636C39.084 112.588 39.2987 112.729 39.3459 112.953Z" fill="#D24530"/>
<path d="M39.9214 110.283C39.9677 110.504 39.8306 110.729 39.599 110.777C39.3785 110.824 39.1539 110.687 39.1053 110.455C39.0589 110.234 39.207 110.007 39.4276 109.961C39.6592 109.912 39.8751 110.063 39.9214 110.283Z" fill="#D24530"/>
<path d="M39.4468 112.086C39.4937 112.31 39.3479 112.533 39.1244 112.58C38.901 112.627 38.6776 112.481 38.6306 112.258C38.5837 112.034 38.7295 111.811 38.953 111.764C39.1765 111.717 39.3998 111.863 39.4468 112.086Z" fill="#D24530"/>
<path d="M38.5046 100.839C38.5046 100.839 38.0403 101.004 37.3385 101.226C37.1684 101.284 36.9678 101.333 36.7671 101.383C36.5573 101.435 36.349 101.493 36.1208 101.549C35.8925 101.604 35.6658 101.667 35.4254 101.71C35.1865 101.76 34.9476 101.81 34.7087 101.86C34.2187 101.948 33.7349 102.02 33.2787 102.086C32.821 102.145 32.3863 102.177 32.0252 102.193C31.6548 102.211 31.3535 102.193 31.1394 102.178C31.0323 102.171 30.959 102.141 30.8994 102.132C30.8489 102.12 30.8184 102.111 30.8184 102.111C30.8184 102.111 30.8474 102.113 30.9056 102.115C30.9637 102.118 31.0432 102.131 31.1473 102.124C31.3584 102.125 31.6584 102.091 32.0258 102.059C32.3916 102.019 32.8081 101.947 33.2643 101.881C33.719 101.807 34.1998 101.721 34.6791 101.628C34.9195 101.585 35.1585 101.535 35.3988 101.492C35.6301 101.451 35.8675 101.393 36.088 101.347C36.5367 101.245 36.9547 101.18 37.3193 101.088C38.0161 100.934 38.5046 100.839 38.5046 100.839Z" fill="#C6C0C0"/>
<path opacity="0.1" d="M258.414 46.0615C266.214 49.8615 275.014 52.0615 284.214 52.0615C288.414 52.0615 292.614 51.5615 296.514 50.7615C291.114 44.8615 283.414 41.0615 274.714 41.0615C268.714 41.0615 263.014 42.8615 258.414 46.0615Z" fill="url(#paint84_linear_393_24691)"/>
<path d="M308.03 79.2768C311.809 63.4845 302.069 47.6194 286.277 43.841C270.485 40.0626 254.62 49.8018 250.841 65.594C247.063 81.3863 256.802 97.2515 272.594 101.03C288.387 104.808 304.252 95.0691 308.03 79.2768Z" fill="#FEFEFE" fill-opacity="0.18"/>
<path d="M225.6 80C219.7 80 215 84.8 215 90.6C215 94.7 217.3 96.4 220.7 97.1V101C220.7 101.7 221.3 102.3 222 102.3C222.7 102.3 223.3 101.7 223.3 101V99.7H224.4V101C224.4 101.7 225 102.3 225.7 102.3C226.4 102.3 227 101.7 227 101V99.7H228.1V101C228.1 101.7 228.7 102.3 229.4 102.3C230.1 102.3 230.7 101.7 230.7 101V97C234 96.3 236.2 94.5 236.2 90.5C236.2 84.8 231.5 80 225.6 80ZM221.4 94.2C219.5 94.2 218 92.7 218 90.8C218 88.9 219.5 87.4 221.4 87.4C223.3 87.4 224.8 88.9 224.8 90.8C224.8 92.7 223.3 94.2 221.4 94.2ZM229.8 94.2C227.9 94.2 226.4 92.7 226.4 90.8C226.4 88.9 227.9 87.4 229.8 87.4C231.7 87.4 233.2 88.9 233.2 90.8C233.2 92.7 231.7 94.2 229.8 94.2Z" fill="white"/>
<path d="M277.7 142.1C276.6 138 273.4 134.7 269.3 133.6C268.9 133.5 268.9 132.9 269.3 132.8C273.4 131.7 276.6 128.4 277.7 124.3C277.8 123.9 278.4 123.9 278.5 124.3C279.6 128.4 282.8 131.7 286.9 132.8C287.3 132.9 287.3 133.5 286.9 133.6C282.8 134.7 279.6 138 278.5 142.1C278.4 142.5 277.9 142.5 277.7 142.1Z" fill="white"/>
<path d="M291.7 152.5C291.1 150.4 289.5 148.7 287.3 148.1C287.1 148 287.1 147.8 287.3 147.7C289.4 147.1 291.1 145.4 291.7 143.3C291.8 143.1 292 143.1 292.1 143.3C292.7 145.4 294.3 147.1 296.5 147.7C296.7 147.8 296.7 148 296.5 148.1C294.4 148.7 292.7 150.4 292.1 152.5C292 152.7 291.7 152.7 291.7 152.5Z" fill="white"/>
<g clip-path="url(#clip0_393_24691)">
<path d="M287.915 58.0745L286.5 56.8433C286.207 56.5881 285.747 56.7252 285.641 57.0996L284.652 60.6078H283.46C283.242 60.6078 283.072 60.7987 283.097 61.0158L283.25 62.3084C283.68 62.3084 284.115 62.4142 284.518 62.6377C285.636 63.2586 286.12 64.5771 285.731 65.7479H286.268C286.453 65.7479 286.609 65.6093 286.631 65.4254L287.151 61.0158C287.176 60.7989 287.007 60.6078 286.788 60.6078H285.755L286.435 58.1935L287.218 58.8749C287.439 59.0672 287.774 59.044 287.967 58.823C288.159 58.6019 288.136 58.2668 287.915 58.0745Z" fill="white"/>
<path d="M294.668 79.6716L288.513 71.8779C288.005 71.234 287.081 71.1025 286.413 71.5787L283.559 73.6139L282.06 71.8516C281.727 72.0207 281.343 72.0806 280.969 72.0114L275.936 71.0725L280.863 70.6802C281.291 70.6461 281.673 70.4 281.882 70.0249L284.369 65.548C284.712 64.9292 284.489 64.1488 283.871 63.8051C283.252 63.4613 282.471 63.6843 282.128 64.3031L279.974 68.1792L275.732 68.5169L278.408 67.5602L278.126 67.2282C277.442 66.4243 276.236 66.3271 275.432 67.0111L272.955 69.1185C272.549 69.4639 272.306 69.963 272.284 70.4955C272.262 71.028 272.463 71.5454 272.839 71.9229L279.517 78.6263C279.863 78.9735 280.346 79.1469 280.834 79.0988C281.214 79.0612 281.565 78.8915 281.83 78.6251C281.831 78.6244 281.832 78.6239 281.833 78.6232L287.007 74.9338L292.253 81.578C292.78 82.245 293.747 82.3582 294.414 81.832C295.08 81.3055 295.194 80.3383 294.668 79.6716Z" fill="white"/>
<path d="M272.773 66.216C274.335 66.216 275.602 64.9493 275.602 63.3868C275.602 61.8243 274.335 60.5576 272.773 60.5576C271.21 60.5576 269.943 61.8243 269.943 63.3868C269.943 64.9493 271.21 66.216 272.773 66.216Z" fill="white"/>
<path d="M287.762 76.9171C287.388 76.4655 286.719 76.4021 286.268 76.7758L280.715 81.3701L269.925 70.5798C270.408 70.683 270.889 70.5302 271.221 70.1977C271.774 69.6452 271.774 68.7495 271.221 68.197L267.62 64.595C267.067 64.0425 266.171 64.0426 265.619 64.595C265.267 64.9471 265.14 65.4385 265.237 65.8917L264.811 65.4663C264.397 65.052 263.725 65.052 263.311 65.4663C262.896 65.8807 262.896 66.5525 263.311 66.9668L279.073 82.7288L275.834 85.4081C275.383 85.7816 275.32 86.4505 275.693 86.902C276.067 87.3537 276.736 87.4165 277.187 87.0431L280.58 84.2361L283.32 86.9759C283.734 87.3902 284.406 87.3903 284.82 86.9759C285.235 86.5615 285.235 85.8897 284.82 85.4754L282.222 82.8773L287.62 78.4109C288.072 78.0374 288.135 77.3685 287.762 76.9171Z" fill="white"/>
</g>
<defs>
<linearGradient id="paint0_linear_393_24691" x1="50.4199" y1="242.02" x2="97.3676" y2="242.02" gradientUnits="userSpaceOnUse">
<stop offset="0.02" stop-color="#FFC2A9"/>
<stop offset="1" stop-color="#FF9595"/>
</linearGradient>
<linearGradient id="paint1_linear_393_24691" x1="91.0018" y1="265.393" x2="63.9098" y2="240.599" gradientUnits="userSpaceOnUse">
<stop stop-color="#FF817F"/>
<stop offset="1" stop-color="#CF6074"/>
</linearGradient>
<linearGradient id="paint2_linear_393_24691" x1="54.6875" y1="258.892" x2="96.7122" y2="258.892" gradientUnits="userSpaceOnUse">
<stop offset="0.02" stop-color="#FFA58B"/>
<stop offset="1" stop-color="#FF9595"/>
</linearGradient>
<linearGradient id="paint3_linear_393_24691" x1="283.89" y1="242.02" x2="236.942" y2="242.02" gradientUnits="userSpaceOnUse">
<stop offset="0.02" stop-color="#FFC2A9"/>
<stop offset="1" stop-color="#FF9595"/>
</linearGradient>
<linearGradient id="paint4_linear_393_24691" x1="243.302" y1="265.394" x2="270.4" y2="240.599" gradientUnits="userSpaceOnUse">
<stop stop-color="#FF817F"/>
<stop offset="1" stop-color="#CF6074"/>
</linearGradient>
<linearGradient id="paint5_linear_393_24691" x1="279.618" y1="258.892" x2="237.598" y2="258.892" gradientUnits="userSpaceOnUse">
<stop offset="0.02" stop-color="#FFA58B"/>
<stop offset="1" stop-color="#FF9595"/>
</linearGradient>
<linearGradient id="paint6_linear_393_24691" x1="171.292" y1="97.8764" x2="171.72" y2="133.399" gradientUnits="userSpaceOnUse">
<stop offset="0.02" stop-color="#FFC2A9"/>
<stop offset="1" stop-color="#FF9595"/>
</linearGradient>
<linearGradient id="paint7_linear_393_24691" x1="167.514" y1="119.396" x2="165.185" y2="97.9712" gradientUnits="userSpaceOnUse">
<stop stop-color="#FF817F"/>
<stop offset="1" stop-color="#CF6074"/>
</linearGradient>
<linearGradient id="paint8_linear_393_24691" x1="145.816" y1="132.368" x2="184.556" y2="132.368" gradientUnits="userSpaceOnUse">
<stop stop-color="#FF817F"/>
<stop offset="1" stop-color="#CF6074"/>
</linearGradient>
<linearGradient id="paint9_linear_393_24691" x1="243.218" y1="225.323" x2="243.171" y2="225.08" gradientUnits="userSpaceOnUse">
<stop stop-color="#9D68C2"/>
<stop offset="1" stop-color="#CCEDFF"/>
</linearGradient>
<linearGradient id="paint10_linear_393_24691" x1="163.299" y1="242.828" x2="162.692" y2="121.407" gradientUnits="userSpaceOnUse">
<stop stop-color="#2B474F"/>
<stop offset="1" stop-color="#219FA7"/>
</linearGradient>
<linearGradient id="paint11_linear_393_24691" x1="269.287" y1="147.301" x2="225.551" y2="168.086" gradientUnits="userSpaceOnUse">
<stop stop-color="#055257"/>
<stop offset="1" stop-color="#226B70"/>
</linearGradient>
<linearGradient id="paint12_linear_393_24691" x1="252.053" y1="154.896" x2="207.372" y2="176.131" gradientUnits="userSpaceOnUse">
<stop stop-color="#2D8085"/>
<stop offset="1" stop-color="#083D40"/>
</linearGradient>
<linearGradient id="paint13_linear_393_24691" x1="254.115" y1="157.833" x2="222.956" y2="172.639" gradientUnits="userSpaceOnUse">
<stop stop-color="#2D8085"/>
<stop offset="1" stop-color="#095155"/>
</linearGradient>
<linearGradient id="paint14_linear_393_24691" x1="61.5822" y1="147.301" x2="105.318" y2="168.086" gradientUnits="userSpaceOnUse">
<stop stop-color="#3D8A8F"/>
<stop offset="1" stop-color="#197479"/>
</linearGradient>
<linearGradient id="paint15_linear_393_24691" x1="78.8122" y1="154.896" x2="123.494" y2="176.131" gradientUnits="userSpaceOnUse">
<stop stop-color="#215356"/>
<stop offset="1" stop-color="#083D40"/>
</linearGradient>
<linearGradient id="paint16_linear_393_24691" x1="76.7514" y1="157.833" x2="107.911" y2="172.639" gradientUnits="userSpaceOnUse">
<stop stop-color="#2D8085"/>
<stop offset="1" stop-color="#095155"/>
</linearGradient>
<linearGradient id="paint17_linear_393_24691" x1="166.093" y1="148.986" x2="163.732" y2="301.434" gradientUnits="userSpaceOnUse">
<stop stop-color="#CCEDFF"/>
<stop offset="1" stop-color="#9D68C2"/>
</linearGradient>
<linearGradient id="paint18_linear_393_24691" x1="127.666" y1="76.7943" x2="136.915" y2="67.9044" gradientUnits="userSpaceOnUse">
<stop offset="0.02" stop-color="#FFAC8B"/>
<stop offset="1" stop-color="#FF9595"/>
</linearGradient>
<linearGradient id="paint19_linear_393_24691" x1="128.295" y1="73.4406" x2="136.509" y2="73.4406" gradientUnits="userSpaceOnUse">
<stop stop-color="#FF817F"/>
<stop offset="1" stop-color="#CF6074"/>
</linearGradient>
<linearGradient id="paint20_linear_393_24691" x1="135.917" y1="67.8674" x2="131.079" y2="63.478" gradientUnits="userSpaceOnUse">
<stop stop-color="#FFA795"/>
<stop offset="0.98" stop-color="#FFC2A9"/>
</linearGradient>
<linearGradient id="paint21_linear_393_24691" x1="203.205" y1="76.7943" x2="193.956" y2="67.9044" gradientUnits="userSpaceOnUse">
<stop offset="0.02" stop-color="#FFAC8B"/>
<stop offset="1" stop-color="#FF9595"/>
</linearGradient>
<linearGradient id="paint22_linear_393_24691" x1="202.571" y1="73.4406" x2="194.357" y2="73.4406" gradientUnits="userSpaceOnUse">
<stop stop-color="#FF817F"/>
<stop offset="1" stop-color="#CF6074"/>
</linearGradient>
<linearGradient id="paint23_linear_393_24691" x1="194.955" y1="67.8674" x2="199.788" y2="63.478" gradientUnits="userSpaceOnUse">
<stop stop-color="#FFA795"/>
<stop offset="0.98" stop-color="#FFC2A9"/>
</linearGradient>
<linearGradient id="paint24_linear_393_24691" x1="165.433" y1="107.722" x2="165.433" y2="34.5118" gradientUnits="userSpaceOnUse">
<stop offset="0.02" stop-color="#FFC2A9"/>
<stop offset="1" stop-color="#FF9595"/>
</linearGradient>
<linearGradient id="paint25_linear_393_24691" x1="154.279" y1="84.589" x2="154.154" y2="83.4443" gradientUnits="userSpaceOnUse">
<stop offset="0.02" stop-color="#FFA58B"/>
<stop offset="1" stop-color="#FF9595"/>
</linearGradient>
<linearGradient id="paint26_linear_393_24691" x1="178.212" y1="87.7727" x2="178.437" y2="86.402" gradientUnits="userSpaceOnUse">
<stop offset="0.02" stop-color="#FFA58B"/>
<stop offset="1" stop-color="#FF9595"/>
</linearGradient>
<linearGradient id="paint27_linear_393_24691" x1="165.617" y1="89.5083" x2="164.626" y2="96.9842" gradientUnits="userSpaceOnUse">
<stop stop-color="#E1616A"/>
<stop offset="1" stop-color="#FF8883"/>
</linearGradient>
<linearGradient id="paint28_linear_393_24691" x1="166.157" y1="84.2051" x2="166.157" y2="94.5682" gradientUnits="userSpaceOnUse">
<stop stop-color="#297276"/>
<stop offset="1" stop-color="#2D8085" stop-opacity="0"/>
</linearGradient>
<linearGradient id="paint29_linear_393_24691" x1="165.62" y1="88.7267" x2="166.156" y2="85.4746" gradientUnits="userSpaceOnUse">
<stop stop-color="#E1616A"/>
<stop offset="1" stop-color="#FF8883"/>
</linearGradient>
<linearGradient id="paint30_linear_393_24691" x1="133.867" y1="47.2885" x2="196.857" y2="47.2885" gradientUnits="userSpaceOnUse">
<stop stop-color="#CF6074"/>
<stop offset="1" stop-color="#FF817F"/>
</linearGradient>
<linearGradient id="paint31_linear_393_24691" x1="152.191" y1="33.851" x2="152.191" y2="61.5769" gradientUnits="userSpaceOnUse">
<stop stop-color="#2D8085"/>
<stop offset="1" stop-color="#095155"/>
</linearGradient>
<linearGradient id="paint32_linear_393_24691" x1="181.483" y1="79.1991" x2="176.989" y2="52.8514" gradientUnits="userSpaceOnUse">
<stop stop-color="#FFA58B" stop-opacity="0.6"/>
<stop offset="1" stop-color="#FF9595"/>
</linearGradient>
<linearGradient id="paint33_linear_393_24691" x1="181.032" y1="79.6628" x2="180.577" y2="74.6184" gradientUnits="userSpaceOnUse">
<stop offset="0.02" stop-color="#FFA58B"/>
<stop offset="1" stop-color="#FF9595"/>
</linearGradient>
<linearGradient id="paint34_linear_393_24691" x1="186.886" y1="66.8987" x2="172.654" y2="70.3605" gradientUnits="userSpaceOnUse">
<stop stop-color="#CF6074"/>
<stop offset="1" stop-color="#FF817F"/>
</linearGradient>
<linearGradient id="paint35_linear_393_24691" x1="184.464" y1="82.8446" x2="177.177" y2="65.0392" gradientUnits="userSpaceOnUse">
<stop stop-color="#2D8085"/>
<stop offset="1" stop-color="#116166"/>
</linearGradient>
<linearGradient id="paint36_linear_393_24691" x1="178.671" y1="77.5392" x2="177.842" y2="67.2231" gradientUnits="userSpaceOnUse">
<stop stop-color="#53979B"/>
<stop offset="1" stop-color="#2D8085"/>
</linearGradient>
<linearGradient id="paint37_linear_393_24691" x1="181.313" y1="72.9382" x2="175.291" y2="72.9382" gradientUnits="userSpaceOnUse">
<stop stop-color="#2D8085"/>
<stop offset="1" stop-color="#002538"/>
</linearGradient>
<linearGradient id="paint38_linear_393_24691" x1="149.815" y1="78.82" x2="153.606" y2="56.1078" gradientUnits="userSpaceOnUse">
<stop stop-color="#FFA58B" stop-opacity="0.6"/>
<stop offset="1" stop-color="#FF9595"/>
</linearGradient>
<linearGradient id="paint39_linear_393_24691" x1="149.836" y1="79.6628" x2="150.285" y2="74.6184" gradientUnits="userSpaceOnUse">
<stop offset="0.02" stop-color="#FFA58B"/>
<stop offset="1" stop-color="#FF9595"/>
</linearGradient>
<linearGradient id="paint40_linear_393_24691" x1="145.153" y1="63.8398" x2="159.385" y2="67.3016" gradientUnits="userSpaceOnUse">
<stop stop-color="#CF6074"/>
<stop offset="1" stop-color="#FF817F"/>
</linearGradient>
<linearGradient id="paint41_linear_393_24691" x1="147.575" y1="79.7858" x2="154.863" y2="61.9804" gradientUnits="userSpaceOnUse">
<stop stop-color="#2D8085"/>
<stop offset="1" stop-color="#0E6E74"/>
</linearGradient>
<linearGradient id="paint42_linear_393_24691" x1="152.938" y1="77.5401" x2="152.109" y2="67.2241" gradientUnits="userSpaceOnUse">
<stop stop-color="#53979B"/>
<stop offset="1" stop-color="#2D8085"/>
</linearGradient>
<linearGradient id="paint43_linear_393_24691" x1="155.58" y1="72.9395" x2="149.553" y2="72.9395" gradientUnits="userSpaceOnUse">
<stop stop-color="#0B3C4B"/>
<stop offset="1" stop-color="#2A7B81"/>
</linearGradient>
<linearGradient id="paint44_linear_393_24691" x1="170.16" y1="80.9727" x2="160.673" y2="80.9727" gradientUnits="userSpaceOnUse">
<stop stop-color="#E1616A"/>
<stop offset="1" stop-color="#FF8883"/>
</linearGradient>
<linearGradient id="paint45_linear_393_24691" x1="183.667" y1="78.0677" x2="183.757" y2="85.7109" gradientUnits="userSpaceOnUse">
<stop offset="0.02" stop-color="#FFA58B"/>
<stop offset="1" stop-color="#FF9595"/>
</linearGradient>
<linearGradient id="paint46_linear_393_24691" x1="147.11" y1="78.5167" x2="147.205" y2="86.1599" gradientUnits="userSpaceOnUse">
<stop offset="0.02" stop-color="#FFA58B"/>
<stop offset="1" stop-color="#FF9595"/>
</linearGradient>
<linearGradient id="paint47_linear_393_24691" x1="147.247" y1="99.661" x2="143.597" y2="174.926" gradientUnits="userSpaceOnUse">
<stop stop-color="#2D8085"/>
<stop offset="1" stop-color="#095155"/>
</linearGradient>
<linearGradient id="paint48_linear_393_24691" x1="186.922" y1="101.584" x2="183.272" y2="176.849" gradientUnits="userSpaceOnUse">
<stop stop-color="#2D8085"/>
<stop offset="1" stop-color="#095155"/>
</linearGradient>
<linearGradient id="paint49_linear_393_24691" x1="199.979" y1="39.5985" x2="192.463" y2="58.3923" gradientUnits="userSpaceOnUse">
<stop stop-color="#53979B"/>
<stop offset="1" stop-color="#126368"/>
</linearGradient>
<linearGradient id="paint50_linear_393_24691" x1="199.979" y1="39.5985" x2="192.463" y2="58.3923" gradientUnits="userSpaceOnUse">
<stop stop-color="#53979B"/>
<stop offset="1" stop-color="#126368"/>
</linearGradient>
<linearGradient id="paint51_linear_393_24691" x1="181.305" y1="60.9379" x2="159.252" y2="14.3494" gradientUnits="userSpaceOnUse">
<stop stop-color="#2D8085"/>
<stop offset="1" stop-color="#0F5F64"/>
</linearGradient>
<linearGradient id="paint52_linear_393_24691" x1="189.598" y1="12.9133" x2="199.381" y2="33.6404" gradientUnits="userSpaceOnUse">
<stop stop-color="#25767B"/>
<stop offset="1" stop-color="#0FCDFA"/>
</linearGradient>
<linearGradient id="paint53_linear_393_24691" x1="155.534" y1="73.1387" x2="133.481" y2="26.545" gradientUnits="userSpaceOnUse">
<stop stop-color="#2D8085"/>
<stop offset="1" stop-color="#25767B"/>
</linearGradient>
<linearGradient id="paint54_linear_393_24691" x1="145.128" y1="38.9851" x2="205.339" y2="38.9851" gradientUnits="userSpaceOnUse">
<stop stop-color="#CCEDFF"/>
<stop offset="1" stop-color="#9D68C2"/>
</linearGradient>
<linearGradient id="paint55_linear_393_24691" x1="119.267" y1="61.0167" x2="131.537" y2="38.631" gradientUnits="userSpaceOnUse">
<stop stop-color="#1FC3CE"/>
<stop offset="1" stop-color="#115160"/>
</linearGradient>
<linearGradient id="paint56_linear_393_24691" x1="203.798" y1="20.0227" x2="151.901" y2="18.6969" gradientUnits="userSpaceOnUse">
<stop stop-color="#207176"/>
<stop offset="1" stop-color="#115160"/>
</linearGradient>
<linearGradient id="paint57_linear_393_24691" x1="128.342" y1="43.6708" x2="135.8" y2="63.9014" gradientUnits="userSpaceOnUse">
<stop stop-color="#CCEDFF"/>
<stop offset="1" stop-color="#9D68C2"/>
</linearGradient>
<linearGradient id="paint58_linear_393_24691" x1="241.127" y1="219.054" x2="241.998" y2="235.782" gradientUnits="userSpaceOnUse">
<stop offset="0.02" stop-color="#FFC2A9"/>
<stop offset="1" stop-color="#FF9595"/>
</linearGradient>
<linearGradient id="paint59_linear_393_24691" x1="256.851" y1="227.722" x2="248.922" y2="244.117" gradientUnits="userSpaceOnUse">
<stop stop-color="#CF6074"/>
<stop offset="1" stop-color="#FF817F"/>
</linearGradient>
<linearGradient id="paint60_linear_393_24691" x1="249.921" y1="204.574" x2="245.289" y2="214.156" gradientUnits="userSpaceOnUse">
<stop stop-color="#CF6074"/>
<stop offset="1" stop-color="#FF817F"/>
</linearGradient>
<linearGradient id="paint61_linear_393_24691" x1="173.748" y1="163.886" x2="152.128" y2="266.402" gradientUnits="userSpaceOnUse">
<stop stop-color="#2D8085"/>
<stop offset="1" stop-color="#0C5A5F"/>
</linearGradient>
<linearGradient id="paint62_linear_393_24691" x1="157.045" y1="220.363" x2="183.82" y2="282.835" gradientUnits="userSpaceOnUse">
<stop stop-color="#27797E"/>
<stop offset="1" stop-color="#CCEDFF"/>
</linearGradient>
<linearGradient id="paint63_linear_393_24691" x1="54.5032" y1="206.218" x2="92.1121" y2="206.218" gradientUnits="userSpaceOnUse">
<stop offset="0.02" stop-color="#FFC2A9"/>
<stop offset="1" stop-color="#FF9595"/>
</linearGradient>
<linearGradient id="paint64_linear_393_24691" x1="67.0746" y1="214.167" x2="60.6146" y2="207.992" gradientUnits="userSpaceOnUse">
<stop offset="0.02" stop-color="#FFA58B"/>
<stop offset="1" stop-color="#FF9595"/>
</linearGradient>
<linearGradient id="paint65_linear_393_24691" x1="50.7809" y1="225.055" x2="103.28" y2="225.055" gradientUnits="userSpaceOnUse">
<stop offset="0.02" stop-color="#FFC2A9"/>
<stop offset="1" stop-color="#FF9595"/>
</linearGradient>
<linearGradient id="paint66_linear_393_24691" x1="77.6121" y1="239.685" x2="78.4995" y2="223.041" gradientUnits="userSpaceOnUse">
<stop offset="0.02" stop-color="#FFA58B"/>
<stop offset="1" stop-color="#FF9595"/>
</linearGradient>
<linearGradient id="paint67_linear_393_24691" x1="71.6646" y1="236.548" x2="87.4213" y2="211.22" gradientUnits="userSpaceOnUse">
<stop offset="0.02" stop-color="#FFA58B"/>
<stop offset="1" stop-color="#FF9595"/>
</linearGradient>
<linearGradient id="paint68_linear_393_24691" x1="84.7843" y1="226.2" x2="83.6698" y2="246.489" gradientUnits="userSpaceOnUse">
<stop stop-color="#FF817F"/>
<stop offset="1" stop-color="#CF6074"/>
</linearGradient>
<linearGradient id="paint69_linear_393_24691" x1="58.7931" y1="232.692" x2="66.5103" y2="234.319" gradientUnits="userSpaceOnUse">
<stop offset="0.02" stop-color="#FFA58B"/>
<stop offset="1" stop-color="#FF9595"/>
</linearGradient>
<linearGradient id="paint70_linear_393_24691" x1="71.6438" y1="219.856" x2="73.3922" y2="220.226" gradientUnits="userSpaceOnUse">
<stop offset="0.02" stop-color="#FFA58B"/>
<stop offset="1" stop-color="#FF9595"/>
</linearGradient>
<linearGradient id="paint71_linear_393_24691" x1="71.147" y1="209.361" x2="72.2298" y2="209.588" gradientUnits="userSpaceOnUse">
<stop offset="0.02" stop-color="#FFA58B"/>
<stop offset="1" stop-color="#FF9595"/>
</linearGradient>
<linearGradient id="paint72_linear_393_24691" x1="71.6657" y1="232.392" x2="74.7716" y2="233.047" gradientUnits="userSpaceOnUse">
<stop offset="0.02" stop-color="#FFA58B"/>
<stop offset="1" stop-color="#FF9595"/>
</linearGradient>
<linearGradient id="paint73_linear_393_24691" x1="279.801" y1="206.218" x2="242.192" y2="206.218" gradientUnits="userSpaceOnUse">
<stop offset="0.02" stop-color="#FFC2A9"/>
<stop offset="1" stop-color="#FF9595"/>
</linearGradient>
<linearGradient id="paint74_linear_393_24691" x1="267.236" y1="214.167" x2="273.691" y2="207.992" gradientUnits="userSpaceOnUse">
<stop offset="0.02" stop-color="#FFA58B"/>
<stop offset="1" stop-color="#FF9595"/>
</linearGradient>
<linearGradient id="paint75_linear_393_24691" x1="283.532" y1="225.055" x2="231.032" y2="225.055" gradientUnits="userSpaceOnUse">
<stop offset="0.02" stop-color="#FFC2A9"/>
<stop offset="1" stop-color="#FF9595"/>
</linearGradient>
<linearGradient id="paint76_linear_393_24691" x1="256.691" y1="239.685" x2="255.809" y2="223.041" gradientUnits="userSpaceOnUse">
<stop offset="0.02" stop-color="#FFA58B"/>
<stop offset="1" stop-color="#FF9595"/>
</linearGradient>
<linearGradient id="paint77_linear_393_24691" x1="262.646" y1="236.548" x2="246.884" y2="211.22" gradientUnits="userSpaceOnUse">
<stop offset="0.02" stop-color="#FFA58B"/>
<stop offset="1" stop-color="#FF9595"/>
</linearGradient>
<linearGradient id="paint78_linear_393_24691" x1="249.941" y1="234.984" x2="248.831" y2="255.267" gradientUnits="userSpaceOnUse">
<stop stop-color="#FF817F"/>
<stop offset="1" stop-color="#CF6074"/>
</linearGradient>
<linearGradient id="paint79_linear_393_24691" x1="275.512" y1="232.692" x2="267.8" y2="234.319" gradientUnits="userSpaceOnUse">
<stop offset="0.02" stop-color="#FFA58B"/>
<stop offset="1" stop-color="#FF9595"/>
</linearGradient>
<linearGradient id="paint80_linear_393_24691" x1="262.666" y1="219.856" x2="260.912" y2="220.226" gradientUnits="userSpaceOnUse">
<stop offset="0.02" stop-color="#FFA58B"/>
<stop offset="1" stop-color="#FF9595"/>
</linearGradient>
<linearGradient id="paint81_linear_393_24691" x1="263.157" y1="209.361" x2="262.075" y2="209.588" gradientUnits="userSpaceOnUse">
<stop offset="0.02" stop-color="#FFA58B"/>
<stop offset="1" stop-color="#FF9595"/>
</linearGradient>
<linearGradient id="paint82_linear_393_24691" x1="262.646" y1="232.392" x2="259.54" y2="233.047" gradientUnits="userSpaceOnUse">
<stop offset="0.02" stop-color="#FFA58B"/>
<stop offset="1" stop-color="#FF9595"/>
</linearGradient>
<linearGradient id="paint83_linear_393_24691" x1="70.2474" y1="64.0807" x2="61.6706" y2="84.2149" gradientUnits="userSpaceOnUse">
<stop stop-color="#CCEDFF"/>
<stop offset="1" stop-color="#9D68C2"/>
</linearGradient>
<linearGradient id="paint84_linear_393_24691" x1="266.342" y1="93.2687" x2="279.933" y2="38.4359" gradientUnits="userSpaceOnUse">
<stop stop-color="#CCEDFF"/>
<stop offset="1" stop-color="#9D68C2"/>
</linearGradient>
<clipPath id="clip0_393_24691">
<rect width="32" height="32" fill="white" transform="translate(263 56)"/>
</clipPath>
</defs>
</svg>
