<svg width="61" height="77" viewBox="0 0 61 77" fill="none" xmlns="http://www.w3.org/2000/svg">
<g clip-path="url(#clip0_736_2768)">
<path d="M36.0748 50.959H24.917V76.1724H36.0748V50.959Z" fill="#F5AA6C"/>
<path d="M36.0748 68.9544L24.917 65.8043V50.9531H36.0748V68.9544Z" fill="#DB8458"/>
<path d="M58.6495 49.8404C52.0842 46.8456 37.3688 38.0616 30.4995 17.376C23.6431 38.0616 8.90828 46.8456 2.34941 49.8404C0.324835 50.7589 -0.0309215 52.2531 1.2498 53.7214C11.2304 63.8831 30.4801 64.1418 30.4995 64.1418C30.4995 64.1418 49.7686 63.8831 59.7492 53.7214C61.0299 52.2531 60.6547 50.7589 58.6495 49.8404Z" fill="url(#paint0_linear_736_2768)"/>
<path d="M8.3457 46.548C16.9291 53.178 30.4802 53.3785 30.4996 53.3785C30.4996 53.3785 44.0831 53.178 52.6536 46.548C45.3962 41.8779 35.6872 33.0422 30.4996 17.376C25.3056 33.0422 15.6031 41.8779 8.3457 46.548Z" fill="#438734"/>
<path d="M53.7921 37.3755C48.3587 34.8982 36.1724 27.6343 30.5062 10.5127C24.8335 27.6343 12.6407 34.8982 7.22028 37.3755C5.54499 38.1388 5.27978 39.3743 6.30824 40.6097C14.5683 49.0185 30.4932 49.2449 30.5126 49.2449C30.5126 49.2449 46.4247 48.9991 54.7041 40.5903C55.7649 39.3743 55.4803 38.1388 53.7921 37.3755Z" fill="url(#paint1_linear_736_2768)"/>
<path d="M14.2773 33.2035C20.5969 38.0288 30.4869 38.1711 30.4999 38.1711C30.4999 38.1711 40.4028 38.0288 46.7159 33.2035C41.0497 29.0573 34.3097 22.0069 30.4999 10.5127C26.69 22.0069 19.9436 29.0573 14.2773 33.2035Z" fill="#438734"/>
<path d="M47.6216 25.3321C43.6306 23.5145 34.685 18.1717 30.5 5.59082C26.3279 18.1458 17.3693 23.4886 13.3784 25.3321C12.1429 25.8948 11.9295 26.8004 12.7315 27.6995C18.8053 33.8832 30.5129 34.0449 30.5259 34.0449C30.5259 34.0449 42.2464 33.8832 48.3202 27.6995C49.0705 26.7745 48.857 25.8689 47.6216 25.3321Z" fill="url(#paint2_linear_736_2768)"/>
<path d="M30.4998 0.105469L31.8581 3.25553L35.2799 3.57895L32.699 5.84285L33.4493 9.19343L30.4998 7.44052L27.5438 9.19343L28.3006 5.84285L25.7197 3.57895L29.1415 3.25553L30.4998 0.105469Z" fill="url(#paint3_linear_736_2768)"/>
</g>
<defs>
<linearGradient id="paint0_linear_736_2768" x1="4.47102" y1="26.9232" x2="52.8539" y2="64.1354" gradientUnits="userSpaceOnUse">
<stop stop-color="#86C952"/>
<stop offset="1" stop-color="#3B9638"/>
</linearGradient>
<linearGradient id="paint1_linear_736_2768" x1="8.96672" y1="18.417" x2="48.999" y2="49.2126" gradientUnits="userSpaceOnUse">
<stop stop-color="#86C952"/>
<stop offset="1" stop-color="#3B9638"/>
</linearGradient>
<linearGradient id="paint2_linear_736_2768" x1="14.6656" y1="11.367" x2="44.0963" y2="34.0061" gradientUnits="userSpaceOnUse">
<stop stop-color="#86C952"/>
<stop offset="1" stop-color="#3B9638"/>
</linearGradient>
<linearGradient id="paint3_linear_736_2768" x1="25.7197" y1="4.64622" x2="35.2799" y2="4.64622" gradientUnits="userSpaceOnUse">
<stop stop-color="#FFDF0F"/>
<stop offset="1" stop-color="#FFB30F"/>
</linearGradient>
<clipPath id="clip0_736_2768">
<rect width="60" height="76.0672" fill="white" transform="translate(0.5 0.105469)"/>
</clipPath>
</defs>
</svg>
