<svg width="43" height="43" viewBox="0 0 43 43" fill="none" xmlns="http://www.w3.org/2000/svg">
<g clip-path="url(#clip0_496_11153)">
<path d="M41.7837 22.0276C40.7725 20.3767 36.8547 16.623 34.1877 16.623C33.7236 16.623 33.3091 16.7328 32.9547 16.949C30.3162 18.5649 32.3394 25.283 33.4651 27.1216C34.343 28.5571 35.941 29.448 37.635 29.448C38.5307 29.448 39.4078 29.2009 40.171 28.7335C42.464 27.3305 43.1883 24.3214 41.7837 22.0276Z" fill="#CC9810"/>
<path d="M9.53276 27.3013C10.6585 25.4619 12.6792 18.7446 10.0424 17.1287C9.68801 16.9117 9.27428 16.8027 8.81015 16.8027C6.14243 16.8027 2.22456 20.5564 1.21421 22.2073C0.535492 23.3144 0.330658 24.6238 0.636284 25.8935C0.941097 27.1639 1.71898 28.2361 2.82606 28.9132C3.58931 29.3805 4.46636 29.6276 5.36129 29.6276C7.05606 29.6285 8.65409 28.7368 9.53276 27.3013Z" fill="#CC9810"/>
<path d="M22.7181 29.5556V27.1895H19.4668V29.5556C19.9894 29.6019 20.5316 29.628 21.0925 29.628C21.6533 29.628 22.1955 29.6028 22.7181 29.5556Z" fill="#CC9810"/>
<path d="M21.0922 34.5055C24.4378 34.5055 27.3161 32.4726 28.5613 29.5781C26.8007 30.6153 24.1566 31.2542 21.0922 31.2542C18.0278 31.2542 15.3845 30.6153 13.623 29.5781C14.8683 32.4726 17.7466 34.5055 21.0922 34.5055Z" fill="#CC9810"/>
<path d="M28.9078 27.1904H24.3438V29.3331C26.5888 28.9063 28.2502 28.0732 28.9078 27.1904Z" fill="#CC9810"/>
<path d="M17.8414 29.3321V27.1895H13.2773C13.9349 28.073 15.5972 28.9062 17.8414 29.3321Z" fill="#CC9810"/>
<path d="M32.0773 27.9707C30.9799 26.1776 29.0811 20.5146 30.6296 17.2551C30.2476 16.4057 29.3982 15.8107 28.4081 15.8107C27.0637 15.8107 25.9696 16.9048 25.9696 18.2492C25.9696 18.6987 25.6063 19.062 25.1568 19.062C24.7073 19.062 24.3439 18.6987 24.3439 18.2492C24.3439 16.0082 26.1671 14.185 28.4081 14.185C29.7631 14.185 30.9572 14.858 31.696 15.8806C31.8285 15.7717 31.9529 15.6562 32.1049 15.5636C32.7186 15.1881 33.4184 14.9979 34.1874 14.9979C35.496 14.9979 36.9022 15.5937 38.2125 16.4301C36.0065 9.00726 29.1088 3.61816 21.0926 3.61816C12.6399 3.61816 5.5707 9.42912 3.71094 17.3624C5.30003 16.1529 7.13379 15.1783 8.80985 15.1783C9.57717 15.1783 10.2778 15.3685 10.8907 15.7432C11.0102 15.8164 11.1053 15.9099 11.2126 15.9928C11.9425 14.9036 13.1829 14.185 14.5899 14.185C16.8309 14.185 18.6541 16.0082 18.6541 18.2492C18.6541 18.6987 18.2908 19.062 17.8413 19.062C17.3918 19.062 17.0284 18.6987 17.0284 18.2492C17.0284 16.9048 15.9344 15.8107 14.5899 15.8107C13.5601 15.8107 12.6822 16.4545 12.3254 17.3591C13.4503 19.618 12.8708 23.0774 12.0336 25.5883C12.0734 25.5826 12.1091 25.5647 12.1514 25.5647H30.0338C30.4833 25.5647 30.8466 25.928 30.8466 26.3775C30.8466 31.7561 26.4711 36.1316 21.0926 36.1316C16.0091 36.1316 11.8271 32.2218 11.3833 27.2522C11.2215 27.6049 11.063 27.9162 10.92 28.1512C9.87467 29.8581 8.06936 30.9814 6.09173 31.2074C9.35689 36.2437 15.0012 39.3837 21.0926 39.3837C27.2962 39.3837 33.0323 36.1186 36.2674 30.9164C34.545 30.5417 33.0071 29.4907 32.0773 27.9707Z" fill="#CC9810"/>
</g>
<defs>
<clipPath id="clip0_496_11153">
<rect width="42" height="42" fill="white" transform="translate(0.5 0.5)"/>
</clipPath>
</defs>
</svg>
