<svg width="253" height="101" viewBox="0 0 253 101" fill="none" xmlns="http://www.w3.org/2000/svg">
<g filter="url(#filter0_d_393_17638)">
<path d="M21.7285 8.02546L230.545 4.27426C238.932 4.12359 245.812 10.8812 245.812 19.2697V76.7952C245.812 85.5349 238.37 92.4233 229.656 91.7483L20.8395 75.572C13.0291 74.9669 6.99998 68.4527 6.99998 60.6189L7 23.0209C7 14.8428 13.5517 8.17235 21.7285 8.02546Z" fill="white"/>
<path d="M21.7285 8.02546L230.545 4.27426C238.932 4.12359 245.812 10.8812 245.812 19.2697V76.7952C245.812 85.5349 238.37 92.4233 229.656 91.7483L20.8395 75.572C13.0291 74.9669 6.99998 68.4527 6.99998 60.6189L7 23.0209C7 14.8428 13.5517 8.17235 21.7285 8.02546Z" stroke="#8D8D8D" stroke-width="1.15368"/>
</g>
<path d="M72.9408 39.2607C72.1888 39.2607 71.5156 39.3968 70.9212 39.6689C70.334 39.9411 69.8363 40.335 69.4281 40.8506C69.0199 41.359 68.7083 41.9785 68.4935 42.709C68.2787 43.4323 68.1712 44.2487 68.1712 45.1582C68.1712 46.3757 68.3431 47.4248 68.6869 48.3057C69.0306 49.1794 69.5534 49.8525 70.2552 50.3252C70.957 50.7907 71.8451 51.0234 72.9193 51.0234C73.5853 51.0234 74.2334 50.959 74.8636 50.8301C75.4938 50.7012 76.1455 50.5257 76.8187 50.3037V52.4951C76.1813 52.7458 75.5368 52.9284 74.8851 53.043C74.2334 53.1576 73.4815 53.2148 72.6292 53.2148C71.0251 53.2148 69.693 52.8818 68.6331 52.2158C67.5804 51.5498 66.7927 50.6117 66.2699 49.4014C65.7542 48.1911 65.4964 46.7731 65.4964 45.1475C65.4964 43.9587 65.6611 42.8701 65.9906 41.8818C66.32 40.8936 66.7998 40.0413 67.43 39.3252C68.0602 38.6019 68.8372 38.0469 69.7611 37.6602C70.6921 37.2663 71.7555 37.0693 72.9515 37.0693C73.7393 37.0693 74.5127 37.1589 75.2718 37.3379C76.0381 37.5098 76.7471 37.7568 77.3988 38.0791L76.4964 40.2061C75.9522 39.9482 75.3828 39.7262 74.7884 39.54C74.194 39.3538 73.5781 39.2607 72.9408 39.2607ZM85.9603 40.8828C86.1608 40.8828 86.3792 40.8936 86.6156 40.915C86.8519 40.9365 87.056 40.9652 87.2279 41.001L86.9915 43.3643C86.8412 43.3213 86.655 43.2891 86.433 43.2676C86.2181 43.2461 86.0247 43.2354 85.8529 43.2354C85.4017 43.2354 84.972 43.3105 84.5638 43.4609C84.1556 43.6042 83.794 43.8262 83.4789 44.127C83.1637 44.4206 82.9167 44.7894 82.7376 45.2334C82.5586 45.6774 82.4691 46.193 82.4691 46.7803V53H79.9339V41.1084H81.9105L82.2542 43.2031H82.3724C82.6087 42.7806 82.9024 42.3939 83.2533 42.043C83.6042 41.6921 84.0052 41.4128 84.4564 41.2051C84.9147 40.9902 85.416 40.8828 85.9603 40.8828ZM94.1673 40.8828C95.2272 40.8828 96.1367 41.1012 96.8958 41.5381C97.655 41.9749 98.2386 42.5944 98.6468 43.3965C99.055 44.1986 99.2591 45.1582 99.2591 46.2754V47.6289H91.3206C91.3493 48.7819 91.6572 49.6699 92.2445 50.293C92.8389 50.916 93.6696 51.2275 94.7367 51.2275C95.4958 51.2275 96.1761 51.1559 96.7777 51.0127C97.3864 50.8623 98.013 50.6439 98.6576 50.3574V52.4092C98.0632 52.6885 97.458 52.8926 96.8421 53.0215C96.2262 53.1504 95.4886 53.2148 94.6292 53.2148C93.4619 53.2148 92.4343 52.9893 91.5462 52.5381C90.6654 52.0798 89.9743 51.3994 89.473 50.4971C88.9789 49.5947 88.7318 48.474 88.7318 47.1348C88.7318 45.8027 88.9574 44.6712 89.4085 43.7402C89.8597 42.8092 90.4935 42.1003 91.3099 41.6133C92.1263 41.1263 93.0788 40.8828 94.1673 40.8828ZM94.1673 42.7842C93.3724 42.7842 92.7279 43.042 92.2337 43.5576C91.7468 44.0732 91.4603 44.8288 91.3744 45.8242H96.7884C96.7813 45.2298 96.681 44.7035 96.4876 44.2451C96.3014 43.7868 96.015 43.4287 95.6283 43.1709C95.2487 42.9131 94.7617 42.7842 94.1673 42.7842ZM106.768 40.8828C108.272 40.8828 109.407 41.2158 110.173 41.8818C110.947 42.5479 111.333 43.5863 111.333 44.9971V53H109.539L109.056 51.3135H108.97C108.633 51.7432 108.286 52.0977 107.928 52.377C107.57 52.6562 107.155 52.8639 106.682 53C106.216 53.1432 105.647 53.2148 104.974 53.2148C104.265 53.2148 103.631 53.0859 103.073 52.8281C102.514 52.5632 102.074 52.1621 101.751 51.625C101.429 51.0879 101.268 50.4076 101.268 49.584C101.268 48.3594 101.723 47.4391 102.632 46.8232C103.549 46.2074 104.931 45.8672 106.779 45.8027L108.841 45.7275V45.1045C108.841 44.2809 108.648 43.6937 108.261 43.3428C107.882 42.9919 107.344 42.8164 106.65 42.8164C106.055 42.8164 105.479 42.9023 104.92 43.0742C104.362 43.2461 103.817 43.4574 103.287 43.708L102.471 41.9248C103.051 41.6169 103.71 41.3662 104.448 41.1729C105.192 40.9795 105.966 40.8828 106.768 40.8828ZM108.83 47.3174L107.294 47.3711C106.034 47.4141 105.149 47.6289 104.641 48.0156C104.132 48.4023 103.878 48.9323 103.878 49.6055C103.878 50.1927 104.054 50.6224 104.405 50.8945C104.756 51.1595 105.217 51.292 105.79 51.292C106.664 51.292 107.387 51.0449 107.96 50.5508C108.54 50.0495 108.83 49.3154 108.83 48.3486V47.3174ZM119.293 51.1738C119.623 51.1738 119.949 51.1452 120.271 51.0879C120.593 51.0234 120.887 50.9482 121.152 50.8623V52.7744C120.872 52.8962 120.511 53 120.067 53.0859C119.623 53.1719 119.161 53.2148 118.681 53.2148C118.008 53.2148 117.403 53.1038 116.866 52.8818C116.328 52.6527 115.902 52.2624 115.587 51.7109C115.272 51.1595 115.115 50.3968 115.115 49.4229V43.0312H113.493V41.9033L115.233 41.0117L116.06 38.4658H117.65V41.1084H121.055V43.0312H117.65V49.3906C117.65 49.9922 117.8 50.4398 118.101 50.7334C118.402 51.027 118.799 51.1738 119.293 51.1738ZM128.306 40.8828C129.366 40.8828 130.275 41.1012 131.035 41.5381C131.794 41.9749 132.377 42.5944 132.785 43.3965C133.194 44.1986 133.398 45.1582 133.398 46.2754V47.6289H125.459C125.488 48.7819 125.796 49.6699 126.383 50.293C126.978 50.916 127.808 51.2275 128.875 51.2275C129.634 51.2275 130.315 51.1559 130.916 51.0127C131.525 50.8623 132.152 50.6439 132.796 50.3574V52.4092C132.202 52.6885 131.597 52.8926 130.981 53.0215C130.365 53.1504 129.627 53.2148 128.768 53.2148C127.601 53.2148 126.573 52.9893 125.685 52.5381C124.804 52.0798 124.113 51.3994 123.612 50.4971C123.118 49.5947 122.87 48.474 122.87 47.1348C122.87 45.8027 123.096 44.6712 123.547 43.7402C123.998 42.8092 124.632 42.1003 125.449 41.6133C126.265 41.1263 127.217 40.8828 128.306 40.8828ZM128.306 42.7842C127.511 42.7842 126.867 43.042 126.372 43.5576C125.885 44.0732 125.599 44.8288 125.513 45.8242H130.927C130.92 45.2298 130.82 44.7035 130.626 44.2451C130.44 43.7868 130.154 43.4287 129.767 43.1709C129.387 42.9131 128.9 42.7842 128.306 42.7842ZM156.16 45.126C156.16 46.3506 156.003 47.4678 155.688 48.4775C155.373 49.4873 154.9 50.3503 154.27 51.0664C153.64 51.7826 152.845 52.3232 151.885 52.6885L155.623 56.7383H152.186L149.232 53.2041C149.16 53.2041 149.089 53.2041 149.017 53.2041C148.952 53.2113 148.888 53.2148 148.824 53.2148C147.57 53.2148 146.482 53.0215 145.558 52.6348C144.641 52.248 143.879 51.6966 143.27 50.9805C142.668 50.2643 142.217 49.4085 141.916 48.4131C141.616 47.4176 141.465 46.3148 141.465 45.1045C141.465 43.486 141.73 42.0752 142.26 40.8721C142.797 39.6618 143.61 38.7236 144.699 38.0576C145.794 37.3844 147.176 37.0479 148.845 37.0479C150.478 37.0479 151.835 37.3809 152.916 38.0469C153.998 38.7129 154.807 39.651 155.344 40.8613C155.888 42.0645 156.16 43.486 156.16 45.126ZM144.172 45.126C144.172 46.3363 144.337 47.3854 144.666 48.2734C144.996 49.1543 145.501 49.8346 146.181 50.3145C146.868 50.7871 147.749 51.0234 148.824 51.0234C149.905 51.0234 150.786 50.7871 151.466 50.3145C152.146 49.8346 152.648 49.1543 152.97 48.2734C153.292 47.3854 153.453 46.3363 153.453 45.126C153.453 43.2855 153.085 41.846 152.347 40.8076C151.617 39.762 150.449 39.2393 148.845 39.2393C147.771 39.2393 146.886 39.4756 146.192 39.9482C145.504 40.4209 144.996 41.0977 144.666 41.9785C144.337 42.8522 144.172 43.9014 144.172 45.126ZM169.642 41.1084V53H167.655L167.311 51.3994H167.171C166.921 51.8076 166.602 52.1478 166.215 52.4199C165.828 52.6849 165.399 52.8818 164.926 53.0107C164.453 53.1468 163.956 53.2148 163.433 53.2148C162.538 53.2148 161.771 53.0645 161.134 52.7637C160.504 52.4557 160.021 51.9831 159.684 51.3457C159.347 50.7083 159.179 49.8848 159.179 48.875V41.1084H161.714V48.4023C161.714 49.3262 161.9 50.0173 162.273 50.4756C162.652 50.9339 163.24 51.1631 164.035 51.1631C164.801 51.1631 165.41 51.0055 165.861 50.6904C166.312 50.3753 166.631 49.9098 166.817 49.2939C167.01 48.6781 167.107 47.9225 167.107 47.0273V41.1084H169.642ZM175.786 41.1084V53H173.262V41.1084H175.786ZM174.54 36.5537C174.927 36.5537 175.26 36.6576 175.539 36.8652C175.826 37.0729 175.969 37.431 175.969 37.9395C175.969 38.4408 175.826 38.7988 175.539 39.0137C175.26 39.2214 174.927 39.3252 174.54 39.3252C174.139 39.3252 173.799 39.2214 173.52 39.0137C173.248 38.7988 173.112 38.4408 173.112 37.9395C173.112 37.431 173.248 37.0729 173.52 36.8652C173.799 36.6576 174.139 36.5537 174.54 36.5537ZM187.367 53H178.332V51.4424L184.337 43.0527H178.698V41.1084H187.195V42.8271L181.308 51.0557H187.367V53Z" fill="#3A3A3A"/>
<defs>
<filter id="filter0_d_393_17638" x="0.654922" y="0.234262" width="251.503" height="100.213" filterUnits="userSpaceOnUse" color-interpolation-filters="sRGB">
<feFlood flood-opacity="0" result="BackgroundImageFix"/>
<feColorMatrix in="SourceAlpha" type="matrix" values="0 0 0 0 0 0 0 0 0 0 0 0 0 0 0 0 0 0 127 0" result="hardAlpha"/>
<feOffset dy="2.30737"/>
<feGaussianBlur stdDeviation="2.88421"/>
<feComposite in2="hardAlpha" operator="out"/>
<feColorMatrix type="matrix" values="0 0 0 0 0 0 0 0 0 0 0 0 0 0 0 0 0 0 0.25 0"/>
<feBlend mode="normal" in2="BackgroundImageFix" result="effect1_dropShadow_393_17638"/>
<feBlend mode="normal" in="SourceGraphic" in2="effect1_dropShadow_393_17638" result="shape"/>
</filter>
</defs>
</svg>
