<svg width="56" height="51" viewBox="0 0 56 51" fill="none" xmlns="http://www.w3.org/2000/svg">
<path d="M44.5624 0C45.1163 0 45.6306 0.267071 45.9501 0.707962L46.0746 0.907282L55.2299 18.0739L55.3279 18.3079L55.3544 18.3943L55.3933 18.5709L55.4145 18.772L55.4097 18.9991L55.4161 18.8513C55.4161 19.0914 55.3668 19.3201 55.2774 19.5278L55.2116 19.664L55.1189 19.8162L54.9984 19.9727L29.3669 49.5953C29.1382 49.9024 28.8249 50.1048 28.4847 50.2022L28.3521 50.2344L28.1296 50.2652L27.9957 50.27L27.7658 50.2545L27.5713 50.2177L27.3353 50.1402L27.2766 50.1124C27.0702 50.0212 26.8806 49.8852 26.722 49.7068L0.966185 19.9396L0.824264 19.7394L0.71479 19.5267L0.635546 19.2998L0.582671 19.0002L0.582031 18.7091L0.615986 18.4836L0.637899 18.394L0.715361 18.1744L0.777833 18.0449L9.91784 0.907282C10.1784 0.418635 10.6561 0.0904861 11.1955 0.0160865L11.43 0H44.5624ZM36.9213 20.565H19.0641L27.9984 43.7806L36.9213 20.565ZM15.3944 20.565H6.03507L22.8823 40.0286L15.3944 20.565ZM49.9504 20.565H40.5979L33.1191 40.0126L49.9504 20.565ZM18.911 3.42522H12.4559L5.14164 17.1375H15.2528L18.911 3.42522ZM33.5327 3.42522H22.4573L18.7991 17.1375H37.1887L33.5327 3.42522ZM43.5341 3.42522H37.079L40.7373 17.1375H50.8439L43.5341 3.42522Z" fill="url(#paint0_linear_393_9438)"/>
<defs>
<linearGradient id="paint0_linear_393_9438" x1="27.9991" y1="0" x2="27.9991" y2="50.27" gradientUnits="userSpaceOnUse">
<stop stop-color="#FED319"/>
<stop offset="1" stop-color="#FC9612"/>
</linearGradient>
</defs>
</svg>
