<svg width="17" height="16" viewBox="0 0 17 16" fill="none" xmlns="http://www.w3.org/2000/svg">
<path d="M8.63973 3.48513L13.3807 7.96267L6.87839 14.1114C6.57385 14.3991 6.18697 14.5856 5.7672 14.6556L1.86583 15.2697C1.81644 15.2775 1.7753 15.2775 1.72592 15.2775C1.51192 15.2775 1.2979 15.1919 1.14152 15.0442C0.952209 14.8654 0.861689 14.609 0.902842 14.3603L1.55306 10.6756C1.62713 10.2792 1.82468 9.91374 2.12922 9.62612L8.63973 3.48513ZM15.5454 1.4406C14.9116 0.834262 14.0721 0.507812 13.1749 0.507812C12.2777 0.507812 11.4382 0.834262 10.8044 1.4406L9.80854 2.38116L14.5495 6.85871L15.5454 5.91814C16.1874 5.31958 16.5331 4.52678 16.5331 3.67946C16.5331 2.83215 16.1874 2.03916 15.5454 1.4406Z" fill="#4B4A4A"/>
</svg>
