<svg width="100" height="152" viewBox="0 0 100 152" fill="none" xmlns="http://www.w3.org/2000/svg">
<path d="M49.735 152C77.2028 152 99.4699 150.035 99.4699 147.611C99.4699 145.187 77.2028 143.222 49.735 143.222C22.2671 143.222 0 145.187 0 147.611C0 150.035 22.2671 152 49.735 152Z" fill="#DBDBDB"/>
<path d="M54.3157 73.5592C54.3157 86.9112 81.9976 103.62 81.9976 126.328C81.9976 135.684 75.799 138.479 75.799 138.479H23.6693C23.6693 138.479 17.4707 135.684 17.4707 126.328C17.4707 103.62 45.1526 86.9112 45.1526 73.5592C45.1526 60.2072 17.4707 43.498 17.4707 20.7904C17.4707 11.4348 23.6693 8.63965 23.6693 8.63965H75.799C75.799 8.63965 81.9976 11.4348 81.9976 20.7904C81.9976 43.498 54.3157 60.2072 54.3157 73.5592Z" fill="#E5E5E5"/>
<path d="M54.3166 73.5592C54.3166 86.9112 81.9984 103.62 81.9984 126.328C81.9984 135.684 75.7998 138.479 75.7998 138.479H70.4021C70.4021 138.479 71.6341 137.924 72.997 136.477H75.9615C75.9615 135.021 75.8229 133.643 75.5688 132.326C76.1848 130.717 76.6006 128.738 76.6006 126.32C76.6006 108.687 59.9145 94.6729 52.4531 83.038V72.7584C52.4531 53.0076 77.4785 46.6936 77.4785 27.3432H75.846C76.3311 25.218 76.6006 23.0311 76.6006 20.7904C76.6006 11.4348 70.4021 8.63965 70.4021 8.63965H75.7998C75.7998 8.63965 81.9984 11.4348 81.9984 20.7904C81.9984 43.498 54.3166 60.2072 54.3166 73.5592Z" fill="#CCCCCC"/>
<path d="M86.1716 0H13.2979C11.781 0 10.5566 1.22432 10.5566 2.74124V8.29301C10.5566 9.80993 11.781 11.0342 13.2979 11.0342H86.1793C87.6963 11.0342 88.9206 9.80993 88.9206 8.29301V2.74124C88.9129 1.22432 87.6886 0 86.1716 0Z" fill="#FFBF16"/>
<path d="M52.4534 91.7926C52.4534 109.749 72.5121 116.418 75.5691 132.341C74.8684 134.182 73.8981 135.529 72.9972 136.492H24.1478C24.1478 117.449 47.7332 111.235 47.7332 91.7926V72.758C47.7332 53.0072 22.2305 46.6931 22.2305 27.3428H75.8463C71.4033 46.7624 48.919 61.5235 48.919 73.5588C48.919 76.5464 50.305 79.6958 52.4534 83.0453V91.7926Z" fill="#E5CC61"/>
<path d="M30.3222 27.3433H25.2709C24.7165 23.3623 25.14 19.8203 25.5096 17.8105C25.6944 16.8018 26.5799 16.0703 27.604 16.0703C28.89 16.0703 29.8833 17.1945 29.7139 18.4727C29.275 21.907 29.5984 24.8561 30.3222 27.3433Z" fill="white"/>
<path d="M34.3191 39.9172L34.3114 39.9249C33.1641 40.5563 31.7319 40.3407 30.8387 39.3858C27.3428 35.659 25.8259 31.293 25.2715 27.3506H30.3227C31.3931 31.0158 33.3412 33.6724 35.0044 35.4049C36.3211 36.7678 35.9823 39.0008 34.3191 39.9172Z" fill="#F9E8A5"/>
<path d="M38.4238 47.4941C40.1248 47.4941 41.5038 46.1151 41.5038 44.414C41.5038 42.713 40.1248 41.334 38.4238 41.334C36.7227 41.334 35.3438 42.713 35.3438 44.414C35.3438 46.1151 36.7227 47.4941 38.4238 47.4941Z" fill="#F9E8A5"/>
<path d="M35.2742 123.517L35.2665 123.509C34.1192 122.878 32.6869 123.093 31.7937 124.048C28.2979 127.775 26.781 132.141 26.2266 136.083H31.2778C32.3481 132.418 34.2963 129.762 35.9595 128.029C37.2685 126.666 36.9297 124.433 35.2742 123.517Z" fill="#F9E8A5"/>
<path d="M39.3711 122.101C41.0721 122.101 42.4511 120.722 42.4511 119.02C42.4511 117.319 41.0721 115.94 39.3711 115.94C37.67 115.94 36.291 117.319 36.291 119.02C36.291 120.722 37.67 122.101 39.3711 122.101Z" fill="#F9E8A5"/>
<path d="M75.9606 136.492H72.9961C73.9047 135.53 74.8672 134.182 75.5679 132.342C75.822 133.659 75.9606 135.037 75.9606 136.492Z" fill="#CCB552"/>
<path d="M77.4776 27.3428C77.4776 46.6931 52.4523 53.0072 52.4523 72.758V83.0453C50.304 79.6958 48.918 76.5387 48.918 73.5588C48.918 61.5235 71.4023 46.7624 75.8375 27.3428H77.4776Z" fill="#CCB552"/>
<path d="M86.1716 136H13.2979C11.781 136 10.5566 137.224 10.5566 138.741V144.293C10.5566 145.81 11.781 147.034 13.2979 147.034H86.1793C87.6963 147.034 88.9206 145.81 88.9206 144.293V138.741C88.9129 137.224 87.6886 136 86.1716 136Z" fill="#FFBF16"/>
<path d="M88.9126 138.825V144.377C88.9126 145.886 87.6882 147.118 86.1713 147.118H62.3164C73.3353 146.556 80.4809 144.285 75.8763 136.084H86.1713C87.6882 136.092 88.9126 137.316 88.9126 138.825Z" fill="#D6A115"/>
<path d="M88.9126 8.29301V2.74124C88.9126 1.23202 87.6882 0 86.1713 0H62.3164C73.3353 0.562107 80.4809 2.83364 75.8763 11.0342H86.1713C87.6882 11.0342 88.9126 9.80993 88.9126 8.29301Z" fill="#D6A115"/>
<path d="M14.0303 8.55449C13.037 8.55449 12.2285 7.74598 12.2285 6.75267V3.31843C12.2285 2.32511 13.037 1.5166 14.0303 1.5166C15.0237 1.5166 15.8322 2.32511 15.8322 3.31843V6.76037C15.8322 7.74598 15.0237 8.55449 14.0303 8.55449Z" fill="#CFC4C2"/>
<path d="M14.0303 145.362C13.037 145.362 12.2285 144.553 12.2285 143.56V140.118C12.2285 139.125 13.037 138.316 14.0303 138.316C15.0237 138.316 15.8322 139.125 15.8322 140.118V143.56C15.8322 144.561 15.0237 145.362 14.0303 145.362Z" fill="white"/>
</svg>
