<svg width="46" height="18" viewBox="0 0 46 18" fill="none" xmlns="http://www.w3.org/2000/svg">
<g clip-path="url(#clip0_393_14823)">
<path d="M32.6062 4.85838C33.8708 4.85838 34.848 5.19712 35.5953 5.87459C36.3425 6.55197 36.6874 7.45524 36.6874 8.5843V14.0037H35.0779V12.7619H35.0204C34.3307 13.7781 33.3534 14.2861 32.2038 14.2861C31.2266 14.2861 30.3643 14.0038 29.6746 13.4394C29.0423 12.8748 28.6399 12.0845 28.6399 11.2377C28.6399 10.3344 28.9849 9.6005 29.6746 9.03597C30.3643 8.47144 31.3416 8.24565 32.4912 8.24565C33.5259 8.24565 34.3307 8.41506 34.9629 8.81018V8.41506C34.9629 7.88812 34.7626 7.36127 34.362 7.01794L34.2731 6.94727C33.8133 6.55206 33.2384 6.32627 32.6062 6.32627C31.629 6.32627 30.8818 6.72147 30.3643 7.5118L28.8699 6.60836C29.7895 5.42283 30.9967 4.85838 32.6062 4.85838ZM24.5012 1.01962C25.5326 1.01962 26.5128 1.37212 27.2965 2.02947L27.4328 2.14859C28.2376 2.82606 28.6399 3.84227 28.6399 4.91485C28.6399 5.98744 28.2376 6.94718 27.4328 7.68103C26.628 8.41497 25.6509 8.81009 24.5012 8.81009L21.7421 8.75362V14.0038H20.0176V1.01953L24.5012 1.01962ZM32.836 9.6005C32.1463 9.6005 31.5715 9.76982 31.1117 10.1086C30.6518 10.3908 30.4218 10.7859 30.4218 11.294C30.4218 11.7457 30.6518 12.1408 30.9967 12.3667C31.3991 12.6489 31.8589 12.8183 32.3188 12.8183C32.9625 12.8183 33.6064 12.5724 34.1099 12.1265L34.2157 12.0279C34.7905 11.5199 35.0779 10.8989 35.0779 10.2214C34.5606 9.8263 33.8133 9.60041 32.8361 9.60041L32.836 9.6005ZM24.6162 2.60027H21.7421V7.11659H24.6162C25.2485 7.11659 25.8808 6.8908 26.2832 6.43921C27.2028 5.59241 27.2028 4.18109 26.3407 3.33421L26.2832 3.27774C25.8233 2.82615 25.2485 2.54388 24.6161 2.60035L24.6162 2.60027ZM45.9995 5.14065L40.3088 17.9555H38.5843L40.7111 13.4957L36.9748 5.19712H38.8142L41.5158 11.5763H41.5733L44.2175 5.19712H45.9995V5.14065Z" fill="#5F6368"/>
<path d="M14.9016 7.62379C14.9016 7.11573 14.8441 6.60767 14.7866 6.09961H7.60156V8.97873H11.6827C11.5103 9.8819 10.993 10.7287 10.1883 11.2368V13.0998H12.6599C14.097 11.8014 14.9017 9.8819 14.9017 7.62387L14.9016 7.62379Z" fill="#4285F4"/>
<path d="M7.6012 14.9067C9.67048 14.9067 11.3949 14.2292 12.6596 13.1002L10.1879 11.2373C9.49807 11.6889 8.63584 11.9711 7.6012 11.9711C5.64674 11.9711 3.92228 10.6727 3.34746 8.86621H0.818359V10.7856C2.14041 13.326 4.7271 14.9067 7.6012 14.9067Z" fill="#34A853"/>
<path d="M3.34827 8.86588C3.00345 7.96262 3.00345 6.9465 3.34827 5.98677V4.06738H0.819173C-0.273058 6.15618 -0.273058 8.64009 0.819173 10.7853L3.34827 8.86588Z" fill="#FBBC04"/>
<path d="M7.60239 2.93862C8.69453 2.93862 9.72917 3.33382 10.534 4.06768L12.7183 1.9225C11.3386 0.680501 9.49926 -0.0533523 7.6598 0.00303004C4.7857 0.00303004 2.14159 1.58377 0.876953 4.12415L3.40614 6.04353C3.92347 4.237 5.64793 2.93862 7.60239 2.93862Z" fill="#EA4335"/>
</g>
<defs>
<clipPath id="clip0_393_14823">
<rect width="46" height="18" fill="white"/>
</clipPath>
</defs>
</svg>
