<svg width="40" height="54" viewBox="0 0 40 54" fill="none" xmlns="http://www.w3.org/2000/svg">
<rect x="3.16309" y="0.575195" width="32.9231" height="32.9231" rx="16.4615" fill="#FF3B30"/>
<g clip-path="url(#clip0_393_7926)">
<path opacity="0.16" d="M20.0818 24.6958C24.0593 24.6958 27.2837 21.4714 27.2837 17.4939C27.2837 13.5164 24.0593 10.292 20.0818 10.292C16.1043 10.292 12.8799 13.5164 12.8799 17.4939C12.8799 21.4714 16.1043 24.6958 20.0818 24.6958Z" fill="white" fill-opacity="0.67"/>
<path d="M14.9892 22.5864C16.1675 23.7647 17.7179 24.498 19.3762 24.6612C21.0346 24.8245 22.6982 24.4076 24.0836 23.4817C25.469 22.5558 26.4905 21.1781 26.974 19.5834C27.4574 17.9888 27.3729 16.2758 26.7349 14.7364C26.0969 13.1971 24.9448 11.9266 23.4751 11.1415C22.0053 10.3564 20.3087 10.1052 18.6745 10.4308C17.0403 10.7565 15.5695 11.6387 14.5129 12.9272C13.4563 14.2157 12.8792 15.8307 12.8799 17.4971V19.0943" stroke="white" stroke-opacity="0.67" stroke-width="1.82906" stroke-linecap="round" stroke-linejoin="round"/>
<path d="M11.2803 17.4938L12.8807 19.0943L14.4811 17.4938M19.2824 14.293V18.294H23.2835" stroke="white" stroke-opacity="0.67" stroke-width="1.82906" stroke-linecap="round" stroke-linejoin="round"/>
</g>
<path d="M8.32913 50.9854H7.41817V47.2987H3.29207V50.9854H2.38111V43.1511H3.29207V46.4841H7.41817V43.1511H8.32913V50.9854ZM11.2388 50.9854H10.3493V45.1124H11.2388V50.9854ZM10.2743 43.5209C10.2743 43.3172 10.3243 43.169 10.4243 43.0761C10.5244 42.9796 10.6494 42.9314 10.7994 42.9314C10.9423 42.9314 11.0656 42.9796 11.1692 43.0761C11.2728 43.1726 11.3246 43.3208 11.3246 43.5209C11.3246 43.7209 11.2728 43.871 11.1692 43.971C11.0656 44.0674 10.9423 44.1157 10.7994 44.1157C10.6494 44.1157 10.5244 44.0674 10.4243 43.971C10.3243 43.871 10.2743 43.7209 10.2743 43.5209ZM16.9136 49.3831C16.9136 49.9297 16.7099 50.3513 16.3027 50.6478C15.8954 50.9443 15.3239 51.0925 14.5879 51.0925C13.8092 51.0925 13.2019 50.9693 12.766 50.7228V49.8976C13.0482 50.0405 13.3501 50.153 13.6716 50.2352C13.9967 50.3173 14.3093 50.3584 14.6094 50.3584C15.0738 50.3584 15.431 50.2852 15.6811 50.1387C15.9312 49.9887 16.0562 49.7618 16.0562 49.4582C16.0562 49.2295 15.9562 49.0348 15.7561 48.8741C15.5596 48.7097 15.1738 48.5168 14.5987 48.2953C14.0521 48.0917 13.6627 47.9149 13.4305 47.7648C13.2019 47.6112 13.0304 47.438 12.9161 47.2451C12.8053 47.0522 12.75 46.8217 12.75 46.5538C12.75 46.0751 12.9446 45.6982 13.334 45.4232C13.7234 45.1445 14.2575 45.0052 14.9362 45.0052C15.5686 45.0052 16.1866 45.1338 16.7903 45.391L16.4742 46.1144C15.8847 45.8715 15.3506 45.75 14.8719 45.75C14.4504 45.75 14.1325 45.8161 13.9181 45.9483C13.7038 46.0805 13.5966 46.2627 13.5966 46.4949C13.5966 46.6521 13.6359 46.786 13.7145 46.8968C13.7967 47.0075 13.9271 47.1129 14.1057 47.2129C14.2843 47.3129 14.6272 47.4576 15.1345 47.647C15.8311 47.9006 16.3009 48.156 16.5438 48.4132C16.7903 48.6704 16.9136 48.9937 16.9136 49.3831ZM20.2627 50.3584C20.4199 50.3584 20.5717 50.3477 20.7181 50.3262C20.8646 50.3012 20.9807 50.2762 21.0665 50.2512V50.9318C20.97 50.9782 20.8271 51.0157 20.6378 51.0443C20.452 51.0764 20.2841 51.0925 20.1341 51.0925C18.998 51.0925 18.43 50.4941 18.43 49.2974V45.8036H17.5887V45.3749L18.43 45.0052L18.8051 43.7513H19.3196V45.1124H21.0236V45.8036H19.3196V49.2599C19.3196 49.6136 19.4035 49.8851 19.5714 50.0744C19.7393 50.2637 19.9697 50.3584 20.2627 50.3584ZM27.3146 48.0435C27.3146 49.0009 27.0734 49.7493 26.5911 50.2887C26.1089 50.8246 25.4426 51.0925 24.5924 51.0925C24.0673 51.0925 23.6011 50.9693 23.1938 50.7228C22.7866 50.4763 22.4722 50.1226 22.2507 49.6618C22.0292 49.2009 21.9185 48.6615 21.9185 48.0435C21.9185 47.0861 22.1578 46.3413 22.6365 45.809C23.1152 45.2731 23.7797 45.0052 24.6299 45.0052C25.4516 45.0052 26.1035 45.2785 26.5858 45.825C27.0716 46.3716 27.3146 47.1111 27.3146 48.0435ZM22.8401 48.0435C22.8401 48.7937 22.9902 49.3653 23.2903 49.7582C23.5903 50.1512 24.0315 50.3477 24.6138 50.3477C25.1961 50.3477 25.6373 50.153 25.9374 49.7636C26.2411 49.3706 26.3929 48.7973 26.3929 48.0435C26.3929 47.2969 26.2411 46.7306 25.9374 46.3448C25.6373 45.9554 25.1926 45.7607 24.6031 45.7607C24.0208 45.7607 23.5814 45.9519 23.2849 46.3341C22.9884 46.7164 22.8401 47.2861 22.8401 48.0435ZM31.5585 45.0052C31.8193 45.0052 32.0533 45.0266 32.2605 45.0695L32.1373 45.8947C31.8943 45.8411 31.68 45.8143 31.4942 45.8143C31.0191 45.8143 30.6119 46.0072 30.2725 46.3931C29.9367 46.7789 29.7688 47.2594 29.7688 47.8345V50.9854H28.8793V45.1124H29.6134L29.7152 46.2001H29.7581C29.976 45.8179 30.2385 45.5232 30.5458 45.316C30.853 45.1088 31.1906 45.0052 31.5585 45.0052ZM32.4266 45.1124H33.3805L34.6665 48.4615C34.9487 49.226 35.1238 49.7779 35.1917 50.1173H35.2345C35.281 49.9351 35.3774 49.6243 35.5239 49.1849C35.6739 48.7419 36.1598 47.3844 36.9814 45.1124H37.9352L35.4114 51.7999C35.1613 52.4607 34.8684 52.9287 34.5326 53.2038C34.2003 53.4824 33.7913 53.6218 33.3054 53.6218C33.0339 53.6218 32.766 53.5914 32.5017 53.5307V52.818C32.6981 52.8609 32.9178 52.8823 33.1608 52.8823C33.7716 52.8823 34.2075 52.5393 34.4682 51.8534L34.7951 51.0175L32.4266 45.1124Z" fill="#434141"/>
<defs>
<clipPath id="clip0_393_7926">
<rect width="19.2051" height="19.2051" fill="white" transform="translate(10.4795 7.8916)"/>
</clipPath>
</defs>
</svg>
