<svg width="21" height="21" viewBox="0 0 21 21" fill="none" xmlns="http://www.w3.org/2000/svg">
<mask id="mask0_393_7957" style="mask-type:luminance" maskUnits="userSpaceOnUse" x="1" y="1" width="19" height="19">
<path d="M10.7684 18.7449C11.8495 18.7463 12.9203 18.534 13.9191 18.1203C14.9179 17.7066 15.825 17.0995 16.5885 16.3341C17.3539 15.5706 17.961 14.6635 18.3747 13.6647C18.7884 12.6659 19.0007 11.5951 18.9993 10.5141C19.0007 9.43296 18.7884 8.36226 18.3747 7.36346C17.9609 6.36467 17.3539 5.45748 16.5885 4.69402C15.825 3.92857 14.9179 3.32153 13.9191 2.9078C12.9203 2.49407 11.8495 2.28181 10.7684 2.28321C9.68736 2.28183 8.61665 2.49411 7.61786 2.90783C6.61906 3.32156 5.71187 3.92859 4.94842 4.69402C4.18298 5.45748 3.57596 6.36467 3.16223 7.36346C2.7485 8.36226 2.53623 9.43296 2.5376 10.5141C2.5362 11.5951 2.74847 12.6659 3.1622 13.6647C3.57592 14.6635 4.18296 15.5706 4.94842 16.3341C5.71187 17.0995 6.61906 17.7065 7.61786 18.1203C8.61665 18.534 9.68736 18.7463 10.7684 18.7449Z" fill="white" stroke="white" stroke-width="1.64617" stroke-linejoin="round"/>
<path d="M10.7686 12.4167V10.7705C11.2569 10.7705 11.7343 10.6257 12.1404 10.3544C12.5465 10.0831 12.863 9.69742 13.0499 9.24623C13.2368 8.79503 13.2857 8.29855 13.1904 7.81956C13.0951 7.34057 12.8599 6.90059 12.5146 6.55526C12.1693 6.20993 11.7293 5.97476 11.2503 5.87948C10.7713 5.7842 10.2748 5.8331 9.82363 6.01999C9.37243 6.20688 8.98679 6.52338 8.71546 6.92944C8.44414 7.33551 8.29932 7.81291 8.29932 8.30129" stroke="black" stroke-width="1.64617" stroke-linecap="round" stroke-linejoin="round"/>
<path fill-rule="evenodd" clip-rule="evenodd" d="M10.7657 16.1212C11.0385 16.1212 11.3002 16.0128 11.4932 15.8198C11.6861 15.6269 11.7945 15.3652 11.7945 15.0923C11.7945 14.8195 11.6861 14.5578 11.4932 14.3648C11.3002 14.1719 11.0385 14.0635 10.7657 14.0635C10.4928 14.0635 10.2311 14.1719 10.0382 14.3648C9.84521 14.5578 9.73682 14.8195 9.73682 15.0923C9.73682 15.3652 9.84521 15.6269 10.0382 15.8198C10.2311 16.0128 10.4928 16.1212 10.7657 16.1212Z" fill="black"/>
</mask>
<g mask="url(#mask0_393_7957)">
<path d="M0.89502 0.636719H20.649V20.3907H0.89502V0.636719Z" fill="#4B4A4A"/>
</g>
</svg>
