<svg width="261" height="121" viewBox="0 0 261 121" fill="none" xmlns="http://www.w3.org/2000/svg">
<g filter="url(#filter0_d_393_17641)">
<path d="M235.931 21.7848L27.114 6.20246C18.4153 5.55335 11 12.436 11 21.1588V90.5466C11 99.2026 18.307 106.062 26.9456 105.515L235.762 92.2931C243.662 91.793 249.812 85.2404 249.812 77.3252V36.7411C249.812 28.891 243.759 22.369 235.931 21.7848Z" fill="#FFBF16"/>
</g>
<path d="M82.1855 68.3721C81.7917 68.3721 81.4479 68.347 81.1543 68.2969C80.8535 68.2539 80.5957 68.193 80.3809 68.1143V65.9551C80.61 66.0124 80.8571 66.0625 81.1221 66.1055C81.387 66.1484 81.6699 66.1699 81.9707 66.1699C82.3646 66.1699 82.7227 66.0947 83.0449 65.9443C83.3672 65.7939 83.6214 65.5218 83.8076 65.1279C84.001 64.734 84.0977 64.179 84.0977 63.4629V48.2949H86.6758V63.377C86.6758 64.5443 86.4896 65.4932 86.1172 66.2236C85.7448 66.9613 85.222 67.502 84.5488 67.8457C83.8757 68.1966 83.0879 68.3721 82.1855 68.3721ZM101.006 58.0273C101.006 59.0156 100.877 59.8929 100.619 60.6592C100.361 61.4255 99.9854 62.0736 99.4912 62.6035C98.9971 63.1263 98.4027 63.5273 97.708 63.8066C97.0133 64.0788 96.2292 64.2148 95.3555 64.2148C94.5391 64.2148 93.7907 64.0788 93.1104 63.8066C92.43 63.5273 91.8392 63.1263 91.3379 62.6035C90.8438 62.0736 90.4606 61.4255 90.1885 60.6592C89.9163 59.8929 89.7803 59.0156 89.7803 58.0273C89.7803 56.7168 90.0059 55.6068 90.457 54.6973C90.9154 53.7806 91.5671 53.0824 92.4121 52.6025C93.2572 52.1227 94.2633 51.8828 95.4307 51.8828C96.5264 51.8828 97.4932 52.1227 98.3311 52.6025C99.1689 53.0824 99.8242 53.7806 100.297 54.6973C100.77 55.6139 101.006 56.724 101.006 58.0273ZM92.3799 58.0273C92.3799 58.8939 92.4837 59.6351 92.6914 60.251C92.9062 60.8669 93.2357 61.3395 93.6797 61.6689C94.1237 61.9912 94.6966 62.1523 95.3984 62.1523C96.1003 62.1523 96.6732 61.9912 97.1172 61.6689C97.5612 61.3395 97.887 60.8669 98.0947 60.251C98.3024 59.6351 98.4062 58.8939 98.4062 58.0273C98.4062 57.1608 98.3024 56.4268 98.0947 55.8252C97.887 55.2165 97.5612 54.7546 97.1172 54.4395C96.6732 54.1172 96.0967 53.9561 95.3877 53.9561C94.3421 53.9561 93.5794 54.307 93.0996 55.0088C92.6198 55.7106 92.3799 56.7168 92.3799 58.0273ZM106.431 52.1084V64H103.906V52.1084H106.431ZM105.185 47.5537C105.571 47.5537 105.904 47.6576 106.184 47.8652C106.47 48.0729 106.613 48.431 106.613 48.9395C106.613 49.4408 106.47 49.7988 106.184 50.0137C105.904 50.2214 105.571 50.3252 105.185 50.3252C104.784 50.3252 104.443 50.2214 104.164 50.0137C103.892 49.7988 103.756 49.4408 103.756 48.9395C103.756 48.431 103.892 48.0729 104.164 47.8652C104.443 47.6576 104.784 47.5537 105.185 47.5537ZM116.249 51.8828C117.588 51.8828 118.63 52.2301 119.375 52.9248C120.127 53.6123 120.503 54.7188 120.503 56.2441V64H117.979V56.7168C117.979 55.793 117.789 55.1019 117.409 54.6436C117.03 54.1781 116.442 53.9453 115.647 53.9453C114.494 53.9453 113.692 54.2998 113.241 55.0088C112.797 55.7178 112.575 56.7454 112.575 58.0918V64H110.051V52.1084H112.017L112.371 53.7197H112.511C112.769 53.3044 113.087 52.9642 113.467 52.6992C113.854 52.4271 114.283 52.223 114.756 52.0869C115.236 51.9508 115.733 51.8828 116.249 51.8828ZM143.953 56.126C143.953 57.3506 143.796 58.4678 143.48 59.4775C143.165 60.4873 142.693 61.3503 142.062 62.0664C141.432 62.7826 140.637 63.3232 139.678 63.6885L143.416 67.7383H139.979L137.024 64.2041C136.953 64.2041 136.881 64.2041 136.81 64.2041C136.745 64.2113 136.681 64.2148 136.616 64.2148C135.363 64.2148 134.274 64.0215 133.351 63.6348C132.434 63.248 131.671 62.6966 131.062 61.9805C130.461 61.2643 130.01 60.4085 129.709 59.4131C129.408 58.4176 129.258 57.3148 129.258 56.1045C129.258 54.486 129.523 53.0752 130.053 51.8721C130.59 50.6618 131.403 49.7236 132.491 49.0576C133.587 48.3844 134.969 48.0479 136.638 48.0479C138.271 48.0479 139.628 48.3809 140.709 49.0469C141.79 49.7129 142.6 50.651 143.137 51.8613C143.681 53.0645 143.953 54.486 143.953 56.126ZM131.965 56.126C131.965 57.3363 132.13 58.3854 132.459 59.2734C132.788 60.1543 133.293 60.8346 133.974 61.3145C134.661 61.7871 135.542 62.0234 136.616 62.0234C137.698 62.0234 138.578 61.7871 139.259 61.3145C139.939 60.8346 140.44 60.1543 140.763 59.2734C141.085 58.3854 141.246 57.3363 141.246 56.126C141.246 54.2855 140.877 52.846 140.14 51.8076C139.409 50.762 138.242 50.2393 136.638 50.2393C135.563 50.2393 134.679 50.4756 133.984 50.9482C133.297 51.4209 132.788 52.0977 132.459 52.9785C132.13 53.8522 131.965 54.9014 131.965 56.126ZM157.435 52.1084V64H155.447L155.104 62.3994H154.964C154.713 62.8076 154.395 63.1478 154.008 63.4199C153.621 63.6849 153.191 63.8818 152.719 64.0107C152.246 64.1468 151.748 64.2148 151.226 64.2148C150.33 64.2148 149.564 64.0645 148.927 63.7637C148.297 63.4557 147.813 62.9831 147.477 62.3457C147.14 61.7083 146.972 60.8848 146.972 59.875V52.1084H149.507V59.4023C149.507 60.3262 149.693 61.0173 150.065 61.4756C150.445 61.9339 151.032 62.1631 151.827 62.1631C152.593 62.1631 153.202 62.0055 153.653 61.6904C154.104 61.3753 154.423 60.9098 154.609 60.2939C154.803 59.6781 154.899 58.9225 154.899 58.0273V52.1084H157.435ZM163.579 52.1084V64H161.055V52.1084H163.579ZM162.333 47.5537C162.72 47.5537 163.053 47.6576 163.332 47.8652C163.618 48.0729 163.762 48.431 163.762 48.9395C163.762 49.4408 163.618 49.7988 163.332 50.0137C163.053 50.2214 162.72 50.3252 162.333 50.3252C161.932 50.3252 161.592 50.2214 161.312 50.0137C161.04 49.7988 160.904 49.4408 160.904 48.9395C160.904 48.431 161.04 48.0729 161.312 47.8652C161.592 47.6576 161.932 47.5537 162.333 47.5537ZM175.159 64H166.125V62.4424L172.13 54.0527H166.49V52.1084H174.987V53.8271L169.101 62.0557H175.159V64Z" fill="white"/>
<defs>
<filter id="filter0_d_393_17641" x="0.616848" y="0.391738" width="259.579" height="120.151" filterUnits="userSpaceOnUse" color-interpolation-filters="sRGB">
<feFlood flood-opacity="0" result="BackgroundImageFix"/>
<feColorMatrix in="SourceAlpha" type="matrix" values="0 0 0 0 0 0 0 0 0 0 0 0 0 0 0 0 0 0 127 0" result="hardAlpha"/>
<feOffset dy="4.61473"/>
<feGaussianBlur stdDeviation="5.19158"/>
<feComposite in2="hardAlpha" operator="out"/>
<feColorMatrix type="matrix" values="0 0 0 0 0 0 0 0 0 0 0 0 0 0 0 0 0 0 0.25 0"/>
<feBlend mode="normal" in2="BackgroundImageFix" result="effect1_dropShadow_393_17641"/>
<feBlend mode="normal" in="SourceGraphic" in2="effect1_dropShadow_393_17641" result="shape"/>
</filter>
</defs>
</svg>
