<svg width="43" height="43" viewBox="0 0 43 43" fill="none" xmlns="http://www.w3.org/2000/svg">
<g clip-path="url(#clip0_496_11110)">
<path d="M33.2032 3.22261L31.3463 1.60674C30.9613 1.27181 30.3575 1.4517 30.2189 1.94316L28.9211 6.5476H27.3564C27.0696 6.5476 26.8467 6.79812 26.8803 7.0831L27.0804 8.7796C27.6446 8.77968 28.2165 8.91848 28.7448 9.21182C30.2119 10.0268 30.8479 11.7574 30.3375 13.294H31.0419C31.2849 13.294 31.4895 13.1121 31.518 12.8707L32.2003 7.0831C32.234 6.79837 32.0112 6.5476 31.7242 6.5476H30.3681L31.2612 3.37879L32.2889 4.27319C32.5791 4.5256 33.019 4.49516 33.2712 4.20502C33.5238 3.91487 33.4931 3.47502 33.2032 3.22261Z" fill="#FF729A"/>
<path d="M42.0643 31.569L33.987 21.3398C33.3197 20.4948 32.107 20.3222 31.2304 20.9472L27.4846 23.6183L25.5166 21.3052C25.0794 21.5273 24.5755 21.6058 24.0849 21.515L17.4788 20.2827L23.9458 19.7678C24.5074 19.7231 25.0094 19.4001 25.2829 18.9077L28.5471 13.0318C28.9982 12.2196 28.7056 11.1954 27.8933 10.7442C27.0811 10.293 26.0568 10.5856 25.6057 11.3979L22.7796 16.4852L17.2117 16.9285L20.7243 15.6728L20.3536 15.2371C19.4558 14.1819 17.8726 14.0544 16.8174 14.9521L13.5665 17.7181C13.0337 18.1714 12.7145 18.8266 12.6857 19.5254C12.6569 20.2243 12.9212 20.9034 13.4149 21.3989L22.179 30.1971C22.6329 30.6527 23.2672 30.8804 23.9072 30.8172C24.4065 30.7679 24.8674 30.5451 25.2153 30.1955C25.2166 30.1946 25.2178 30.1939 25.2191 30.193L32.0096 25.3507L38.8955 34.0712C39.5869 34.9466 40.8564 35.0952 41.7311 34.4045C42.6061 33.7136 42.7553 32.4441 42.0643 31.569Z" fill="#FF729A"/>
<path d="M13.3266 13.9091C15.3774 13.9091 17.0399 12.2466 17.0399 10.1958C17.0399 8.14494 15.3774 6.48242 13.3266 6.48242C11.2758 6.48242 9.61328 8.14494 9.61328 10.1958C9.61328 12.2466 11.2758 13.9091 13.3266 13.9091Z" fill="#FF729A"/>
<path d="M32.9999 27.9539C32.5095 27.3612 31.6317 27.278 31.0391 27.7685L23.7509 33.7984L9.58875 19.6362C10.2236 19.7716 10.8543 19.571 11.2907 19.1346C12.0157 18.4095 12.0158 17.2339 11.2907 16.5087L6.56317 11.7811C5.83793 11.056 4.66241 11.0561 3.93717 11.7811C3.47509 12.2433 3.30881 12.8882 3.43563 13.4831L2.87732 12.9247C2.33353 12.3809 1.45169 12.3809 0.907903 12.9247C0.364032 13.4686 0.364032 14.3504 0.907903 14.8942L21.5955 35.5817L17.3452 39.0983C16.7527 39.5886 16.6696 40.4665 17.1598 41.059C17.6504 41.6519 18.5284 41.7343 19.1205 41.2443L23.5736 37.5601L27.1695 41.1561C27.7132 41.6998 28.5952 41.6999 29.139 41.1561C29.6828 40.6122 29.6828 39.7304 29.139 39.1866L25.729 35.7767L32.8144 29.9145C33.4071 29.4243 33.4901 28.5464 32.9999 27.9539Z" fill="#FF729A"/>
</g>
<defs>
<clipPath id="clip0_496_11110">
<rect width="42" height="42" fill="white" transform="translate(0.5 0.5)"/>
</clipPath>
</defs>
</svg>
