<svg width="35" height="27" viewBox="0 0 35 27" fill="none" xmlns="http://www.w3.org/2000/svg">
<g clip-path="url(#clip0_393_14814)">
<path d="M6.36359 26.8661V25.0791C6.36359 24.3939 5.94332 23.9473 5.22295 23.9473C4.86283 23.9473 4.47264 24.0664 4.20248 24.4536C3.99248 24.126 3.69238 23.9473 3.24217 23.9473C2.94193 23.9473 2.64197 24.0365 2.40176 24.3642V24.0068H1.77148V26.8661H2.40176V25.2875C2.40176 24.7813 2.67191 24.5429 3.09219 24.5429C3.51219 24.5429 3.72246 24.811 3.72246 25.2875V26.8661H4.35273V25.2875C4.35273 24.7813 4.6527 24.5429 5.04289 24.5429C5.46316 24.5429 5.67316 24.811 5.67316 25.2875V26.8661H6.36359ZM15.6975 24.0068H14.6772V23.1431H14.0469V24.0068H13.4767V24.5726H14.0468V25.8833C14.0468 26.5386 14.3169 26.9257 15.0373 26.9257C15.3075 26.9257 15.6074 26.8364 15.8177 26.7173L15.6375 26.1811C15.4574 26.3002 15.2474 26.33 15.0973 26.33C14.7972 26.33 14.6772 26.1514 14.6772 25.8534V24.5726H15.6975V24.0068ZM21.0399 23.9471C20.6798 23.9471 20.4397 24.126 20.2896 24.3642V24.0068H19.6594V26.8661H20.2896V25.2578C20.2896 24.7813 20.4996 24.5132 20.8898 24.5132C21.0099 24.5132 21.16 24.543 21.28 24.5727L21.4601 23.9771C21.34 23.9473 21.16 23.9473 21.0399 23.9473V23.9471ZM12.9664 24.2451C12.6662 24.0365 12.2461 23.9473 11.7958 23.9473C11.0756 23.9473 10.5954 24.3046 10.5954 24.8706C10.5954 25.3472 10.9556 25.6152 11.5858 25.7046L11.8859 25.7344C12.2161 25.7938 12.3962 25.8833 12.3962 26.0322C12.3962 26.2406 12.1561 26.3896 11.7358 26.3896C11.3157 26.3896 10.9855 26.2406 10.7754 26.0918L10.4753 26.5683C10.8054 26.8066 11.2557 26.9257 11.7057 26.9257C12.5462 26.9257 13.0264 26.5386 13.0264 26.0024C13.0264 25.496 12.6362 25.2279 12.0359 25.1387L11.7358 25.1088C11.4657 25.079 11.2557 25.0195 11.2557 24.8408C11.2557 24.6323 11.4657 24.5132 11.7958 24.5132C12.1561 24.5132 12.5162 24.662 12.6963 24.7514L12.9664 24.2451ZM29.7138 23.9473C29.3535 23.9473 29.1135 24.126 28.9633 24.3642V24.0068H28.3331V26.8661H28.9633V25.2578C28.9633 24.7813 29.1735 24.5132 29.5635 24.5132C29.6837 24.5132 29.8338 24.543 29.9539 24.5727L30.1339 23.9771C30.0139 23.9473 29.8338 23.9473 29.7138 23.9473ZM21.6702 25.4365C21.6702 26.3002 22.2704 26.9257 23.2009 26.9257C23.6211 26.9257 23.9212 26.8364 24.2213 26.5982L23.9212 26.0918C23.6811 26.2705 23.441 26.3598 23.1708 26.3598C22.6606 26.3598 22.3005 26.0024 22.3005 25.4365C22.3005 24.9004 22.6606 24.5429 23.1708 24.5132C23.441 24.5132 23.6811 24.6025 23.9212 24.7813L24.2213 24.2749C23.9212 24.0365 23.6211 23.9473 23.2009 23.9473C22.2704 23.9473 21.6702 24.5727 21.6702 25.4365ZM27.4928 25.4365V24.0068H26.8625V24.3642C26.6524 24.0962 26.3523 23.9473 25.9621 23.9473C25.1518 23.9473 24.5215 24.5727 24.5215 25.4365C24.5215 26.3002 25.1518 26.9257 25.9621 26.9257C26.3822 26.9257 26.6825 26.7768 26.8625 26.5087V26.8661H27.4928V25.4365ZM25.1817 25.4365C25.1817 24.9301 25.5119 24.5132 26.0521 24.5132C26.5623 24.5132 26.9225 24.9004 26.9225 25.4365C26.9225 25.9428 26.5623 26.3598 26.0521 26.3598C25.5119 26.3299 25.1817 25.9428 25.1817 25.4365ZM17.6485 23.9473C16.8081 23.9473 16.2078 24.5429 16.2078 25.4365C16.2078 26.33 16.808 26.9257 17.6784 26.9257C18.0986 26.9257 18.5188 26.8066 18.849 26.5386L18.5488 26.0918C18.3087 26.2705 18.0086 26.3896 17.7085 26.3896C17.3183 26.3896 16.9281 26.2109 16.838 25.7044H18.9691V25.4663C18.9991 24.5429 18.459 23.9473 17.6485 23.9473ZM17.6485 24.4833C18.0386 24.4833 18.3088 24.7217 18.3687 25.1685H16.8681C16.9281 24.7813 17.1983 24.4833 17.6485 24.4833ZM33.2853 25.4365V22.875H32.655V24.3642C32.4449 24.0962 32.1448 23.9473 31.7546 23.9473C30.9443 23.9473 30.314 24.5727 30.314 25.4365C30.314 26.3002 30.9443 26.9257 31.7546 26.9257C32.1749 26.9257 32.475 26.7768 32.655 26.5087V26.8661H33.2853V25.4365ZM30.9743 25.4365C30.9743 24.9301 31.3044 24.5132 31.8447 24.5132C32.3549 24.5132 32.715 24.9004 32.715 25.4365C32.715 25.9428 32.3549 26.3598 31.8447 26.3598C31.3044 26.3299 30.9743 25.9428 30.9743 25.4365ZM9.90502 25.4365V24.0068H9.27475V24.3642C9.06461 24.0962 8.76451 23.9473 8.37432 23.9473C7.56398 23.9473 6.93371 24.5727 6.93371 25.4365C6.93371 26.3002 7.56398 26.9257 8.37432 26.9257C8.79459 26.9257 9.09469 26.7768 9.27475 26.5087V26.8661H9.90502V25.4365ZM7.56398 25.4365C7.56398 24.9301 7.89416 24.5132 8.43434 24.5132C8.94457 24.5132 9.30482 24.9004 9.30482 25.4365C9.30482 25.9428 8.94457 26.3598 8.43434 26.3598C7.89416 26.3299 7.56398 25.9428 7.56398 25.4365Z" fill="black"/>
<path d="M12.7559 2.29297H22.21V19.1511H12.7559V2.29297Z" fill="#FF5F00"/>
<path d="M13.3559 10.7225C13.3559 7.29733 14.9766 4.25922 17.4676 2.29337C15.6369 0.863729 13.326 0 10.8049 0C4.83205 0 0 4.79528 0 10.7225C0 16.6496 4.83205 21.4451 10.8047 21.4451C13.3258 21.4451 15.6368 20.5813 17.4676 19.1516C14.9766 17.2156 13.3559 14.1477 13.3559 10.7225Z" fill="#EB001B"/>
<path d="M34.9656 10.7225C34.9656 16.6496 30.1336 21.4451 24.1609 21.4451C21.6398 21.4451 19.3288 20.5813 17.498 19.1516C20.0191 17.1858 21.6099 14.1477 21.6099 10.7225C21.6099 7.29733 19.9891 4.25922 17.498 2.29337C19.3287 0.863729 21.6398 0 24.1609 0C30.1336 0 34.9656 4.82513 34.9656 10.7225Z" fill="#F79E1B"/>
</g>
<defs>
<clipPath id="clip0_393_14814">
<rect width="35" height="27" fill="white"/>
</clipPath>
</defs>
</svg>
