<svg width="40" height="52" viewBox="0 0 40 52" fill="none" xmlns="http://www.w3.org/2000/svg">
<path d="M5.92147 51.9992C8.69292 51.9992 10.9396 49.7525 10.9396 46.981C10.9396 44.2096 8.69292 41.9629 5.92147 41.9629C3.15002 41.9629 0.90332 44.2096 0.90332 46.981C0.90332 49.7525 3.15002 51.9992 5.92147 51.9992Z" fill="#6FAECE"/>
<path d="M4.48743 46.2962C5.32051 46.2962 5.99586 45.6208 5.99586 44.7877C5.99586 43.9546 5.32051 43.2793 4.48743 43.2793C3.65435 43.2793 2.979 43.9546 2.979 44.7877C2.979 45.6208 3.65435 46.2962 4.48743 46.2962Z" fill="#7DC6E2"/>
<path d="M21.6016 8.87695C21.6016 8.87695 22.2546 10.2278 22.601 10.6995C23.542 11.9812 19.7571 12.4987 19.6949 12.0073C19.6751 11.851 19.3724 10.499 19.3417 10.3259C19.2148 9.60932 19.2148 9.60932 19.2148 9.60932L21.6016 8.87695Z" fill="#F7A180"/>
<path d="M21.6929 9.0625L22.191 10.0216C22.191 10.0216 20.9229 10.9279 19.3517 10.3768L19.2349 9.70558L21.6929 9.0625Z" fill="#DB836E"/>
<path d="M20.7901 9.87284C20.7901 9.87284 19.8309 10.5867 18.4798 10.0794C17.1287 9.57199 16.8155 8.58857 16.6985 8.71735C16.5541 8.87639 16.252 8.72177 15.7531 7.96461C15.2218 7.15809 15.3037 6.84169 15.4905 6.73035C15.6098 6.65913 15.7384 6.76291 15.7384 6.76291C15.7384 6.76291 13.8041 2.56032 17.0472 1.19811C21.0836 -0.497082 22.1002 3.36685 22.3326 4.67527C22.3326 4.67527 22.5736 4.08724 22.9648 4.64985C23.3559 5.21247 23.4015 6.65304 22.9517 6.8438C22.9127 6.86039 22.6742 6.83749 22.669 6.85346C22.5748 7.13834 22.4666 8.84089 20.7901 9.87284Z" fill="#F7A180"/>
<path d="M22.6088 5.45613C22.6088 5.45613 22.8182 5.5681 22.7861 5.8076C22.7539 6.0471 22.8751 6.06475 22.9548 5.91958C23.0344 5.77441 22.9357 5.13385 22.7871 5.04183C22.6388 4.94939 22.5424 5.3244 22.6088 5.45613Z" fill="#D66C54"/>
<path d="M15.9803 7.48099C15.9803 7.48099 15.9032 7.70579 16.0897 7.85915C16.2763 8.01252 16.1996 8.10811 16.0425 8.056C15.8853 8.0039 15.5215 7.46776 15.5675 7.29906C15.6135 7.13057 15.9393 7.3394 15.9803 7.48099Z" fill="#D66C54"/>
<path d="M17.2242 8.53514C17.4468 8.46603 17.5747 8.24077 17.5099 8.03201C17.4451 7.82325 17.2121 7.71004 16.9895 7.77915C16.7669 7.84827 16.639 8.07353 16.7038 8.28229C16.7686 8.49105 17.0016 8.60426 17.2242 8.53514Z" fill="#D66C54"/>
<path d="M17.2351 7.19548C17.4722 7.14773 17.6168 6.87232 17.558 6.58034C17.4992 6.28837 17.2593 6.09039 17.0222 6.13814C16.785 6.1859 16.6404 6.4613 16.6992 6.75328C16.758 7.04526 16.9979 7.24324 17.2351 7.19548Z" fill="#344154"/>
<path d="M17.0617 5.64057C17.0617 5.64057 16.5586 5.71431 16.5731 5.9973C16.5882 6.29521 16.7626 5.92524 17.1691 5.92251C17.3508 5.92125 17.4241 5.88805 17.4029 5.7828C17.3651 5.5954 17.0903 5.63826 17.0617 5.64057Z" fill="#344154"/>
<path d="M19.627 5.08109C19.627 5.08109 20.107 4.91323 20.2253 5.1708C20.3499 5.44181 20.024 5.19475 19.6625 5.38068C19.5009 5.46366 19.4205 5.46829 19.3904 5.36513C19.337 5.18173 19.6007 5.09223 19.627 5.08109Z" fill="#344154"/>
<path d="M20.8759 7.45311C21.1037 7.40346 21.2506 7.19006 21.204 6.97647C21.1575 6.76288 20.9351 6.62998 20.7073 6.67963C20.4796 6.72928 20.3327 6.94268 20.3792 7.15627C20.4258 7.36986 20.6482 7.50276 20.8759 7.45311Z" fill="#D66C54"/>
<path d="M20.0855 6.48989C20.3219 6.43836 20.4621 6.16066 20.3986 5.86964C20.3352 5.57862 20.0921 5.38447 19.8557 5.436C19.6194 5.48753 19.4792 5.76522 19.5426 6.05624C19.606 6.34727 19.8491 6.54142 20.0855 6.48989Z" fill="#344154"/>
<path d="M19.207 9.01084C19.2026 9.0121 19.1982 9.01336 19.1938 9.01462C18.9162 9.09319 18.7347 9.00265 18.6364 8.92176C18.5843 8.8789 18.5902 8.7976 18.6467 8.76104C18.6837 8.73709 18.7309 8.74088 18.7652 8.76819C18.8267 8.81735 18.9469 8.87617 19.1393 8.82176C19.3524 8.76146 19.4553 8.61146 19.4994 8.52112C19.5198 8.47932 19.5675 8.45852 19.6127 8.46986C19.6736 8.4852 19.707 8.55264 19.6795 8.60894C19.6186 8.73352 19.4833 8.92786 19.207 9.01084Z" fill="#D66C54"/>
<path d="M18.8002 7.20312C18.8002 7.20312 18.2716 7.32266 18.4796 7.76721C18.6874 8.21175 19.1429 7.87456 19.1429 7.87456C19.1429 7.87456 19.2013 7.78885 19.1238 7.74053C19.046 7.69242 18.7265 7.96049 18.6191 7.7086C18.512 7.4567 18.8557 7.38275 18.884 7.32141C18.9124 7.26006 18.8002 7.20312 18.8002 7.20312Z" fill="#D66C54"/>
<path d="M23.3003 3.44815C23.0602 2.71053 22.9829 2.88196 23.0087 2.23867C23.0346 1.59538 21.2589 -0.128804 20.6669 0.0256107C20.4093 0.0928387 20.2007 0.213429 20.0469 0.328557C19.615 0.135487 19.1526 -0.00590292 18.6897 0.000189616C17.4107 0.0165764 17.4664 1.02962 16.2111 1.23886C15.2105 1.40567 14.8418 2.05779 14.7407 2.787C14.1981 3.45235 14.3315 4.34774 14.4996 4.70069C14.6712 5.06099 15.0485 5.35259 15.0828 5.55848C15.117 5.76436 14.8596 5.8673 15.2199 6.21038C15.3861 6.36857 15.5212 6.47761 15.6206 6.55114C15.6924 6.68623 15.7386 6.76564 15.7386 6.76564C15.7386 6.76564 16.171 7.67301 16.2471 7.69906C16.3231 7.72511 15.9718 6.73623 15.9983 6.57551C16.0248 6.41479 15.5445 5.23788 16.1508 4.98221C16.3819 4.88473 16.5887 4.64901 16.7565 4.39459C16.8813 4.38682 17.0179 4.38703 17.167 4.40068C17.7269 4.45152 17.8851 4.07736 18.2074 3.69122C19.2606 3.65235 20.5154 3.21726 21.0297 3.76706C21.3892 4.15152 21.6864 5.1112 21.8421 5.26687C21.9978 5.42276 22.4369 6.14588 22.4066 5.9234C22.3822 5.74293 22.349 5.03704 22.3373 4.7759C22.3379 4.77338 22.339 4.77191 22.3396 4.76918C22.378 4.62337 22.4602 4.51476 22.5606 4.424C22.665 4.38409 22.8018 4.41728 22.9652 4.65216C23.1415 4.90552 23.2468 5.33683 23.269 5.75218C23.3312 5.61709 23.3787 5.46184 23.3949 5.28788C23.4589 4.59312 23.489 4.06559 23.3003 3.44815Z" fill="#344154"/>
<path d="M30.6231 35.4405C30.6231 35.4405 33.1239 36.3878 33.9342 37.5945C34.7443 38.8013 37.2225 43.3058 37.2225 43.3058C37.2225 43.3058 36.1555 44.8493 35.683 44.535C35.2107 44.2207 32.4939 40.7866 31.0939 39.8979C29.6938 39.0093 27.2577 37.2187 27.319 37.0479C27.3801 36.8773 27.5354 34.0897 30.6231 35.4405Z" fill="#F7A180"/>
<path d="M23.7472 31.0692C23.7472 31.0692 26.651 37.583 28.0573 37.661C29.4634 37.7389 30.6183 36.3229 30.6183 36.3229C30.6183 36.3229 29.4376 29.8388 29.0216 28.9698C28.6054 28.1009 23.368 27.9896 23.7472 31.0692Z" fill="#F7A180"/>
<path d="M35.2843 43.8359C35.2843 43.8359 35.5362 43.7691 36.1471 43.5057C36.758 43.2422 36.965 42.6777 36.965 42.6777C36.965 42.6777 37.2971 43.2036 38.6774 43.7803C39.5259 44.1349 38.0671 46.7312 37.9387 47.6476C37.8104 48.564 36.7236 49.2144 35.5906 49.3152C34.7708 49.3881 34.0616 47.5558 35.1893 46.7786C35.1893 46.7786 35.5202 46.3952 35.5696 45.5814C35.5975 45.1183 35.5011 44.3765 35.2843 43.8359Z" fill="#202633"/>
<path d="M34.6699 48.4018C34.6699 48.4018 34.8558 48.8649 36.0462 48.6218C36.8792 48.4516 37.379 47.3386 37.5786 46.9152C37.7782 46.4921 38.4891 43.6992 38.4891 43.6992C38.4891 43.6992 38.8727 43.8087 39.066 44.0894C39.2593 44.37 38.4603 46.1396 38.2836 46.9858C38.107 47.8321 37.5551 48.9443 36.459 49.2544C35.3628 49.5644 35 49.2098 34.8968 49.1527C34.7932 49.0953 34.6699 48.4018 34.6699 48.4018Z" fill="#5F97B8"/>
<path d="M35.3256 46.558C35.3256 46.558 35.6993 45.1611 35.3151 44.4134C34.9308 43.6657 35.1882 43.3911 35.8266 43.3548C36.4651 43.3184 36.5924 44.0638 36.6819 44.8252C36.7714 45.5866 36.6071 46.6036 36.4107 46.6748C36.2143 46.746 36.2233 46.5641 35.1886 46.7782" fill="#404B60"/>
<path d="M36.7994 45.4741C36.7813 45.4136 36.7074 45.3848 36.6473 45.4136C36.3645 45.5493 35.3174 46.0564 35.2826 46.1464C35.2422 46.2501 35.2693 46.4649 35.3531 46.493C35.437 46.5212 36.6752 45.8947 36.7473 45.8308C36.799 45.7852 36.8353 45.5932 36.7994 45.4741Z" fill="#5F97B8"/>
<path d="M36.7601 46.0592C36.7601 46.0592 35.5147 45.4721 35.4006 45.5031C35.2866 45.5342 35.2445 45.7458 35.2698 45.8254C35.2948 45.9048 36.4851 46.4191 36.583 46.4355C36.6809 46.4519 36.8162 46.1878 36.7601 46.0592Z" fill="#5F97B8"/>
<path d="M36.7359 44.2711C36.726 44.1616 36.5962 44.0994 36.4949 44.1562C36.1552 44.3461 35.2734 44.8459 35.2468 44.9316C35.2136 45.0377 35.2552 45.2503 35.3407 45.2734C35.4262 45.2965 36.6195 44.5988 36.6871 44.531C36.7233 44.4946 36.7453 44.377 36.7359 44.2711Z" fill="#5F97B8"/>
<path d="M36.7647 44.7644C36.7647 44.7644 35.3664 44.3415 35.2588 44.3884C35.1513 44.4352 35.151 44.642 35.1889 44.717C35.2267 44.792 36.5868 45.1271 36.6866 45.1294C36.7864 45.1319 36.8414 44.8836 36.7647 44.7644Z" fill="#5F97B8"/>
<path d="M14.6562 34.8454C14.6562 34.8454 15.6386 37.0425 16.5475 39.0446C17.4563 41.0467 18.8383 44.9012 18.9374 45.3248C19.0366 45.7485 20.9709 45.6838 20.9709 45.6838C20.9709 45.6838 20.9005 39.56 20.0047 37.9366C19.1088 36.3133 18.0412 34.6 17.395 34.2815C16.7487 33.9632 14.9317 33.6977 14.6562 34.8454Z" fill="#F7A180"/>
<path d="M23.3407 33.5938C23.3407 33.5938 17.8366 36.4724 17.4757 36.4739C17.1148 36.4754 15.1492 35.9298 14.7238 35.0831C14.2983 34.2365 15.7774 32.9606 16.3303 32.5537C16.8833 32.1467 20.9325 28.5023 21.3417 28.4651C21.751 28.428 25.0111 31.873 23.3407 33.5938Z" fill="#F7A180"/>
<path d="M18.942 44.9517C18.942 44.9517 19.1952 45.0194 19.8648 45.0893C20.5345 45.1593 21.0236 44.7441 21.0236 44.7441C21.0236 44.7441 21.0185 45.4 21.8854 46.6406C22.4182 47.4032 19.7337 49.0528 19.1179 49.8333C18.5021 50.6138 17.2103 50.6573 16.1821 50.1692C15.438 49.8161 15.8401 47.7602 17.237 47.6209C17.237 47.6209 17.7326 47.4364 18.224 46.7101C18.5036 46.2967 18.8301 45.562 18.942 44.9517Z" fill="#202633"/>
<path d="M15.8959 48.8129C15.8959 48.8129 15.8001 49.3762 16.956 49.7621C17.7651 50.0323 18.8082 49.2604 19.213 48.9719C19.6178 48.6835 21.7687 46.4688 21.7687 46.4688C21.7687 46.4688 22.0696 46.7454 22.0668 47.1038C22.0633 47.5883 20.3979 48.7074 19.7792 49.3984C19.1607 50.0894 18.0733 50.8335 16.9613 50.5577C15.8493 50.2818 15.7791 49.868 15.722 49.7621C15.6648 49.6562 15.8959 48.8129 15.8959 48.8129Z" fill="#5F97B8"/>
<path d="M17.4764 47.4867C17.4764 47.4867 18.5678 46.3884 18.6504 45.501C18.7329 44.6136 19.1054 44.4917 19.6735 44.7856C20.2416 45.0796 19.9399 45.8331 19.5966 46.5821C19.2533 47.3311 18.5514 48.1861 18.3434 48.1512C18.1354 48.1164 18.2436 47.9529 17.2373 47.6199" fill="#404B60"/>
<path d="M19.3442 47.2571C19.364 47.1926 19.3184 47.1266 19.2511 47.1205C18.9341 47.0915 17.7581 46.9884 17.6768 47.0512C17.5826 47.1237 17.4814 47.3329 17.5358 47.4035C17.5902 47.4741 18.9965 47.5718 19.0942 47.5527C19.1638 47.539 19.3056 47.3842 19.3442 47.2571Z" fill="#5F97B8"/>
<path d="M18.972 47.7671C18.972 47.7671 18.2617 46.5648 18.1476 46.5316C18.0335 46.4984 17.8757 46.6677 17.8507 46.7534C17.8259 46.839 18.5318 47.9455 18.6052 48.0131C18.6783 48.0806 18.9449 47.9138 18.972 47.7671Z" fill="#5F97B8"/>
<path d="M20.0538 45.9061C20.1004 45.7975 20.0172 45.6775 19.8992 45.6838C19.5034 45.7046 18.4725 45.7653 18.4055 45.834C18.3225 45.9191 18.2519 46.1406 18.3157 46.2027C18.3796 46.2649 19.7855 46.1626 19.8796 46.1298C19.9298 46.1126 20.0088 46.0111 20.0538 45.9061Z" fill="#5F97B8"/>
<path d="M19.8292 46.3884C19.8292 46.3884 18.8084 45.3302 18.6897 45.3243C18.571 45.3185 18.4663 45.5147 18.4619 45.6036C18.4575 45.6926 19.489 46.6496 19.5758 46.6985C19.6626 46.7475 19.8365 46.5374 19.8292 46.3884Z" fill="#5F97B8"/>
<path d="M21.02 23.3621C21.02 23.3621 21.2131 27.6035 21.5994 28.1338C21.9858 28.6641 25.5661 35.5829 25.5661 35.5829L30.188 32.5015L29.9954 27.1092L29.6151 23.1348L21.02 23.3621Z" fill="#202633"/>
<path d="M25.3206 25.2182C25.3206 25.2182 18.2295 29.4794 18.4228 30.0853C18.6161 30.6912 21.468 35.0866 21.8542 35.1625C22.2403 35.2383 29.2388 30.3382 30.5029 29C32.2886 27.1092 29.6148 23.1348 29.6148 23.1348L25.3206 25.2182Z" fill="#202633"/>
<path d="M21.4327 27.6703L25.7132 25.0879C25.7132 25.0879 18.3864 30.2262 18.4215 30.0863C18.4566 29.9462 18.4915 29.631 21.4327 27.6703Z" fill="#364154"/>
<path d="M24.3738 33.6224L30.3613 29.1055C30.3613 29.1055 21.7477 34.9749 21.7608 35.0799C21.7738 35.185 21.7084 35.6052 24.3738 33.6224Z" fill="#364154"/>
<path d="M13.883 21.0056C13.883 21.0056 14.2129 21.0743 14.9982 20.2528C16.5467 18.6331 19.1128 15.4797 19.135 15.0091C19.1686 14.2998 17.9768 12.9403 16.9604 13.5634C15.944 14.1866 13.7297 18.3068 13.282 19.2333C12.8343 20.1598 13.3402 21.0982 13.883 21.0056Z" fill="#F7A180"/>
<path d="M14.6807 19.7106C14.6807 19.7106 12.197 13.9063 12.0678 13.6691C11.9386 13.4319 10.8533 13.5187 10.7214 13.933C10.5897 14.3475 12.0269 19.4381 12.5084 20.1945C12.9899 20.9508 13.4366 21.1172 14.0168 21.0121C14.5862 20.909 14.6807 19.7106 14.6807 19.7106Z" fill="#F7A180"/>
<path d="M10.7623 14.2922C10.7623 14.2922 10.0949 13.5183 9.84046 12.9708C9.58604 12.4233 9.85496 12.0226 9.82428 11.8825C9.79361 11.7424 11.7997 10.597 11.8136 10.6672C11.8275 10.7373 12.2703 11.7056 12.2455 12.0348C12.2296 12.2481 12.1686 12.9991 12.1275 13.5025C12.1044 13.7861 11.9012 14.0223 11.6243 14.0878L10.7623 14.2922Z" fill="#F7A180"/>
<path d="M11.6364 13.9448C11.9379 13.9043 12.2759 13.6013 12.3389 13.3036C12.4444 12.8053 12.6639 12.4295 12.6081 12.1853C12.5202 11.8011 12.0261 11.724 11.8568 11.6147C11.6875 11.5055 11.8007 11.7608 11.4664 12.282C11.4664 12.282 10.9312 13.0131 11.0677 13.495C11.2043 13.977 11.4961 13.9534 11.4961 13.9534L11.6364 13.9448Z" fill="#FFAF99"/>
<path d="M12.6199 12.206L11.8775 11.9764C11.7726 11.8375 11.6918 11.6408 11.5846 11.0087C11.4773 10.3768 12.0082 9.83956 12.051 10.544C12.0939 11.2486 12.3586 11.2879 12.4407 11.5465C12.4684 11.6348 12.5951 12.036 12.6199 12.206Z" fill="#FFAF99"/>
<path d="M11.7518 10.9343C11.7518 10.9343 11.8404 11.8285 11.6024 11.957C11.3644 12.0858 11.2879 12.0367 11.2078 11.8367C11.1278 11.6367 10.9673 10.857 11.0866 10.7619C11.2059 10.6667 11.4099 10.6553 11.5162 10.6587C11.6225 10.6621 11.731 10.7742 11.7518 10.9343Z" fill="#FFBBAB"/>
<path d="M11.1021 11.0636C11.1021 11.0636 11.4339 11.9268 11.2166 12.0987C10.9996 12.2705 10.8756 12.3115 10.7464 12.1084C10.6172 11.9052 10.2706 11.0922 10.3725 10.9733C10.4744 10.8543 10.6832 10.8132 10.7941 10.8016C10.9053 10.7903 11.0437 10.8951 11.1021 11.0636Z" fill="#FFBBAB"/>
<path d="M10.5271 11.4178C10.5271 11.4178 10.937 12.1267 10.7548 12.3326C10.5727 12.5385 10.462 12.604 10.3181 12.4487C10.1739 12.2937 9.75607 11.6338 9.83695 11.5025C9.91784 11.3712 10.1078 11.2859 10.2099 11.25C10.3118 11.2143 10.4527 11.2781 10.5271 11.4178Z" fill="#FFBBAB"/>
<path d="M9.97401 11.846C9.97401 11.846 10.3744 12.3966 10.2391 12.5832C10.1038 12.7697 10.0169 12.8338 9.88409 12.718C9.7511 12.6023 9.34795 12.0928 9.40489 11.9771C9.46182 11.8611 9.61308 11.7737 9.69544 11.735C9.77758 11.6964 9.90048 11.7367 9.97401 11.846Z" fill="#FFBBAB"/>
<path d="M22.6533 10.5143C22.6533 10.5143 25.7502 10.225 27.8748 11.7397C29.9995 13.2545 30.5446 13.4555 30.5446 13.4555L28.9952 16.598L24.4391 14.3288L22.6533 10.5143Z" fill="#364154"/>
<path d="M19.2968 11.168C19.2968 11.168 17.8449 11.7447 17.3621 12.2749C16.8793 12.8052 14.6572 15.7414 14.6572 15.7414L17.476 18.1486L19.6468 16.3979L19.2968 11.168Z" fill="#364154"/>
<path d="M30.119 23.1801C30.1299 23.1774 30.1405 23.1748 30.1516 23.1721L30.1348 23.1694C30.1358 23.1681 30.1381 23.1669 30.1386 23.1656C30.2108 22.9685 28.0856 16.5067 28.0253 16.0617C27.965 15.6167 22.6412 10.4883 22.6412 10.4883C22.6412 10.4883 22.8578 10.8166 21.6153 11.3564C20.1882 11.9765 19.2976 11.1671 19.2976 11.1671L18.2835 12.644C18.2835 12.644 17.5592 14.3482 18.2352 15.6737C18.9113 16.9991 20.514 23.7501 20.514 23.7501C20.514 23.7501 20.9813 25.4051 29.951 23.2213C30.035 23.207 30.0915 23.1933 30.119 23.1801Z" fill="#364154"/>
<path d="M28.0402 16.1283L27.2095 15.6621L28.3738 17.2903L28.0402 16.1283Z" fill="#2C3849"/>
<path d="M18.7534 17.1202L18.1582 14.3672L18.4908 17.3433L18.7534 17.1202Z" fill="#2C3849"/>
<path d="M32.4645 16.0098C32.4645 16.0098 26.4801 18.1167 26.235 18.2304C25.9898 18.3441 25.9778 19.4539 26.4064 19.5279C26.9381 19.6199 31.9842 18.58 32.77 18.148C33.5557 17.7161 33.7504 17.2812 33.6832 16.6955C33.617 16.1209 32.4645 16.0098 32.4645 16.0098Z" fill="#F7A180"/>
<path d="M24.7458 20.1274L24.3456 20.4438C24.3456 20.4438 23.756 20.398 23.6367 20.2348C23.5174 20.0715 23.2798 19.3719 23.1834 18.9984C23.0869 18.6249 23.5413 17.8694 23.5413 17.8694C23.5413 17.8694 24.155 17.6326 24.4905 17.7309C24.8262 17.8295 24.7458 20.1274 24.7458 20.1274Z" fill="#E89277"/>
<path d="M26.4262 18.2544C26.4262 18.2544 24.6873 17.5454 24.1938 17.7588C23.7003 17.9723 24.1696 20.2618 24.3457 20.4435C24.5217 20.6252 26.5837 19.4469 26.5837 19.4469L26.4262 18.2544Z" fill="#F7A180"/>
<path d="M23.6511 17.9909C23.6511 17.9909 23.0019 18.41 23.0418 18.6598C23.0817 18.9098 23.1555 18.9409 23.3328 18.8926C23.5101 18.8442 24.1204 18.5417 24.121 18.3997C24.1215 18.2577 24.0208 18.0974 23.962 18.0188C23.903 17.9404 23.7698 17.9196 23.6511 17.9909Z" fill="#FFAF99"/>
<path d="M23.9084 18.5529C23.9084 18.5529 23.1506 18.7716 23.1504 19.0292C23.1502 19.2867 23.1884 19.4027 23.3939 19.3899C23.5993 19.3771 24.391 19.1546 24.283 19.0594C24.0783 18.8789 24.251 18.6764 24.1998 18.5863C24.1485 18.4962 24.0531 18.5054 23.9084 18.5529Z" fill="#FFAF99"/>
<path d="M23.9761 19.1791C23.9761 19.1791 23.2807 19.2548 23.2391 19.5044C23.1973 19.7539 23.2122 19.8733 23.3931 19.8978C23.574 19.9224 24.2408 19.8796 24.2862 19.747C24.3316 19.6142 24.1702 19.4588 24.2631 19.2686C24.3074 19.1777 24.1097 19.1592 23.9761 19.1791Z" fill="#FFAF99"/>
<path d="M23.9819 19.8302C23.9819 19.8302 23.3981 19.8271 23.3443 20.0306C23.2905 20.2342 23.2937 20.3349 23.4424 20.3725C23.591 20.4101 24.1485 20.4378 24.1964 20.3319C24.2443 20.226 24.2225 20.0641 24.2048 19.9806C24.1872 19.8975 24.0945 19.8264 23.9819 19.8302Z" fill="#FFAF99"/>
<path d="M33.5124 16.423C33.5124 16.423 31.8834 15.0635 30.2847 13.9824L29.0962 16.393C30.3662 17.0734 31.6693 17.6806 32.1479 17.8703C33.1045 18.2493 33.6444 16.9575 33.5124 16.423Z" fill="#F7A180"/>
</svg>
