<svg width="30" height="30" viewBox="0 0 30 30" fill="none" xmlns="http://www.w3.org/2000/svg">
<path d="M12.6875 9.14517C12.5948 9.2361 12.5212 9.3441 12.471 9.463C12.4208 9.5819 12.395 9.70936 12.395 9.83808C12.395 9.96681 12.4208 10.0943 12.471 10.2132C12.5212 10.3321 12.5948 10.4401 12.6875 10.531L16.5673 14.3445L12.6875 18.158C12.5005 18.3417 12.3954 18.591 12.3954 18.8509C12.3954 19.1108 12.5005 19.36 12.6875 19.5438C12.8744 19.7276 13.128 19.8308 13.3924 19.8308C13.6568 19.8308 13.9104 19.7276 14.0974 19.5438L18.6872 15.0325C18.7799 14.9416 18.8534 14.8335 18.9036 14.7146C18.9538 14.5957 18.9796 14.4683 18.9796 14.3396C18.9796 14.2108 18.9538 14.0834 18.9036 13.9645C18.8534 13.8456 18.7799 13.7376 18.6872 13.6467L14.0974 9.13534C13.7174 8.76186 13.0774 8.76186 12.6875 9.14517Z" fill="#838383"/>
</svg>
