<svg width="97" height="90" viewBox="0 0 97 90" fill="none" xmlns="http://www.w3.org/2000/svg">
<g filter="url(#filter0_d_393_14724)">
<path d="M73.4085 34.9805C73.8426 32.2867 72.0107 29.751 69.3169 29.3169C66.623 28.8828 64.0873 30.7147 63.6532 33.4085C63.2191 36.1023 65.051 38.638 67.7448 39.0721C70.4387 39.5063 72.9744 37.6744 73.4085 34.9805Z" fill="#4886D1"/>
<path d="M71.586 37.2556C73.2761 35.5654 73.2761 32.8252 71.586 31.1351C69.8959 29.445 67.1556 29.4449 65.4655 31.1351C63.7754 32.8252 63.7754 35.5654 65.4655 37.2556C67.1556 38.9457 69.8959 38.9457 71.586 37.2556Z" fill="#FFD36B"/>
<path d="M68.2622 37.4359V36.6507C67.8111 36.6428 67.3445 36.503 67.0723 36.3084L67.2592 35.7875C67.5391 35.9742 67.9435 36.1219 68.3789 36.1219C68.9312 36.1219 69.3042 35.803 69.3042 35.36C69.3042 34.9323 69.001 34.6679 68.4253 34.4347C67.6322 34.1237 67.1423 33.7659 67.1423 33.0893C67.1423 32.4438 67.6012 31.9539 68.3165 31.8372V31.0518H68.7987V31.806C69.2651 31.8217 69.584 31.9461 69.8096 32.0783L69.6152 32.5915C69.452 32.4982 69.1329 32.3272 68.6352 32.3272C68.0364 32.3272 67.8111 32.6849 67.8111 32.9959C67.8111 33.4001 68.0988 33.6023 68.7754 33.8824C69.5762 34.2089 69.9806 34.6133 69.9806 35.3055C69.9806 35.9197 69.5528 36.4951 68.7521 36.6275V37.4361H68.2622V37.4359Z" fill="#4886D1"/>
<path d="M79.7237 27.3037C80.6145 25.1381 79.581 22.6604 77.4154 21.7697C75.2499 20.8789 72.7722 21.9123 71.8814 24.0779C70.9907 26.2435 72.0241 28.7211 74.1897 29.6119C76.3553 30.5027 78.8329 29.4692 79.7237 27.3037Z" fill="#4886D1"/>
<path d="M78.4309 28.3168C79.8814 26.8663 79.8814 24.5146 78.4309 23.0641C76.9804 21.6136 74.6286 21.6136 73.1781 23.0641C71.7276 24.5146 71.7276 26.8663 73.1781 28.3168C74.6286 29.7673 76.9804 29.7673 78.4309 28.3168Z" fill="#FFD36B"/>
<path d="M75.5787 28.4713V27.7973C75.1915 27.7906 74.791 27.6706 74.5576 27.5035L74.7179 27.0563C74.9581 27.2165 75.3051 27.3434 75.6788 27.3434C76.1528 27.3434 76.473 27.0699 76.473 26.6895C76.473 26.3223 76.2128 26.0955 75.7189 25.8953C75.0382 25.6283 74.6178 25.3214 74.6178 24.7407C74.6178 24.1869 75.0118 23.7663 75.6256 23.6662V22.9922H76.0396V23.6394C76.4398 23.6527 76.7134 23.7596 76.9071 23.873L76.7404 24.3136C76.6004 24.2336 76.3264 24.0868 75.8993 24.0868C75.3856 24.0868 75.1919 24.3939 75.1919 24.6609C75.1919 25.0079 75.4389 25.1813 76.0195 25.4217C76.7068 25.702 77.0539 26.049 77.0539 26.643C77.0539 27.1702 76.6868 27.6641 75.9994 27.7775V28.4716H75.5787V28.4713Z" fill="#4886D1"/>
<path d="M73.0392 16.193C73.3589 14.2133 72.0131 12.3492 70.0333 12.0295C68.0536 11.7099 66.1895 13.0556 65.8698 15.0354C65.5502 17.0152 66.8959 18.8793 68.8757 19.1989C70.8555 19.5186 72.7195 18.1728 73.0392 16.193Z" fill="#4886D1"/>
<path d="M71.9759 17.5433C73.0432 16.1479 72.7772 14.1515 71.3817 13.0842C69.9863 12.017 67.9899 12.283 66.9227 13.6784C65.8554 15.0739 66.1214 17.0703 67.5169 18.1375C68.9123 19.2048 70.9087 18.9387 71.9759 17.5433Z" fill="#FFD36B"/>
<path d="M69.2563 17.9922V17.415C68.9248 17.4093 68.5819 17.3064 68.3818 17.1635L68.5193 16.7805C68.725 16.9177 69.0223 17.0263 69.3423 17.0263C69.7482 17.0263 70.0224 16.792 70.0224 16.4661C70.0224 16.1518 69.7994 15.9575 69.3765 15.786C68.7934 15.5574 68.4333 15.2946 68.4333 14.7973C68.4333 14.3228 68.7708 13.9627 69.2964 13.877V13.2998H69.6509V13.8541C69.9938 13.8656 70.2281 13.957 70.3938 14.0541L70.2512 14.4315C70.1312 14.363 69.8967 14.2371 69.5309 14.2371C69.091 14.2371 68.9252 14.5002 68.9252 14.7288C68.9252 15.0258 69.1368 15.1746 69.6339 15.3803C70.2226 15.6202 70.5197 15.9176 70.5197 16.4262C70.5197 16.8778 70.2054 17.3007 69.6167 17.3978V17.9922H69.2563Z" fill="#4886D1"/>
<path d="M44.0101 33.0554L43.9627 43.7489L43.951 46.8037L43.9036 57.4951C43.9036 63.2619 41.4403 67.9639 38.3545 68.1792C38.2812 68.184 38.2077 68.1864 38.1344 68.1864H20.0459V68.184C21.5676 68.1225 22.9422 66.9701 23.9552 65.1313C25.0249 63.1908 25.6873 60.486 25.6873 57.4951L25.6991 36.2215L25.7015 33.0554C25.7015 27.1513 29.4996 22.3643 34.1873 22.3643C36.4993 22.3643 38.5935 23.5308 40.127 25.4191C41.6981 27.3596 42.6732 30.0644 42.6732 33.0554H44.0101Z" fill="#69A7E0"/>
<path d="M25.7005 36.2209L25.6981 41.5973L25.6957 42.9556V45.9987L25.6933 47.6835V50.7242L25.6909 52.0849V55.1256L25.6885 56.8104V57.4943C25.6885 57.7213 25.6837 57.9462 25.6767 58.1687C25.6577 58.7437 25.6152 59.3045 25.5465 59.8512C25.4919 60.3173 25.4187 60.7716 25.3312 61.2118C25.213 61.7986 25.0686 62.3618 24.8982 62.8943C24.7492 63.3722 24.5765 63.8265 24.3871 64.2525C24.2547 64.5601 24.1103 64.8535 23.9565 65.1305C23.8004 65.4169 23.6324 65.6865 23.4597 65.9374C23.0834 66.4792 22.6716 66.9383 22.2292 67.2956C21.5595 67.8375 20.8212 68.1522 20.0475 68.183C20.0049 68.1854 19.9622 68.1854 19.9197 68.1854C16.7322 68.1854 14.1504 63.3981 14.1504 57.4943V36.2207L25.7005 36.2209Z" fill="#DBF1FE"/>
<path d="M25.6982 41.5977L25.6958 42.9559H16.9805V41.5977H25.6982Z" fill="#397FD3"/>
<path d="M25.6958 44.6406H16.9805V45.9989H25.6958V44.6406Z" fill="#397FD3"/>
<path d="M25.6934 47.6836H16.9805V49.0419H25.6934V47.6836Z" fill="#397FD3"/>
<path d="M25.6936 50.7246L25.6912 52.0853H16.9805V50.7246H25.6936Z" fill="#397FD3"/>
<path d="M25.691 53.7676H16.9805V55.1259H25.691V53.7676Z" fill="#397FD3"/>
<path d="M25.6886 56.8115V57.4953C25.6886 57.7224 25.6838 57.9473 25.6768 58.1698H16.9805V56.8115H25.6886Z" fill="#397FD3"/>
<path d="M25.5467 59.8516C25.4922 60.3177 25.4189 60.7721 25.3314 61.2122H17.3403C17.2504 60.7721 17.1769 60.3177 17.125 59.8516H25.5467Z" fill="#397FD3"/>
<path d="M24.8978 62.8945C24.7489 63.3724 24.5761 63.8268 24.3868 64.2528H18.2792C18.0898 63.8268 17.9195 63.3724 17.7705 62.8945H24.8978Z" fill="#397FD3"/>
<path d="M23.4595 65.9385C23.0832 66.4803 22.6714 66.9395 22.2291 67.2968H20.4424C19.9998 66.9395 19.5858 66.4803 19.2119 65.9385H23.4595Z" fill="#397FD3"/>
<path d="M60.9819 33.0554H42.6733C42.6733 30.0644 41.6983 27.3596 40.1271 25.4191C38.5937 23.5308 36.4994 22.3643 34.1875 22.3643H52.4961C57.1839 22.364 60.9819 27.1513 60.9819 33.0554Z" fill="#DBF1FE"/>
<path d="M56.0824 24.2953H40.3296C39.6835 23.7227 38.969 23.2635 38.207 22.9346H53.9646C54.7241 23.2635 55.4363 23.7224 56.0824 24.2953Z" fill="#397FD3"/>
<path d="M58.3896 27.3358H42.6344C42.3954 26.8555 42.1234 26.4011 41.8252 25.9775H57.5804C57.8785 26.4011 58.1484 26.8555 58.3896 27.3358Z" fill="#397FD3"/>
<path d="M64.0404 31.3843V74.3446H37.8644C37.6849 74.3446 37.5073 74.3317 37.3342 74.3081C37.1887 74.2889 37.0456 74.261 36.9044 74.227C35.1919 73.7973 33.9222 72.2473 33.9222 70.4023V52.0894C30.4417 49.817 28.1436 45.8876 28.1436 41.4195C28.1436 35.2388 32.5432 30.0845 38.3838 28.9216C38.8968 28.8191 39.4205 28.7484 39.953 28.71C40.263 28.6865 40.5729 28.6758 40.8872 28.6758H61.3315C62.8283 28.6756 64.0404 29.8879 64.0404 31.3843Z" fill="#397FD3"/>
<path d="M64.3156 74.9997H40.0384C39.5221 74.9997 39.1035 74.5811 39.1035 74.0648V31.5091C39.1035 30.9928 39.5221 30.5742 40.0384 30.5742H64.3154C64.8317 30.5742 65.2503 30.9928 65.2503 31.5091V74.0648C65.2503 74.5811 64.8319 74.9997 64.3156 74.9997Z" fill="#397FD3"/>
<path d="M64.0402 33.0566H40.3145V70.5264H64.0402V33.0566Z" fill="#5EADBE"/>
<path d="M52.0563 74.3449C52.9298 74.3449 53.6379 73.6368 53.6379 72.7633C53.6379 71.8898 52.9298 71.1816 52.0563 71.1816C51.1827 71.1816 50.4746 71.8898 50.4746 72.7633C50.4746 73.6368 51.1827 74.3449 52.0563 74.3449Z" fill="#397FD3"/>
<path d="M54.8532 32.2614H49.5019C49.3082 32.2614 49.1514 32.1043 49.1514 31.9108V31.704C49.1514 31.5103 49.3082 31.3535 49.5019 31.3535H54.8532C55.0469 31.3535 55.2038 31.5106 55.2038 31.704V31.9108C55.2038 32.1045 55.0467 32.2614 54.8532 32.2614Z" fill="#397FD3"/>
<path d="M61.0403 40.0449H60.9255C60.5523 40.0449 60.25 40.3475 60.25 40.7205V62.8635C60.25 63.2367 60.5525 63.5393 60.9255 63.5393H61.0403C61.4135 63.5393 61.716 63.2367 61.716 62.8635V40.7205C61.716 40.3472 61.4135 40.0449 61.0403 40.0449Z" fill="#397FD3"/>
<path d="M57.3407 56.1905H47.0137L48.1017 47.1162H56.2527L57.3407 56.1905Z" fill="#ECF0FB"/>
<path d="M54.2142 47.1167H53.9302C53.9302 45.8284 53.1464 44.786 52.1777 44.786C51.209 44.786 50.4253 45.8284 50.4253 47.1167H50.1387C50.1387 45.6203 51.0515 44.4082 52.1777 44.4082C53.3037 44.4082 54.2142 45.6206 54.2142 47.1167Z" fill="#397FD3"/>
<path d="M47.0137 56.1912L52.1772 55.0596L57.3407 56.1912H47.0137Z" fill="#BDD2FF"/>
<mask id="mask0_393_14724" style="mask-type:luminance" maskUnits="userSpaceOnUse" x="61" y="42" width="25" height="19">
<path d="M85.6998 42.6455H61.7178V60.9381H85.6998V42.6455Z" fill="white"/>
</mask>
<g mask="url(#mask0_393_14724)">
<path d="M55.5762 44.37V59.2134C55.5762 60.1658 56.3483 60.9379 57.3007 60.9379H83.2053C84.1577 60.9379 84.9299 60.1658 84.9299 59.2134V44.37C84.9299 43.4175 84.1577 42.6455 83.2053 42.6455H57.3007C56.3483 42.6455 55.5762 43.4177 55.5762 44.37Z" fill="#397FD3"/>
<path d="M83.9119 53.2275H77.5068V54.9521H83.9119V53.2275Z" fill="white"/>
<path d="M76.9412 53.2275H70.5361V54.9521H76.9412V53.2275Z" fill="white"/>
<path d="M69.9696 53.2275H63.5645V54.9521H69.9696V53.2275Z" fill="white"/>
<path d="M62.9989 53.2275H56.5938V54.9521H62.9989V53.2275Z" fill="white"/>
<path d="M81.7667 48.5679H77.6014C77.1754 48.5679 76.8301 48.2226 76.8301 47.7966V45.6668C76.8301 45.2408 77.1754 44.8955 77.6014 44.8955H81.7667C82.1927 44.8955 82.538 45.2408 82.538 45.6668V47.7966C82.538 48.2226 82.1927 48.5679 81.7667 48.5679Z" fill="#FEB313"/>
</g>
<path d="M39.9529 28.71C39.4206 28.7484 38.8967 28.819 38.3836 28.9215C37.4878 29.5735 36.9043 30.6319 36.9043 31.8226V74.2269C37.0454 74.2612 37.1885 74.2889 37.334 74.3081C37.3318 74.293 37.3318 74.2804 37.3318 74.2653V31.8226C37.3318 30.2641 38.467 28.9645 39.9529 28.71Z" fill="#397FD3"/>
<path d="M20.4847 28.4577C22.6121 28.4577 24.3367 26.7332 24.3367 24.6058C24.3367 22.4785 22.6121 20.7539 20.4847 20.7539C18.3574 20.7539 16.6328 22.4785 16.6328 24.6058C16.6328 26.7332 18.3574 28.4577 20.4847 28.4577Z" fill="#69A7E0"/>
<path d="M20.3487 26.4096L18.3105 24.0695L19.1743 23.3172L20.4499 24.7819L24.2694 21.3643L25.0332 22.2182L20.3487 26.4096Z" fill="#DBF1FE"/>
<path d="M20.4847 17.1511C22.6121 17.1511 24.3367 15.4265 24.3367 13.2992C24.3367 11.1718 22.6121 9.44727 20.4847 9.44727C18.3574 9.44727 16.6328 11.1718 16.6328 13.2992C16.6328 15.4265 18.3574 17.1511 20.4847 17.1511Z" fill="#69A7E0"/>
<path d="M20.3487 15.1029L18.3105 12.7628L19.1743 12.0105L20.4499 13.4752L24.2694 10.0576L25.0332 10.9116L20.3487 15.1029Z" fill="#DBF1FE"/>
</g>
<defs>
<filter id="filter0_d_393_14724" x="2.53628" y="0.736686" width="94.0075" height="88.7809" filterUnits="userSpaceOnUse" color-interpolation-filters="sRGB">
<feFlood flood-opacity="0" result="BackgroundImageFix"/>
<feColorMatrix in="SourceAlpha" type="matrix" values="0 0 0 0 0 0 0 0 0 0 0 0 0 0 0 0 0 0 127 0" result="hardAlpha"/>
<feOffset dy="2.90353"/>
<feGaussianBlur stdDeviation="5.80705"/>
<feComposite in2="hardAlpha" operator="out"/>
<feColorMatrix type="matrix" values="0 0 0 0 0 0 0 0 0 0 0 0 0 0 0 0 0 0 0.25 0"/>
<feBlend mode="normal" in2="BackgroundImageFix" result="effect1_dropShadow_393_14724"/>
<feBlend mode="normal" in="SourceGraphic" in2="effect1_dropShadow_393_14724" result="shape"/>
</filter>
</defs>
</svg>
