<svg width="223" height="183" viewBox="0 0 223 183" fill="none" xmlns="http://www.w3.org/2000/svg">
<path d="M189.954 124.601C182.722 124.601 176.863 118.74 176.863 111.51V111.09C176.863 103.859 182.724 98 189.954 98C197.185 98 203.044 103.861 203.044 111.09V111.51C203.044 118.74 197.182 124.601 189.954 124.601Z" fill="url(#paint0_linear_517_82543)"/>
<path d="M214.536 95.6006C210.298 95.6006 206.863 92.1652 206.863 87.9278V87.6816C206.863 83.4431 210.298 80.0088 214.536 80.0088C218.775 80.0088 222.209 83.4442 222.209 87.6816V87.9278C222.209 92.1652 218.773 95.6006 214.536 95.6006Z" fill="url(#paint1_linear_517_82543)"/>
<path d="M173.024 182.601C170.686 182.601 168.792 180.706 168.792 178.368V178.232C168.792 175.894 170.687 174 173.024 174C175.362 174 177.257 175.895 177.257 178.232V178.368C177.257 180.706 175.361 182.601 173.024 182.601Z" fill="url(#paint2_linear_517_82543)"/>
<path d="M89.1377 20.6006C83.5376 20.6006 79 16.0616 79 10.4629V10.1377C79 4.53756 83.5386 0 89.1377 0C94.7378 0 99.2754 4.53901 99.2754 10.1377V10.4629C99.2754 16.0616 94.7353 20.6006 89.1377 20.6006Z" fill="url(#paint3_linear_517_82543)"/>
<path d="M11.9139 80.6006C5.77008 80.6006 0.791992 75.6209 0.791992 69.4787V69.1219C0.791992 62.9781 5.77127 58 11.9139 58C18.0577 58 23.0358 62.9797 23.0358 69.1219V69.4787C23.0358 75.6209 18.055 80.6006 11.9139 80.6006Z" fill="url(#paint4_linear_517_82543)"/>
<path d="M191.737 55.1234L191.52 55.2113C191.433 55.0324 191.348 54.8534 191.257 54.6777L191.737 55.1234Z" fill="white"/>
<path d="M106.893 113.307C106.599 113.308 106.314 113.208 106.084 113.024C105.854 112.84 105.694 112.584 105.629 112.297L104.253 106.175C104.115 105.364 103.484 104.829 102.734 104.829C100.548 104.826 98.4536 103.957 96.9086 102.412C95.3636 100.867 94.4946 98.7719 94.4922 96.5868V84.1023C94.4941 81.9169 95.3629 79.8215 96.9079 78.276C98.453 76.7304 100.548 75.8609 102.734 75.8584H157.185C159.37 75.8609 161.465 76.7301 163.01 78.2752C164.555 79.8204 165.424 81.9153 165.427 84.1004V96.5823C165.424 98.7675 164.555 100.862 163.01 102.407C161.465 103.953 159.37 104.822 157.185 104.824H128.217C126.89 104.825 125.586 105.165 124.428 105.812L107.409 113.197C107.246 113.269 107.071 113.306 106.893 113.307ZM102.734 78.4529C101.235 78.4548 99.7989 79.0508 98.7395 80.1102C97.6801 81.1696 97.0841 82.606 97.0822 84.1042V96.5862C97.0841 98.0844 97.6801 99.5208 98.7395 100.58C99.7989 101.64 101.235 102.236 102.734 102.238C103.709 102.235 104.653 102.58 105.398 103.21C106.142 103.841 106.637 104.716 106.795 105.678L107.813 110.201L123.28 103.496C124.706 102.692 126.453 102.237 128.218 102.237H157.186C158.684 102.235 160.121 101.639 161.18 100.58C162.239 99.5201 162.835 98.0838 162.837 96.5855V84.1023C162.835 82.6041 162.239 81.1677 161.18 80.1083C160.121 79.0489 158.684 78.4528 157.186 78.451L102.734 78.4529Z" fill="white"/>
<path d="M105.826 94.9939C105.541 94.9945 105.263 94.9008 105.037 94.7273C104.81 94.5539 104.647 94.3104 104.573 94.0347C104.499 93.7591 104.518 93.4667 104.627 93.203C104.736 92.9392 104.929 92.719 105.177 92.5764L115.745 86.4756C116.043 86.3036 116.397 86.257 116.729 86.3458C117.061 86.4347 117.344 86.6518 117.516 86.9494C117.688 87.2471 117.734 87.6008 117.645 87.9328C117.556 88.2649 117.339 88.548 117.042 88.7199L106.473 94.8208C106.277 94.9342 106.053 94.9939 105.826 94.9939Z" fill="white"/>
<path d="M111.109 98.0461C110.766 98.0457 110.437 97.9091 110.194 97.6663C109.951 97.4234 109.815 97.0941 109.814 96.7507V84.5478C109.822 84.2093 109.962 83.8872 110.204 83.6505C110.446 83.4138 110.771 83.2813 111.109 83.2812C111.448 83.2813 111.773 83.4138 112.015 83.6505C112.257 83.8872 112.397 84.2093 112.404 84.5478V96.7507C112.404 97.0942 112.268 97.4236 112.025 97.6665C111.782 97.9094 111.453 98.0459 111.109 98.0461Z" fill="white"/>
<path d="M116.391 94.9939C116.164 94.9939 115.941 94.9342 115.744 94.8208L105.176 88.7199C104.878 88.548 104.661 88.2649 104.572 87.9328C104.484 87.6008 104.53 87.2471 104.702 86.9494C104.874 86.6518 105.157 86.4347 105.489 86.3458C105.821 86.257 106.175 86.3036 106.473 86.4756L117.041 92.5764C117.288 92.719 117.482 92.9392 117.591 93.203C117.7 93.4667 117.719 93.7591 117.645 94.0347C117.571 94.3104 117.408 94.5539 117.181 94.7273C116.955 94.9008 116.677 94.9945 116.391 94.9939Z" fill="white"/>
<path d="M124.676 94.9934C124.39 94.994 124.113 94.9002 123.886 94.7268C123.659 94.5533 123.496 94.3099 123.422 94.0342C123.348 93.7585 123.367 93.4661 123.477 93.2024C123.586 92.9387 123.779 92.7184 124.026 92.5759L134.595 86.475C134.742 86.387 134.906 86.3292 135.076 86.305C135.246 86.2807 135.419 86.2905 135.585 86.3338C135.751 86.377 135.907 86.4529 136.044 86.5569C136.181 86.661 136.295 86.7912 136.381 86.9399C136.467 87.0886 136.522 87.253 136.544 87.4233C136.566 87.5937 136.554 87.7666 136.508 87.9322C136.463 88.0978 136.384 88.2527 136.278 88.3878C136.172 88.5229 136.041 88.6356 135.891 88.7194L125.323 94.8202C125.126 94.9336 124.903 94.9933 124.676 94.9934Z" fill="white"/>
<path d="M129.959 98.0456C129.616 98.0454 129.287 97.9089 129.044 97.666C128.801 97.4231 128.664 97.0938 128.664 96.7503V84.5473C128.664 84.2037 128.801 83.8743 129.043 83.6313C129.286 83.3884 129.616 83.252 129.959 83.252C130.303 83.252 130.632 83.3884 130.875 83.6313C131.118 83.8743 131.255 84.2037 131.255 84.5473V96.7503C131.255 97.0938 131.118 97.4231 130.875 97.666C130.632 97.9089 130.303 98.0454 129.959 98.0456Z" fill="white"/>
<path d="M135.242 94.9939C135.015 94.9939 134.792 94.9342 134.595 94.8208L124.027 88.7199C123.879 88.6348 123.75 88.5215 123.646 88.3864C123.543 88.2514 123.467 88.0972 123.423 87.9328C123.379 87.7684 123.368 87.597 123.39 87.4282C123.412 87.2595 123.468 87.0968 123.553 86.9494C123.638 86.8021 123.751 86.6729 123.886 86.5694C124.021 86.4658 124.175 86.3898 124.34 86.3458C124.504 86.3018 124.676 86.2906 124.844 86.3129C125.013 86.3352 125.176 86.3904 125.323 86.4756L135.891 92.5764C136.138 92.719 136.331 92.9392 136.441 93.2028C136.55 93.4665 136.569 93.7588 136.495 94.0344C136.421 94.3101 136.258 94.5535 136.032 94.727C135.805 94.9006 135.527 94.9944 135.242 94.9939Z" fill="white"/>
<path d="M143.526 94.9939C143.24 94.9944 142.963 94.9006 142.736 94.727C142.51 94.5535 142.347 94.3101 142.273 94.0344C142.199 93.7588 142.218 93.4665 142.327 93.2028C142.436 92.9392 142.63 92.719 142.877 92.5764L153.445 86.4756C153.742 86.3036 154.096 86.257 154.428 86.3458C154.76 86.4347 155.043 86.6518 155.215 86.9494C155.387 87.2471 155.434 87.6008 155.345 87.9328C155.256 88.2649 155.039 88.548 154.741 88.7199L144.173 94.8208C143.976 94.9342 143.753 94.9939 143.526 94.9939Z" fill="white"/>
<path d="M148.811 98.0461C148.467 98.0459 148.138 97.9094 147.895 97.6665C147.652 97.4236 147.516 97.0942 147.516 96.7507V84.5478C147.523 84.2093 147.663 83.8872 147.905 83.6505C148.147 83.4138 148.472 83.2813 148.811 83.2812C149.149 83.2812 149.474 83.4138 149.716 83.6505C149.958 83.8872 150.098 84.2093 150.106 84.5478V96.7507C150.105 97.0941 149.969 97.4234 149.726 97.6663C149.484 97.9091 149.154 98.0457 148.811 98.0461Z" fill="white"/>
<path d="M154.093 94.9934C153.866 94.9933 153.642 94.9336 153.446 94.8202L142.878 88.7194C142.728 88.6356 142.596 88.5229 142.49 88.3878C142.384 88.2527 142.306 88.0978 142.26 87.9322C142.215 87.7666 142.203 87.5937 142.224 87.4233C142.246 87.253 142.302 87.0886 142.388 86.9399C142.473 86.7912 142.588 86.661 142.725 86.5569C142.861 86.4529 143.017 86.377 143.183 86.3338C143.35 86.2905 143.523 86.2807 143.693 86.305C143.863 86.3292 144.026 86.387 144.174 86.475L154.742 92.5759C154.99 92.7184 155.183 92.9387 155.292 93.2024C155.401 93.4661 155.42 93.7585 155.346 94.0342C155.272 94.3099 155.109 94.5533 154.882 94.7268C154.656 94.9002 154.378 94.994 154.093 94.9934Z" fill="white"/>
<path d="M123.27 139.453H86.206C80.2994 139.453 75.4971 134.648 75.4971 128.741V60.4256C75.4971 54.5184 80.3026 49.7129 86.206 49.7129H123.27C129.178 49.7129 133.983 54.5184 133.983 60.4256V69.8052C133.987 69.9777 133.956 70.1492 133.893 70.3097C133.829 70.4701 133.735 70.6163 133.614 70.7397C133.493 70.863 133.349 70.961 133.19 71.028C133.031 71.0949 132.86 71.1293 132.688 71.1293C132.515 71.1293 132.345 71.0949 132.186 71.028C132.027 70.961 131.883 70.863 131.762 70.7397C131.641 70.6163 131.546 70.4701 131.483 70.3097C131.42 70.1492 131.389 69.9777 131.393 69.8052V60.4256C131.39 58.2722 130.534 56.2077 129.011 54.685C127.488 53.1624 125.424 52.3059 123.27 52.3035H86.206C84.0527 52.3061 81.9883 53.1626 80.4658 54.6853C78.9433 56.2079 78.0869 58.2723 78.0845 60.4256V128.741C78.0871 130.894 78.9435 132.959 80.466 134.481C81.9886 136.004 84.0528 136.86 86.206 136.863H123.27C127.749 136.863 131.393 133.219 131.393 128.741V110.979C131.389 110.806 131.42 110.635 131.483 110.474C131.546 110.314 131.641 110.167 131.762 110.044C131.883 109.921 132.027 109.823 132.186 109.756C132.345 109.689 132.515 109.654 132.688 109.654C132.86 109.654 133.031 109.689 133.19 109.756C133.349 109.823 133.493 109.921 133.614 110.044C133.735 110.167 133.829 110.314 133.893 110.474C133.956 110.635 133.987 110.806 133.983 110.979V128.741C133.983 134.648 129.178 139.453 123.27 139.453Z" fill="white"/>
<path d="M111.47 60.1753H98.0038C97.8313 60.1791 97.6598 60.1485 97.4993 60.0851C97.3389 60.0218 97.1927 59.927 97.0693 59.8064C96.946 59.6857 96.848 59.5417 96.7811 59.3826C96.7142 59.2236 96.6797 59.0528 96.6797 58.8803C96.6797 58.7078 96.7142 58.537 96.7811 58.3779C96.848 58.2189 96.946 58.0749 97.0693 57.9542C97.1927 57.8336 97.3389 57.7388 97.4993 57.6755C97.6598 57.6121 97.8313 57.5814 98.0038 57.5853H111.47C111.643 57.5814 111.814 57.6121 111.975 57.6755C112.135 57.7388 112.281 57.8336 112.405 57.9542C112.528 58.0749 112.626 58.2189 112.693 58.3779C112.76 58.537 112.794 58.7078 112.794 58.8803C112.794 59.0528 112.76 59.2236 112.693 59.3826C112.626 59.5417 112.528 59.6857 112.405 59.8064C112.281 59.927 112.135 60.0218 111.975 60.0851C111.814 60.1485 111.643 60.1791 111.47 60.1753Z" fill="white"/>
<path d="M113.687 130.334H95.787C95.6145 130.338 95.443 130.308 95.2826 130.244C95.1221 130.181 94.9759 130.086 94.8525 129.966C94.7292 129.845 94.6312 129.701 94.5643 129.542C94.4974 129.383 94.4629 129.212 94.4629 129.039C94.4629 128.867 94.4974 128.696 94.5643 128.537C94.6312 128.378 94.7292 128.234 94.8525 128.113C94.9759 127.993 95.1221 127.898 95.2826 127.835C95.443 127.771 95.6145 127.741 95.787 127.744H113.687C113.859 127.741 114.031 127.771 114.191 127.835C114.352 127.898 114.498 127.993 114.621 128.113C114.745 128.234 114.843 128.378 114.91 128.537C114.977 128.696 115.011 128.867 115.011 129.039C115.011 129.212 114.977 129.383 114.91 129.542C114.843 129.701 114.745 129.845 114.621 129.966C114.498 130.086 114.352 130.181 114.191 130.244C114.031 130.308 113.859 130.338 113.687 130.334Z" fill="white"/>
<path d="M33.694 155.962C23.7546 155.962 15.7012 147.906 15.7012 137.969V137.392C15.7012 127.453 23.7566 119.399 33.694 119.399C43.6334 119.399 51.6869 127.455 51.6869 137.392V137.969C51.6869 147.906 43.6289 155.962 33.694 155.962Z" fill="url(#paint5_linear_517_82543)"/>
<defs>
<linearGradient id="paint0_linear_517_82543" x1="171.525" y1="92.9805" x2="203.172" y2="124.628" gradientUnits="userSpaceOnUse">
<stop offset="0.15" stop-color="#FFBF16"/>
<stop offset="1" stop-color="#2EA9BC"/>
</linearGradient>
<linearGradient id="paint1_linear_517_82543" x1="203.734" y1="77.0666" x2="222.284" y2="95.6167" gradientUnits="userSpaceOnUse">
<stop offset="0.15" stop-color="#FFBF16"/>
<stop offset="1" stop-color="#2EA9BC"/>
</linearGradient>
<linearGradient id="paint2_linear_517_82543" x1="167.066" y1="172.377" x2="177.298" y2="182.609" gradientUnits="userSpaceOnUse">
<stop offset="0.15" stop-color="#FFBF16"/>
<stop offset="1" stop-color="#2EA9BC"/>
</linearGradient>
<linearGradient id="paint3_linear_517_82543" x1="74.8656" y1="-3.88734" x2="99.3748" y2="20.6219" gradientUnits="userSpaceOnUse">
<stop offset="0.15" stop-color="#FFBF16"/>
<stop offset="1" stop-color="#2EA9BC"/>
</linearGradient>
<linearGradient id="paint4_linear_517_82543" x1="-3.74378" y1="53.7353" x2="23.1449" y2="80.6239" gradientUnits="userSpaceOnUse">
<stop offset="0.15" stop-color="#FFBF16"/>
<stop offset="1" stop-color="#2EA9BC"/>
</linearGradient>
<linearGradient id="paint5_linear_517_82543" x1="8.36328" y1="112.5" x2="51.8633" y2="156" gradientUnits="userSpaceOnUse">
<stop offset="0.15" stop-color="#FFBF16"/>
<stop offset="1" stop-color="#2EA9BC"/>
</linearGradient>
</defs>
</svg>
