<svg width="16" height="19" viewBox="0 0 16 19" fill="none" xmlns="http://www.w3.org/2000/svg">
<path d="M1.2822 3.25452C0.689581 3.51791 0.302734 4.11054 0.302734 4.76078V8.6293C0.302734 13.1974 3.46335 17.4693 7.71043 18.5064C11.9575 17.4693 15.1181 13.1974 15.1181 8.6293V4.76078C15.1181 4.11054 14.7313 3.51791 14.1387 3.25452L8.37712 0.694717C7.94912 0.505407 7.4635 0.505407 7.04373 0.694717L1.2822 3.25452ZM7.71043 5.33694C8.16312 5.33694 8.5335 5.70733 8.5335 6.16003C8.5335 6.61273 8.16312 6.98312 7.71043 6.98312C7.25773 6.98312 6.88735 6.61273 6.88735 6.16003C6.88735 5.70733 7.25773 5.33694 7.71043 5.33694ZM7.71043 8.6293C8.16312 8.6293 8.5335 8.99969 8.5335 9.45238V12.7447C8.5335 13.1974 8.16312 13.5678 7.71043 13.5678C7.25773 13.5678 6.88735 13.1974 6.88735 12.7447V9.45238C6.88735 8.99969 7.25773 8.6293 7.71043 8.6293Z" fill="#4B4A4A"/>
</svg>
