<svg width="232" height="178" viewBox="0 0 232 178" fill="none" xmlns="http://www.w3.org/2000/svg">
<g opacity="0.9">
<g filter="url(#filter0_d_412_4360)">
<path d="M129.666 97.7626H106.202C106.202 92.9664 106.529 88.7424 107.183 85.0908C107.892 81.3846 109.091 78.0599 110.781 75.1167C112.47 72.1736 114.759 69.4485 117.648 66.9413C120.21 64.8157 122.417 62.7719 124.27 60.8098C126.123 58.8477 127.54 56.8583 128.521 54.8417C129.502 52.8251 129.993 50.6723 129.993 48.3832C129.993 45.549 129.584 43.2327 128.766 41.4341C128.003 39.6355 126.832 38.3002 125.251 37.4281C123.725 36.5016 121.79 36.0383 119.446 36.0383C117.539 36.0383 115.74 36.5016 114.051 37.4281C112.416 38.3547 111.08 39.799 110.045 41.7611C109.009 43.6687 108.437 46.203 108.328 49.3642H80.6133C80.7768 41.2433 82.5754 34.6485 86.0091 29.5797C89.4972 24.4565 94.13 20.723 99.9072 18.3794C105.739 15.9813 112.252 14.7822 119.446 14.7822C127.404 14.7822 134.244 16.0085 139.967 18.4612C145.69 20.9138 150.077 24.5655 153.129 29.4162C156.181 34.2124 157.707 40.126 157.707 47.1568C157.707 51.8441 156.808 55.9318 155.009 59.42C153.265 62.8536 150.895 66.0693 147.897 69.0669C144.954 72.0101 141.656 75.1712 138.005 78.5504C134.843 81.3301 132.691 84.1642 131.546 87.0528C130.402 89.887 129.775 93.4569 129.666 97.7626ZM102.85 122.616C102.85 118.692 104.267 115.422 107.102 112.805C109.936 110.135 113.615 108.799 118.138 108.799C122.662 108.799 126.341 110.135 129.175 112.805C132.009 115.422 133.426 118.692 133.426 122.616C133.426 126.54 132.009 129.837 129.175 132.508C126.341 135.124 122.662 136.432 118.138 136.432C113.615 136.432 109.936 135.124 107.102 132.508C104.267 129.837 102.85 126.54 102.85 122.616Z" fill="#2FB8C0"/>
</g>
<path d="M123.074 98.174L123.679 98.1811L123.701 97.5766C123.859 93.3187 124.52 89.8358 125.66 87.1058L125.662 87.1021C126.793 84.3443 128.906 81.6116 132.051 78.9118L132.057 78.9067L132.062 78.9014C135.759 75.5612 139.099 72.4337 142.083 69.5189C145.158 66.5161 147.607 63.2773 149.425 59.8015C151.319 56.2325 152.282 52.0554 152.339 47.2896C152.423 40.1698 150.948 34.1166 147.878 29.1633C144.812 24.1608 140.366 20.378 134.569 17.8119C128.78 15.2498 121.868 13.9326 113.85 13.838C106.587 13.7522 99.9785 14.885 94.0342 17.2475C88.117 19.5672 83.3424 23.3226 79.7238 28.5049L79.7229 28.5061C76.1423 33.6597 74.2454 40.3599 73.9835 48.5598L73.9632 49.1925L74.5962 49.1999L102.309 49.5271L102.908 49.5341L102.936 48.9354C103.08 45.8311 103.67 43.4085 104.664 41.6268L104.664 41.6268L104.668 41.6204C105.68 39.7573 106.952 38.4248 108.475 37.5844C110.083 36.7278 111.783 36.312 113.584 36.3333C115.849 36.36 117.658 36.8292 119.051 37.6976L119.062 37.7045L119.073 37.7108C120.512 38.5271 121.579 39.7636 122.273 41.4539L122.276 41.4612L122.279 41.4684C123.028 43.1682 123.404 45.3931 123.371 48.1741C123.345 50.371 122.851 52.4252 121.889 54.3442C120.917 56.2826 119.517 58.2046 117.676 60.1083C115.821 62.0268 113.609 64.0276 111.038 66.1105L111.038 66.1104L111.027 66.1193C108.063 68.6314 105.694 71.3813 103.93 74.3712C102.168 77.3597 100.907 80.736 100.142 84.4935L100.141 84.5006C99.4351 88.189 99.0561 92.4468 98.9992 97.2693L98.9919 97.8897L99.6122 97.897L123.074 98.174ZM99.9232 111.87C96.929 114.571 95.4025 117.989 95.3542 122.081C95.3059 126.175 96.7514 129.653 99.6779 132.477L99.6825 132.481C102.618 135.256 106.44 136.65 111.091 136.705C115.742 136.76 119.596 135.456 122.596 132.752L122.601 132.747C125.593 129.994 127.121 126.55 127.169 122.457C127.217 118.364 125.772 114.911 122.842 112.141C119.908 109.311 116.085 107.888 111.432 107.833C106.779 107.778 102.924 109.11 99.9232 111.87Z" fill="url(#paint0_linear_412_4360)" stroke="white" stroke-width="1.24084"/>
<path d="M175.935 120.234L176.272 120.418L176.465 120.086C177.827 117.741 179.24 115.983 180.696 114.79L180.698 114.789C182.158 113.578 184.162 112.675 186.735 112.098L186.735 112.099L186.745 112.096C189.82 111.325 192.631 110.567 195.179 109.822C197.803 109.055 200.147 107.968 202.207 106.559C204.338 105.121 206.128 103.063 207.585 100.403C209.761 96.4288 210.742 92.5879 210.499 88.8878C210.272 85.1615 208.906 81.7078 206.417 78.5332C203.932 75.3636 200.443 72.5571 195.968 70.1066C191.914 67.887 187.864 66.5475 183.819 66.0973C179.802 65.6311 175.997 66.3129 172.415 68.1417L172.415 68.1422C168.863 69.9663 165.794 73.1624 163.195 77.6897L162.995 78.0391L163.348 78.2325L178.816 86.7017L179.15 86.8849L179.345 86.5569C180.354 84.8563 181.409 83.672 182.501 82.9686L182.501 82.9686L182.505 82.9661C183.63 82.2221 184.743 81.8542 185.85 81.8375C187.009 81.8371 188.088 82.1119 189.093 82.6622C190.357 83.3542 191.233 84.1587 191.756 85.0629L191.76 85.07L191.764 85.0769C192.329 85.9657 192.558 86.9793 192.443 88.136L192.443 88.136L192.442 88.146C192.354 89.3246 191.9 90.6866 191.05 92.2388C190.379 93.465 189.487 94.471 188.373 95.2613C187.248 96.0596 185.887 96.7205 184.283 97.2394C182.668 97.7622 180.827 98.2247 178.76 98.6258L178.76 98.6257L178.752 98.6276C176.336 99.1523 174.183 99.9887 172.299 101.141C170.415 102.292 168.697 103.812 167.144 105.694L167.142 105.697C165.642 107.558 164.157 109.836 162.683 112.528L162.493 112.874L162.84 113.063L175.935 120.234ZM158.836 121.005C156.347 121.626 154.468 123.09 153.217 125.374C151.966 127.659 151.738 130.045 152.538 132.506L152.539 132.509C153.358 134.946 155.088 136.871 157.684 138.293C160.28 139.714 162.834 140.134 165.328 139.512L165.332 139.511C167.836 138.859 169.723 137.381 170.974 135.097C172.225 132.813 172.446 130.441 171.628 128.009C170.826 125.542 169.105 123.6 166.508 122.178C163.91 120.756 161.347 120.352 158.836 121.005Z" fill="#2FB8C0" stroke="white" stroke-width="0.789532"/>
<g filter="url(#filter1_d_412_4360)">
<path d="M51.5588 121.972L64.7375 114.957C63.3035 112.264 61.857 109.989 60.3978 108.133C58.8918 106.264 57.2243 104.755 55.3954 103.607C53.5665 102.459 51.466 101.613 49.0939 101.068C47.0196 100.64 45.1688 100.152 43.5413 99.6039C41.9139 99.0559 40.5232 98.3622 39.3692 97.5229C38.2153 96.6835 37.2961 95.621 36.6117 94.3353C35.7644 92.7434 35.3014 91.3202 35.2229 90.0655C35.1137 88.8272 35.3726 87.7268 35.9997 86.7644C36.5798 85.7878 37.5281 84.9491 38.8444 84.2484C39.9158 83.6781 41.0646 83.4005 42.2906 83.4158C43.486 83.4474 44.6678 83.8594 45.8361 84.6518C46.988 85.4136 48.0672 86.666 49.0735 88.409L64.64 80.1229C62.1202 75.6105 59.1383 72.4441 55.6943 70.6238C52.2033 68.7891 48.485 68.0772 44.5394 68.4881C40.5469 68.8847 36.5302 70.1585 32.4893 72.3095C28.0199 74.6886 24.5446 77.4224 22.0636 80.5109C19.5825 83.5995 18.21 86.9623 17.946 90.5993C17.6656 94.2058 18.5765 97.9835 20.6786 101.933C22.0799 104.565 23.8072 106.592 25.8603 108.014C27.8665 109.421 30.1595 110.518 32.7395 111.306C35.2725 112.079 38.0697 112.869 41.131 113.675C43.7376 114.291 45.7941 115.239 47.3006 116.519C48.7908 117.769 50.2102 119.587 51.5588 121.972ZM74.0507 127.915C72.8775 125.711 71.1038 124.297 68.7298 123.675C66.3395 123.023 63.8739 123.373 61.3331 124.725C58.7922 126.078 57.1251 127.928 56.3317 130.275C55.522 132.592 55.7038 134.852 56.8771 137.056C58.0503 139.26 59.8321 140.689 62.2224 141.341C64.5964 141.963 67.0539 141.598 69.5947 140.246C72.1355 138.893 73.8108 137.059 74.6205 134.742C75.4139 132.394 75.224 130.119 74.0507 127.915Z" fill="#2FB8C0"/>
</g>
<path d="M55.3858 120.233L55.0482 120.417L54.8548 120.085C53.493 117.74 52.0805 115.982 50.6239 114.789L50.6219 114.788C49.1624 113.577 47.1583 112.674 44.585 112.097L44.5849 112.098L44.5752 112.095C41.5005 111.324 38.6892 110.566 36.1415 109.821C33.5171 109.054 31.1731 107.967 29.1131 106.559C26.9823 105.12 25.1919 103.062 23.7354 100.402C21.5595 96.4279 20.5779 92.587 20.8215 88.8868C21.0481 85.1605 22.414 81.7068 24.9031 78.5322C27.3883 75.3626 30.8769 72.5561 35.3523 70.1056C39.4061 67.886 43.4563 66.5466 47.5015 66.0963C51.5185 65.6301 55.323 66.3119 58.9049 68.1408L58.9057 68.1412C62.4576 69.9653 65.5263 73.1614 68.125 77.6887L68.3255 78.0381L67.9722 78.2315L52.5046 86.7007L52.1701 86.8839L51.9755 86.5559C50.9666 84.8553 49.911 83.671 48.8196 82.9676L48.8195 82.9676L48.8157 82.9651C47.6905 82.2211 46.5771 81.8532 45.4705 81.8365C44.3111 81.8362 43.2321 82.1109 42.2271 82.6612C40.9631 83.3533 40.0872 84.1577 39.5644 85.062L39.5603 85.0691L39.5559 85.076C38.9917 85.9648 38.7619 86.9783 38.8777 88.1351L38.8778 88.1351L38.8785 88.1451C38.9663 89.3236 39.4204 90.6856 40.2703 92.2378C40.9417 93.464 41.8334 94.47 42.9474 95.2603C44.0726 96.0586 45.4337 96.7195 47.0369 97.2384C48.6525 97.7613 50.493 98.2237 52.56 98.6248L52.5601 98.6248L52.5686 98.6266C54.9846 99.1513 57.1372 99.9877 59.0217 101.14C60.9054 102.291 62.623 103.811 64.1758 105.693L64.1787 105.696C65.6778 107.557 67.1637 109.835 68.6375 112.527L68.8271 112.873L68.4808 113.062L55.3858 120.233ZM72.484 121.004C74.973 121.625 76.8523 123.089 78.103 125.373C79.3539 127.658 79.582 130.044 78.7825 132.505L78.7812 132.508C77.9619 134.945 76.2319 136.87 73.6362 138.292C71.0404 139.713 68.486 140.133 65.9922 139.511L65.9882 139.51C63.4842 138.858 61.5969 137.38 60.3459 135.096C59.0952 132.812 58.8747 130.44 59.6919 128.008C60.4939 125.541 62.2156 123.599 64.8127 122.177C67.4099 120.755 69.9736 120.351 72.484 121.004Z" fill="url(#paint1_linear_412_4360)" stroke="white" stroke-width="0.789532"/>
<circle cx="180.186" cy="151.757" r="1.90089" stroke="white" stroke-width="0.683858"/>
<g filter="url(#filter2_d_412_4360)">
<path d="M179.764 121.973L166.585 114.958C168.019 112.265 169.465 109.99 170.924 108.134C172.43 106.264 174.098 104.756 175.927 103.608C177.756 102.46 179.856 101.614 182.228 101.069C184.303 100.641 186.153 100.153 187.781 99.6049C189.408 99.0569 190.799 98.3632 191.953 97.5239C193.107 96.6845 194.026 95.622 194.711 94.3362C195.558 92.7444 196.021 91.3211 196.099 90.0665C196.209 88.8281 195.95 87.7278 195.323 86.7654C194.742 85.7887 193.794 84.9501 192.478 84.2494C191.406 83.679 190.258 83.4015 189.032 83.4168C187.836 83.4483 186.654 83.8603 185.486 84.6528C184.334 85.4146 183.255 86.667 182.249 88.41L166.682 80.1239C169.202 75.6115 172.184 72.4451 175.628 70.6247C179.119 68.79 182.837 68.0782 186.783 68.4891C190.775 68.8857 194.792 70.1595 198.833 72.3105C203.302 74.6896 206.778 77.4234 209.259 80.5119C211.74 83.6005 213.112 86.9633 213.376 90.6003C213.657 94.2068 212.746 97.9845 210.644 101.934C209.242 104.566 207.515 106.593 205.462 108.015C203.456 109.422 201.163 110.519 198.583 111.307C196.05 112.08 193.253 112.869 190.191 113.676C187.585 114.292 185.528 115.24 184.022 116.52C182.531 117.77 181.112 119.588 179.764 121.973ZM157.272 127.916C158.445 125.712 160.218 124.298 162.592 123.676C164.983 123.024 167.448 123.374 169.989 124.726C172.53 126.079 174.197 127.929 174.991 130.276C175.8 132.593 175.618 134.853 174.445 137.057C173.272 139.261 171.49 140.69 169.1 141.342C166.726 141.964 164.268 141.599 161.728 140.247C159.187 138.894 157.511 137.06 156.702 134.743C155.908 132.395 156.098 130.12 157.272 127.916Z" fill="url(#paint2_linear_412_4360)"/>
<path d="M179.603 122.275L179.897 122.432L180.061 122.142C181.397 119.778 182.793 117.997 184.241 116.782L184.243 116.781C185.696 115.546 187.698 114.616 190.27 114.008L190.27 114.009L190.278 114.006C193.343 113.199 196.145 112.408 198.683 111.634C201.293 110.837 203.619 109.725 205.657 108.296C207.763 106.838 209.524 104.765 210.946 102.094C213.071 98.1017 214.003 94.2596 213.717 90.5749C213.448 86.8628 212.046 83.4353 209.525 80.2978C207.008 77.1646 203.493 74.4037 198.994 72.0086C194.919 69.8398 190.86 68.5506 186.817 68.1489C182.805 67.7312 179.02 68.4559 175.469 70.3221L175.468 70.3224C171.95 72.1822 168.925 75.4056 166.384 79.9572L166.214 80.2618L166.522 80.4257L182.088 88.7118L182.38 88.867L182.545 88.5809C183.536 86.8645 184.583 85.6603 185.675 84.938L185.678 84.9358C186.801 84.1738 187.92 83.7887 189.038 83.7587C190.207 83.7445 191.298 84.0085 192.317 84.5512C193.595 85.2315 194.489 86.0315 195.029 86.94L195.032 86.9461L195.036 86.9521C195.618 87.8449 195.862 88.8677 195.759 90.0365L195.759 90.0365L195.758 90.0451C195.684 91.2347 195.242 92.6095 194.409 94.1756C193.748 95.4165 192.863 96.4391 191.752 97.2473C190.631 98.0626 189.273 98.7417 187.672 99.2809C186.06 99.8236 184.223 100.308 182.159 100.734L182.159 100.734L182.152 100.736C179.747 101.288 177.61 102.147 175.745 103.318C173.881 104.488 172.185 106.024 170.658 107.92L170.656 107.923C169.181 109.798 167.724 112.091 166.283 114.798L166.122 115.1L166.424 115.26L179.603 122.275ZM162.504 123.346C160.037 123.993 158.187 125.469 156.97 127.755C155.753 130.041 155.554 132.415 156.378 134.852L156.379 134.856C157.222 137.267 158.964 139.163 161.567 140.549C164.17 141.934 166.715 142.321 169.187 141.673L169.19 141.672C171.672 140.994 173.53 139.504 174.747 137.218C175.964 134.932 176.155 132.573 175.314 130.165C174.488 127.722 172.754 125.81 170.15 124.424C167.546 123.038 164.992 122.667 162.504 123.346Z" stroke="white" stroke-width="0.683858"/>
</g>
</g>
<defs>
<filter id="filter0_d_412_4360" x="53.2589" y="0.783852" width="131.802" height="176.359" filterUnits="userSpaceOnUse" color-interpolation-filters="sRGB">
<feFlood flood-opacity="0" result="BackgroundImageFix"/>
<feColorMatrix in="SourceAlpha" type="matrix" values="0 0 0 0 0 0 0 0 0 0 0 0 0 0 0 0 0 0 127 0" result="hardAlpha"/>
<feOffset dy="13.356"/>
<feGaussianBlur stdDeviation="13.6772"/>
<feComposite in2="hardAlpha" operator="out"/>
<feColorMatrix type="matrix" values="0 0 0 0 0 0 0 0 0 0 0 0 0 0 0 0 0 0 0.6 0"/>
<feBlend mode="normal" in2="BackgroundImageFix" result="effect1_dropShadow_412_4360"/>
<feBlend mode="normal" in="SourceGraphic" in2="effect1_dropShadow_412_4360" result="shape"/>
</filter>
<filter id="filter1_d_412_4360" x="0.900023" y="59.8768" width="91.197" height="107.254" filterUnits="userSpaceOnUse" color-interpolation-filters="sRGB">
<feFlood flood-opacity="0" result="BackgroundImageFix"/>
<feColorMatrix in="SourceAlpha" type="matrix" values="0 0 0 0 0 0 0 0 0 0 0 0 0 0 0 0 0 0 127 0" result="hardAlpha"/>
<feOffset dy="8.49823"/>
<feGaussianBlur stdDeviation="8.49823"/>
<feComposite in2="hardAlpha" operator="out"/>
<feColorMatrix type="matrix" values="0 0 0 0 0 0 0 0 0 0 0 0 0 0 0 0 0 0 0.6 0"/>
<feBlend mode="normal" in2="BackgroundImageFix" result="effect1_dropShadow_412_4360"/>
<feBlend mode="normal" in="SourceGraphic" in2="effect1_dropShadow_412_4360" result="shape"/>
</filter>
<filter id="filter2_d_412_4360" x="138.542" y="59.1942" width="92.5642" height="108.621" filterUnits="userSpaceOnUse" color-interpolation-filters="sRGB">
<feFlood flood-opacity="0" result="BackgroundImageFix"/>
<feColorMatrix in="SourceAlpha" type="matrix" values="0 0 0 0 0 0 0 0 0 0 0 0 0 0 0 0 0 0 127 0" result="hardAlpha"/>
<feOffset dy="8.49823"/>
<feGaussianBlur stdDeviation="8.49823"/>
<feComposite in2="hardAlpha" operator="out"/>
<feColorMatrix type="matrix" values="0 0 0 0 0 0 0 0 0 0 0 0 0 0 0 0 0 0 0.6 0"/>
<feBlend mode="normal" in2="BackgroundImageFix" result="effect1_dropShadow_412_4360"/>
<feBlend mode="normal" in="SourceGraphic" in2="effect1_dropShadow_412_4360" result="shape"/>
</filter>
<linearGradient id="paint0_linear_412_4360" x1="113.556" y1="14.455" x2="112.12" y2="136.097" gradientUnits="userSpaceOnUse">
<stop offset="0.0260417" stop-color="#0A929A"/>
<stop offset="1" stop-color="#57EEFF"/>
</linearGradient>
<linearGradient id="paint1_linear_412_4360" x1="31.3967" y1="62.8601" x2="72.8762" y2="138.258" gradientUnits="userSpaceOnUse">
<stop stop-color="#0A929A"/>
<stop offset="0.989583" stop-color="#57EEFF"/>
</linearGradient>
<linearGradient id="paint2_linear_412_4360" x1="202.704" y1="65.2541" x2="162.302" y2="140.552" gradientUnits="userSpaceOnUse">
<stop stop-color="#119098"/>
<stop offset="1" stop-color="#57EEFF"/>
</linearGradient>
</defs>
</svg>
