<svg width="26" height="41" viewBox="0 0 26 41" fill="none" xmlns="http://www.w3.org/2000/svg">
<path d="M23.0917 6.69356C20.9099 4.20732 17.792 2.59292 14.5379 2.26433C14.0977 2.22001 13.6473 2.19727 13.1997 2.19727C9.5513 2.19727 5.8962 3.64668 2.90757 6.27864L2.21094 6.8922L7.68581 13.1099L7.64149 13.2171L8.19169 13.6844L8.88832 13.0711C10.2052 11.9115 11.7695 11.2467 13.1802 11.2467C13.331 11.2467 13.4816 11.2541 13.6287 11.2692C15.0174 11.4091 16.9508 12.5302 16.9455 14.0376C16.9422 14.9621 16.2127 16.0755 14.8354 17.2569C14.625 17.4377 14.2397 17.6793 13.8671 17.913C12.8662 18.5411 11.4948 19.4011 10.3976 20.8877C8.30238 23.7264 8.41029 28.1779 8.4567 30.0789L8.47944 31.0067L17.5266 30.7867L17.5041 29.8589C17.4384 27.1569 17.6428 26.3964 17.6953 26.2479C17.8575 26.0934 18.365 25.775 18.6764 25.5793C19.2992 25.1888 20.0049 24.7463 20.7296 24.1248C23.2326 21.9772 25.028 19.0018 25.6554 15.9611C26.3393 12.6481 25.4287 9.35685 23.0917 6.69356Z" fill="#FB8500"/>
<path d="M12.9617 31.0059C10.3439 31.0059 8.21387 33.1359 8.21387 35.7537C8.21387 38.3704 10.3439 40.4992 12.9617 40.4992C15.5784 40.4992 17.7072 38.3704 17.7072 35.7537C17.7075 33.1359 15.5786 31.0059 12.9617 31.0059Z" fill="#FB8500"/>
<path d="M22.6278 6.15645C20.4461 3.67022 17.3282 2.05581 14.0741 1.72722C13.6339 1.6829 13.1834 1.66016 12.7358 1.66016C9.08743 1.66016 5.43233 3.10957 2.4437 5.74153L1.74707 6.35509L7.35491 12.7236L7.26394 12.9153L7.64196 13.2172L8.42468 12.5338C9.74159 11.3742 11.3059 10.7094 12.7165 10.7094C12.8674 10.7094 13.018 10.7168 13.1651 10.7319C14.5537 10.8718 16.4872 11.9929 16.4819 13.5003C16.4786 14.4248 15.749 15.5382 14.3718 16.7196C14.1613 16.9004 13.7761 17.1419 13.4034 17.3756C12.4026 18.0038 11.0311 18.8638 9.93397 20.3503C7.83875 23.189 7.94665 27.6406 7.99306 29.5416L8.00165 29.8929L7.55169 30.2373L8.0947 30.6299V30.4672L17.0632 30.2491L17.0407 29.3213C16.975 26.6191 17.1794 25.8588 17.2319 25.7103C17.3941 25.5558 17.9016 25.2374 18.213 25.0418C18.8358 24.6512 19.5415 24.2087 20.2662 23.5873C22.7692 21.4396 24.5646 18.4642 25.192 15.4236C25.8754 12.111 24.9649 8.81998 22.6278 6.15645Z" fill="#FFB703"/>
<path d="M12.4978 30.542C9.88003 30.542 7.75 32.672 7.75 35.2898C7.75 37.9065 9.88003 40.0354 12.4978 40.0354C15.1145 40.0354 17.2434 37.9065 17.2434 35.2898C17.2436 32.672 15.1147 30.542 12.4978 30.542Z" fill="#FFB703"/>
<path d="M22.164 5.92403C19.9822 3.4378 16.8643 1.82339 13.6102 1.4948C13.17 1.45048 12.7196 1.42773 12.2719 1.42773C8.62356 1.42773 4.96847 2.87715 1.97983 5.50911L1.2832 6.12267L6.25289 11.7665L6.10391 11.9867L7.26418 12.9149L7.96081 12.3014C9.27773 11.1418 10.842 10.4769 12.2527 10.4769C12.4035 10.4769 12.5541 10.4844 12.7012 10.4995C14.0898 10.6394 16.0233 11.7604 16.018 13.2679C16.0147 14.1924 15.2852 15.3058 13.9079 16.4872C13.6974 16.6679 13.3122 16.9095 12.9396 17.1432C11.9387 17.7714 10.5673 18.6314 9.4701 20.1179C7.48789 22.8035 7.47768 26.9306 7.52154 28.9782L6.39166 29.3089L7.55193 30.2371L16.5991 30.0171L16.5765 29.0894C16.5109 26.3871 16.7153 25.6269 16.7678 25.4784C16.93 25.3238 17.4375 25.0054 17.7489 24.8098C18.3717 24.4193 19.0774 23.9767 19.8021 23.3553C22.3051 21.2076 24.1005 18.2322 24.7279 15.1916C25.4116 11.8786 24.501 8.58756 22.164 5.92403Z" fill="#2B6859"/>
<path d="M12.034 30.3096C9.41616 30.3096 7.28613 32.4396 7.28613 35.0574C7.28613 37.6741 9.41616 39.8029 12.034 39.8029C14.6506 39.8029 16.7795 37.6741 16.7795 35.0574C16.7797 32.4396 14.6509 30.3096 12.034 30.3096Z" fill="#2B6859"/>
<path d="M6.36881 28.3814C6.32263 26.4804 6.21449 22.0289 8.30971 19.1902C9.4071 17.7036 10.7783 16.8436 11.7792 16.2155C12.1516 15.9818 12.5371 15.7402 12.7475 15.5594C14.1248 14.378 14.8544 13.2646 14.8576 12.3401C14.8629 10.8327 12.9295 9.71188 11.5408 9.57172C11.3937 9.55687 11.2434 9.54921 11.0923 9.54921C9.68162 9.54921 8.11734 10.2141 6.80043 11.3736L6.1038 11.9872L0.123047 5.19493L0.819676 4.58138C3.80831 1.94941 7.46341 0.5 11.1118 0.5C11.5594 0.5 12.0096 0.522742 12.45 0.567064C15.7041 0.895654 18.822 2.51006 21.0038 4.9963C23.3408 7.65982 24.2514 10.9508 23.5676 14.2634C22.9401 17.304 21.1447 20.2794 18.6417 22.4271C17.917 23.0488 17.2113 23.4913 16.5885 23.8816C16.2771 24.0772 15.7698 24.3956 15.6074 24.5502C15.5547 24.6989 15.3505 25.4591 15.4162 28.1612L15.4387 29.0889L6.39155 29.3089L6.36881 28.3814Z" fill="#90BE6D"/>
<path d="M12.3561 1.49001C8.58107 1.10898 4.59877 2.48924 1.43262 5.27738L6.18649 10.6764C7.85636 9.20607 9.84298 8.46512 11.6335 8.64751C13.4663 8.83246 15.7926 10.2907 15.7852 12.3425C15.7799 13.892 14.4546 15.3165 13.3514 16.2631C13.0883 16.4889 12.6917 16.7376 12.2721 17.001C11.2817 17.6225 10.0488 18.3959 9.05632 19.7407C7.17157 22.2942 7.24977 26.4373 7.29641 28.3583L14.4878 28.1833C14.4651 27.2497 14.423 24.5832 14.844 24.0126C15.0269 23.765 15.5699 23.4243 16.095 23.0948C16.6909 22.7212 17.3662 22.2974 18.0368 21.722C20.2973 19.7824 22.0481 17.0289 22.658 14.0755C23.304 10.9467 22.3962 7.99103 20.3054 5.60852C18.2872 3.30839 15.4042 1.79772 12.3561 1.49001Z" fill="#023047"/>
<path d="M10.8738 38.8752C8.25601 38.8752 6.12598 36.7463 6.12598 34.1297C6.12598 31.5119 8.25601 29.3818 10.8738 29.3818C13.4905 29.3818 15.6193 31.5119 15.6193 34.1297C15.6196 36.7463 13.4907 38.8752 10.8738 38.8752Z" fill="#90BE6D"/>
<path d="M14.6916 34.1302C14.6916 36.2349 12.979 37.9475 10.8743 37.9475C8.76957 37.9475 7.05469 36.2349 7.05469 34.1302C7.05469 32.0254 8.76957 30.3105 10.8743 30.3105C12.979 30.3105 14.6916 32.0254 14.6916 34.1302Z" fill="#023047"/>
<path d="M11.0413 26.8121C11.9287 26.8121 12.6481 26.0928 12.6481 25.2054C12.6481 24.318 11.9287 23.5986 11.0413 23.5986C10.1539 23.5986 9.43457 24.318 9.43457 25.2054C9.43457 26.0928 10.1539 26.8121 11.0413 26.8121Z" fill="#FB8500"/>
<path d="M11.9047 25.2053C11.9047 25.6821 11.5181 26.0687 11.0412 26.0687C10.5643 26.0687 10.1777 25.6821 10.1777 25.2053C10.1777 24.7284 10.5643 24.3418 11.0412 24.3418C11.5181 24.3418 11.9047 24.7284 11.9047 25.2053Z" fill="#FFB703"/>
<path d="M12.6487 22.6705C13.5361 22.6705 14.2555 21.9512 14.2555 21.0638C14.2555 20.1764 13.5361 19.457 12.6487 19.457C11.7614 19.457 11.042 20.1764 11.042 21.0638C11.042 21.9512 11.7614 22.6705 12.6487 22.6705Z" fill="#FB8500"/>
<path d="M13.5121 21.0637C13.5121 21.5405 13.1255 21.9272 12.6486 21.9272C12.1718 21.9272 11.7852 21.5405 11.7852 21.0637C11.7852 20.5868 12.1718 20.2002 12.6486 20.2002C13.1255 20.2004 13.5121 20.5868 13.5121 21.0637Z" fill="#FFB703"/>
<path d="M10.7747 35.7379C11.6621 35.7379 12.3815 35.0185 12.3815 34.1312C12.3815 33.2438 11.6621 32.5244 10.7747 32.5244C9.88734 32.5244 9.16797 33.2438 9.16797 34.1312C9.16797 35.0185 9.88734 35.7379 10.7747 35.7379Z" fill="#FB8500"/>
<path d="M10.7746 34.9945C11.2515 34.9945 11.6381 34.6079 11.6381 34.1311C11.6381 33.6542 11.2515 33.2676 10.7746 33.2676C10.2977 33.2676 9.91113 33.6542 9.91113 34.1311C9.91113 34.6079 10.2977 34.9945 10.7746 34.9945Z" fill="#FFB703"/>
<path d="M16.1819 19.7779C17.0693 19.7779 17.7887 19.0586 17.7887 18.1712C17.7887 17.2838 17.0693 16.5645 16.1819 16.5645C15.2946 16.5645 14.5752 17.2838 14.5752 18.1712C14.5752 19.0586 15.2946 19.7779 16.1819 19.7779Z" fill="#FB8500"/>
<path d="M16.1818 19.0346C16.6587 19.0346 17.0453 18.648 17.0453 18.1711C17.0453 17.6942 16.6587 17.3076 16.1818 17.3076C15.705 17.3076 15.3184 17.6942 15.3184 18.1711C15.3184 18.648 15.705 19.0346 16.1818 19.0346Z" fill="#FFB703"/>
<path d="M18.7882 16.1007C19.6754 16.1007 20.3947 15.3815 20.3947 14.4942C20.3947 13.607 19.6754 12.8877 18.7882 12.8877C17.9009 12.8877 17.1816 13.607 17.1816 14.4942C17.1816 15.3815 17.9009 16.1007 18.7882 16.1007Z" fill="#FB8500"/>
<path d="M19.6518 14.4943C19.6518 14.9712 19.2652 15.3578 18.7883 15.3578C18.3114 15.3578 17.9248 14.9712 17.9248 14.4943C17.9248 14.0175 18.3114 13.6309 18.7883 13.6309C19.2652 13.6311 19.6518 14.0177 19.6518 14.4943Z" fill="#FFB703"/>
<path d="M18.7523 11.6383C19.6396 11.6383 20.359 10.9189 20.359 10.0316C20.359 9.14417 19.6396 8.4248 18.7523 8.4248C17.8649 8.4248 17.1455 9.14417 17.1455 10.0316C17.1455 10.9189 17.8649 11.6383 18.7523 11.6383Z" fill="#FB8500"/>
<path d="M19.6156 10.0314C19.6156 10.5083 19.229 10.8949 18.7521 10.8949C18.2753 10.8949 17.8887 10.5083 17.8887 10.0314C17.8887 9.55457 18.2753 9.16797 18.7521 9.16797C19.229 9.16797 19.6156 9.55457 19.6156 10.0314Z" fill="#FFB703"/>
<path d="M16.3607 7.9967C17.248 7.9967 17.9674 7.27733 17.9674 6.38995C17.9674 5.50256 17.248 4.7832 16.3607 4.7832C15.4733 4.7832 14.7539 5.50256 14.7539 6.38995C14.7539 7.27733 15.4733 7.9967 16.3607 7.9967Z" fill="#FB8500"/>
<path d="M17.225 6.38984C17.225 6.86671 16.8384 7.25332 16.3615 7.25332C15.8846 7.25332 15.498 6.86671 15.498 6.38984C15.498 5.91297 15.8846 5.52637 16.3615 5.52637C16.8384 5.5266 17.225 5.91297 17.225 6.38984Z" fill="#FFB703"/>
<path d="M12.1126 6.14025C13 6.14025 13.7194 5.42088 13.7194 4.5335C13.7194 3.64612 13 2.92676 12.1126 2.92676C11.2252 2.92676 10.5059 3.64612 10.5059 4.5335C10.5059 5.42088 11.2252 6.14025 12.1126 6.14025Z" fill="#FB8500"/>
<path d="M12.976 4.53339C12.976 5.01027 12.5894 5.39687 12.1125 5.39687C11.6356 5.39687 11.249 5.01027 11.249 4.53339C11.249 4.05652 11.6356 3.66992 12.1125 3.66992C12.5894 3.66992 12.976 4.05652 12.976 4.53339Z" fill="#FFB703"/>
<path d="M7.36358 6.92542C8.25097 6.92542 8.97033 6.20605 8.97033 5.31867C8.97033 4.43128 8.25097 3.71191 7.36358 3.71191C6.4762 3.71191 5.75684 4.43128 5.75684 5.31867C5.75684 6.20605 6.4762 6.92542 7.36358 6.92542Z" fill="#FB8500"/>
<path d="M8.22695 5.31856C8.22695 5.79543 7.84035 6.18203 7.36347 6.18203C6.8866 6.18203 6.5 5.79543 6.5 5.31856C6.5 4.84168 6.8866 4.45508 7.36347 4.45508C7.84035 4.45508 8.22695 4.84168 8.22695 5.31856Z" fill="#FFB703"/>
</svg>
