<svg width="235" height="254" viewBox="0 0 235 254" fill="none" xmlns="http://www.w3.org/2000/svg">
<path d="M76.506 42.0208C82.1239 29.8226 97.404 19.2607 120.416 19.2607C140.233 19.2607 156.029 27.4605 164.112 44.9242C171.088 60.0073 184.278 55.6091 189.804 69.0806C196.498 85.3878 184.623 89.1893 189.89 99.1238C194.476 107.779 220.481 105.035 214.292 130.533C207.021 160.44 237.218 151.269 227.771 178.286C215.011 214.794 158.242 188.478 158.242 188.478L74.9632 185.052C74.9632 185.052 36.7628 207.861 18.0713 192.114C0.627571 177.4 1.00866 158.896 25.2996 148.587C42.9093 141.131 31.9132 123.274 28.6002 112.829C25.2873 102.384 29.682 92.7571 42.3561 87.9529C60.6726 81.0142 43.6776 69.5665 52.8051 58.1804C60.2915 48.8672 70.4148 55.2646 76.506 42.0208Z" fill="url(#paint0_linear_408_2057)"/>
<path d="M214.291 130.52C220.481 105.023 194.475 107.76 189.89 99.1114C184.622 89.1769 196.497 85.3754 189.804 69.0681C184.272 55.5967 171.088 59.9949 164.111 44.9118C161.68 39.5274 158.182 34.6931 153.828 30.7021C162.624 54.6924 135.813 63.9933 135.813 63.9933L112.764 186.596L158.248 188.441C158.248 188.441 215.011 214.794 227.771 178.285C237.218 151.269 207.02 160.44 214.291 130.52Z" fill="url(#paint1_linear_408_2057)"/>
<path d="M41.1263 195.521C23.6887 180.807 24.0636 162.304 48.3607 151.994C65.9642 144.539 54.9743 126.681 51.6552 116.236C48.3361 105.791 52.737 96.1646 65.4172 91.3604C83.7276 84.4217 66.7387 72.974 75.8662 61.5878C83.3404 52.2747 92.8244 57.8478 95.0248 43.5582C96.4816 34.0974 100.852 25.4363 110.784 19.9062C93.1256 22.3668 81.2813 31.5938 76.4932 42.0511C70.402 55.295 60.2787 48.8976 52.8046 58.2107C43.6648 69.5969 60.6598 81.0446 42.3556 87.9833C29.6815 92.7875 25.2806 102.414 28.5997 112.859C31.9188 123.304 36.5164 138.855 22.0414 146.581C-1.24146 159.001 0.627066 177.43 18.0708 192.144C24.7828 197.816 34.0517 198.492 43.1116 197.065C42.4189 196.592 41.7559 196.076 41.1263 195.521Z" fill="url(#paint2_linear_408_2057)"/>
<path d="M181.302 191.868L165.045 191.197C172.587 193.953 185.328 197.767 197.517 197.625C191.978 196.107 186.559 194.183 181.302 191.868Z" fill="url(#paint3_linear_408_2057)"/>
<path d="M214.292 130.52C220.482 105.022 194.476 107.76 189.891 99.1108C184.623 89.1764 196.498 85.3748 189.804 69.0676C184.273 55.5961 171.088 59.9943 164.112 44.9112C163.608 43.8224 163.08 42.7767 162.514 41.7617C162.514 50.429 162.33 57.786 170.031 70.2486C179.362 85.3502 162.041 89.1764 167.302 99.1108C171.894 107.766 197.893 105.022 191.71 130.52C184.451 160.44 214.636 151.268 205.177 178.285C201.372 189.167 193.658 194.469 184.703 196.548C201.341 199.378 220.906 197.908 227.765 178.285C237.218 151.268 207.021 160.44 214.292 130.52Z" fill="url(#paint4_linear_408_2057)"/>
<path d="M205.735 151.791C193.977 130.046 140.288 127.186 140.288 127.186H93.4329C93.4329 127.186 39.7433 130.064 27.9913 151.791C20.5417 165.57 29.5525 219.905 32.6196 236.907C57.3715 247.543 86.5489 254.18 118.572 253.996C152.452 253.799 179.502 247.543 201.064 237.129C204.094 220.379 213.216 165.625 205.735 151.791Z" fill="url(#paint5_linear_408_2057)"/>
<path d="M153.145 96.6694C153.145 96.6694 156.71 91.8283 160.859 93.809C166.803 96.6448 160.859 114.053 151.184 113.493C151.184 113.469 150.33 103.055 153.145 96.6694Z" fill="url(#paint6_linear_408_2057)"/>
<path d="M157.646 96.6563C155.218 96.9208 154.038 100.279 154.069 103.14C154.069 103.14 156.048 102.838 156.528 104.493C157.007 106.148 154.714 107.956 153.823 108.332V108.682C153.815 108.88 153.86 109.075 153.954 109.249C154.047 109.423 154.186 109.569 154.355 109.671C154.524 109.773 154.717 109.827 154.915 109.829C155.112 109.83 155.306 109.778 155.477 109.679C156.793 108.878 157.912 107.79 158.748 106.496C159.585 105.202 160.118 103.735 160.308 102.205C160.873 96.3057 157.646 96.6563 157.646 96.6563Z" fill="url(#paint7_linear_408_2057)"/>
<path d="M82.1721 96.6694C82.1721 96.6694 78.6072 91.8283 74.4583 93.809C68.5146 96.6448 74.4583 114.053 84.1329 113.493C84.1329 113.469 84.9872 103.055 82.1721 96.6694Z" fill="url(#paint8_linear_408_2057)"/>
<path d="M77.677 96.6563C80.0987 96.9208 81.2789 100.279 81.2481 103.14C81.2481 103.14 79.2689 102.838 78.7895 104.493C78.3101 106.148 80.6335 107.956 81.494 108.332V108.682C81.5028 108.88 81.4579 109.077 81.3641 109.252C81.2702 109.427 81.1309 109.573 80.9609 109.675C80.7909 109.777 80.5964 109.832 80.3981 109.832C80.1998 109.833 80.0051 109.78 79.8344 109.679C77.9413 108.59 75.3106 105.822 74.9848 102.205C74.444 96.3057 77.677 96.6563 77.677 96.6563Z" fill="url(#paint9_linear_408_2057)"/>
<path d="M154.468 89.7122C154.468 89.7122 153.853 111.506 148.77 122.038C142.98 133.977 129.562 143.284 122.402 147.615C120.984 148.472 119.359 148.926 117.703 148.926C116.046 148.926 114.421 148.472 113.004 147.615C105.843 143.309 92.4254 133.977 86.6354 122.038C81.5277 111.506 80.8516 87.0486 80.8516 87.0486C80.8516 87.0486 85.4676 90.1243 92.7757 85.7076C100.084 81.291 98.5719 75.4902 106.021 74.383C113.471 73.2758 128.659 74.8997 135.715 62.7754C135.715 62.7754 140.098 65.1006 139.403 76.5913C138.856 85.0187 147.547 90.5365 154.468 89.7122Z" fill="url(#paint10_linear_408_2057)"/>
<path d="M106.657 112.294L100.056 116.52L92.6804 112.214L91.7461 103.411L98.6179 97.8506L103.148 100.01L102.779 100.729L98.9744 99.776L94.3829 104.162L94.4997 110.842L99.6566 114.225L104.463 111.261L105.004 106.942L100.886 103.448L98.3351 105.607L98.1938 108.302L100.357 108.64L102.115 106.758L102.718 107.035L101.033 110.91L96.86 109.501L96.5834 104.777L101.236 102.193L106.688 105.81L106.657 112.294Z" fill="#A0790F"/>
<path d="M143.566 112.294L136.964 116.52L129.589 112.214L128.654 103.411L135.526 97.8506L140.056 100.01L139.687 100.729L135.883 99.776L131.291 104.162L131.408 110.842L136.565 114.225L141.371 111.261L141.912 106.942L137.794 103.448L135.243 105.607L135.102 108.302L137.266 108.64L139.023 106.758L139.62 107.035L137.942 110.91L133.768 109.501L133.492 104.777L138.144 102.193L143.603 105.81L143.566 112.294Z" fill="#A0790F"/>
<path d="M122.149 128.939C122.149 130.901 120.09 132.494 117.552 132.494C115.013 132.494 112.979 130.901 112.979 128.939C112.979 126.976 115.038 125.377 117.57 125.377C120.102 125.377 122.149 126.97 122.149 128.939Z" fill="white"/>
<path d="M168.071 193.35C168 194.864 167.349 196.291 166.254 197.337C165.158 198.383 163.703 198.966 162.189 198.966H73.5135C71.999 198.967 70.5426 198.383 69.4463 197.338C68.3499 196.292 67.6978 194.864 67.6252 193.35L64.9453 137.274H170.757L168.071 193.35Z" fill="url(#paint11_linear_408_2057)"/>
<path opacity="0.1" d="M118.628 137.274L74.6562 198.966H79.4935H85.5601L129.538 137.274H118.628Z" fill="white"/>
<path opacity="0.1" d="M168.071 193.35L170.757 137.274H137.148L93.1758 198.966H162.189C163.702 198.966 165.158 198.383 166.254 197.337C167.349 196.291 168 194.864 168.071 193.35Z" fill="white"/>
<path d="M164.376 137.274H71.3125V139.852H164.376V137.274Z" fill="#186E73"/>
<path d="M52.1652 210.851L42.3984 240.814C56.9474 246.171 72.039 249.917 87.403 251.985L92.5415 221.726L52.1652 210.851Z" fill="url(#paint12_linear_408_2057)"/>
<path d="M54.85 209.159C48.7035 210.075 54.18 215.852 60.7875 219.075C67.395 222.298 87.4448 226.942 92.1654 222.292C96.8859 217.642 63.9652 207.806 54.85 209.159Z" fill="#146A70"/>
<path d="M98.4481 158.699L77.4518 156.632L64.9436 158.988L67.5375 147.848C67.7489 146.939 68.1987 146.103 68.8405 145.427C69.4823 144.75 70.2928 144.256 71.1885 143.997L83.4815 140.417C84.5449 140.107 85.5301 139.573 86.3716 138.852C87.213 138.13 87.8915 137.238 88.3618 136.234C88.5298 135.873 88.5984 135.473 88.5603 135.076C88.5222 134.679 88.3789 134.299 88.1452 133.976C87.9115 133.653 87.5958 133.399 87.2308 133.239C86.8658 133.079 86.4648 133.019 86.0691 133.066L65.9885 135.527C64.9765 135.651 64.0107 136.023 63.1766 136.61C62.3425 137.197 61.6658 137.981 61.2066 138.892L54.5868 152.056C53.237 154.731 51.374 157.114 49.1041 159.068L48.176 159.88C47.5415 160.426 47.0529 161.121 46.7546 161.903C46.4562 162.685 46.3575 163.529 46.4673 164.358L47.3893 171.322C47.548 172.494 47.3214 173.685 46.7439 174.717L44.8692 178.088C44.5561 178.648 44.3979 179.281 44.4109 179.922C44.4239 180.563 44.6075 181.189 44.943 181.736L48.2129 187.075C48.5545 187.635 48.769 188.263 48.8412 188.914C48.9135 189.566 48.8416 190.225 48.6309 190.846L48.0162 192.692C47.7353 193.521 47.6883 194.411 47.8802 195.265C48.0721 196.119 48.4956 196.904 49.1041 197.533L58.4406 207.246C59.8214 208.673 60.8349 210.415 61.3938 212.321C61.9527 214.227 62.0403 216.241 61.6491 218.189L61.4094 219.382C66.1914 221.523 76.2593 224.119 83.7826 224.266L88.122 208.273C88.7974 205.761 88.7974 203.114 88.122 200.602L87.7041 199.009H73.5119C71.9974 199.009 70.5409 198.426 69.4446 197.38C68.3483 196.335 67.6961 194.907 67.6235 193.393L67.3408 187.543L80.6725 180.616L91.5825 178.697C92.3144 178.571 92.9943 178.236 93.5397 177.732C94.0851 177.227 94.4728 176.576 94.6558 175.855C94.7621 175.435 94.7011 174.989 94.4855 174.613C94.2699 174.236 93.9166 173.958 93.5002 173.838L91.183 173.167L92.7381 172.896C93.8022 172.711 94.7989 172.249 95.6276 171.556C96.4563 170.862 97.0878 169.963 97.4586 168.947V168.88C97.5433 168.648 97.5796 168.402 97.5651 168.156C97.5507 167.91 97.4858 167.67 97.3745 167.45C97.2633 167.23 97.108 167.035 96.9184 166.878C96.7287 166.721 96.5088 166.604 96.2723 166.536L92.6274 165.416L93.9366 165.367C95.2389 165.313 96.4962 164.875 97.5512 164.109C98.6062 163.344 99.4121 162.283 99.868 161.061C99.9597 160.813 99.9945 160.547 99.9698 160.284C99.945 160.02 99.8614 159.766 99.7251 159.539C99.5887 159.312 99.4032 159.119 99.1822 158.973C98.9611 158.828 98.7103 158.734 98.4481 158.699Z" fill="url(#paint13_linear_408_2057)"/>
<path d="M64.9412 158.988C61.718 159.114 58.5389 159.781 55.5371 160.963C57.1502 160.925 58.7549 160.719 60.3252 160.348C61.9077 160.06 63.4551 159.604 64.9412 158.988Z" fill="#D88884"/>
<path d="M56.4883 169.249C60.127 168.634 66.8328 167.262 74.4914 165.49L78.296 164.592L82.66 164.912L86.6061 165.158C89.0647 165.299 91.1115 165.392 92.6296 165.416C91.1238 165.189 89.0831 164.93 86.6491 164.66L82.7215 164.241L78.2407 163.805L74.3069 164.703C66.6484 166.481 60.0164 168.184 56.4883 169.249Z" fill="#D88884"/>
<path d="M58.4062 180.069C61.7008 179.294 67.7489 177.572 74.6453 175.413L79.415 173.893L82.9738 173.721L86.2007 173.524C88.2106 173.395 89.8886 173.26 91.1732 173.124C89.8947 173.075 88.1983 173.057 86.1884 173.057H82.9553L79.2674 173.124L74.4056 174.644C67.4969 176.803 61.5533 178.833 58.4062 180.069Z" fill="#D88884"/>
<path d="M156.616 157.851H146.019C145.278 157.851 144.544 157.705 143.859 157.42C143.174 157.136 142.551 156.72 142.027 156.195C141.503 155.67 141.088 155.046 140.805 154.361C140.522 153.675 140.376 152.94 140.377 152.198C140.377 150.7 140.971 149.264 142.03 148.205C143.088 147.146 144.523 146.551 146.019 146.551H156.616C158.113 146.551 159.549 147.146 160.608 148.204C161.667 149.263 162.263 150.7 162.265 152.198C162.265 153.697 161.669 155.135 160.61 156.195C159.551 157.255 158.114 157.851 156.616 157.851Z" fill="url(#paint14_linear_408_2057)"/>
<path d="M149.967 152.216C149.967 152.995 149.736 153.756 149.304 154.403C148.872 155.051 148.258 155.555 147.539 155.853C146.82 156.151 146.029 156.229 145.266 156.077C144.503 155.925 143.802 155.551 143.252 155C142.702 154.449 142.327 153.748 142.175 152.984C142.023 152.221 142.101 151.429 142.399 150.71C142.697 149.99 143.201 149.375 143.848 148.943C144.495 148.51 145.255 148.279 146.033 148.279C147.077 148.279 148.077 148.694 148.815 149.432C149.553 150.171 149.967 151.172 149.967 152.216Z" fill="#877BFF"/>
<path d="M146.034 155.402C147.792 155.402 149.217 153.976 149.217 152.216C149.217 150.456 147.792 149.029 146.034 149.029C144.275 149.029 142.85 150.456 142.85 152.216C142.85 153.976 144.275 155.402 146.034 155.402Z" fill="#FFBF16"/>
<path d="M146.035 154.695C145.548 154.695 145.073 154.55 144.669 154.28C144.265 154.009 143.949 153.625 143.763 153.176C143.577 152.726 143.529 152.231 143.623 151.754C143.718 151.277 143.952 150.838 144.296 150.494C144.64 150.15 145.078 149.916 145.555 149.821C146.032 149.726 146.526 149.775 146.976 149.961C147.425 150.147 147.809 150.462 148.079 150.867C148.349 151.272 148.493 151.747 148.493 152.234C148.493 152.887 148.234 153.512 147.773 153.974C147.312 154.435 146.687 154.695 146.035 154.695ZM146.035 150.026C145.602 150.026 145.179 150.154 144.819 150.395C144.459 150.635 144.179 150.977 144.013 151.377C143.848 151.778 143.804 152.218 143.889 152.643C143.973 153.068 144.181 153.458 144.488 153.764C144.794 154.07 145.183 154.279 145.608 154.363C146.032 154.448 146.472 154.404 146.872 154.239C147.272 154.073 147.614 153.792 147.854 153.432C148.095 153.072 148.223 152.649 148.223 152.216C148.22 151.637 147.988 151.083 147.578 150.675C147.168 150.267 146.613 150.038 146.035 150.038V150.026Z" fill="#877BFF"/>
<path d="M160.571 152.197C160.572 152.976 160.342 153.738 159.911 154.386C159.479 155.034 158.865 155.54 158.147 155.839C157.428 156.138 156.637 156.217 155.873 156.065C155.11 155.914 154.408 155.54 153.857 154.989C153.307 154.439 152.931 153.738 152.779 152.974C152.627 152.21 152.704 151.418 153.002 150.698C153.3 149.979 153.804 149.363 154.451 148.931C155.098 148.498 155.859 148.267 156.637 148.267C157.679 148.267 158.679 148.681 159.416 149.418C160.154 150.154 160.569 151.154 160.571 152.197Z" fill="#877BFF"/>
<path d="M156.639 155.384C158.397 155.384 159.823 153.957 159.823 152.197C159.823 150.437 158.397 149.011 156.639 149.011C154.881 149.011 153.455 150.437 153.455 152.197C153.455 153.957 154.881 155.384 156.639 155.384Z" fill="#FFBF16"/>
<path d="M156.619 154.676C156.132 154.676 155.657 154.532 155.253 154.261C154.849 153.991 154.533 153.607 154.347 153.157C154.161 152.707 154.113 152.213 154.207 151.735C154.302 151.258 154.536 150.82 154.88 150.476C155.224 150.131 155.662 149.897 156.139 149.802C156.616 149.707 157.11 149.756 157.56 149.942C158.009 150.128 158.393 150.444 158.663 150.848C158.933 151.253 159.077 151.729 159.077 152.215C159.077 152.868 158.818 153.494 158.357 153.955C157.896 154.417 157.271 154.676 156.619 154.676ZM156.619 150.007C156.186 150.007 155.763 150.136 155.403 150.376C155.043 150.617 154.763 150.959 154.597 151.359C154.432 151.759 154.388 152.199 154.473 152.624C154.557 153.049 154.765 153.439 155.071 153.745C155.378 154.052 155.767 154.26 156.192 154.345C156.616 154.429 157.056 154.386 157.456 154.22C157.856 154.054 158.198 153.774 158.438 153.414C158.679 153.053 158.807 152.63 158.807 152.197C158.797 151.622 158.563 151.074 158.153 150.67C157.744 150.266 157.193 150.039 156.619 150.038V150.007Z" fill="#877BFF"/>
<path d="M143.152 221.726L148.309 252.102C165.292 249.942 180.185 245.993 193.24 240.623L183.529 210.851L143.152 221.726Z" fill="url(#paint15_linear_408_2057)"/>
<path d="M180.844 209.159C186.99 210.075 181.514 215.852 174.906 219.075C168.299 222.298 148.249 226.942 143.559 222.292C138.869 217.642 171.734 207.806 180.844 209.159Z" fill="#146A70"/>
<path d="M137.25 158.7L158.247 156.633L170.755 158.989L168.167 147.849C167.955 146.94 167.505 146.105 166.863 145.428C166.222 144.751 165.412 144.257 164.516 143.998L152.223 140.418C151.159 140.109 150.173 139.576 149.331 138.854C148.489 138.133 147.811 137.24 147.343 136.235C147.173 135.874 147.103 135.474 147.14 135.077C147.177 134.68 147.319 134.3 147.553 133.976C147.786 133.653 148.102 133.398 148.467 133.238C148.832 133.078 149.234 133.019 149.629 133.067L169.71 135.527C170.715 135.66 171.671 136.037 172.497 136.626C173.322 137.215 173.99 137.997 174.443 138.905L181.075 152.056C182.42 154.732 184.281 157.116 186.551 159.069L187.492 159.881C188.128 160.425 188.617 161.12 188.916 161.902C189.214 162.684 189.312 163.529 189.2 164.359L188.278 171.322C188.126 172.494 188.352 173.684 188.924 174.718L190.805 178.089C191.115 178.649 191.272 179.282 191.259 179.923C191.246 180.563 191.064 181.189 190.731 181.736L187.461 187.076C187.118 187.635 186.903 188.262 186.829 188.914C186.756 189.566 186.827 190.225 187.037 190.847L187.651 192.692C187.932 193.521 187.979 194.41 187.788 195.264C187.598 196.118 187.176 196.903 186.57 197.533L177.252 207.246C175.874 208.676 174.863 210.418 174.304 212.323C173.745 214.229 173.656 216.242 174.043 218.189L174.283 219.383C169.501 221.523 159.439 224.119 151.91 224.267L147.57 208.273C146.9 205.76 146.9 203.116 147.57 200.603L147.994 199.009H162.205C163.719 199.01 165.175 198.426 166.27 197.38C167.365 196.334 168.016 194.907 168.087 193.393L168.37 187.543L155.02 180.574L144.116 178.655C143.384 178.529 142.704 178.194 142.159 177.689C141.613 177.185 141.226 176.533 141.043 175.813C140.935 175.391 140.996 174.944 141.213 174.567C141.43 174.19 141.786 173.913 142.204 173.795L144.515 173.125L142.96 172.854C141.896 172.669 140.9 172.206 140.071 171.513C139.242 170.82 138.611 169.92 138.24 168.905V168.837C138.156 168.606 138.12 168.359 138.135 168.114C138.15 167.868 138.215 167.628 138.326 167.408C138.438 167.189 138.593 166.994 138.782 166.837C138.971 166.68 139.19 166.563 139.426 166.493L143.114 165.417L141.799 165.368C140.497 165.313 139.241 164.875 138.187 164.109C137.133 163.343 136.328 162.283 135.873 161.062C135.782 160.817 135.746 160.554 135.768 160.293C135.79 160.033 135.87 159.78 136.002 159.554C136.134 159.328 136.314 159.134 136.53 158.986C136.746 158.838 136.992 158.74 137.25 158.7Z" fill="url(#paint16_linear_408_2057)"/>
<path d="M170.754 158.988C172.241 159.612 173.791 160.076 175.376 160.372C176.944 160.744 178.547 160.95 180.158 160.987C177.157 159.804 173.977 159.137 170.754 159.013V158.988Z" fill="#D88884"/>
<path d="M179.208 169.249C175.68 168.184 169.048 166.481 161.383 164.703L157.449 163.805L152.975 164.241L149.041 164.66C146.582 164.93 144.566 165.189 143.066 165.416C144.585 165.416 146.638 165.299 149.084 165.158L153.03 164.912L157.394 164.592L161.205 165.49C168.869 167.262 175.575 168.652 179.208 169.249Z" fill="#D88884"/>
<path d="M177.295 180.069C174.141 178.839 168.185 176.803 161.314 174.644L156.427 173.143L152.739 173.081H149.512C147.503 173.081 145.825 173.081 144.521 173.149C145.794 173.284 147.49 173.419 149.494 173.549L152.721 173.745L156.286 173.918L161.056 175.437C167.946 177.572 174 179.294 177.295 180.069Z" fill="#D88884"/>
<path d="M114.965 121.219C115.813 121.408 116.671 121.552 117.534 121.65C118.038 121.699 118.573 121.748 119.151 121.754C119.457 121.761 119.763 121.745 120.066 121.705C120.432 121.659 120.778 121.514 121.068 121.287C121.609 120.868 122.092 120.38 122.507 119.835C122.728 119.552 122.934 119.256 123.121 118.949C123.345 118.594 123.505 118.203 123.594 117.793C123.626 117.627 123.617 117.456 123.569 117.295C123.521 117.133 123.435 116.986 123.318 116.864C123.171 116.709 123.01 116.567 122.838 116.44L121.966 115.763C121.384 115.325 120.826 114.857 120.294 114.36C120.049 114.129 119.829 113.874 119.636 113.598C119.592 113.537 119.553 113.474 119.519 113.407V113.364V113.265C119.483 113.099 119.433 112.946 119.396 112.773C119.274 112.084 119.187 111.383 119.132 110.694C119.015 109.316 118.966 107.988 118.917 106.763C118.825 104.303 118.77 102.261 118.665 100.821C118.337 102.787 118.131 104.772 118.05 106.763C117.995 107.994 117.964 109.341 118.05 110.768C118.078 111.514 118.152 112.258 118.272 112.995C118.302 113.186 118.358 113.389 118.401 113.61L118.444 113.788C118.473 113.858 118.506 113.925 118.542 113.991C118.594 114.093 118.652 114.191 118.714 114.287C118.956 114.635 119.232 114.959 119.538 115.252C120.104 115.787 120.705 116.282 121.339 116.735L122.212 117.35C122.334 117.442 122.513 117.59 122.55 117.621C122.485 117.892 122.384 118.152 122.248 118.396C122.102 118.673 121.94 118.942 121.763 119.202C121.437 119.702 121.051 120.161 120.613 120.567C120.442 120.732 120.23 120.846 119.999 120.899C119.737 120.959 119.473 121.002 119.206 121.028C118.665 121.084 118.136 121.102 117.639 121.121L114.965 121.219Z" fill="#D88884"/>
<path d="M125.135 95.0884C125.135 95.0884 132.056 91.8959 136.997 92.3511C141.939 92.8063 147.115 96.657 147.115 96.657C147.115 96.657 139.966 94.0242 136.543 94.4856C133.682 94.9921 130.865 95.7181 128.116 96.657C126.986 96.4493 125.946 95.9022 125.135 95.0884Z" fill="#A0790F"/>
<path d="M110.214 95.0884C110.214 95.0884 103.293 91.8959 98.3515 92.3511C93.4097 92.8063 88.2344 96.657 88.2344 96.657C88.2344 96.657 95.3827 94.0242 98.8063 94.4856C101.669 94.9924 104.488 95.7184 107.239 96.657C108.367 96.4485 109.405 95.9014 110.214 95.0884Z" fill="#A0790F"/>
<path d="M224.882 83.7944L227.101 78.6211L229.32 83.7944L234.483 86.015L229.32 88.2357L227.101 93.4028L224.882 88.2357L219.713 86.015L224.882 83.7944Z" fill="white"/>
<path d="M29.0758 39.849L34.3003 37.7637L32.2166 42.9923L34.3003 48.2148L29.0758 46.1295L23.8574 48.2148L25.9411 42.9923L23.8574 37.7637L29.0758 39.849Z" fill="white"/>
<path d="M190.019 44.5669L190.701 42.9922L191.377 44.5669L192.951 45.2497L191.377 45.9264L190.701 47.5011L190.019 45.9264L188.445 45.2497L190.019 44.5669Z" fill="white"/>
<path d="M116.875 83.7079L117.551 82.127L118.227 83.7079L119.806 84.3845L118.227 85.0612L117.551 86.6421L116.875 85.0612L115.295 84.3845L116.875 83.7079Z" fill="white"/>
<path d="M39.4683 87.7622L40.1444 86.1875L40.8205 87.7622L42.3941 88.4389L40.8205 89.1217L40.1444 90.6964L39.4683 89.1217L37.8887 88.4389L39.4683 87.7622Z" fill="white"/>
<path d="M199.898 123.39L200.574 121.81L201.256 123.39L202.83 124.067L201.256 124.744L200.574 126.325L199.898 124.744L198.324 124.067L199.898 123.39Z" fill="white"/>
<path d="M225.3 55.4673L225.976 53.8926L226.653 55.4673L228.232 56.144L226.653 56.8268L225.976 58.4015L225.3 56.8268L223.721 56.144L225.3 55.4673Z" fill="white"/>
<path d="M112.082 2.15971L112.758 0.584961L113.44 2.15971L115.013 2.83636L113.44 3.51916L112.758 5.0939L112.082 3.51916L110.502 2.83636L112.082 2.15971Z" fill="white"/>
<path d="M66.5188 13.1519L67.2011 11.5771L67.8772 13.1519L69.4507 13.8347L67.8772 14.5113L67.2011 16.0861L66.5188 14.5113L64.9453 13.8347L66.5188 13.1519Z" fill="white"/>
<path d="M58.5822 42.0323L60.1741 41.3926L59.541 42.9919L60.1741 44.5851L58.5822 43.9515L56.9902 44.5851L57.6233 42.9919L56.9902 41.3926L58.5822 42.0323Z" fill="white"/>
<path d="M152.705 89.5211L155.415 88.4385L154.334 91.1574L155.415 93.8701L152.705 92.7875L149.994 93.8701L151.076 91.1574L149.994 88.4385L152.705 89.5211Z" fill="white"/>
<path d="M176.404 9.94787L179.115 8.86523L178.033 11.578L179.115 14.2907L176.404 13.2081L173.688 14.2907L174.769 11.578L173.688 8.86523L176.404 9.94787Z" fill="white"/>
<path d="M84.9634 120.371L86.1127 117.683L87.2683 120.371L89.9482 121.527L87.2683 122.678L86.1127 125.366L84.9634 122.678L82.2773 121.527L84.9634 120.371Z" fill="white"/>
<path d="M151.547 29.558L152.703 26.876L153.858 29.558L156.538 30.7144L153.858 31.8709L152.703 34.5529L151.547 31.8709L148.867 30.7144L151.547 29.558Z" fill="white"/>
<path d="M176.403 71.0609H172.654V67.3086H168.843V71.0609H165.094V74.8748H168.843V78.6209H172.654V74.8748H176.403V71.0609Z" fill="white"/>
<path d="M52.1669 100.766C50.8978 100.766 49.6571 101.142 48.6019 101.848C47.5466 102.554 46.7241 103.557 46.2385 104.73C45.7528 105.904 45.6257 107.195 45.8733 108.441C46.1209 109.686 46.732 110.831 47.6295 111.729C48.5269 112.627 49.6703 113.238 50.9151 113.486C52.1598 113.734 53.45 113.607 54.6226 113.121C55.7951 112.635 56.7973 111.812 57.5024 110.756C58.2075 109.699 58.5839 108.458 58.5839 107.188C58.5839 105.484 57.9078 103.851 56.7044 102.647C55.501 101.442 53.8688 100.766 52.1669 100.766ZM53.0397 109.101L49.7268 111.008V103.361L53.0397 105.275L56.3465 107.188L53.0397 109.101Z" fill="white"/>
<path d="M225.977 129.406C225.256 129.406 224.551 129.62 223.952 130.021C223.353 130.422 222.885 130.992 222.609 131.658C222.334 132.325 222.261 133.058 222.402 133.766C222.543 134.473 222.89 135.123 223.4 135.633C223.909 136.143 224.559 136.491 225.266 136.632C225.973 136.772 226.706 136.7 227.372 136.424C228.038 136.148 228.607 135.68 229.008 135.081C229.408 134.481 229.622 133.775 229.622 133.054C229.622 132.087 229.238 131.159 228.554 130.475C227.871 129.791 226.944 129.406 225.977 129.406ZM226.475 134.137L224.594 135.219V130.913L226.475 131.996L228.349 133.085L226.475 134.137Z" fill="white"/>
<path d="M16.4377 121.527C16.073 121.527 15.7165 121.419 15.4133 121.216C15.11 121.013 14.8737 120.725 14.7341 120.388C14.5945 120.05 14.558 119.679 14.6292 119.321C14.7003 118.963 14.876 118.635 15.1338 118.376C15.3917 118.118 15.7203 117.943 16.078 117.871C16.4357 117.8 16.8064 117.837 17.1433 117.976C17.4803 118.116 17.7683 118.353 17.9709 118.656C18.1735 118.96 18.2816 119.316 18.2816 119.681C18.2816 120.171 18.0874 120.64 17.7416 120.986C17.3958 121.332 16.9267 121.527 16.4377 121.527Z" fill="white"/>
<path d="M7.72038 121.526C7.35444 121.533 6.99495 121.43 6.6877 121.231C6.38045 121.032 6.13933 120.745 5.99504 120.409C5.85075 120.072 5.80983 119.7 5.87747 119.34C5.94511 118.98 6.11826 118.649 6.37487 118.387C6.63149 118.126 6.95996 117.947 7.31846 117.874C7.67697 117.8 8.04928 117.835 8.38801 117.973C8.72674 118.112 9.01657 118.349 9.22058 118.653C9.42459 118.957 9.53355 119.315 9.5336 119.681C9.53366 120.165 9.34361 120.63 9.00443 120.975C8.66524 121.32 8.20408 121.518 7.72038 121.526Z" fill="white"/>
<path d="M12.0769 117.16C13.0783 117.16 13.8901 116.347 13.8901 115.345C13.8901 114.343 13.0783 113.53 12.0769 113.53C11.0755 113.53 10.2637 114.343 10.2637 115.345C10.2637 116.347 11.0755 117.16 12.0769 117.16Z" fill="white"/>
<path d="M12.0769 125.882C13.0783 125.882 13.8901 125.07 13.8901 124.068C13.8901 123.065 13.0783 122.253 12.0769 122.253C11.0755 122.253 10.2637 123.065 10.2637 124.068C10.2637 125.07 11.0755 125.882 12.0769 125.882Z" fill="white"/>
<path d="M215.625 28.6908C215.261 28.6908 214.904 28.5826 214.601 28.3798C214.298 28.177 214.061 27.8888 213.922 27.5516C213.782 27.2144 213.746 26.8434 213.817 26.4854C213.888 26.1274 214.063 25.7986 214.321 25.5405C214.579 25.2824 214.908 25.1067 215.265 25.0355C215.623 24.9643 215.994 25.0008 216.331 25.1405C216.668 25.2801 216.956 25.5167 217.158 25.8202C217.361 26.1236 217.469 26.4804 217.469 26.8454C217.469 27.3348 217.275 27.8042 216.929 28.1503C216.583 28.4964 216.114 28.6908 215.625 28.6908Z" fill="white"/>
<path d="M206.911 28.6898C207.912 28.6898 208.724 27.8774 208.724 26.8752C208.724 25.873 207.912 25.0605 206.911 25.0605C205.909 25.0605 205.098 25.873 205.098 26.8752C205.098 27.8774 205.909 28.6898 206.911 28.6898Z" fill="white"/>
<path d="M213.088 22.5146C213.088 22.8796 212.98 23.2364 212.777 23.5399C212.575 23.8433 212.287 24.0799 211.95 24.2196C211.613 24.3592 211.242 24.3958 210.885 24.3246C210.527 24.2534 210.198 24.0776 209.94 23.8195C209.683 23.5614 209.507 23.2326 209.436 22.8746C209.365 22.5167 209.401 22.1456 209.541 21.8084C209.68 21.4712 209.917 21.183 210.22 20.9802C210.523 20.7774 210.88 20.6692 211.244 20.6692C211.488 20.665 211.729 20.7099 211.955 20.8012C212.18 20.8925 212.385 21.0282 212.557 21.2004C212.73 21.3726 212.865 21.5777 212.956 21.8035C213.048 22.0293 213.092 22.2711 213.088 22.5146Z" fill="white"/>
<path d="M213.088 31.2373C213.088 31.6023 212.98 31.959 212.777 32.2625C212.575 32.566 212.287 32.8025 211.95 32.9422C211.613 33.0819 211.242 33.1184 210.885 33.0472C210.527 32.976 210.198 32.8003 209.94 32.5422C209.683 32.2841 209.507 31.9553 209.436 31.5973C209.365 31.2393 209.401 30.8683 209.541 30.5311C209.68 30.1939 209.917 29.9056 210.22 29.7029C210.523 29.5001 210.88 29.3919 211.244 29.3919C211.488 29.3877 211.729 29.4326 211.955 29.5239C212.18 29.6151 212.385 29.7509 212.557 29.9231C212.73 30.0953 212.865 30.3004 212.956 30.5262C213.048 30.7519 213.092 30.9938 213.088 31.2373Z" fill="white"/>
<path d="M97.3899 56.1438L95.9762 56.9619L94.5625 57.78V56.1438V54.5137L95.9762 55.3318L97.3899 56.1438Z" fill="white"/>
<path d="M86.1113 56.1438L87.525 55.3318L88.9387 54.5137V56.1438V57.78L87.525 56.9619L86.1113 56.1438Z" fill="white"/>
<path d="M97.3899 56.1438L95.9762 56.9619L94.5625 57.78V56.1438V54.5137L95.9762 55.3318L97.3899 56.1438Z" fill="white"/>
<path d="M86.1113 56.1438L87.525 55.3318L88.9387 54.5137V56.1438V57.78L87.525 56.9619L86.1113 56.1438Z" fill="white"/>
<path d="M91.748 50.5029L92.5654 51.9177L93.3829 53.3325H91.748H90.1191L90.9366 51.9177L91.748 50.5029Z" fill="white"/>
<path d="M91.748 61.7906L90.9366 60.3757L90.1191 58.9609H91.748H93.3829L92.5654 60.3757L91.748 61.7906Z" fill="white"/>
<path d="M91.748 50.5029L92.5654 51.9177L93.3829 53.3325H91.748H90.1191L90.9366 51.9177L91.748 50.5029Z" fill="white"/>
<path d="M91.748 61.7906L90.9366 60.3757L90.1191 58.9609H91.748H93.3829L92.5654 60.3757L91.748 61.7906Z" fill="white"/>
<path d="M127.319 47.3537C127.319 47.7856 127.191 48.2078 126.951 48.5669C126.712 48.926 126.371 49.2059 125.972 49.3712C125.573 49.5364 125.135 49.5797 124.711 49.4954C124.288 49.4112 123.899 49.2032 123.594 48.8978C123.289 48.5924 123.081 48.2033 122.997 47.7797C122.913 47.3561 122.956 46.917 123.121 46.518C123.286 46.119 123.566 45.7779 123.925 45.538C124.284 45.298 124.706 45.1699 125.137 45.1699C125.716 45.1699 126.271 45.4 126.68 45.8095C127.089 46.2191 127.319 46.7745 127.319 47.3537Z" fill="white"/>
<path d="M169.435 118.703C169.435 118.946 169.363 119.184 169.228 119.386C169.093 119.589 168.901 119.746 168.676 119.84C168.452 119.933 168.204 119.957 167.966 119.91C167.728 119.862 167.509 119.745 167.337 119.573C167.165 119.401 167.048 119.182 167 118.943C166.953 118.704 166.977 118.457 167.07 118.232C167.163 118.007 167.321 117.815 167.523 117.68C167.725 117.545 167.963 117.473 168.206 117.473C168.532 117.473 168.845 117.602 169.075 117.833C169.306 118.064 169.435 118.377 169.435 118.703Z" fill="white"/>
<path d="M147.277 13.8348C147.277 14.0781 147.205 14.3159 147.07 14.5183C146.935 14.7206 146.743 14.8783 146.518 14.9714C146.293 15.0645 146.046 15.0889 145.808 15.0414C145.569 14.9939 145.35 14.8768 145.178 14.7047C145.006 14.5326 144.889 14.3134 144.842 14.0748C144.795 13.8361 144.819 13.5888 144.912 13.364C145.005 13.1392 145.163 12.947 145.365 12.8118C145.567 12.6766 145.805 12.6045 146.048 12.6045C146.374 12.6045 146.686 12.7341 146.917 12.9648C147.147 13.1955 147.277 13.5085 147.277 13.8348Z" fill="white"/>
<path d="M2.4586 97.8504C2.4586 98.0937 2.3865 98.3316 2.25142 98.5339C2.11635 98.7362 1.92436 98.8939 1.69973 98.987C1.47511 99.0801 1.22794 99.1045 0.989477 99.057C0.751017 99.0095 0.531977 98.8924 0.360057 98.7203C0.188136 98.5483 0.0710533 98.3291 0.0236206 98.0904C-0.0238122 97.8518 0.000534372 97.6044 0.093577 97.3796C0.18662 97.1548 0.344182 96.9626 0.546338 96.8274C0.748495 96.6923 0.98617 96.6201 1.2293 96.6201C1.55533 96.6201 1.86801 96.7497 2.09855 96.9805C2.32909 97.2112 2.4586 97.5241 2.4586 97.8504Z" fill="white"/>
<path d="M201.816 93.409C201.816 93.6523 201.744 93.8902 201.609 94.0925C201.474 94.2948 201.282 94.4525 201.057 94.5456C200.833 94.6387 200.585 94.6631 200.347 94.6156C200.108 94.5681 199.889 94.451 199.717 94.2789C199.546 94.1069 199.428 93.8876 199.381 93.649C199.334 93.4103 199.358 93.163 199.451 92.9382C199.544 92.7134 199.702 92.5212 199.904 92.386C200.106 92.2509 200.344 92.1787 200.587 92.1787C200.913 92.1787 201.225 92.3083 201.456 92.539C201.687 92.7698 201.816 93.0827 201.816 93.409Z" fill="white"/>
<path d="M45.6481 127.168C45.6481 127.411 45.576 127.649 45.4409 127.851C45.3058 128.054 45.1138 128.211 44.8892 128.304C44.6646 128.398 44.4174 128.422 44.1789 128.374C43.9405 128.327 43.7214 128.21 43.5495 128.038C43.3776 127.866 43.2605 127.646 43.2131 127.408C43.1656 127.169 43.19 126.922 43.283 126.697C43.3761 126.472 43.5336 126.28 43.7358 126.145C43.9379 126.01 44.1756 125.938 44.4188 125.938C44.7448 125.938 45.0575 126.067 45.288 126.298C45.5185 126.529 45.6481 126.841 45.6481 127.168Z" fill="white"/>
<path d="M63.7379 82.1277C63.7379 82.3711 63.6658 82.6089 63.5307 82.8112C63.3956 83.0135 63.2036 83.1712 62.979 83.2643C62.7544 83.3575 62.5072 83.3818 62.2688 83.3344C62.0303 83.2869 61.8113 83.1697 61.6394 82.9977C61.4674 82.8256 61.3504 82.6064 61.3029 82.3677C61.2555 82.1291 61.2798 81.8817 61.3729 81.6569C61.4659 81.4321 61.6235 81.24 61.8256 81.1048C62.0278 80.9696 62.2655 80.8975 62.5086 80.8975C62.8346 80.8975 63.1473 81.0271 63.3778 81.2578C63.6084 81.4885 63.7379 81.8014 63.7379 82.1277Z" fill="white"/>
<path d="M99.2239 25.2333C100.694 25.2333 101.885 24.0408 101.885 22.5698C101.885 21.0988 100.694 19.9062 99.2239 19.9062C97.7541 19.9062 96.5625 21.0988 96.5625 22.5698C96.5625 24.0408 97.7541 25.2333 99.2239 25.2333Z" fill="white"/>
<path d="M19.0963 80.8911C19.0963 81.4179 18.9402 81.9328 18.6478 82.3709C18.3553 82.8089 17.9397 83.1503 17.4534 83.3519C16.967 83.5535 16.4319 83.6062 15.9157 83.5034C15.3994 83.4007 14.9252 83.147 14.553 82.7745C14.1807 82.402 13.9273 81.9274 13.8246 81.4107C13.7219 80.894 13.7746 80.3585 13.976 79.8718C14.1775 79.3851 14.5186 78.9691 14.9563 78.6764C15.3939 78.3838 15.9085 78.2275 16.4349 78.2275C16.7844 78.2275 17.1305 78.2964 17.4534 78.4303C17.7763 78.5641 18.0697 78.7603 18.3168 79.0077C18.5639 79.255 18.76 79.5486 18.8937 79.8718C19.0275 80.1949 19.0963 80.5413 19.0963 80.8911Z" fill="white"/>
<path d="M211.272 61.7905C211.272 62.3173 211.116 62.8323 210.824 63.2703C210.531 63.7083 210.115 64.0497 209.629 64.2513C209.143 64.4529 208.608 64.5056 208.091 64.4029C207.575 64.3001 207.101 64.0464 206.729 63.6739C206.357 63.3014 206.103 62.8268 206 62.3101C205.898 61.7934 205.95 61.2579 206.152 60.7712C206.353 60.2845 206.694 59.8685 207.132 59.5758C207.57 59.2832 208.084 59.127 208.611 59.127C209.317 59.127 209.993 59.4076 210.493 59.9071C210.992 60.4066 211.272 61.0841 211.272 61.7905Z" fill="white"/>
<defs>
<linearGradient id="paint0_linear_408_2057" x1="117.761" y1="186.817" x2="117.761" y2="58.3034" gradientUnits="userSpaceOnUse">
<stop stop-color="#148F98"/>
<stop offset="0.03" stop-color="#21A3AF"/>
<stop offset="0.09375" stop-color="#33B1B9"/>
<stop offset="0.49" stop-color="#11A9B6"/>
<stop offset="0.82" stop-color="#2BA2AE"/>
<stop offset="1" stop-color="#1EBDC7"/>
</linearGradient>
<linearGradient id="paint1_linear_408_2057" x1="171.192" y1="206.329" x2="171.192" y2="17.3168" gradientUnits="userSpaceOnUse">
<stop stop-color="#2D8085"/>
<stop offset="0.03" stop-color="#28A5AD"/>
<stop offset="0.49" stop-color="#2EA2A9"/>
<stop offset="0.82" stop-color="#28ADBA"/>
<stop offset="1" stop-color="#2ABBC4"/>
</linearGradient>
<linearGradient id="paint2_linear_408_2057" x1="57.7833" y1="206.735" x2="57.7833" y2="5.81965" gradientUnits="userSpaceOnUse">
<stop stop-color="#2D8085"/>
<stop offset="0.06" stop-color="#24C6D0"/>
<stop offset="0.5" stop-color="#29C7D0"/>
<stop offset="0.71875" stop-color="#35BAC2"/>
<stop offset="1" stop-color="#18BFC9"/>
</linearGradient>
<linearGradient id="paint3_linear_408_2057" x1="181.284" y1="186.258" x2="181.284" y2="-35.3567" gradientUnits="userSpaceOnUse">
<stop stop-color="#2E4289"/>
<stop offset="0.03" stop-color="#30448E"/>
<stop offset="0.49" stop-color="#495CC9"/>
<stop offset="0.82" stop-color="#586BEE"/>
<stop offset="1" stop-color="#5E71FC"/>
</linearGradient>
<linearGradient id="paint4_linear_408_2057" x1="196.068" y1="194.721" x2="196.068" y2="-9.37449" gradientUnits="userSpaceOnUse">
<stop stop-color="#25C6D0"/>
<stop offset="0.54" stop-color="#2CC3CC"/>
<stop offset="1" stop-color="#27BCC5"/>
</linearGradient>
<linearGradient id="paint5_linear_408_2057" x1="116.863" y1="250.717" x2="116.863" y2="128.41" gradientUnits="userSpaceOnUse">
<stop stop-color="#13696F"/>
<stop offset="0.96" stop-color="#24797E"/>
</linearGradient>
<linearGradient id="paint6_linear_408_2057" x1="146.279" y1="107.816" x2="160.304" y2="101.168" gradientUnits="userSpaceOnUse">
<stop stop-color="#E09489"/>
<stop offset="0.08" stop-color="#E3998E"/>
<stop offset="0.68" stop-color="#F7BCB3"/>
<stop offset="1" stop-color="#FFCAC1"/>
</linearGradient>
<linearGradient id="paint7_linear_408_2057" x1="154.057" y1="103.238" x2="161.562" y2="103.238" gradientUnits="userSpaceOnUse">
<stop stop-color="#E09489"/>
<stop offset="0.32" stop-color="#EDAAA0"/>
<stop offset="0.74" stop-color="#FAC1B8"/>
<stop offset="1" stop-color="#FFCAC1"/>
</linearGradient>
<linearGradient id="paint8_linear_408_2057" x1="89.0378" y1="107.816" x2="75.0135" y2="101.168" gradientUnits="userSpaceOnUse">
<stop stop-color="#E09489"/>
<stop offset="0.08" stop-color="#E3998E"/>
<stop offset="0.68" stop-color="#F7BCB3"/>
<stop offset="1" stop-color="#FFCAC1"/>
</linearGradient>
<linearGradient id="paint9_linear_408_2057" x1="81.2604" y1="103.238" x2="73.7555" y2="103.238" gradientUnits="userSpaceOnUse">
<stop stop-color="#E09489"/>
<stop offset="0.32" stop-color="#EDAAA0"/>
<stop offset="0.74" stop-color="#FAC1B8"/>
<stop offset="1" stop-color="#FFCAC1"/>
</linearGradient>
<linearGradient id="paint10_linear_408_2057" x1="117.663" y1="61.6866" x2="117.663" y2="109.095" gradientUnits="userSpaceOnUse">
<stop stop-color="#C46C62"/>
<stop offset="0.4" stop-color="#DF988E"/>
<stop offset="0.79" stop-color="#F6BCB3"/>
<stop offset="1" stop-color="#FFCAC1"/>
</linearGradient>
<linearGradient id="paint11_linear_408_2057" x1="117.848" y1="201.716" x2="117.848" y2="129.155" gradientUnits="userSpaceOnUse">
<stop offset="0.01" stop-color="#2DA3AA"/>
<stop offset="0.14" stop-color="#2D8085"/>
<stop offset="0.33" stop-color="#15666B"/>
<stop offset="0.56" stop-color="#176B70"/>
<stop offset="0.82" stop-color="#1E8086"/>
<stop offset="1" stop-color="#13F2FF"/>
<stop offset="1" stop-color="#13F2FF"/>
</linearGradient>
<linearGradient id="paint12_linear_408_2057" x1="67.47" y1="258.739" x2="67.47" y2="217.186" gradientUnits="userSpaceOnUse">
<stop stop-color="#1A686C"/>
<stop offset="0.86" stop-color="#339AA0"/>
</linearGradient>
<linearGradient id="paint13_linear_408_2057" x1="72.1965" y1="222.046" x2="72.1965" y2="179.909" gradientUnits="userSpaceOnUse">
<stop stop-color="#C46C62"/>
<stop offset="0.4" stop-color="#DF988E"/>
<stop offset="0.79" stop-color="#F6BCB3"/>
<stop offset="1" stop-color="#FFCAC1"/>
</linearGradient>
<linearGradient id="paint14_linear_408_2057" x1="151.33" y1="145.948" x2="151.33" y2="160.699" gradientUnits="userSpaceOnUse">
<stop offset="0.01" stop-color="#166D72"/>
<stop offset="0.14" stop-color="#166D72"/>
<stop offset="0.33" stop-color="#166D72"/>
<stop offset="0.56" stop-color="#166D72"/>
<stop offset="0.82" stop-color="#166D72"/>
<stop offset="1" stop-color="#166D72"/>
</linearGradient>
<linearGradient id="paint15_linear_408_2057" x1="168.196" y1="258.875" x2="168.196" y2="217.204" gradientUnits="userSpaceOnUse">
<stop stop-color="#1A686C"/>
<stop offset="0.86" stop-color="#339AA0"/>
</linearGradient>
<linearGradient id="paint16_linear_408_2057" x1="163.502" y1="222.046" x2="163.502" y2="179.91" gradientUnits="userSpaceOnUse">
<stop stop-color="#C46C62"/>
<stop offset="0.4" stop-color="#DF988E"/>
<stop offset="0.79" stop-color="#F6BCB3"/>
<stop offset="1" stop-color="#FFCAC1"/>
</linearGradient>
</defs>
</svg>
