<svg width="17" height="16" viewBox="0 0 17 16" fill="none" xmlns="http://www.w3.org/2000/svg">
<path d="M15.8061 6.20429L12.5335 9.47693C12.4311 9.57928 12.2923 9.63678 12.1476 9.63678C12.0028 9.63678 11.864 9.57928 11.7617 9.47693C11.6593 9.37459 11.6018 9.23577 11.6018 9.09103C11.6018 8.94629 11.6593 8.80748 11.7617 8.70513L14.1036 6.36383H11.3976C10.0672 6.36346 8.77433 6.8053 7.72243 7.61987C6.67052 8.43444 5.91919 9.57554 5.58658 10.8637C5.55042 11.0039 5.46007 11.1239 5.3354 11.1974C5.21073 11.2709 5.06197 11.2919 4.92183 11.2558C4.78169 11.2196 4.66166 11.1292 4.58814 11.0046C4.51461 10.8799 4.49363 10.7311 4.52979 10.591C4.92225 9.06821 5.81005 7.71922 7.05341 6.75643C8.29676 5.79364 9.82503 5.27175 11.3976 5.27295H14.105L11.7617 2.93164C11.711 2.88097 11.6708 2.8208 11.6434 2.75459C11.6159 2.68838 11.6018 2.61741 11.6018 2.54574C11.6018 2.47408 11.6159 2.40311 11.6434 2.3369C11.6708 2.27068 11.711 2.21052 11.7617 2.15984C11.864 2.0575 12.0028 2 12.1476 2C12.2192 2 12.2902 2.01412 12.3564 2.04154C12.4226 2.06897 12.4828 2.10917 12.5335 2.15984L15.8061 5.43249C15.8568 5.48315 15.897 5.5433 15.9245 5.60952C15.9519 5.67573 15.9661 5.74671 15.9661 5.81839C15.9661 5.89007 15.9519 5.96105 15.9245 6.02726C15.897 6.09348 15.8568 6.15363 15.8061 6.20429ZM13.2384 12.9091H2.87506V4.72751C2.87506 4.58285 2.8176 4.44411 2.71531 4.34182C2.61302 4.23953 2.47428 4.18207 2.32962 4.18207C2.18496 4.18207 2.04623 4.23953 1.94394 4.34182C1.84165 4.44411 1.78418 4.58285 1.78418 4.72751V12.9091C1.78418 13.1984 1.89911 13.4759 2.10369 13.6805C2.30827 13.8851 2.58574 14 2.87506 14H13.2384C13.3831 14 13.5218 13.9425 13.6241 13.8402C13.7264 13.738 13.7839 13.5992 13.7839 13.4546C13.7839 13.3099 13.7264 13.1712 13.6241 13.0689C13.5218 12.9666 13.3831 12.9091 13.2384 12.9091Z" fill="white"/>
</svg>
