<svg width="50" height="68" viewBox="0 0 50 68" fill="none" xmlns="http://www.w3.org/2000/svg">
<path d="M9.39563 48.2391C7.69302 48.0369 5.86072 47.7757 4.62535 46.5867C3.95201 45.9387 3.52781 45.0723 3.23017 44.1864C1.75097 39.7838 3.42741 34.5142 7.17851 31.7754C7.71173 32.5103 8.3111 33.2927 9.18624 33.5346C10.0614 33.7765 11.2056 33.103 11.0433 32.2096C10.9334 31.6047 10.3299 31.2447 9.81593 30.9072C6.22852 28.5515 4.75133 23.7664 5.50649 19.5417C6.26166 15.317 8.90838 11.6346 12.0677 8.72996C11.6037 10.1312 11.2529 11.6068 11.4104 13.0745C11.568 14.5422 12.308 16.0103 13.5934 16.736C14.2582 17.1113 15.0316 17.2703 15.795 17.2674C18.2785 17.2579 20.5814 15.4836 21.4973 13.1751C22.4131 10.8667 22.0346 8.15684 20.7788 6.01425C19.523 3.87165 17.4651 2.27096 15.1916 1.27131C21.0537 -0.430674 27.7643 1.19649 32.1958 5.39446C36.6273 9.59244 38.615 16.2052 37.2325 22.1507C38.1379 21.5719 38.7903 20.6114 38.9949 19.5565C39.2881 21.8837 38.9736 24.2849 38.0908 26.4581C41.0872 25.1727 43.1898 22.0312 43.2357 18.771C46.8821 21.8978 48.8612 26.8666 48.3631 31.6442C47.8651 36.4217 44.9038 40.8755 40.691 43.1831C41.4512 43.144 42.2031 42.9506 42.8878 42.6179C41.6553 49.1097 36.6089 54.729 30.2864 56.6497C23.9639 58.5705 16.6446 56.708 12.0092 51.9988" fill="#FD951B"/>
<path d="M13.1746 49.343C12.0843 50.0121 10.6742 49.479 9.54759 48.8729C7.98942 48.0346 6.44901 47.0194 5.51591 45.5161C4.43423 43.7734 4.31336 41.5524 4.84357 39.571C5.37378 37.5896 6.49856 35.8164 7.77268 34.2091C7.72224 35.1906 8.32448 36.1737 9.2218 36.5747C10.1191 36.9756 11.2533 36.7683 11.9508 36.076C13.07 34.9649 12.8563 33.0439 12.0479 31.6897C11.2396 30.3356 9.97293 29.3223 9.00292 28.0789C7.13201 25.6805 6.45519 22.4769 6.82054 19.4572C7.1859 16.4375 8.52638 13.5944 10.3151 11.1343C9.43765 12.8627 9.94207 15.2194 10.6883 16.8993C11.7197 19.2211 13.4024 20.461 16.0084 19.7851C19.6832 18.8321 22.5688 15.4919 23.1502 11.7404C23.7315 7.98887 22.0684 4.0164 19.0957 1.65527C22.5001 2.26741 26.0686 2.9531 28.7375 5.15338C31.3964 7.34533 32.761 10.7258 33.6616 14.0519C34.311 16.4503 34.7765 18.9504 34.4552 21.4143C34.2714 22.8237 33.8324 24.2013 33.7924 25.6221C33.7525 27.0429 34.2121 28.5972 35.409 29.3638C36.271 29.9158 37.3728 29.9653 38.3778 29.771C42.0556 29.0597 44.6738 24.9202 43.7405 21.2925C46.1771 25.0371 46.776 29.8776 45.5048 34.1605C44.2336 38.4435 41.16 42.1237 37.2625 44.3076C38.586 44.7176 40.0681 44.5883 41.3007 43.9555C39.5545 48.7584 35.5309 52.6762 30.6831 54.2936C25.8353 55.9111 20.2653 55.1942 15.985 52.4019" fill="#FFCE00"/>
<path d="M9.04795 39.7525C10.5436 41.1022 12.9376 41.2075 14.6835 40.2025C16.4295 39.1975 17.5148 37.2396 17.7134 35.2349C17.9121 33.2302 17.2957 31.2012 16.2526 29.4777C15.1424 27.6433 13.4752 25.7684 13.9313 23.6733C14.4983 25.005 15.834 25.9186 17.2551 26.1927C18.6763 26.4668 20.1633 26.1615 21.4828 25.5666C24.1873 24.3473 26.2668 21.9193 27.2981 19.1377C28.3295 16.3561 28.3555 13.2538 27.6234 10.3789C32.2142 16.0486 33.8107 24.0128 31.7598 31.0139C32.6135 30.2812 33.3038 29.3591 33.7662 28.3335C33.9766 30.3381 33.8316 32.3794 33.34 34.3341C37.5739 35.4582 42.4553 33.0052 44.0799 28.937C44.1394 32.8477 42.2153 36.5797 39.5877 39.4768C36.96 42.3738 33.6586 44.5604 30.3945 46.7153C33.2933 47.1749 36.3253 46.757 38.9917 45.5307C37.6606 48.2518 35.2562 50.3575 32.5365 51.6916C29.8168 53.0257 26.7907 53.6352 23.7712 53.879C19.7951 54.2 16.1621 53.3054 12.8282 51.1469C10.954 49.9335 9.36278 48.7825 8.72629 46.5284C8.41734 45.4343 8.37137 44.2821 8.44932 43.1539C8.47581 42.7701 9.18303 39.8744 9.04795 39.7525Z" fill="#FDE41B"/>
<path opacity="0.15" d="M21.5882 68C29.9325 68 36.6968 67.1693 36.6968 66.1445C36.6968 65.1198 29.9325 64.2891 21.5882 64.2891C13.2439 64.2891 6.47949 65.1198 6.47949 66.1445C6.47949 67.1693 13.2439 68 21.5882 68Z" fill="#E50E0E"/>
<path d="M5.60113 28.8457C5.60113 28.8457 5.51282 28.8134 5.35756 28.7409C5.20209 28.6688 4.98313 28.5482 4.73387 28.363C4.23791 28.0007 3.62637 27.3216 3.34528 26.3851C3.06576 25.4482 3.20369 24.5447 3.41915 23.9696C3.52568 23.6779 3.64243 23.4568 3.73273 23.3112C3.82266 23.1654 3.87872 23.0898 3.87872 23.0898C3.87872 23.0898 3.84601 23.1809 3.7896 23.3377C3.73433 23.497 3.66702 23.7312 3.61276 24.0223C3.50146 24.6019 3.47797 25.4277 3.72975 26.2701C3.98204 27.1123 4.45527 27.7894 4.8667 28.2126C5.07192 28.426 5.25682 28.5848 5.39049 28.6876C5.52378 28.7876 5.60113 28.8457 5.60113 28.8457Z" fill="#FDA238"/>
<path d="M49.4371 28.5693C49.4371 28.5693 49.4595 28.4704 49.4982 28.2993C49.52 28.2137 49.5439 28.1087 49.5603 27.9842C49.5783 27.8604 49.609 27.7226 49.618 27.566C49.634 27.4109 49.6506 27.2421 49.6506 27.0595C49.6622 26.8781 49.6488 26.6839 49.6436 26.4811C49.6153 26.0754 49.5554 25.6342 49.4476 25.18C49.3332 24.7274 49.1823 24.3086 49.0198 23.9357C48.9306 23.7535 48.8527 23.5751 48.7585 23.4197C48.6742 23.2578 48.5813 23.1158 48.4954 22.9856C48.415 22.8509 48.3242 22.743 48.2509 22.6415C48.1788 22.5387 48.109 22.4567 48.0501 22.3908C47.9367 22.2571 47.8711 22.1797 47.8711 22.1797C47.8711 22.1797 47.9533 22.2396 48.0953 22.3432C48.1686 22.3955 48.256 22.4625 48.3483 22.5509C48.4417 22.6378 48.5556 22.732 48.6604 22.8551C48.7707 22.9738 48.8896 23.1068 48.9998 23.2632C49.1199 23.4134 49.2235 23.5899 49.3361 23.7748C49.5453 24.1522 49.7337 24.594 49.8561 25.0799C49.9722 25.5673 50.0095 26.046 49.9985 26.4775C49.9841 26.6935 49.9739 26.8979 49.9367 27.0866C49.9114 27.2763 49.8675 27.4491 49.8245 27.6054C49.7886 27.763 49.7312 27.8991 49.6885 28.0194C49.6475 28.1404 49.601 28.2403 49.5603 28.3206C49.4823 28.4781 49.4371 28.5693 49.4371 28.5693Z" fill="#FDA238"/>
<path d="M45.5713 42.2461C45.5713 42.2461 45.5613 42.2857 45.5454 42.3487C45.5291 42.4152 45.4983 42.5096 45.4519 42.6234C45.3601 42.8508 45.1873 43.1535 44.9191 43.4229C44.6501 43.6915 44.3475 43.8647 44.1203 43.9568C44.0065 44.0034 43.9122 44.0343 43.8458 44.0507C43.7828 44.0667 43.7432 44.0767 43.7432 44.0767C43.7432 44.0767 43.8801 44.0114 44.0837 43.8854C44.2877 43.7598 44.5509 43.5635 44.8055 43.3095C45.0591 43.0546 45.2551 42.791 45.3804 42.5869C45.5061 42.3832 45.5713 42.2461 45.5713 42.2461Z" fill="#FDA238"/>
<path d="M38.8991 13.0339C38.8991 13.0339 38.8599 12.9223 38.7914 12.7276C38.7594 12.6292 38.7191 12.5095 38.6665 12.3727C38.615 12.2357 38.5645 12.0791 38.4943 11.9103C38.3665 11.57 38.1984 11.1744 38.0069 10.7435C37.8093 10.3145 37.585 9.85134 37.3355 9.37233C37.0819 8.89551 36.8271 8.4485 36.5852 8.04272C36.3384 7.64094 36.1074 7.27849 35.8992 6.98048C35.7999 6.82712 35.6993 6.69684 35.6156 6.57681C35.5326 6.45593 35.4567 6.35505 35.3937 6.2729C35.272 6.10626 35.2021 6.01074 35.2021 6.01074C35.2021 6.01074 35.3034 6.07241 35.4801 6.17997C35.5699 6.23505 35.6779 6.30521 35.797 6.39481C35.9168 6.48354 36.0574 6.58215 36.1988 6.70625C36.4909 6.94555 36.8149 7.26024 37.1412 7.64186C37.462 8.02688 37.7819 8.48121 38.0544 8.99396C38.3228 9.50885 38.5163 10.0297 38.6521 10.5121C38.782 10.9971 38.858 11.4423 38.8899 11.8186C38.9122 12.0054 38.9139 12.1771 38.9192 12.3261C38.9257 12.475 38.9224 12.6038 38.917 12.709C38.9057 12.9155 38.8991 13.0339 38.8991 13.0339Z" fill="#FDA238"/>
<path d="M18.4294 11.0412C18.4294 11.0412 18.4268 10.9221 18.4223 10.7139C18.4224 10.6092 18.4202 10.4814 18.4079 10.3332C18.3973 10.1852 18.3946 10.0176 18.3699 9.83322C18.3376 9.46426 18.2691 9.02995 18.1718 8.55593C18.0662 8.08302 17.9273 7.57122 17.7445 7.0457C17.556 6.52221 17.3421 6.03694 17.1267 5.60289C16.9042 5.17316 16.6843 4.79243 16.4773 4.4853C16.3805 4.32644 16.2772 4.19445 16.1924 4.07266C16.1087 3.94978 16.03 3.84903 15.9641 3.76767C15.8366 3.60303 15.7637 3.50879 15.7637 3.50879C15.7637 3.50879 15.857 3.58334 16.0199 3.71357C16.1032 3.77941 16.2029 3.86272 16.3102 3.9683C16.4186 4.07282 16.5483 4.18783 16.6729 4.33167C16.9353 4.6087 17.2169 4.96844 17.4916 5.39543C17.7588 5.8262 18.0146 6.32674 18.2134 6.87976C18.4067 7.43476 18.5227 7.98474 18.5859 8.48772C18.6409 8.99241 18.6483 9.44926 18.6185 9.82967C18.6122 10.0199 18.5837 10.1908 18.5652 10.3402C18.5481 10.4899 18.5231 10.6173 18.4997 10.7209C18.455 10.9246 18.4294 11.0412 18.4294 11.0412Z" fill="#FDA238"/>
<path d="M0.693358 43.1415C0.693358 43.1415 0.641343 43.0279 0.55014 42.8288C0.502953 42.7278 0.449039 42.6025 0.400088 42.4522C0.349483 42.3025 0.28277 42.1328 0.238051 41.938C0.186036 41.7445 0.132447 41.5308 0.0982227 41.2969C0.0515231 41.0642 0.0330281 40.8121 0.0101393 40.5459C-0.0168716 40.0135 0.00715539 39.4221 0.117803 38.8137C0.235284 38.2067 0.42737 37.6468 0.645654 37.1605C0.763515 36.9207 0.872238 36.6925 1.00008 36.4925C1.11685 36.2869 1.24429 36.1072 1.36296 35.9458C1.47526 35.7804 1.59893 35.6465 1.70041 35.5253C1.80053 35.4029 1.89619 35.3058 1.97678 35.2288C2.13394 35.0763 2.22371 34.9893 2.22371 34.9893C2.22371 34.9893 2.15715 35.0948 2.04051 35.2795C1.97977 35.3709 1.90795 35.4839 1.8346 35.6213C1.75991 35.7576 1.666 35.9058 1.58475 36.0829C1.4972 36.256 1.40226 36.4446 1.31732 36.6552C1.22126 36.8601 1.14357 37.0894 1.05359 37.3256C0.890842 37.8053 0.741197 38.3391 0.630414 38.91C0.526656 39.4821 0.472497 40.0339 0.450151 40.5399C0.448361 40.7927 0.437622 41.0346 0.452809 41.2603C0.45563 41.4873 0.475644 41.6976 0.494465 41.8906C0.505963 42.0851 0.539754 42.2573 0.559931 42.4114C0.578427 42.5661 0.604352 42.6975 0.627837 42.8046C0.669601 43.0191 0.693358 43.1415 0.693358 43.1415Z" fill="#FDA238"/>
<path d="M42.7198 48.0254C42.7198 48.0254 42.6146 48.3777 42.3735 48.9215C42.1339 49.4647 41.742 50.1955 41.1867 50.9181C40.6309 51.6401 40.0261 52.2073 39.5625 52.5785C39.3357 52.762 39.1326 52.9229 38.9556 52.9571C38.7787 52.9958 38.6935 52.9244 38.6953 52.931C38.8198 53.2287 39.7947 52.0651 40.8769 50.6799C41.4168 49.9771 41.8798 49.3182 42.2021 48.8275C42.5094 48.3513 42.7198 48.0254 42.7198 48.0254Z" fill="#FDA238"/>
<path d="M41.2814 31.1834C42.0255 37.4861 39.0244 44.0435 35.3216 48.9167C30.5403 55.2093 21.9379 59.8885 14.074 56.3401C11.2016 55.0422 6.13194 51.4064 7.17929 47.6486C7.2245 47.488 7.28519 47.3232 7.4165 47.22C7.55836 47.1134 7.74885 47.0984 7.92524 47.0973C12.9597 47.0673 17.4185 44.8165 18.4085 39.474C18.8308 37.2028 19.2412 34.9323 19.6748 32.6626C20.3161 29.3053 22.0454 26.1345 24.8288 24.0888C27.5266 22.1059 32.3527 20.2907 35.4435 22.4699C38.4672 24.6019 40.8303 27.3663 41.2814 31.1834Z" fill="#FC1A1A"/>
<path d="M39.2421 26.7821C40.1776 28.9707 40.6585 31.0854 40.7491 33.4562C40.8383 35.7864 40.1352 38.1923 39.5326 40.4453C39.1321 41.9427 38.6137 43.4061 38.0003 44.8292C40.3252 40.6668 41.8326 35.8553 41.281 31.183C40.932 28.2305 39.4366 25.9098 37.3789 24.0225C37.9666 24.8109 38.8548 25.8759 39.2421 26.7821Z" fill="#FDE41B"/>
<path d="M24.3873 25.3471C25.72 24.1138 27.3831 23.2028 29.052 22.4765C30.4567 21.8652 32.109 21.8035 33.629 21.6842C33.6001 21.6696 33.5723 21.6536 33.5431 21.6392C30.6143 20.9787 27.0198 22.4784 24.8288 24.0887C22.1693 26.0433 20.4748 29.0257 19.7695 32.2159C21.1067 29.8552 22.4007 27.1855 24.3873 25.3471Z" fill="#FDE41B"/>
<g opacity="0.55">
<path d="M36.7852 43.1638C34.7317 45.2244 32.5373 47.1411 30.1702 48.8353C27.7956 50.5349 25.2481 52.0336 22.4785 52.9871C20.9681 53.5071 19.4202 53.9413 17.8364 54.1666C16.4997 54.3569 15.1579 54.3711 13.8184 54.206C12.5929 54.0549 11.3743 53.7878 10.2121 53.3676C9.86546 53.2422 9.52023 53.1025 9.18359 52.944C10.6757 54.4724 12.6459 55.6953 14.0737 56.3404C21.9375 59.8888 30.54 55.2096 35.3213 48.9171C37.2133 46.427 38.6308 43.4105 39.5538 40.2412C38.6719 41.2551 37.7276 42.2181 36.7852 43.1638Z" fill="#E50E0E"/>
</g>
<g opacity="0.37">
<path d="M27.9627 51.7852C26.7355 52.1317 25.4559 52.3233 24.1866 52.3195C23.6266 52.5633 23.0574 52.7868 22.4785 52.9861C20.9681 53.5061 19.4202 53.9402 17.8364 54.1656C16.4997 54.3559 15.1579 54.37 13.8184 54.2049C12.5929 54.0539 11.3743 53.7868 10.2121 53.3665C9.86546 53.2412 9.52023 53.1015 9.18359 52.9429C10.6757 54.4713 12.6459 55.6943 14.0737 56.3394C21.9375 59.8878 30.54 55.2086 35.3213 48.9161C35.5285 48.6434 35.7326 48.3639 35.9349 48.0811C34.9537 48.7521 33.9092 49.3301 32.8356 49.8421C31.2693 50.5888 29.6356 51.313 27.9627 51.7852Z" fill="#E50E0E"/>
</g>
<path d="M28.5339 26.0722C28.5603 25.6869 28.3303 25.3661 27.9949 25.1986C27.1592 24.7812 26.1116 25.2488 25.4957 25.8421C25.4864 25.851 25.4795 25.8612 25.4727 25.8715C25.0713 26.2156 24.7512 26.6529 24.5566 27.1499C24.4156 27.5101 24.2959 27.954 24.4864 28.3185C24.692 28.712 25.1757 28.801 25.5685 28.6602C25.9872 28.5103 26.286 28.1279 26.6231 27.8559C26.9952 27.5556 27.4046 27.3342 27.8083 27.0829C28.1694 26.8581 28.5032 26.52 28.5339 26.0722Z" fill="white"/>
<path d="M24.7615 30.0187C24.7803 29.913 24.7726 29.8104 24.7383 29.7111C24.7212 29.6084 24.6798 29.5153 24.6141 29.4318C24.5529 29.3413 24.4743 29.2726 24.3783 29.2256C24.2899 29.1612 24.1902 29.1231 24.079 29.1113C24.062 29.1111 24.0451 29.111 24.0282 29.1108C23.8837 29.0883 23.7335 29.1027 23.595 29.1568C23.5319 29.1814 23.3844 29.2778 23.4085 29.2587C23.3794 29.2798 23.3534 29.3044 23.3303 29.3327C23.3033 29.3565 23.2773 29.3813 23.2524 29.4071C23.2317 29.438 23.2124 29.4697 23.1947 29.5025C23.1714 29.533 23.152 29.5656 23.1365 29.6002C23.1042 29.6675 23.0857 29.7441 23.0754 29.819C23.0547 29.9689 23.0751 30.1091 23.1272 30.2503C23.1554 30.3265 23.2018 30.3957 23.2435 30.465C23.2914 30.5151 23.3393 30.5653 23.3871 30.6155C23.4717 30.6887 23.5677 30.7355 23.675 30.7561C23.7416 30.7848 23.8108 30.7949 23.8827 30.7865C23.9868 30.7964 24.0878 30.78 24.1857 30.7371C24.1916 30.7356 24.1971 30.7336 24.2028 30.7314C24.2354 30.7156 24.2671 30.6982 24.2981 30.6792C24.33 30.6621 24.3617 30.6447 24.3932 30.6268C24.3983 30.6234 24.403 30.62 24.4077 30.616C24.4344 30.591 24.461 30.5656 24.4874 30.5401C24.5152 30.516 24.5416 30.4906 24.5668 30.4639C24.5707 30.4593 24.5741 30.4545 24.5776 30.4495C24.6147 30.388 24.6518 30.3266 24.6889 30.2651C24.691 30.2618 24.6929 30.2582 24.6946 30.2546C24.7289 30.1808 24.7495 30.099 24.7615 30.0187Z" fill="white"/>
<path d="M39.231 24.5267C38.8012 23.2224 37.8955 22.175 36.6732 21.5589C36.6719 21.5577 36.6705 21.5566 36.6692 21.5556C36.669 21.5559 36.6689 21.5562 36.6687 21.5565C36.6422 21.5432 36.6165 21.5289 36.5897 21.516C36.5848 21.4488 36.5739 21.3816 36.5541 21.3159C36.5072 21.1609 36.4058 21.074 36.247 21.0497C36.2457 21.0495 36.2445 21.0496 36.2432 21.0495C36.2442 20.9733 36.2385 20.8957 36.2242 20.8171C36.2045 20.7091 36.1429 20.6373 36.0652 20.5973C36.1464 20.435 36.2266 20.2725 36.31 20.1151C36.5409 19.6795 36.7718 19.2437 37.0027 18.8081C37.3947 18.0684 37.8488 17.2149 37.4668 16.3745C37.1752 15.733 36.412 15.453 35.809 15.799C35.6166 15.7329 35.3734 15.8189 35.3731 16.0794C35.3721 16.9567 35.2499 17.8247 34.9893 18.6632C34.8627 19.0702 34.7075 19.4688 34.5229 19.8531C34.4481 20.009 34.3782 20.2161 34.193 20.2544C34.0003 20.2944 33.7539 20.2462 33.5578 20.238C33.1007 20.2188 32.6437 20.1997 32.1866 20.1806C31.7926 20.1641 31.3876 20.1294 30.9972 20.2042C30.755 20.2507 30.519 20.3382 30.2902 20.4482C30.259 20.4495 30.2277 20.449 30.1965 20.4505C30.0408 20.4578 29.9362 20.5524 29.8874 20.668C29.5386 20.8864 29.2155 21.1516 28.9307 21.413C28.7054 21.6198 28.8787 22.1007 29.2157 21.9915C29.8257 21.7937 30.4503 21.6457 31.0856 21.5571C31.6865 21.4733 32.3516 21.395 32.957 21.4732C33.2805 21.515 33.1325 21.7392 33.0081 21.9357C32.8796 22.1386 32.7557 22.3307 32.704 22.5693C32.5853 23.1167 32.9351 23.5661 33.5133 23.501C34.0495 23.4405 34.5566 23.1405 34.911 22.7417C34.997 22.6449 35.0932 22.5214 35.1771 22.3847C35.2304 22.433 35.2979 22.4646 35.3732 22.466C35.4236 22.467 35.4688 22.4579 35.5142 22.4492C35.4322 22.5598 35.4178 22.7125 35.5372 22.8426C35.6923 23.0112 35.8837 23.0905 36.0964 23.0965C36.4772 23.2876 36.7976 23.5807 37.1109 23.8784C37.5461 24.2918 37.9802 24.7064 38.4148 25.1204C38.5642 25.2626 38.8178 25.2852 38.9424 25.0894C38.9839 25.0241 39.0102 24.9576 39.0279 24.8906C39.1799 24.8501 39.2949 24.7206 39.231 24.5267Z" fill="#49C00F"/>
<path d="M38.8902 24.4979C38.2659 23.4047 37.3208 22.5407 36.1715 22.0246C35.9185 21.911 35.6275 21.7723 35.3466 21.7577C35.021 21.7407 34.7441 21.9836 34.4859 22.1492C34.1287 22.3782 33.2674 23.1331 32.8756 22.6185C32.615 22.2763 32.113 22.7153 32.3719 23.0552C32.7316 23.5276 33.3697 23.5282 33.8699 23.3015C34.1591 23.1704 34.4225 22.9766 34.6888 22.8059C34.8415 22.708 34.9926 22.607 35.1471 22.512C35.3063 22.414 35.3607 22.4264 35.5377 22.4884C36.6966 22.8941 37.6841 23.7276 38.2923 24.7924C38.5043 25.1637 39.1034 24.8713 38.8902 24.4979Z" fill="#3E9419"/>
<path d="M36.048 15.84C35.9986 15.4142 35.3456 15.549 35.3948 15.9733C35.5641 17.4341 35.1276 18.9135 34.2269 20.0701C33.9628 20.4093 34.5161 20.7817 34.7784 20.4448C35.7926 19.1425 36.2375 17.475 36.048 15.84Z" fill="#CCED2C"/>
<path d="M32.7848 21.7921C31.8091 21.6388 30.7902 21.6538 29.7539 21.8718L32.7848 21.7921Z" fill="#FC1A1A"/>
<path d="M35.0396 22.8288C38.0932 24.2881 40.2575 27.301 40.8607 30.6105C41.1974 32.458 41.1098 34.4124 40.797 36.2564C40.4717 38.1739 39.8853 40.0484 39.1147 41.8326C37.657 45.2076 35.6009 48.457 33.0043 51.0724C30.5819 53.5124 27.6091 55.496 24.3092 56.5177C20.9964 57.5435 17.3999 57.4881 14.2169 56.0408C12.9471 55.4635 11.7399 54.7055 10.656 53.8287C9.50063 52.8943 8.39888 51.7803 7.77378 50.4124C7.50101 49.8155 7.34692 49.1604 7.37612 48.5026C7.38312 48.3448 7.4004 48.1886 7.43069 48.0336C7.46223 47.8722 7.48981 47.5893 7.62766 47.486C7.76955 47.3796 8.05723 47.4301 8.22808 47.426C8.42855 47.4213 8.62891 47.4128 8.82907 47.4007C10.304 47.3114 11.7791 47.0276 13.1472 46.4594C14.4424 45.9215 15.6373 45.1385 16.575 44.0877C17.5633 42.9802 18.2371 41.6294 18.5938 40.192C18.8479 39.1681 18.9983 38.1125 19.1893 37.0754C19.3919 35.9759 19.5946 34.8766 19.8015 33.778C20.1039 32.1717 20.458 30.6065 21.1625 29.1213C22.4716 26.3616 24.6986 24.1083 27.5418 22.9433C28.3005 22.6324 29.0887 22.4001 29.8906 22.2311C30.3101 22.1427 30.1326 21.5 29.7135 21.5884C26.4932 22.267 23.6578 24.0766 21.7583 26.7723C20.8642 28.0412 20.1981 29.4696 19.7506 30.9542C19.4888 31.8225 19.3264 32.7106 19.1588 33.6008C18.9451 34.7354 18.7359 35.8708 18.5267 37.0063C18.1923 38.8214 17.9769 40.6886 17.0399 42.3141C16.3208 43.5618 15.272 44.5756 14.0258 45.2919C12.7427 46.0294 11.2893 46.4533 9.82615 46.6412C9.4331 46.6917 9.03776 46.725 8.642 46.7444C8.23551 46.7643 7.73793 46.69 7.36281 46.8694C6.70153 47.1857 6.67021 48.3262 6.71628 48.9586C6.82574 50.4613 7.67351 51.7909 8.66405 52.879C9.7222 54.0414 11.0068 55.0103 12.3546 55.812C15.3064 57.5679 18.7075 58.233 22.1038 57.7123C25.6357 57.1708 28.9171 55.4499 31.6574 53.1988C34.5456 50.8263 36.8156 47.7641 38.5725 44.4809C40.4466 40.9786 41.7532 37.0489 41.7285 33.0426C41.717 31.1926 41.4047 29.3892 40.6306 27.7013C39.9076 26.1249 38.8231 24.6937 37.478 23.5961C36.8307 23.0679 36.1301 22.6136 35.376 22.2533C34.9909 22.0692 34.6523 22.6437 35.0396 22.8288Z" fill="#841918"/>
<path d="M32.8735 21.4712C31.8022 21.3065 30.7276 21.3313 29.6655 21.5509C29.4891 21.5874 29.3872 21.7954 29.4327 21.9609C29.483 22.144 29.6658 22.2302 29.8427 22.1937C30.779 22.0001 31.7505 21.9685 32.6963 22.1139C32.874 22.1412 33.0547 22.0689 33.1063 21.8811C33.1497 21.7233 33.0525 21.4987 32.8735 21.4712Z" fill="#841918"/>
<path d="M32.5467 21.5413C32.3078 21.9096 32.1119 22.3669 32.1346 22.8147C32.159 23.2957 32.4596 23.7335 32.9421 23.8531C33.4166 23.9706 33.91 23.7793 34.3174 23.5453C34.7948 23.2711 35.2379 22.9246 35.6903 22.6113C35.838 22.5089 35.9056 22.3191 35.8098 22.1553C35.7242 22.009 35.5025 21.9328 35.3538 22.0357C34.9585 22.3096 34.5685 22.5945 34.1654 22.8567C33.8832 23.0401 33.537 23.2294 33.2183 23.2225C32.96 23.2169 32.8037 23.0106 32.8 22.7779C32.7975 22.6219 32.828 22.4994 32.8864 22.3338C32.939 22.1849 33.0283 22.0227 33.1223 21.8777C33.2203 21.7267 33.153 21.5096 33.0027 21.4217C32.8409 21.3271 32.645 21.3898 32.5467 21.5413Z" fill="#841918"/>
<path d="M28.9176 22.167C29.0416 21.1795 30.2819 20.7631 31.0998 20.577C32.0508 20.3606 33.1573 20.2733 34.1071 20.5453C34.5202 20.6636 34.6966 20.0206 34.2843 19.9025C33.1673 19.5827 31.8547 19.6925 30.7439 19.9774C29.6174 20.2663 28.4104 20.8978 28.2511 22.167C28.1978 22.5915 28.8649 22.5876 28.9176 22.167Z" fill="#841918"/>
<path d="M35.9882 21.3686C36.8191 21.7267 37.538 22.4168 38.0823 23.1261C38.3426 23.4653 38.5879 23.8432 38.7304 24.2487C38.7932 24.4273 38.8385 24.6059 38.8422 24.7749C38.8454 24.9266 38.8224 25.0528 38.7583 25.1721C38.5555 25.55 39.1307 25.887 39.3339 25.5085C39.8072 24.6269 39.2341 23.5677 38.7045 22.8522C38.0942 22.0277 37.2809 21.2052 36.3247 20.793C36.1595 20.7219 35.9673 20.744 35.8687 20.9126C35.7865 21.0532 35.8221 21.297 35.9882 21.3686Z" fill="#841918"/>
<path d="M34.3736 20.467C35.016 19.6577 35.4743 18.7062 35.5989 17.6733C35.6283 17.4301 35.6375 17.1851 35.6185 16.9406C35.6014 16.7198 35.5252 16.4875 35.6039 16.2712C35.7287 15.9283 36.0469 15.8242 36.3806 15.8409C36.6761 15.8556 37.0101 15.8353 37.2255 16.0755C37.3982 16.2679 37.4396 16.5388 37.439 16.7882C37.4374 17.4893 37.1472 18.196 36.8584 18.8228C36.5434 19.5063 36.1674 20.158 35.7821 20.8036C35.5618 21.1729 36.1378 21.5085 36.3577 21.1401C36.7372 20.5041 37.1077 19.8623 37.4198 19.1899C37.7682 18.4392 38.1132 17.604 38.1054 16.7615C38.0975 15.9148 37.6049 15.2531 36.7229 15.1932C36.3707 15.1693 36.0235 15.1381 35.6908 15.2843C35.2394 15.4827 34.9252 15.9299 34.9027 16.4246C34.889 16.7243 34.9705 17.0237 34.9602 17.327C34.9498 17.6346 34.895 17.9363 34.8117 18.2322C34.6318 18.8711 34.3149 19.476 33.9023 19.9957C33.6382 20.3282 34.1068 20.8029 34.3736 20.467Z" fill="#841918"/>
</svg>
