<svg width="17" height="18" viewBox="0 0 17 18" fill="none" xmlns="http://www.w3.org/2000/svg">
<path d="M8.26153 0.857422C3.72638 0.857422 0.0307617 4.55304 0.0307617 9.08819C0.0307617 13.6233 3.72638 17.319 8.26153 17.319C12.7967 17.319 16.4923 13.6233 16.4923 9.08819C16.4923 4.55304 12.7967 0.857422 8.26153 0.857422ZM12.1382 8.02639L8.02283 12.1418C7.85822 12.2982 7.65245 12.3805 7.43845 12.3805C7.22445 12.3805 7.01869 12.2982 6.85408 12.1418L4.38485 9.67254C4.06385 9.35154 4.06385 8.82484 4.38485 8.50384C4.70584 8.18284 5.2326 8.18284 5.5536 8.50384L7.43845 10.397L10.9695 6.85768C11.2905 6.53668 11.8172 6.53668 12.1382 6.85768C12.4592 7.17868 12.4592 7.70539 12.1382 8.02639Z" fill="#4B4A4A"/>
</svg>
