<svg width="64" height="64" viewBox="0 0 64 64" fill="none" xmlns="http://www.w3.org/2000/svg">
<g clip-path="url(#clip0_540_121170)">
<path d="M63.7406 0.510742H0.261719V63.9896H63.7406V0.510742Z" stroke="black" stroke-width="0.0211596" stroke-miterlimit="10"/>
<path d="M24.1737 16.4375C24.1737 16.4375 15.8489 26.9149 18.7884 33.8603C21.7279 40.8058 20.2939 41.5997 20.0072 43.1871C19.7205 44.7745 10.0232 52.2897 32.945 54.2076C47.1755 55.3983 50.9677 51.8849 45.0286 39.8798C45.0286 36.9693 46.8928 26.8487 44.8854 23.0122C42.878 19.1758 38.7914 16.662 33.4141 16.9927C28.0368 17.3235 24.1737 16.4375 24.1737 16.4375Z" fill="#BA936A"/>
<path d="M44.2987 30.197C43.6946 31.08 42.8264 31.1281 42.6749 31.1145C42.4319 31.0939 42.1919 31.0457 41.9597 30.9708C41.9317 30.9636 41.9043 30.954 41.8778 30.9421C41.8355 30.9277 41.7945 30.9143 41.7534 30.8985C41.7528 30.8983 41.7522 30.8979 41.7517 30.8974C41.7512 30.8969 41.7508 30.8964 41.7505 30.8957C41.7503 30.8951 41.7501 30.8944 41.7502 30.8937C41.7502 30.893 41.7504 30.8923 41.7507 30.8917C42.5097 29.2876 42.4011 27.4742 41.8266 25.8197C41.8165 25.7905 41.8055 25.7611 41.7957 25.7321C41.7784 25.6839 41.7608 25.6357 41.7428 25.5878C41.5881 25.1846 41.4096 24.7909 41.2081 24.4088C41.0691 24.1477 40.9204 23.894 40.7638 23.6503C40.6241 23.434 40.4843 23.2059 40.3355 22.9806C40.3144 22.949 40.2932 22.9171 40.2706 22.8855C40.0964 22.6269 39.9012 22.383 39.687 22.1564C39.5716 22.0394 39.4458 21.9332 39.3112 21.839C38.6227 21.3642 37.859 21.5004 37.1146 21.7596C36.6068 21.9374 36.1074 22.1325 35.5943 22.2675C35.5232 22.2872 35.4521 22.3056 35.3801 22.3216C35.3672 22.3244 35.3541 22.3263 35.3412 22.3293C35.0494 22.3954 34.7517 22.4323 34.4525 22.4393C33.9066 22.4488 33.3562 22.4456 32.8114 22.408C32.3203 22.3741 31.8054 22.3322 31.3378 22.1693C30.8702 22.0064 30.4324 21.7717 29.9857 21.5557L29.8742 21.5026C29.8404 21.4865 29.8064 21.4707 29.7724 21.4552C29.706 21.4245 29.6387 21.3949 29.5714 21.3659C29.3433 21.2654 29.1076 21.1829 28.8666 21.1191C28.8353 21.1111 28.8042 21.1052 28.7729 21.098C28.7415 21.0908 28.7073 21.0849 28.6745 21.0794C27.961 20.9628 27.3143 21.2224 26.7826 21.7281C26.2508 22.2338 25.8547 22.8496 25.3808 23.4031C24.8556 24.0167 24.1882 24.4632 23.4992 24.8731C22.6457 25.3809 21.8065 25.8707 21.087 26.5658C20.3793 27.2491 19.7397 27.9997 19.1774 28.8069C18.8015 29.3446 18.4616 29.9066 18.16 30.4893C18.1545 31.6611 18.3397 32.8007 18.7874 33.8583C21.7269 40.8037 20.2929 41.5976 20.0062 43.185C19.7195 44.7724 10.0223 52.2877 32.944 54.2056C36.5179 54.5046 39.4329 54.5067 41.7012 54.1523C41.7824 54.1001 41.8629 54.0464 41.9426 53.9912C43.0505 53.2212 43.9509 52.1637 44.3677 50.8657C44.582 50.198 44.6838 49.5037 44.6392 48.8025C44.5905 48.0407 44.4123 47.2925 44.1595 46.5748C43.606 45.0043 42.7373 43.5441 41.728 42.2252C40.8313 41.0532 39.8046 39.9269 38.592 39.0739C38.591 39.0733 38.5903 39.0724 38.59 39.0714C38.5897 39.0703 38.5897 39.0692 38.5902 39.0681C38.5906 39.0671 38.5914 39.0663 38.5924 39.0658C38.5934 39.0653 38.5945 39.0652 38.5956 39.0655C39.2204 39.1774 39.8846 39.1594 40.4646 38.875C40.9724 38.627 41.3781 38.2191 41.6707 37.7396C41.9925 37.2121 42.1997 36.6207 42.334 36.0193C42.3719 35.8488 42.4058 35.6774 42.4331 35.5049C42.4483 35.4095 42.4627 35.3145 42.4754 35.2184C42.4889 35.1126 42.4794 35.0879 42.3734 35.0963C42.0029 35.126 41.6569 34.9927 41.2898 34.9846C41.2869 34.9846 41.2826 34.98 41.2854 34.9787C42.56 34.3604 43.3192 33.0623 43.83 32.3469C44.1151 31.9499 44.3453 30.1291 44.2987 30.197Z" fill="#D1AA78"/>
<path d="M37.6425 54.6127C36.2561 54.6127 34.6704 54.5389 32.9294 54.3933C28.1695 53.9949 24.4712 53.3205 21.9374 52.3889C19.7791 51.5954 18.4005 50.5882 17.8402 49.3954C16.9304 47.4593 18.2947 45.502 19.1976 44.2062C19.5138 43.7528 19.7867 43.3598 19.824 43.1544C19.8781 42.8554 19.9687 42.5896 20.0648 42.308C20.4816 41.0858 21.0006 39.5649 18.617 33.9328C17.0711 30.2805 18.631 25.6793 20.2116 22.4626C21.9145 18.9971 24.007 16.3475 24.0279 16.3221L24.1007 16.2305L24.215 16.2565C24.2423 16.2628 26.9869 16.8811 30.9979 16.8811C31.7994 16.8811 32.6084 16.8562 33.4025 16.8075C33.7199 16.7878 34.0405 16.7779 34.353 16.7779C36.7711 16.7779 38.9565 17.3492 40.849 18.4747C42.6348 19.5407 44.0894 21.0818 45.0504 22.9262C46.5625 25.8162 45.918 32.1916 45.4906 36.4104C45.3456 37.8437 45.2199 39.0856 45.2155 39.8368C47.9891 45.4546 48.6061 49.1582 47.1579 51.4906C45.8342 53.6208 42.8109 54.6127 37.6425 54.6127ZM24.2486 16.645C23.8714 17.1353 22.0521 19.5599 20.5423 22.6332C18.9977 25.7785 17.4689 30.2671 18.9594 33.7887C21.3982 39.5513 20.8538 41.1468 20.4166 42.4286C20.3252 42.6965 20.2389 42.9493 20.1898 43.2208C20.1382 43.5073 19.8724 43.8899 19.5025 44.4193C18.6485 45.6445 17.358 47.4959 18.1765 49.2378C19.3284 51.6887 24.3024 53.2987 32.9603 54.0232C34.6911 54.168 36.2662 54.2414 37.6425 54.2414C42.6698 54.2414 45.5928 53.3053 46.841 51.2951C48.2183 49.0772 47.5894 45.4762 44.8619 39.9629L44.8427 39.9239V39.8806C44.8427 39.1156 44.9713 37.8448 45.1201 36.3736C45.5433 32.199 46.1808 25.8903 44.7204 23.0991C42.7424 19.3185 38.9635 17.1503 34.3521 17.1503C34.0472 17.1503 33.7351 17.16 33.4245 17.1791C32.623 17.2284 31.8062 17.2533 30.9971 17.2533C27.4093 17.2529 24.8174 16.7616 24.2486 16.645Z" fill="#231F20"/>
<path d="M48.3211 39.2139C48.3211 39.7755 47.8412 40.2308 47.2489 40.2308C46.6567 40.2308 46.1768 39.7755 46.1768 39.2139C46.1768 38.6523 46.6569 38.1982 47.2489 38.1982C47.841 38.1982 48.3211 38.6523 48.3211 39.2139Z" fill="#231F20"/>
<path d="M47.4971 38.5517L47.5301 38.5604C47.6855 38.5981 47.83 38.6715 47.952 38.7748C48.0272 38.8409 48.088 38.9218 48.1307 39.0124C48.1735 39.103 48.1972 39.2013 48.2004 39.3014C48.2027 39.4258 48.1759 39.5489 48.1221 39.6611C48.061 39.7852 47.9714 39.893 47.8606 39.9758C47.6302 40.1544 47.3016 40.2149 46.9799 40.1711C46.8131 40.147 46.6519 40.0931 46.5041 40.012C46.3509 39.9255 46.2146 39.8119 46.102 39.6768C45.8712 39.4036 45.7341 39.0443 45.7053 38.6732C45.6904 38.4859 45.7029 38.2974 45.7425 38.1137C45.7801 37.9279 45.8464 37.749 45.9389 37.5835C46.0345 37.417 46.1666 37.2743 46.3253 37.1662C46.4822 37.0609 46.6573 36.9858 46.8418 36.9447C47.2064 36.8632 47.5792 36.8871 47.9194 36.9726C48.2597 37.0581 48.5805 37.2053 48.81 37.4381C49.0224 37.6549 49.1871 37.9136 49.2937 38.1977C49.3864 38.436 49.4318 38.6901 49.4275 38.9457C49.4237 39.1425 49.379 39.3363 49.2963 39.5149C49.2421 39.6286 49.1708 39.7332 49.0847 39.8251C49.0563 39.8579 49.0299 39.8789 49.0144 39.8949L48.9899 39.9184C48.9899 39.9184 48.9979 39.91 49.0138 39.8941C49.0297 39.8782 49.0542 39.856 49.0815 39.8222C49.1639 39.7283 49.2316 39.6225 49.2823 39.5084C49.3593 39.3307 49.3986 39.139 49.3978 38.9453C49.3998 38.7219 49.3513 38.4701 49.2497 38.2151C49.1418 37.9397 48.9777 37.6898 48.7677 37.4815C48.546 37.2614 48.2317 37.1262 47.9017 37.0447C47.5701 36.9671 47.2083 36.9436 46.8608 37.0236C46.6869 37.0634 46.5219 37.1351 46.3741 37.2352C46.2269 37.3366 46.1045 37.47 46.0161 37.6254C45.9289 37.7833 45.8668 37.9538 45.832 38.1309C45.7955 38.3063 45.7841 38.4861 45.798 38.6647C45.8236 39.0187 45.9529 39.3609 46.1695 39.6197C46.2747 39.7474 46.4023 39.855 46.546 39.9371C46.6844 40.0138 46.8355 40.0652 46.992 40.0886C47.2969 40.1309 47.6029 40.0773 47.8202 39.9193C47.925 39.8454 48.0107 39.7476 48.0703 39.634C48.123 39.5308 48.151 39.4167 48.152 39.3008C48.1518 39.2059 48.1325 39.112 48.0952 39.0248C48.058 38.9375 48.0035 38.8587 47.9351 38.793C47.8189 38.6867 47.6805 38.6078 47.5299 38.5619L47.4971 38.5517Z" fill="#231F20"/>
<path d="M38.1465 17.0006C38.1465 17.0006 39.539 20.8137 43.5121 22.1269C46.4157 23.0861 44.1681 28.7016 42.0898 30.3552C43.2369 30.0245 44.886 28.8999 44.886 27.577C44.4559 30.289 44.1689 31.6781 42.1615 33.1335C43.0925 33.001 44.5991 33.0673 44.886 32.0089C41.6956 36.6238 42.761 39.6225 44.8211 41.212C43.6471 40.0461 43.3086 36.6238 47.0094 35.7296C49.2481 35.1885 48.4679 31.6119 48.4679 31.6119C48.4679 31.6119 48.7934 34.7209 51.4819 34.4249C50.0727 33.8942 50.323 31.5996 50.0723 29.8466C49.8215 28.0935 49.0801 26.3533 48.0409 25.5264C48.8894 25.1559 51.1455 26.257 51.4823 27.8487C51.6137 23.582 46.499 15.6444 38.1465 17.0006Z" fill="#812619"/>
<path d="M44.5297 40.8496C44.2546 40.4281 44.0642 39.8678 44.0252 39.2683C43.9705 38.9958 43.9318 38.7202 43.9095 38.4431C43.8618 37.8685 43.8875 37.2901 43.9859 36.722C44.0946 36.1058 44.299 35.5193 44.5286 34.9391C44.9874 33.7804 45.5498 32.6661 46.0098 31.5083C46.4698 30.3504 46.8177 29.1384 46.845 27.884C46.8727 26.6185 46.5593 25.3597 46.0783 24.1944C45.6251 23.0965 44.9823 21.9981 43.8462 21.5059C43.0959 21.1809 42.2745 21.1189 41.459 21.1094C42.0921 21.5426 42.783 21.8845 43.5115 22.125C46.415 23.0842 44.1674 28.6998 42.0891 30.3534C43.0836 30.0665 44.455 29.1828 44.8022 28.0908C44.4101 30.4689 44.0369 31.7726 42.1608 33.1316C42.8739 33.0303 43.922 33.0447 44.5039 32.5834C41.8801 36.7258 42.7791 39.4928 44.6209 41.0489C44.5898 40.9835 44.5597 40.9169 44.5297 40.8496Z" fill="#92301E"/>
<path d="M44.6405 41.0665C44.6994 41.116 44.7594 41.1643 44.8203 41.2112C44.7265 41.1172 44.6415 41.0148 44.5664 40.9053C44.5907 40.9592 44.6151 41.0132 44.6405 41.0665Z" fill="#92301E"/>
<path d="M42.7184 37.9588C42.4998 36.4962 42.9755 34.8388 44.0091 33.0417C43.5965 33.1746 43.1259 33.2197 42.6928 33.2614C42.5114 33.2785 42.3402 33.295 42.1864 33.3168L41.4444 33.4226L42.0512 32.9829C43.5846 31.871 44.0775 30.8422 44.4348 29.0787C43.8394 29.7698 42.9238 30.3077 42.1401 30.5337L41.2387 30.7935L41.9727 30.2095C43.4516 29.0332 45.0127 25.774 44.6585 23.788C44.522 23.022 44.1162 22.5224 43.4524 22.3032C39.4403 20.978 37.9848 17.103 37.9706 17.0641L37.8936 16.8525L38.1153 16.8163C38.7445 16.7135 39.3809 16.6613 40.0184 16.6602C43.8953 16.6602 46.599 18.6102 48.186 20.2463C50.3396 22.468 51.7383 25.5246 51.6663 27.8538L51.6187 29.3985L51.2988 27.8868C51.0278 26.6064 49.382 25.6426 48.444 25.6399C49.3248 26.522 50.0055 28.0785 50.2548 29.82C50.314 30.2334 50.346 30.6805 50.3769 31.1128C50.4791 32.5385 50.5754 33.8847 51.5462 34.2506L52.2728 34.5244L51.5009 34.609C51.3772 34.6229 51.2529 34.6299 51.1285 34.6302C49.8841 34.6302 49.1754 33.9107 48.7762 33.174C48.7357 34.2573 48.3985 35.5843 47.0516 35.9097C45.196 36.3581 44.5396 37.408 44.3155 38.21C43.9981 39.3483 44.4338 40.8841 45.0832 41.5345C45.0836 41.5345 43.0865 40.4218 42.7184 37.9588ZM44.6418 32.7129C42.3041 36.4215 42.9399 38.7692 43.996 40.1342C43.8081 39.5295 43.7605 38.816 43.9577 38.1099C44.3121 36.8403 45.38 35.9304 46.9645 35.5483C48.6132 35.1501 48.4763 32.9154 48.3398 31.9657C48.2975 31.7649 48.2645 29.7381 48.2639 29.7326L48.649 31.5718C48.649 31.5768 48.6765 31.6987 48.7059 31.8999C48.8523 32.5751 49.347 34.0813 50.857 34.244C50.182 33.5832 50.0933 32.3445 50.007 31.1393C49.9765 30.7133 49.945 30.273 49.8877 29.8724C49.6287 28.0629 48.858 26.4139 47.9243 25.6714L47.6826 25.4791L47.9655 25.3555C48.0988 25.2975 48.2586 25.2681 48.4408 25.2681C49.2772 25.2681 50.5614 25.9067 51.2444 26.8786C50.9757 24.8072 49.7195 22.3608 47.92 20.5049C46.3839 18.9206 43.7662 17.0319 40.0192 17.0319C39.4805 17.0327 38.9425 17.0714 38.4092 17.1479C38.77 17.9568 40.2658 20.8584 43.5698 21.9498C44.362 22.2114 44.8652 22.8244 45.0254 23.7222C45.3506 25.5461 44.2251 28.2696 42.9016 29.8161C43.6718 29.3987 44.3917 28.7474 44.6204 28.0533C44.7753 27.7359 45.084 26.7673 45.084 26.7673C45.084 26.9539 45.0332 27.7658 44.9829 28.1409C44.6174 30.3536 44.2543 31.6352 42.788 32.879C43.3593 32.8231 43.9786 32.7461 44.3627 32.4607C44.4795 32.2768 44.6039 32.0893 44.7328 31.9029L45.3479 31.0142L45.065 32.0584C44.9964 32.3157 44.8484 32.5447 44.642 32.7129H44.6418Z" fill="#231F20"/>
<path d="M48.0238 41.7318C49.9327 41.7318 51.4802 40.3217 51.4802 38.5822C51.4802 36.8427 49.9327 35.4326 48.0238 35.4326C46.1149 35.4326 44.5674 36.8427 44.5674 38.5822C44.5674 40.3217 46.1149 41.7318 48.0238 41.7318Z" fill="#BA936A"/>
<path d="M48.0247 35.2473C44.5427 35.433 44.4443 38.6203 44.5685 38.6159C44.5666 38.5746 45.0837 35.7269 48.0247 35.6188C49.8269 35.5526 51.2951 36.9485 51.2951 38.5827C51.2951 40.2168 49.8224 41.6893 48.0247 41.5467C45.3905 41.3376 44.7293 39.3203 44.6684 39.333C44.6074 39.3457 44.9608 41.7325 48.0247 41.9183C50.0294 42.0399 51.6669 40.4221 51.6669 38.5827C51.6669 36.7432 50.0302 35.1402 48.0247 35.2473Z" fill="#231F20"/>
<path d="M49.4264 38.1727C49.3232 37.8744 49.1586 37.601 48.9431 37.3704C48.8197 37.2428 48.6758 37.137 48.5174 37.0572C48.3566 36.9742 48.1874 36.9087 48.0127 36.8617C47.6591 36.7669 47.27 36.7373 46.8785 36.8194C46.6775 36.8619 46.4862 36.9418 46.3144 37.0547C46.1384 37.1742 45.9918 37.332 45.8855 37.5164L45.8451 37.5891L45.8153 37.6526L45.8007 37.6841L45.7969 37.692L45.7907 37.7072L45.7837 37.7248L45.7565 37.7952C45.7219 37.8899 45.6941 37.9869 45.6733 38.0855C45.6302 38.2819 45.6164 38.4836 45.6325 38.6839C45.6644 39.0815 45.8117 39.4668 46.0633 39.7643C46.3048 40.0588 46.6499 40.2495 47.0277 40.2974C47.0728 40.3014 47.124 40.3077 47.1634 40.3084L47.2218 40.3096H47.2573L47.2897 40.3077C47.3752 40.3043 47.4602 40.2928 47.5436 40.2735C47.7056 40.2369 47.8575 40.1646 47.9879 40.0619C48.1097 39.9668 48.2062 39.8433 48.2689 39.7021C48.281 39.6729 48.2901 39.6435 48.3003 39.6141C48.357 39.4885 48.3864 39.3522 48.3864 39.2144C48.3864 38.6528 47.9065 38.1988 47.3142 38.1988C46.722 38.1988 46.2421 38.6539 46.2421 39.2144C46.2424 39.292 46.252 39.3693 46.2706 39.4446C46.1116 39.2105 46.0185 38.9379 46.0011 38.6554C45.982 38.4057 46.0151 38.1548 46.0982 37.9186L46.1193 37.8598L46.1248 37.845L46.1263 37.8412C46.1263 37.8412 46.1263 37.8392 46.1263 37.8388L46.1276 37.8361L46.142 37.8045L46.1705 37.7411L46.1976 37.6928C46.3517 37.4177 46.6335 37.2273 46.9528 37.1494C47.2721 37.0716 47.6189 37.0874 47.9372 37.1556C48.2546 37.2277 48.555 37.3511 48.7624 37.5504C48.9807 37.7493 49.1388 37.9988 49.2448 38.2413C49.3508 38.4838 49.4067 38.728 49.412 38.9446C49.4201 39.1334 49.3895 39.3219 49.3221 39.4984C49.277 39.6134 49.215 39.721 49.138 39.8177C49.1124 39.8526 49.0882 39.8754 49.0745 39.893L49.0521 39.9186L49.0779 39.8974C49.0942 39.8822 49.1221 39.8627 49.1521 39.831C49.2438 39.742 49.321 39.6392 49.3809 39.5263C49.4733 39.3466 49.5267 39.1494 49.5377 38.9476C49.5514 38.6845 49.5136 38.4213 49.4264 38.1727Z" fill="#231F20"/>
<path d="M23.7856 48.582C23.7856 48.582 21.048 54.9056 30.6551 57.2786C40.2622 59.6517 42.2766 54.2568 42.829 51.9329L23.7856 48.582Z" fill="#BA936A"/>
<path d="M23.7854 48.582C23.7854 48.582 22.4963 51.5602 24.7928 54.1963C24.9242 54.3021 25.0556 54.4079 25.1887 54.5122C25.6855 54.9014 26.1891 55.2841 26.6948 55.6618C26.8523 55.7795 27.0122 55.8956 27.1728 56.0088C27.9811 56.4337 28.9557 56.8184 30.1292 57.1413L30.2029 57.1434C30.9115 57.1591 31.6221 57.1072 32.3305 57.0922C33.625 57.0645 34.9392 57.1331 36.2164 56.8762C36.7753 56.7638 37.2996 56.5727 37.8212 56.3472C38.2734 56.1517 38.7192 55.9409 39.1542 55.7103C40.0785 55.2202 40.974 54.6479 41.7408 53.9308C41.9987 53.691 42.2383 53.4322 42.4577 53.1567C42.607 52.7572 42.7308 52.3487 42.8284 51.9335L23.7854 48.582Z" fill="#D1AA78"/>
<path d="M25.9119 55.0754C25.5465 54.7965 25.1825 54.5168 24.8232 54.2305C25.3694 54.8481 26.1152 55.4459 27.1214 55.9814C26.7098 55.6907 26.3125 55.3809 25.9119 55.0754Z" fill="#D1AA78"/>
<path d="M23.7853 48.582C23.7487 48.6796 23.7171 48.779 23.6905 48.8797C23.6142 49.1634 23.5585 49.4522 23.5237 49.7439C23.4673 50.1948 23.4655 50.6508 23.5187 51.1021C23.5354 51.2321 23.5512 51.3662 23.5821 51.5021C23.5963 51.57 23.6067 51.6396 23.6245 51.7088C23.6422 51.778 23.6613 51.8474 23.6801 51.9183C23.6896 51.9534 23.6981 51.9894 23.7089 52.0241C23.7197 52.0588 23.7326 52.0945 23.7444 52.1299L23.8164 52.3455C23.8432 52.4172 23.8748 52.4881 23.9044 52.5607C23.934 52.6333 23.9615 52.7075 24.0005 52.7778C24.2774 53.3546 24.6856 53.925 25.2102 54.4367C25.7347 54.9483 26.3792 55.3923 27.0843 55.7763C27.7925 56.1572 28.5716 56.4617 29.3771 56.7238L29.6808 56.8203L29.8323 56.8694L29.9869 56.9117L30.6082 57.0778L30.6858 57.099C30.7053 57.1043 30.7368 57.1106 30.7618 57.1165L30.9205 57.1523L31.2379 57.2238L31.5553 57.2956L31.8727 57.3546C32.0843 57.3923 32.2938 57.4392 32.5075 57.4703L33.1456 57.5645C33.3585 57.5897 33.5716 57.6091 33.7838 57.6318C33.8896 57.6447 33.9954 57.6515 34.1012 57.6563L34.4186 57.6739C35.2633 57.7103 36.098 57.6815 36.8892 57.5469C37.6804 57.4124 38.4279 57.1885 39.083 56.8588C39.7381 56.5292 40.3103 56.1237 40.7644 55.6694C41.1821 55.2569 41.5464 54.7937 41.8488 54.2905C42.0826 53.8998 42.2836 53.4904 42.45 53.0666C42.5873 52.713 42.6827 52.4295 42.7403 52.2338C42.7978 52.038 42.827 51.9331 42.827 51.9331C42.827 51.9331 42.8059 52.0399 42.7597 52.2388C42.6941 52.5271 42.6133 52.8117 42.5179 53.0916C42.3702 53.5285 42.1866 53.9525 41.969 54.3592C41.6859 54.8913 41.3319 55.3824 40.9167 55.8193C40.4643 56.3059 39.8848 56.7503 39.2091 57.1062L39.0822 57.1743L38.951 57.235L38.6857 57.3563C38.5968 57.3986 38.503 57.428 38.4106 57.4646C38.3181 57.5012 38.2254 57.5374 38.1304 57.5685C37.743 57.6964 37.347 57.7969 36.9455 57.8694C36.1285 58.0175 35.269 58.0692 34.4025 58.0319L34.0771 58.0154C33.9683 58.011 33.8596 58.0044 33.7512 57.9921C33.5343 57.971 33.3162 57.9513 33.0987 57.9265L32.4474 57.8336C32.2301 57.8028 32.0138 57.7564 31.7971 57.7179L31.4728 57.6544L31.1554 57.5812L30.838 57.508L30.6793 57.4714L30.5968 57.4519L30.5176 57.4308L29.886 57.2583L29.7288 57.2149L29.5735 57.1648L29.2641 57.0647C28.4417 56.7953 27.6505 56.4644 26.9256 56.0626C26.2006 55.6608 25.5462 55.1807 25.0134 54.6326C24.4776 54.088 24.0716 53.4756 23.8049 52.8658C23.533 52.2562 23.4198 51.6478 23.3801 51.114C23.3479 50.6524 23.3718 50.1886 23.4512 49.7327C23.5002 49.4406 23.5733 49.153 23.6697 48.873C23.7383 48.6806 23.7853 48.582 23.7853 48.582Z" fill="#231F20"/>
<path d="M34.5317 35.9484C34.5317 35.9484 32.6496 33.3686 33.241 28.8542C33.8324 24.3398 37.6502 23.2977 39.5322 25.3318C41.4141 27.3659 41.3144 30.5808 40.2304 33.1702C39.0484 35.9981 36.0372 38.3297 34.5317 35.9484Z" fill="white"/>
<path d="M36.1418 37.1201C35.4306 37.1201 34.8203 36.7511 34.3773 36.053C34.2569 35.8854 32.4695 33.3097 33.0565 28.8302C33.4797 25.598 35.4776 24.1514 37.2696 24.1514C38.1873 24.1514 39.0392 24.5259 39.6684 25.2057C40.5739 26.1846 41.0963 27.5079 41.179 29.0329C41.2518 30.3761 40.9761 31.8712 40.4025 33.2422C39.4776 35.4529 37.646 37.1201 36.1418 37.1201ZM37.2696 24.5229C35.6403 24.5229 33.8191 25.8697 33.4249 28.8786C32.8512 33.2587 34.6631 35.8139 34.6815 35.8401L34.6883 35.8503C35.0654 36.4468 35.5544 36.7492 36.1418 36.7492C37.4826 36.7492 39.2034 35.1461 40.0595 33.0998C40.9795 30.9004 41.3576 27.5799 39.3955 25.4592C38.8375 24.8549 38.0836 24.5229 37.2696 24.5229Z" fill="#231F20"/>
<path d="M30.6471 35.9484C30.6471 35.9484 32.5303 33.3686 31.9378 28.8542C31.3454 24.3398 27.5286 23.2977 25.6466 25.3318C23.7647 27.3659 23.8644 30.5808 24.9484 33.1702C26.1304 35.9981 29.1416 38.3297 30.6471 35.9484Z" fill="white"/>
<path d="M29.038 37.1201C27.5337 37.1201 25.702 35.4527 24.7773 33.2422C24.2036 31.8712 23.9279 30.3763 24.0007 29.0329C24.0835 27.5079 24.6057 26.1846 25.5113 25.2057C26.1406 24.5259 26.9925 24.1514 27.9102 24.1514C29.7022 24.1514 31.6999 25.598 32.1233 28.8302C32.7102 33.3097 30.9229 35.8854 30.8025 36.053C30.3588 36.7511 29.7485 37.1201 29.038 37.1201ZM27.9097 24.5229C27.0968 24.5229 26.3418 24.8551 25.7838 25.4584C23.8215 27.579 24.1998 30.8996 25.1199 33.0989C25.9758 35.1451 27.6967 36.7481 29.0376 36.7483C29.6245 36.7483 30.1133 36.4459 30.4906 35.8495L30.4976 35.8391C30.5158 35.8139 32.3277 33.2576 31.7538 28.8786C31.36 25.8706 29.5395 24.5229 27.9097 24.5229Z" fill="#231F20"/>
<path d="M30.4761 37.0776C30.4761 37.0776 30.4365 37.0988 30.3675 37.1455C30.2694 37.214 30.1767 37.2899 30.0903 37.3726C29.9579 37.4988 29.8427 37.642 29.7477 37.7983C29.6277 37.9972 29.5469 38.2173 29.5099 38.4467C29.4895 38.5764 29.4824 38.7078 29.4888 38.839C29.4911 38.9054 29.4993 38.9792 29.5061 39.0423L29.5148 39.0975L29.5249 39.1428C29.5328 39.1746 29.5424 39.206 29.5537 39.2368C29.6419 39.4877 29.8629 39.6847 30.1396 39.8127C30.4164 39.9407 30.7437 40.0059 31.0774 40.0383C31.4186 40.0679 31.762 40.0638 32.1024 40.026C32.4447 39.9934 32.7836 39.9315 33.1153 39.8411C33.2786 39.7956 33.4382 39.7431 33.5927 39.6851L33.7071 39.6398L33.8176 39.5893C33.8858 39.5564 33.9517 39.5189 34.0148 39.4771C34.2687 39.3114 34.4591 39.0814 34.5482 38.8212C34.6373 38.5609 34.6291 38.2867 34.5632 38.0472C34.4978 37.8254 34.3891 37.6189 34.2433 37.4395C34.1265 37.2989 33.9912 37.1747 33.8413 37.0702C33.7791 37.0252 33.7186 36.9926 33.6676 36.9604C33.6145 36.9327 33.5694 36.9081 33.5317 36.8904L33.4147 36.8379L33.5393 36.8701C33.6569 36.9043 33.7709 36.9498 33.8796 37.0061C34.052 37.0938 34.2101 37.2071 34.3485 37.3423C34.5326 37.522 34.6755 37.7395 34.7672 37.9799C34.8675 38.2456 34.9079 38.5747 34.8148 38.9035C34.7677 39.0719 34.6907 39.2305 34.5876 39.3718C34.4797 39.5171 34.3489 39.644 34.2004 39.7475C34.125 39.8015 34.046 39.8502 33.964 39.8933L33.8445 39.9532L33.7219 40.0072C33.556 40.0772 33.3859 40.137 33.2126 40.1862C32.8615 40.2871 32.502 40.3568 32.1386 40.3944C31.7735 40.4306 31.4057 40.4306 31.0406 40.3944C30.6781 40.3555 30.3195 40.2674 29.9953 40.1047C29.8317 40.0244 29.6837 39.9155 29.5582 39.7833C29.4348 39.6523 29.3435 39.4945 29.2913 39.3222C29.2789 39.2805 29.2688 39.2381 29.2613 39.1953L29.2511 39.1297L29.2458 39.0738C29.2401 38.9956 29.2388 38.9171 29.2418 38.8387C29.2469 38.6919 29.2669 38.5459 29.3017 38.4031C29.3624 38.1544 29.4743 37.9211 29.6303 37.7181C29.7473 37.5646 29.8863 37.4291 30.0427 37.3161C30.1413 37.2436 30.2465 37.1806 30.3569 37.128C30.4337 37.0922 30.4761 37.0776 30.4761 37.0776Z" fill="#231F20"/>
<path d="M38.1446 30.8242C38.1446 31.5081 37.6613 32.0625 37.0655 32.0625C36.4696 32.0625 35.9863 31.5081 35.9863 30.8242C35.9863 30.1403 36.4696 29.5859 37.0655 29.5859C37.6613 29.5859 38.1446 30.1403 38.1446 30.8242Z" fill="#231F20"/>
<path d="M37.4089 30.1279C37.4089 30.283 37.2707 30.4089 37.0999 30.4089C36.9292 30.4089 36.791 30.2819 36.791 30.1279C36.791 29.9738 36.9294 29.8467 37.0999 29.8467C37.2705 29.8467 37.4089 29.9726 37.4089 30.1279Z" fill="white"/>
<path d="M37.5029 31.5809C37.5029 31.6823 37.4126 31.7644 37.3013 31.7644C37.19 31.7644 37.0996 31.6823 37.0996 31.5809C37.0996 31.4796 37.19 31.3975 37.3013 31.3975C37.4126 31.3975 37.5029 31.4796 37.5029 31.5809Z" fill="white"/>
<path d="M34.4492 37.2549L34.6066 37.3052C34.7088 37.3395 34.8591 37.3899 35.0468 37.4631C35.2345 37.5363 35.4613 37.6279 35.7188 37.7401C35.9763 37.8522 36.2647 37.9843 36.5722 38.1421C36.8817 38.2966 37.2099 38.4785 37.5527 38.6785C37.8923 38.8835 38.251 39.1017 38.6041 39.3524C38.9617 39.5977 39.3199 39.8677 39.6739 40.1544C40.0229 40.4477 40.3735 40.7509 40.7025 41.0774C40.7848 41.159 40.868 41.2397 40.9486 41.3228L41.1852 41.5767C41.346 41.7426 41.4911 41.9214 41.6409 42.0935C41.7908 42.2655 41.9243 42.4491 42.0629 42.6248C42.1968 42.804 42.3202 42.9877 42.4463 43.1646C42.5648 43.3467 42.679 43.5276 42.7891 43.7052L43.0874 44.2405C43.1795 44.417 43.2614 44.5926 43.3434 44.7608C43.3858 44.8444 43.4213 44.9301 43.455 45.0133L43.5561 45.2587L43.6524 45.4942C43.6795 45.5728 43.7058 45.6495 43.7313 45.7242C43.781 45.8743 43.8308 46.0156 43.8724 46.1498C43.9444 46.4221 44.0142 46.6576 44.0589 46.8531C44.1035 47.0486 44.1291 47.2063 44.1503 47.3118C44.1714 47.4174 44.1818 47.4739 44.1818 47.4739L44.1355 47.3152C44.1058 47.2115 44.0595 47.0613 44.0066 46.8673C43.9488 46.6754 43.8636 46.4468 43.7738 46.183C43.7235 46.053 43.6647 45.9168 43.6056 45.7723L43.5153 45.5499L43.4095 45.3222C43.2698 45.0099 43.094 44.6836 42.9054 44.3406L42.594 43.8256L42.2444 43.3036C42.1175 43.1326 41.992 42.9551 41.857 42.7822L41.6486 42.5249C41.5796 42.4381 41.5108 42.3503 41.4357 42.2672C41.2876 42.0994 41.1439 41.925 40.985 41.7634L40.7512 41.5169C40.6714 41.4356 40.5889 41.3575 40.5081 41.2773C40.1873 40.9542 39.8443 40.6535 39.5032 40.3626C39.1553 40.0795 38.8121 39.8012 38.4632 39.5532C38.1181 39.3006 37.7736 39.0708 37.4448 38.8562C37.1117 38.6482 36.796 38.4519 36.497 38.2835C35.9014 37.9426 35.3904 37.6819 35.0262 37.5128C34.8438 37.4282 34.701 37.3617 34.602 37.3194L34.4492 37.2549Z" fill="#231F20"/>
<path d="M29.1925 30.8242C29.1925 31.5081 28.7092 32.0625 28.1133 32.0625C27.5175 32.0625 27.0342 31.5081 27.0342 30.8242C27.0342 30.1403 27.5175 29.5859 28.1133 29.5859C28.7092 29.5859 29.1925 30.1403 29.1925 30.8242Z" fill="#231F20"/>
<path d="M28.265 30.6772C28.4356 30.6772 28.5739 30.5514 28.5739 30.3962C28.5739 30.241 28.4356 30.1152 28.265 30.1152C28.0944 30.1152 27.9561 30.241 27.9561 30.3962C27.9561 30.5514 28.0944 30.6772 28.265 30.6772Z" fill="white"/>
<path d="M28.314 31.7927C28.4253 31.7927 28.5156 31.7106 28.5156 31.6092C28.5156 31.5079 28.4253 31.4258 28.314 31.4258C28.2026 31.4258 28.1123 31.5079 28.1123 31.6092C28.1123 31.7106 28.2026 31.7927 28.314 31.7927Z" fill="white"/>
<path d="M24.3193 41.3944C24.3193 41.3944 34.1374 39.5791 39.6871 43.6244C45.2369 47.6697 43.3867 52.6407 39.6871 52.9236C35.9876 53.2065 27.7343 48.1312 24.3193 50.5918C27.4497 48.9001 29.4419 43.1159 24.3193 41.3944Z" fill="#190B0C"/>
<path d="M24.714 50.3525C24.5766 50.4222 24.4446 50.5022 24.3193 50.5919C24.4533 50.5195 24.5851 50.4391 24.714 50.3525Z" fill="white"/>
<path d="M28.1664 42.8308C28.5437 43.2634 29.0363 43.5606 29.5809 43.735C30.4008 43.9974 31.2633 44.1125 32.1158 44.2073C32.5475 44.2553 32.9796 44.2989 33.4097 44.3579C33.8541 44.4187 34.2942 44.4972 34.7394 44.5503C35.6038 44.6533 36.4726 44.7236 37.3321 44.8645C37.5263 44.8964 37.7216 44.928 37.9125 44.9764C38.0373 45.0084 38.1622 45.0399 38.2875 45.0691C38.5257 45.125 38.7657 45.1749 39.0084 45.2088C39.4055 45.2629 39.8596 45.2907 40.2261 45.0964C40.4832 44.9601 40.6387 44.7301 40.7267 44.4694C40.3956 44.1688 40.0484 43.8862 39.6867 43.6231C36.0403 40.965 30.5509 40.8374 27.2148 41.0627C27.4565 41.691 27.7242 42.3241 28.1664 42.8308Z" fill="white"/>
<path d="M41.4143 48.9034C41.0471 48.8088 40.6299 48.744 40.252 48.8103C39.8685 48.8775 39.5313 49.0629 39.212 49.2777C38.8977 49.4893 38.5918 49.7203 38.2424 49.8723C38.0573 49.9525 37.8755 50.0396 37.6861 50.1099C37.4771 50.1873 37.2644 50.254 37.0492 50.3115C36.1365 50.5565 35.1988 50.6968 34.2543 50.7299C33.0025 50.7737 31.7574 50.6522 30.5137 50.5316C33.8831 51.4577 37.5467 53.0864 39.687 52.9226C41.4826 52.7853 42.8415 51.5432 43.1307 49.839C42.6444 49.3904 42.0548 49.069 41.4143 48.9034Z" fill="white"/>
<path d="M39.374 53.1201C37.9011 53.1201 35.8698 52.4449 33.7193 51.7301C31.3103 50.9295 28.8192 50.1009 26.8169 50.1009C26.0128 50.1009 25.3609 50.2325 24.8215 50.5029C24.6857 50.5941 23.8541 50.9371 23.7151 51.0122C23.7151 51.0122 27.6453 48.3637 27.2346 44.7877C27.1123 43.7244 26.4578 42.3078 24.2599 41.5689L23.5801 41.3404L24.2853 41.21C24.3075 41.2058 26.5325 40.8008 29.4182 40.8008C32.4807 40.8008 36.7672 41.2642 39.7964 43.4724C42.5776 45.4997 43.8567 48.0522 43.2181 50.3C42.7704 51.8761 41.3897 52.9779 39.7012 53.107C39.5971 53.1161 39.487 53.1201 39.374 53.1201ZM26.8169 49.7297C28.8793 49.7297 31.3994 50.5674 33.8366 51.3774C35.9578 52.0825 37.9612 52.7483 39.374 52.7483C39.4775 52.7483 39.578 52.7447 39.6728 52.7376C41.228 52.6186 42.4496 51.6459 42.8605 50.1995C43.4547 48.1076 42.2274 45.7056 39.5774 43.7739C36.629 41.6245 32.4254 41.1734 29.4182 41.1734C27.9496 41.1749 26.4827 41.2747 25.0274 41.4722C26.8863 42.3173 27.4608 43.6876 27.6029 44.7388C27.8357 46.4567 27.0185 48.4936 25.6372 49.8383C26.0258 49.7626 26.421 49.7263 26.8169 49.7297Z" fill="#231F20"/>
<path d="M41.0066 14.8503C44.182 13.4612 44.569 11.0799 44.569 8.56594C42.831 11.6087 41.3086 13.9238 36.7918 12.7993C38.871 12.7331 40.0348 10.6165 40.3217 7.4248C38.9347 10.22 36.9287 12.469 32.0536 11.0799C27.1784 9.69079 21.4416 14.2809 22.2304 18.3165C21.0832 17.3237 20.0768 15.1637 20.238 13.0808C19.5929 14.7429 19.434 17.6544 21.2266 19.176C19.9359 19.176 18.1409 16.4377 18.1947 13.2792C17.2346 16.2242 17.817 18.421 19.5988 19.819C18.0425 19.8148 15.2135 19.2901 13.7048 15.8095C13.9376 17.4388 14.2063 19.5922 17.3718 21.1341C17.3254 21.161 17.2784 21.187 17.2327 21.2145C15.8362 21.249 14.0975 20.8385 12.5156 19.162C13.0768 20.2365 13.7683 21.6034 15.873 22.2937C15.1536 23.0611 14.6058 24.1011 14.3438 25.658C13.6987 29.4947 16.5656 33.6619 13.125 35.7125C14.1288 36.0432 15.7778 34.588 16.423 32.339C16.4947 35.051 15.8495 37.9615 12.5156 38.5569C13.6269 39.2514 15.2759 38.623 16.5664 37.8623C17.8569 37.1016 21.807 36.5976 21.6568 40.211C22.3087 39.0785 21.8718 36.1462 20.8682 34.4247C22.0152 35.2169 22.5889 35.5476 22.5889 37.3335C22.8398 36.639 23.1623 34.357 21.1191 32.6039C22.4099 33.464 23.3409 33.8278 24.3094 33.0009C23.5207 33.1001 19.7095 30.7579 20.0017 28.3445C20.2262 26.4924 21.3011 25.131 22.6581 24.3373C24.2374 23.4132 26.2863 20.8144 24.5656 18.4661C24.5656 18.4661 31.5506 23.3174 38.1465 20.4069C37.0711 20.5391 31.2336 19.5349 30.78 17.4382C33.6822 19.4147 36.8064 19.7128 39.3158 19.4291C38.7423 19.2113 36.2025 18.2865 35.9876 16.9642C38.4969 18.1548 47.061 18.4665 48.0255 11.7416C46.1778 14.1889 44.182 15.2484 41.0066 14.8503Z" fill="#812619"/>
<path d="M35.8555 14.4811C35.6395 14.4794 35.4232 14.4742 35.2074 14.464C34.3165 14.4204 33.4295 14.3187 32.5519 14.1595C31.7448 14.015 30.8985 13.8783 30.1494 13.5321C29.9332 13.4323 29.723 13.3186 29.5146 13.2018C29.4539 13.1934 29.3932 13.1847 29.3326 13.1752C28.9139 13.1098 28.499 13.022 28.0815 12.9494C27.6888 12.881 27.2893 12.8201 26.8898 12.829C26.7139 12.8303 26.5387 12.852 26.3678 12.8935C26.1368 12.9531 25.9092 13.0247 25.6858 13.1081C25.1811 13.2981 24.703 13.5521 24.263 13.8639C23.8259 14.1703 23.4271 14.5278 23.0749 14.9289C22.7893 15.2581 22.5942 15.6373 22.4272 16.0319C22.1653 16.7841 22.0834 17.5599 22.2313 18.3172C21.0832 17.3237 20.0768 15.1637 20.238 13.0808C19.5929 14.7429 19.434 17.6544 21.2266 19.176C19.9359 19.176 18.1409 16.4378 18.1947 13.2793C17.2346 16.2243 17.817 18.4211 19.5988 19.8191C18.0425 19.8148 15.2135 19.2901 13.7048 15.8095C13.9376 17.4388 14.2063 19.5922 17.3718 21.1341C17.3254 21.161 17.2784 21.187 17.2327 21.2145C15.8362 21.249 14.0975 20.8385 12.5156 19.1621C13.0768 20.2365 13.7683 21.6035 15.873 22.2937C15.1536 23.0609 14.6058 24.1011 14.3438 25.6581C13.6987 29.4947 16.5656 33.6619 13.125 35.7125C14.1288 36.0432 15.7778 34.5881 16.423 32.339C16.4947 35.051 15.8495 37.9615 12.5156 38.557C13.6269 39.2514 15.2759 38.623 16.5664 37.8623C16.9792 37.619 17.6646 37.4021 18.4007 37.3377C18.5889 36.9702 18.7317 36.5819 18.8015 36.1676C18.9397 35.3475 18.8438 34.5151 18.715 33.7002C18.4611 32.0802 18.0152 30.437 18.1809 28.7842C18.3307 27.2922 19.0451 25.8783 20.1487 24.8644C20.6244 24.4276 21.1521 24.0559 21.6754 23.6794C21.9649 23.4712 22.2535 23.2611 22.5317 23.0379C22.8165 22.8096 23.1132 22.5747 23.3542 22.2994C23.8568 21.7251 24.2006 21.004 24.23 20.2334C24.2596 19.4731 24.0087 18.7486 23.5675 18.1346C23.567 18.1337 23.5668 18.1326 23.5669 18.1316C23.5671 18.1306 23.5675 18.1297 23.5683 18.129C23.569 18.1282 23.5699 18.1278 23.5709 18.1276C23.5719 18.1275 23.573 18.1277 23.5738 18.1282C23.9871 18.4126 24.4135 18.6784 24.8513 18.9225C24.7671 18.7635 24.6714 18.6109 24.5648 18.4659C24.5648 18.4659 25.8132 19.3335 27.7512 20.1134C28.6101 20.3444 29.4959 20.4599 30.3853 20.4568C30.788 20.455 31.1903 20.4301 31.5902 20.3823C31.7214 20.3665 31.8523 20.3491 31.9831 20.3286C32.0326 20.3208 32.0823 20.3129 32.1312 20.3045C32.1924 20.2941 32.094 20.2281 32.0876 20.2228C31.9496 20.1078 31.8039 20.0024 31.6513 19.9075C31.0208 19.5146 30.3208 19.2471 29.6934 18.8483C29.5595 18.7621 29.4308 18.668 29.3079 18.5666C29.2946 18.5563 29.281 18.5455 29.2679 18.5351C29.2425 18.5139 29.2178 18.4928 29.1928 18.4706C29.1716 18.4526 29.1522 18.4344 29.1321 18.416C28.7476 18.0694 28.4158 17.6627 28.1098 17.2448C27.6475 16.613 27.2408 15.9204 27.0358 15.1595C27.0358 15.1563 27.0381 15.1525 27.0415 15.154C28.0612 15.5364 29.0787 15.927 30.1206 16.2456C30.8892 16.4805 31.6718 16.6847 32.4683 16.7981C32.8556 16.8562 33.2464 16.8873 33.638 16.891C33.696 16.891 33.754 16.891 33.8119 16.8895C33.8466 16.8895 33.7423 16.8705 33.7497 16.8724C33.678 16.854 33.6065 16.8345 33.5356 16.8127C33.3849 16.7666 33.2355 16.7152 33.0887 16.6576C32.4176 16.3909 31.7787 16.0493 31.1843 15.6392C30.6208 15.2541 30.08 14.8186 29.6397 14.2943C29.639 14.2936 29.6386 14.2926 29.6386 14.2917C29.6385 14.2907 29.6387 14.2897 29.6392 14.2889C29.6397 14.2881 29.6404 14.2874 29.6413 14.287C29.6422 14.2866 29.6432 14.2865 29.6441 14.2867C30.6007 14.4731 31.5667 14.7429 32.543 14.8844L32.6024 14.8927C32.6771 14.9033 32.7518 14.9128 32.8265 14.9217L32.89 14.9291C33.3712 14.9822 33.8545 14.9987 34.3399 14.9524C34.7159 14.9164 35.0912 14.8444 35.4454 14.7111C35.5538 14.6703 35.6613 14.6265 35.7652 14.5751C35.8128 14.552 36.0064 14.4824 35.8555 14.4811Z" fill="#92301E"/>
<path d="M21.439 40.9602L21.4705 40.2029C21.5063 39.344 21.3027 38.6775 20.8656 38.2219C20.2966 37.6295 19.4479 37.5042 18.8343 37.5042C17.9396 37.5042 17.0975 37.7645 16.6597 38.0226C15.87 38.4881 14.7071 39.0429 13.6525 39.0429C13.1806 39.0429 12.7638 38.9325 12.4159 38.7145L12.0069 38.4589L12.4819 38.3743C14.834 37.954 16.0645 36.3218 16.2236 33.398C15.5376 34.8692 14.4024 35.9456 13.4265 35.9456C13.3044 35.946 13.1829 35.927 13.0668 35.8893L12.6798 35.7623L13.0298 35.5539C15.0994 34.3207 14.7678 32.2843 14.384 29.9265C14.155 28.5207 13.9185 27.067 14.1603 25.6281C14.3861 24.2854 14.8416 23.2187 15.5499 22.378C13.6032 21.651 12.9233 20.3467 12.3715 19.2887L11.7295 18.0594L12.651 19.0359C13.8226 20.2769 15.2037 20.9447 16.7604 21.0234C14.0391 19.4802 13.7464 17.4233 13.5291 15.8975L13.3253 14.4677L13.8755 15.7354C15.184 18.7551 17.5177 19.4864 19.0751 19.6114C17.5065 18.1114 17.1396 15.9148 18.0171 13.2212L18.4005 12.0447L18.3793 13.2819C18.341 15.5312 19.2414 17.4715 20.1504 18.396C20.2732 18.5225 20.4078 18.637 20.5524 18.7379C19.239 17.0401 19.4974 14.4736 20.0643 13.0132L20.52 11.8391L20.4229 13.0947C20.2811 14.925 21.0674 16.7657 21.9779 17.8016C21.9026 16.524 22.4062 15.1681 23.4289 13.9262C25.0727 11.93 27.7321 10.6402 30.2042 10.6402C30.8464 10.6386 31.4857 10.7263 32.1039 10.9006C33.0713 11.1757 33.9659 11.316 34.7609 11.316C37.7759 11.316 39.1794 9.30752 40.1547 7.34285L40.595 6.45605L40.5064 7.44209C40.2431 10.3829 39.274 12.2415 37.7463 12.8052C38.132 12.8678 38.5219 12.9005 38.9126 12.9028C41.6722 12.9028 42.8803 11.149 44.4082 8.47405L44.7554 7.86613V8.5663C44.7554 10.7639 44.5062 13.2085 41.6849 14.7276C41.8773 14.7396 42.0658 14.7458 42.2467 14.7458C44.5447 14.7458 46.2285 13.8147 47.8777 11.6294L48.3124 11.0534L48.2099 11.7678C47.9038 13.903 46.8346 15.517 45.0339 16.5648C43.2491 17.6029 41.204 17.8209 39.8032 17.8209C38.4987 17.8209 37.2048 17.6228 36.2996 17.2938C36.5827 17.8131 37.3722 18.4957 39.3307 19.2354L40.0997 19.5272L39.3379 19.6133C38.797 19.6748 38.253 19.7059 37.7086 19.7064C35.3388 19.7064 33.1663 19.1173 31.242 17.9542C32.3993 19.4081 36.5514 20.2322 37.9141 20.2322C37.9848 20.233 38.0554 20.2296 38.1257 20.2221L39.3741 20.0682L38.2224 20.5761C36.8 21.2035 35.2482 21.5217 33.6096 21.5217C29.8313 21.5217 26.4765 19.8205 25.1104 19.0223C25.4066 19.6711 25.4809 20.3636 25.3303 21.0892C25.0205 22.5829 23.8123 23.877 22.7526 24.4959C21.296 25.3488 20.3848 26.7229 20.1857 28.3673C20.0706 29.3182 20.6639 30.2145 21.1821 30.7991C22.275 32.0321 23.8154 32.8186 24.2566 32.8186C24.2664 32.8186 24.2761 32.818 24.2858 32.8169L24.9018 32.7395L24.4297 33.1426C24.0277 33.4858 23.614 33.6525 23.1635 33.6525C22.8095 33.6525 22.4473 33.5454 22.0869 33.3808C23.1872 34.9117 23.0499 36.6032 22.764 37.3971L22.4032 38.3954V37.3339C22.4032 35.9879 22.0765 35.5308 21.3711 35.0063C22.1783 36.8294 22.4162 39.2668 21.8182 40.3051L21.439 40.9602ZM18.8349 37.1324C19.5196 37.1324 20.4741 37.2767 21.1339 37.9646C21.4369 38.2805 21.644 38.6764 21.7536 39.1479C21.8768 37.8201 21.4629 35.8144 20.7071 34.5181L20.2871 33.7987L21.0911 34.3531C21.8186 34.8539 22.3273 35.2041 22.5837 35.9284C22.5537 35.0232 22.2338 33.8055 20.9987 32.7458L19.972 31.662L21.2228 32.4502C21.8704 32.8817 22.5539 33.2812 23.1646 33.2812C23.3991 33.2816 23.6299 33.222 23.8349 33.1081C23.0482 32.8518 21.7752 32.0289 20.9049 31.0461C20.0894 30.1258 19.7136 29.184 19.818 28.323C20.0302 26.5602 21.0057 25.0875 22.5636 24.1777C23.5205 23.618 24.6796 22.3897 24.965 21.0153C25.1462 20.1425 24.9612 19.3226 24.4149 18.5769L23.7598 17.6817L24.6718 18.3143C24.7126 18.3427 28.8169 21.1516 33.609 21.1516C34.883 21.1516 36.102 20.9534 37.2446 20.5613C35.2846 20.3497 31.0082 19.3719 30.5986 17.4781L30.5 17.0232L30.8847 17.2853C32.8823 18.6457 35.1777 19.3357 37.7067 19.3357C37.9761 19.3357 38.2482 19.3277 38.5216 19.3116C36.85 18.5922 35.9376 17.8143 35.8043 16.9948L35.7467 16.6448L36.0666 16.7965C36.916 17.1986 38.3472 17.4497 39.8022 17.4497C41.4137 17.4497 46.5521 17.0748 47.6989 12.4476C46.117 14.312 44.4518 15.118 42.2457 15.118C41.8237 15.1162 41.4022 15.0884 40.9837 15.0346L40.3132 14.9499L40.9323 14.6791C43.7935 13.4273 44.2992 11.37 44.3724 9.27536C42.9706 11.6471 41.6352 13.2745 38.9132 13.2745C38.2613 13.2745 37.533 13.1753 36.7482 12.98L35.4486 12.6565L36.7871 12.6141C38.9031 12.5468 39.7093 10.2597 40.0135 8.39851C39 10.1404 37.5167 11.6884 34.7626 11.6884C33.9325 11.6884 33.0042 11.5439 32.0038 11.2589C31.4186 11.0938 30.8133 11.0109 30.2052 11.0126C27.8398 11.0126 25.293 12.2493 23.7168 14.1632C22.618 15.4976 22.1553 16.9597 22.4134 18.2805L22.5167 18.8095L22.1093 18.4565C21.1821 17.6556 20.3051 16.0947 20.0863 14.3596C19.8256 15.8899 19.9868 17.8806 21.3463 19.0346L21.7323 19.3621H21.2261C20.8029 19.3621 20.3396 19.1186 19.8863 18.6575C19.0897 17.8471 18.2993 16.3088 18.0721 14.4696C17.6311 16.6924 18.1887 18.4768 19.7132 19.6732L20.1381 20.0067L19.5979 20.0052C18.1715 20.001 15.6992 19.5699 14.0814 16.9411C14.3797 18.3141 15.0702 19.8071 17.4527 20.9677L17.767 21.1207L17.4176 21.3211C17.3878 21.3382 17.3577 21.3554 17.3283 21.3732L17.286 21.3985H17.2369C17.1832 21.4 17.1288 21.4007 17.0742 21.4007C15.6584 21.4007 14.3753 20.9563 13.2466 20.0799C13.7595 20.8677 14.5141 21.6514 15.9305 22.1152L16.2075 22.206L16.0082 22.4214C15.2439 23.2373 14.7598 24.3065 14.527 25.6899C14.2953 27.0678 14.527 28.4908 14.7509 29.8668C15.1091 32.0674 15.4491 34.1548 13.7119 35.5353C14.5951 35.3025 15.7371 34.0569 16.2443 32.2888L16.5769 31.1296L16.6089 32.3357C16.7009 35.8226 15.5272 37.9306 13.1176 38.6113C13.2929 38.6532 13.4726 38.6738 13.6529 38.6726C14.6237 38.6726 15.7215 38.1458 16.4714 37.7039C17.059 37.3561 17.9866 37.1324 18.8349 37.1324Z" fill="#231F20"/>
<path d="M17.7406 42.7377C19.6495 42.7377 21.197 41.3276 21.197 39.5881C21.197 37.8486 19.6495 36.4385 17.7406 36.4385C15.8317 36.4385 14.2842 37.8486 14.2842 39.5881C14.2842 41.3276 15.8317 42.7377 17.7406 42.7377Z" fill="#D1AA78"/>
<path d="M17.7401 42.552C15.9366 42.5386 14.4694 41.2223 14.4694 39.5881C14.4694 37.954 15.9366 36.6243 17.7401 36.6243C19.5323 36.6243 20.9917 37.9375 21.0097 39.5579C21.133 39.5492 20.9995 36.3461 17.7401 36.2525C15.7324 36.195 14.0977 37.7489 14.0977 39.5881C14.0977 41.4273 15.7316 42.9237 17.7401 42.9237C18.5378 42.9279 19.3135 42.662 19.941 42.1695C20.5686 41.6769 21.011 40.9865 21.1965 40.2106C21.1372 40.4241 20.5039 42.5723 17.7401 42.552Z" fill="#231F20"/>
<path d="M17.4248 40.4893C17.4248 41.0509 17.9047 41.506 18.497 41.506C19.0892 41.506 19.5702 41.0509 19.5702 40.4893C19.5702 39.9277 19.0901 39.4736 18.498 39.4736C17.906 39.4736 17.4248 39.9277 17.4248 40.4893Z" fill="#231F20"/>
<path d="M18.2498 39.8262L18.2182 39.8396C18.1874 39.852 18.1573 39.8661 18.1281 39.8819C18.0191 39.9351 17.9213 40.0086 17.8399 40.0986C17.7856 40.1599 17.7422 40.2301 17.7117 40.3061C17.6765 40.3976 17.6624 40.4958 17.6706 40.5934C17.6789 40.6911 17.7091 40.7856 17.7591 40.8698C17.8169 40.9663 17.8957 41.0486 17.9897 41.1104C18.1852 41.2412 18.459 41.2797 18.7375 41.2389C19.027 41.1904 19.2887 41.0375 19.4732 40.8091C19.6689 40.574 19.7881 40.259 19.8105 39.9308C19.8296 39.6811 19.7965 39.4302 19.7134 39.194L19.6922 39.135L19.6867 39.1201L19.6852 39.1165C19.6852 39.1182 19.6816 39.1077 19.6867 39.1193L19.6831 39.1115L19.6687 39.0799L19.6402 39.0165L19.6129 38.9682C19.4588 38.6931 19.177 38.5027 18.8577 38.4246C18.5384 38.3465 18.1916 38.3628 17.8733 38.4308C17.5559 38.5029 17.2555 38.6265 17.0481 38.8258C16.8297 39.0247 16.6717 39.274 16.5657 39.5165C16.4597 39.759 16.4038 40.0031 16.3985 40.22C16.3904 40.4087 16.421 40.5971 16.4884 40.7736C16.5334 40.8886 16.5954 40.9963 16.6725 41.0929C16.6981 41.128 16.7222 41.1508 16.736 41.1682L16.7584 41.1938C16.7584 41.1938 16.7498 41.1862 16.7326 41.1726C16.7155 41.1591 16.6884 41.1379 16.6586 41.1062C16.5668 41.0172 16.4896 40.9144 16.4296 40.8015C16.3372 40.6218 16.2838 40.4246 16.2728 40.2228C16.2602 39.9596 16.2991 39.6964 16.3873 39.4481C16.4906 39.1497 16.6553 38.8763 16.8708 38.6455C16.9941 38.5181 17.1381 38.4123 17.2965 38.3326C17.4573 38.2495 17.6264 38.184 17.8012 38.1371C18.1548 38.0423 18.5439 38.0126 18.9353 38.0947C19.1364 38.1373 19.3277 38.2171 19.4994 38.33C19.6755 38.4496 19.8221 38.6076 19.9284 38.792L19.969 38.8647L19.9986 38.9282L20.0132 38.9595L20.017 38.9676L20.0231 38.9826L20.0301 39.0004L20.0574 39.0708C20.092 39.1655 20.1198 39.2625 20.1406 39.3611C20.1837 39.5575 20.1975 39.7592 20.1814 39.9595C20.1495 40.3569 20.0022 40.7425 19.7506 41.04C19.5084 41.3339 19.1628 41.5238 18.7849 41.5708C18.7398 41.5749 18.6886 41.581 18.6493 41.5819H18.5909H18.5555L18.5229 41.5799C18.4374 41.5766 18.3524 41.5652 18.269 41.5457C18.107 41.5091 17.9552 41.4368 17.8247 41.3341C17.7028 41.2391 17.6063 41.1156 17.5437 40.9744C17.4892 40.8477 17.465 40.71 17.4732 40.5723C17.481 40.4643 17.5112 40.3592 17.562 40.2635C17.6127 40.1679 17.6829 40.0839 17.768 40.0169C17.8714 39.936 17.9913 39.8788 18.1192 39.8493C18.1515 39.841 18.1842 39.8343 18.2172 39.8294L18.2498 39.8262Z" fill="#231F20"/>
<path d="M34.8252 23.2843C34.8252 23.2843 34.8351 23.2475 34.8595 23.1807C34.8838 23.1138 34.9198 23.0158 34.9748 22.895C35.0404 22.7489 35.1135 22.6062 35.1938 22.4676C35.2984 22.2859 35.4138 22.1106 35.5395 21.9428C35.693 21.7415 35.8628 21.5532 36.0474 21.38C36.2501 21.1967 36.4828 21.0143 36.7617 20.8681C37.0583 20.7124 37.3829 20.6175 37.7167 20.5888C37.8043 20.5861 37.8929 20.578 37.9814 20.5823C38.0698 20.5865 38.1587 20.5986 38.2471 20.6098C38.3356 20.621 38.42 20.6504 38.5065 20.6713C38.5922 20.6925 38.6757 20.7215 38.756 20.7579L38.8768 20.8095L38.9369 20.836L38.9924 20.8681L39.2131 20.9985C39.2886 21.0408 39.3483 21.0962 39.4151 21.1466C39.482 21.1969 39.5472 21.2471 39.6056 21.3023C39.7188 21.4153 39.8383 21.523 39.9367 21.6421C40.0351 21.7613 40.1344 21.8764 40.2179 21.9978C40.3015 22.1193 40.3802 22.2393 40.4549 22.3576C40.5254 22.4786 40.5889 22.5988 40.6509 22.7156C40.6813 22.7741 40.7113 22.8318 40.7408 22.8887L40.8165 23.0611C40.8646 23.1743 40.9109 23.2839 40.9553 23.3891C41.0381 23.6007 41.0986 23.8006 41.1553 23.9754C41.1832 24.0628 41.2082 24.1447 41.2251 24.2232C41.2421 24.3017 41.2605 24.3713 41.2759 24.4363C41.306 24.5647 41.3246 24.6671 41.3394 24.7361C41.3542 24.8051 41.3591 24.8419 41.3591 24.8419L41.2956 24.7535C41.2558 24.6953 41.194 24.6113 41.1225 24.5021C41.0474 24.3948 40.9695 24.2583 40.8635 24.1119C40.7575 23.9655 40.6519 23.7945 40.5277 23.6146L40.3309 23.3383C40.2978 23.2905 40.2641 23.2418 40.23 23.1923L40.1181 23.049C40.0415 22.9534 39.9699 22.8501 39.8893 22.7528C39.8047 22.6582 39.7234 22.5588 39.6388 22.4595C39.5542 22.3603 39.4581 22.2738 39.3682 22.1777C39.323 22.131 39.2748 22.0874 39.2239 22.0471C39.1756 22.004 39.1271 21.9608 39.0783 21.9176C39.0292 21.8753 38.975 21.843 38.9238 21.8049L38.8464 21.749C38.8221 21.7289 38.7957 21.7116 38.7677 21.6972L38.6062 21.6053L38.566 21.5821L38.5237 21.5655L38.439 21.5317C38.2251 21.437 37.9928 21.3911 37.759 21.3973C37.7014 21.3918 37.6439 21.4066 37.5861 21.4109L37.4991 21.4189L37.4128 21.4388C37.2971 21.46 37.1845 21.5023 37.0709 21.5395C36.8487 21.6299 36.6357 21.7414 36.4348 21.8726C36.2458 21.9968 36.0635 22.131 35.8887 22.2746C35.7251 22.4126 35.5745 22.5431 35.4456 22.6656C35.3167 22.7882 35.204 22.8971 35.1119 22.9887C34.9276 23.173 34.8252 23.2843 34.8252 23.2843Z" fill="#231F20"/>
<path d="M31.1019 23.223C31.1019 23.223 30.9982 23.1117 30.8145 22.928C30.7225 22.8364 30.6112 22.7261 30.4809 22.6051C30.3505 22.4841 30.2013 22.3512 30.0378 22.2141C29.863 22.0705 29.6807 21.9363 29.4916 21.812C29.2906 21.6811 29.0776 21.5695 28.8554 21.479C28.742 21.4424 28.6294 21.3986 28.5137 21.3785L28.4273 21.3586L28.3404 21.3505C28.2826 21.3463 28.225 21.3313 28.1675 21.337C27.9336 21.3305 27.7013 21.3764 27.4874 21.4714L27.4028 21.505L27.3605 21.5215L27.3202 21.5448L27.1588 21.6366C27.1308 21.651 27.1044 21.6684 27.0801 21.6885L27.0026 21.7443C26.9514 21.7826 26.8968 21.8148 26.8482 21.8571L26.7026 21.9866C26.6516 22.027 26.6034 22.0707 26.5581 22.1174C26.4684 22.2132 26.3746 22.3025 26.2877 22.399C26.2007 22.4955 26.1218 22.5977 26.0371 22.6923C25.9567 22.7909 25.8848 22.8939 25.8084 22.9898L25.6965 23.133L25.5955 23.279L25.3987 23.5541C25.2739 23.7331 25.166 23.9039 25.0629 24.0513C24.9599 24.1988 24.8791 24.3343 24.8039 24.4417C24.7322 24.5507 24.6706 24.6347 24.6309 24.6931L24.5674 24.7814C24.5674 24.7814 24.5742 24.7443 24.5871 24.6756C24.6 24.6068 24.6201 24.5042 24.6505 24.3757C24.6661 24.3114 24.6829 24.2404 24.7011 24.1626C24.7182 24.0844 24.7434 24.0025 24.7711 23.9149C24.8279 23.7401 24.8884 23.5406 24.9711 23.3285C25.0155 23.2234 25.0617 23.1141 25.1097 23.0006L25.1857 22.8283L25.2756 22.655C25.3376 22.5382 25.4011 22.418 25.4715 22.2972C25.5462 22.1781 25.6277 22.0592 25.7085 21.9375C25.7893 21.8158 25.8937 21.7018 25.9895 21.5818C26.0854 21.4618 26.2077 21.355 26.3207 21.2422C26.3793 21.1868 26.4476 21.1383 26.5111 21.0863C26.5746 21.0342 26.6381 20.9805 26.7132 20.9381L26.9337 20.8076L26.9893 20.7754L27.0494 20.7492L27.1702 20.6973C27.2506 20.661 27.3341 20.632 27.4197 20.6108C27.5062 20.5896 27.5911 20.5632 27.6789 20.5492C27.7667 20.5353 27.8564 20.5281 27.9449 20.5217C28.0333 20.5175 28.1218 20.5255 28.2096 20.5283C28.5433 20.557 28.868 20.652 29.1645 20.8078C29.4434 20.9538 29.6762 21.1362 29.8789 21.3194C30.0634 21.4927 30.2333 21.6809 30.3867 21.8823C30.5125 22.05 30.6281 22.2253 30.7327 22.407C30.8129 22.5457 30.886 22.6883 30.9517 22.8345C31.0067 22.9553 31.0422 23.0539 31.067 23.1203C31.0917 23.1868 31.1019 23.223 31.1019 23.223Z" fill="#231F20"/>
<path d="M25.6324 52.8639C25.6083 52.8 25.588 52.7348 25.5715 52.6686C25.5208 52.4807 25.4984 52.2864 25.505 52.092C25.5104 51.951 25.5384 51.8118 25.588 51.6798C25.6487 51.5209 25.7499 51.3805 25.8815 51.2727C26.0213 51.1554 26.201 51.0712 26.3961 51.0217C26.5912 50.9722 26.8032 50.9559 27.0209 50.9582C27.1303 50.957 27.2403 50.9671 27.3533 50.9743L27.6919 51.0215C27.7488 51.0308 27.8059 51.0342 27.8641 51.0488L28.0402 51.0894L28.2192 51.1317L28.3097 51.1529L28.398 51.1798C28.876 51.3118 29.3595 51.5077 29.848 51.7299C30.3366 51.9521 30.8263 52.2107 31.3182 52.4785C31.8102 52.7464 32.3042 53.0264 32.8057 53.2851C33.3072 53.5439 33.8138 53.7913 34.3335 53.9555C34.8494 54.1139 35.3779 54.2279 35.9132 54.2962C36.4147 54.3588 36.9205 54.3789 37.4253 54.3565C37.879 54.3365 38.3304 54.2817 38.7757 54.1927C39.1536 54.118 39.5276 54.0244 39.8961 53.9121C40.0607 53.8613 40.2135 53.8063 40.3544 53.7595C40.4953 53.7128 40.6221 53.6576 40.7385 53.6144C40.9712 53.5272 41.1483 53.4451 41.2713 53.3948L41.4594 53.3146L41.2778 53.4085C41.1585 53.4675 40.9886 53.5659 40.7596 53.6643C40.6456 53.7141 40.522 53.7763 40.3821 53.8313C40.2423 53.8863 40.0925 53.95 39.9293 54.0105C39.602 54.1273 39.2289 54.2549 38.8096 54.3491C38.6014 54.403 38.3804 54.4405 38.1523 54.4828C37.9226 54.5149 37.6845 54.5494 37.438 54.5642C36.9206 54.6041 36.4006 54.5959 35.8847 54.5399C35.6166 54.511 35.3457 54.4695 35.0717 54.4155C34.9354 54.3869 34.7966 54.3611 34.6627 54.326L34.4606 54.275C34.3885 54.2583 34.3233 54.2327 34.2539 54.2128C33.7054 54.0435 33.1853 53.7934 32.6771 53.5323C32.1705 53.2672 31.6775 52.9838 31.1887 52.7143C30.6999 52.4447 30.2215 52.1772 29.7439 51.9515C29.6261 51.8909 29.5057 51.8406 29.3876 51.7868C29.2695 51.7331 29.1529 51.6793 29.0347 51.6343C28.9164 51.5892 28.8019 51.5388 28.6855 51.4957L28.3387 51.3787L28.2541 51.3499L28.1695 51.3275L28.0002 51.2832L27.8336 51.2392C27.7788 51.224 27.7198 51.2181 27.6644 51.2058L27.3351 51.1468C27.2272 51.1355 27.1212 51.1214 27.0177 51.1186C26.6053 51.0975 26.2116 51.1552 25.9464 51.3556C25.8216 51.4473 25.7228 51.5698 25.6597 51.7113C25.6061 51.834 25.5725 51.9645 25.5603 52.0979C25.5434 52.288 25.5525 52.4796 25.5873 52.6673C25.5986 52.7336 25.6136 52.7993 25.6324 52.8639Z" fill="#231F20"/>
<path d="M39.2126 49.2779C39.2126 49.2779 37.051 47.1954 34.449 47.9002C31.6032 45.9959 28.5399 48.4904 27.4678 49.7561C28.7566 49.666 31.4166 50.6146 31.6013 50.6542C34.197 51.0371 37.3301 51.0128 39.2126 49.2779Z" fill="#C93E3D"/>
<path d="M35.7289 50.7525L35.7469 50.737C35.9102 50.5889 36.0742 50.4488 36.2107 50.2736C36.3573 50.0855 36.4837 49.8716 36.5408 49.6388C36.5979 49.4061 36.5812 49.1522 36.4608 48.9385C36.383 48.7999 36.2505 48.6797 36.1161 48.5974C35.8368 48.4266 35.5002 48.3858 35.1788 48.4018C34.8061 48.4196 34.4382 48.5032 34.0812 48.6062C33.7274 48.708 33.3806 48.8316 33.0338 48.9545C32.7706 49.0481 32.5048 49.1509 32.2297 49.2063C32.229 49.2066 32.2281 49.2066 32.2273 49.2063C32.2265 49.2061 32.2258 49.2057 32.2252 49.2051C32.2247 49.2046 32.2242 49.2038 32.224 49.203C32.2238 49.2022 32.2238 49.2014 32.224 49.2006C32.3112 48.7008 32.793 48.4266 33.1733 48.1594C33.2171 48.1287 33.2604 48.0976 33.3032 48.0654C33.3243 48.05 33.341 48.0442 33.3271 48.0193C33.3205 48.0076 33.3138 47.9962 33.3059 47.9852C33.2754 47.9363 33.2399 47.8905 33.2001 47.8487C33.1145 47.761 33.0159 47.6869 32.9079 47.6289C32.654 47.4894 32.3666 47.415 32.0827 47.3712C31.8146 47.3309 31.5436 47.3128 31.2725 47.317C29.5858 47.6941 28.1379 48.9655 27.4678 49.7567C28.7566 49.6666 31.4166 50.6151 31.6013 50.6547C32.9164 50.8483 34.3698 50.9374 35.7289 50.7525Z" fill="#EF5152"/>
</g>
<defs>
<clipPath id="clip0_540_121170">
<rect width="63.5" height="63.5" fill="white" transform="translate(0.25 0.5)"/>
</clipPath>
</defs>
</svg>
