<svg width="33" height="26" viewBox="0 0 33 26" fill="none" xmlns="http://www.w3.org/2000/svg">
<path d="M4.36719 2.92569L11.0968 0.266602H21.3358L28.175 3.15443L22.1234 6.05179H10.7778L4.36719 2.92569Z" fill="#FFDE52"/>
<path d="M4.36677 2.92578L0 7.64352L8.87311 13.3239L10.7773 6.05188L4.36677 2.92578Z" fill="#FFBC45"/>
<path d="M22.123 6.05166L25.0542 13.3237L33.0001 7.48128L28.1747 3.1543L22.123 6.05166Z" fill="#FFBC45"/>
<path d="M10.7773 6.05176H22.1229L25.054 13.3238H8.87305L10.7773 6.05176Z" fill="#E5A535"/>
<path d="M25.0545 13.3238L24.875 13.6574L16.959 25.9998L33.0004 7.48145L25.0545 13.3238Z" fill="#E5A535"/>
<path d="M8.87311 13.3239L16.9586 25.9999L0 7.64355L8.87311 13.3239Z" fill="#E5A535"/>
<path d="M25.054 13.3242L16.9585 26.0002L8.87305 13.3242H25.054Z" fill="#FFBC45"/>
<path d="M4.875 3.16406C5.23391 3.65966 5.55295 4.20292 5.85204 4.68899C6.67953 6.03283 7.18799 7.51964 7.82606 8.93972C8.24479 9.87374 8.48406 10.8078 8.6037 11.8085C8.66352 12.285 8.71337 12.7997 8.81307 13.2858L8.86292 13.3144L10.7671 6.03283L4.875 3.16406Z" fill="#FFDE52"/>
<path d="M26.6096 2.55469C26.5199 2.59281 26.4202 2.63093 26.3205 2.65953C25.1839 3.03123 23.9078 3.12654 22.7214 3.2695C21.2957 3.44105 19.8999 3.58401 18.4543 3.58401C16.7495 3.58401 15.0646 3.67932 13.3597 3.58401C11.6748 3.48871 9.94009 3.56495 8.28511 3.2409C7.30807 3.05029 6.31109 2.85967 5.34402 2.58328L4.37695 2.96451L10.7776 6.10014H22.1331L28.1748 3.21231L26.6096 2.55469Z" fill="#FFF27B"/>
<path d="M22.1234 5.34667H10.7778L5.16477 2.61133L4.36719 2.92584L10.7778 6.05194H22.1234L28.175 3.15458L27.3974 2.83054L22.1234 5.34667Z" fill="white"/>
<path d="M4.36684 2.92578L4.09766 3.22124L10.3587 6.28062L8.56412 13.1333L8.87318 13.3239L10.7774 6.05188L4.36684 2.92578Z" fill="white"/>
<path opacity="0.2" d="M25.1942 13.2762C25.1942 10.9698 26.1115 9.00644 27.2779 7.03357C27.7764 6.18533 28.3646 5.4038 28.7036 4.46979C29.0226 3.59295 28.4045 3.28797 27.6169 3.6692C26.271 4.31729 24.945 4.98445 23.5791 5.62301C22.6818 6.04237 22.2332 6.24251 22.6021 7.27184C22.8613 7.97712 23.2102 8.6824 23.5293 9.36861C24.0976 10.579 24.7655 11.9419 25.1843 13.0952V13.2762H25.1942Z" fill="#AAE6F9"/>
<path opacity="0.2" d="M22.6116 6.19485L28.4439 3.40233L28.1747 3.16406L22.123 6.05189L25.0542 13.3334L25.3832 13.0856L22.6116 6.19485Z" fill="white"/>
<path opacity="0.1" d="M29.182 5.43255C29.182 8.43475 26.6397 10.8651 23.4992 10.8651C20.3587 10.8651 17.8164 8.43475 17.8164 5.43255C17.8164 2.43035 20.3587 0 23.4992 0C26.6397 0 29.182 2.43035 29.182 5.43255Z" fill="white"/>
<path opacity="0.2" d="M28.1754 5.2227C28.1754 7.43384 26.3011 9.22563 23.9881 9.22563C21.6751 9.22563 19.8008 7.43384 19.8008 5.2227C19.8008 3.01155 21.6751 1.21976 23.9881 1.21976C26.2911 1.21023 28.1754 3.00202 28.1754 5.2227Z" fill="white"/>
<path opacity="0.7" d="M23.9782 2.46816C23.7987 3.6881 23.9782 5.21303 21.7051 5.40364C22.383 5.6991 23.1308 5.96596 23.5993 6.5664C24.0181 7.10012 24.357 8.00555 24.4268 8.66317C24.5564 7.95789 24.387 7.29074 24.8456 6.5664C25.1845 6.02314 25.7628 5.65144 26.4108 5.5752C25.683 5.19396 25.0549 5.25115 24.6163 4.42197C24.4468 4.10745 24.2972 3.77388 24.1876 3.4403C24.0779 3.09719 24.1178 2.573 23.8885 2.3252L23.9782 2.46816Z" fill="white"/>
<path opacity="0.1" d="M13.0708 14.0011C13.0708 16.4219 11.0171 18.3948 8.47477 18.3948C5.93248 18.3948 3.88867 16.4219 3.88867 14.0011C3.88867 11.5803 5.94245 9.60742 8.48474 9.60742C11.027 9.60742 13.0708 11.5708 13.0708 14.0011Z" fill="white"/>
<path opacity="0.2" d="M8.86434 17.0698C10.7364 17.0698 12.2541 15.619 12.2541 13.8293C12.2541 12.0397 10.7364 10.5889 8.86434 10.5889C6.99224 10.5889 5.47461 12.0397 5.47461 13.8293C5.47461 15.619 6.99224 17.0698 8.86434 17.0698Z" fill="white"/>
<path opacity="0.7" d="M8.86374 11.6085C8.71419 12.5902 8.86374 13.8292 7.0293 13.9817C7.57764 14.2199 8.18579 14.4392 8.56464 14.9252C8.90362 15.3636 9.1728 16.088 9.23262 16.6217C9.33232 16.0499 9.19274 15.5161 9.57159 14.9252C9.85075 14.4868 10.3193 14.1818 10.8378 14.1246C10.2495 13.8101 9.74108 13.8578 9.38217 13.1906C9.24259 12.9333 9.12295 12.6664 9.03322 12.3996C8.9435 12.1232 8.97341 11.6943 8.78398 11.4941L8.86374 11.6085Z" fill="white"/>
<path opacity="0.1" d="M9.29102 13.2764C9.7596 13.4384 10.2182 13.6767 10.5173 13.8387C12.1723 14.7346 13.7176 16.1642 14.914 17.5652C16.0804 18.9281 16.8381 20.434 17.1572 22.1686C17.3267 23.1217 17.4363 24.0938 17.536 25.0564L25.0533 13.2764H9.29102Z" fill="white"/>
<path opacity="0.2" d="M19.2318 13.2764C19.2318 13.2764 13.5989 20.3292 13.6986 20.1862C13.7983 20.0432 23.0203 13.324 23.0203 13.324L19.2318 13.2764Z" fill="white"/>
<path opacity="0.2" d="M6.17188 3.8883L15.693 0.266602H17.1686L8.96342 5.22261L6.17188 3.8883Z" fill="white"/>
<path opacity="0.2" d="M12.752 6.08038L21.3359 0.266602L22.4825 0.752672L18.355 6.09945L12.752 6.08038Z" fill="white"/>
</svg>
