<svg width="48" height="21" viewBox="0 0 48 21" fill="none" xmlns="http://www.w3.org/2000/svg">
<g clip-path="url(#clip0_393_14810)">
<path d="M18.2244 0.268947L11.94 14.9981H7.84013L4.7475 3.24284C4.56 2.52055 4.39706 2.25474 3.8265 1.94932C2.89388 1.45158 1.35375 0.986079 0 0.6965L0.0913125 0.268947H6.69206C7.53206 0.268947 8.28844 0.818447 8.48081 1.76989L10.1149 10.2939L14.1491 0.268947H18.2244ZM23.7669 0.268947L20.5601 14.9981H16.6811L19.8883 0.268947H23.7669ZM34.2887 10.1891C34.3048 6.30239 28.8186 6.08668 28.8544 4.35013C28.8675 3.82218 29.3794 3.26016 30.4999 3.11647C31.0549 3.04592 32.5882 2.98974 34.3251 3.77595L35.0046 0.650632C34.0714 0.319053 32.8704 0 31.3766 0C27.5422 0 24.8451 2.00089 24.8235 4.86832C24.7984 6.98932 26.7501 8.1714 28.2178 8.87784C29.7296 9.59921 30.2366 10.0629 30.2297 10.7076C30.2188 11.6959 29.0222 12.1334 27.9098 12.1496C25.959 12.18 24.8282 11.6316 23.9261 11.2188L23.2221 14.4476C24.1296 14.8562 25.8021 15.2112 27.5344 15.2292C31.6106 15.2292 34.2767 13.2512 34.2887 10.1891ZM44.4137 14.9981H48L44.8669 0.268947H41.5581C40.8118 0.268947 40.1846 0.694474 39.9064 1.34861L34.0864 14.9981H38.1594L38.9674 12.7978H43.9436L44.4137 14.9981ZM40.0843 9.77955L42.1266 4.24826L43.2998 9.77955H40.0841H40.0843ZM28.7312 19.0523H27.1551V20.4934H28.9179V20.9267H26.6241V16.9289H28.8276V17.3622H27.1551V18.6253H28.731V19.0527L28.7312 19.0523ZM29.7323 16.7154H30.2633V20.9265H29.7323V16.7154ZM31.6031 19.586C31.6151 20.2921 32.0681 20.5826 32.6051 20.5826C32.9857 20.5826 33.2211 20.5174 33.4146 20.4345L33.5109 20.8082C33.3238 20.8911 32.9979 20.9919 32.5327 20.9919C31.6335 20.9919 31.0963 20.4048 31.0963 19.5387C31.0963 18.6729 31.6151 17.9964 32.4666 17.9964C33.4266 17.9964 33.6741 18.8153 33.6741 19.343C33.6741 19.4497 33.6679 19.5267 33.6557 19.5862L31.6031 19.586ZM33.1607 19.2124C33.1669 18.8864 33.0219 18.3702 32.4242 18.3702C31.8808 18.3702 31.6513 18.8506 31.6089 19.2124H33.1607ZM36.5646 20.8257C36.4258 20.8911 36.1177 20.9921 35.7255 20.9921C34.8441 20.9921 34.2705 20.4048 34.2705 19.5269C34.2705 18.643 34.8861 17.9966 35.8401 17.9966C36.1539 17.9966 36.4316 18.0734 36.5766 18.1508L36.4562 18.5482C36.3289 18.4829 36.1297 18.4115 35.8401 18.4115C35.1698 18.4115 34.8079 18.9039 34.8079 19.4974C34.8079 20.1615 35.2425 20.5708 35.8221 20.5708C36.1239 20.5708 36.3231 20.4997 36.474 20.4345L36.5646 20.8257ZM38.0548 17.3677V18.0558H38.8153V18.4529H38.0548V20.0012C38.0548 20.3575 38.1576 20.5588 38.4533 20.5588C38.598 20.5588 38.6828 20.5472 38.7613 20.5231L38.7855 20.921C38.6828 20.9563 38.5198 20.9919 38.3145 20.9919C38.0668 20.9919 37.8675 20.9088 37.7409 20.7727C37.596 20.6122 37.5356 20.3575 37.5356 20.0193V18.4529H37.0826V18.0558H37.5356V17.5221L38.055 17.3679L38.0548 17.3677ZM39.5573 18.9516C39.5573 18.6134 39.5509 18.3229 39.5331 18.0558H39.9981L40.0224 18.625H40.0401C40.1732 18.2398 40.4989 17.9964 40.8549 17.9964C40.9095 17.9964 40.9519 18.0025 41.0003 18.0082V18.5008C40.9459 18.4887 40.8917 18.4887 40.8187 18.4887C40.4449 18.4887 40.1788 18.7615 40.1066 19.1533C40.0942 19.2338 40.0881 19.3151 40.0884 19.3964V20.9269H39.5573V18.9516ZM44.2656 19.4674C44.2656 20.5292 43.5107 20.9919 42.8106 20.9919C42.0255 20.9919 41.4099 20.4223 41.4099 19.5151C41.4099 18.5599 42.0559 17.9966 42.8589 17.9966C43.698 17.9966 44.2656 18.5951 44.2656 19.4674ZM41.9531 19.4972C41.9531 20.1259 42.3154 20.6006 42.8346 20.6006C43.3419 20.6006 43.722 20.1316 43.722 19.4852C43.722 18.9989 43.4745 18.3877 42.8466 18.3877C42.225 18.3877 41.9531 18.9575 41.9531 19.4972ZM45.0797 18.8328C45.0797 18.5305 45.0733 18.293 45.0553 18.0559H45.5263L45.5565 18.5305H45.5685C45.7134 18.2634 46.0515 17.9966 46.5345 17.9966C46.9388 17.9966 47.5669 18.2339 47.5669 19.2181V20.9267H47.0357V19.2717C47.0357 18.8094 46.8606 18.4234 46.3596 18.4234C46.0153 18.4234 45.7434 18.6668 45.6472 18.9573C45.6229 19.0227 45.6109 19.1115 45.6109 19.2006V20.9267H45.0797V18.8328Z" fill="#1A1F71"/>
</g>
<defs>
<clipPath id="clip0_393_14810">
<rect width="48" height="21" fill="white"/>
</clipPath>
</defs>
</svg>
