<svg width="181" height="181" viewBox="0 0 181 181" fill="none" xmlns="http://www.w3.org/2000/svg">
<g opacity="0.2">
<path d="M62.1294 23.254L58.706 19.3868C50.2732 9.8662 40.3534 12.0405 36.664 24.2065L24.4651 64.4004C20.7708 76.5679 28.0182 84.8086 40.5577 82.7141L82.4145 75.7123C94.9563 73.6182 98.3216 64.1086 89.8866 54.5877L83.6572 47.5555C101.607 38.9901 125.242 44.2876 138.506 63.1228C141.044 66.7258 143.042 70.797 144.496 75.0969C146.022 78.4431 150.79 86.2546 161.138 83.4035C174.181 79.8171 173.414 66.3404 169.624 57.5144C169.417 57.0296 169.29 56.6104 169.196 56.2127C167.295 52.0434 165.069 47.976 162.501 44.0525C142.18 12.9874 95.6177 2.31393 62.1294 23.254Z" fill="black"/>
<path d="M107.483 110.39C94.9564 112.573 91.6638 122.098 100.164 131.558L104.216 136.066C87.4393 141.904 66.9635 136.777 54.3639 120.384C51.6761 116.894 49.5114 112.906 47.8794 108.671C46.2142 105.391 41.1277 97.7858 30.9044 101.065C18.025 105.193 19.8292 118.319 23.5041 127.288C23.704 127.774 23.8806 128.179 23.9866 128.571C26.0594 132.658 28.4516 136.629 31.1805 140.442C51.4958 168.835 94.2362 178.247 126.365 160.712L131.592 166.526C140.093 175.982 149.995 173.739 153.598 161.551L165.499 121.281C169.106 109.089 161.806 100.903 149.279 103.086L107.483 110.39Z" fill="black"/>
</g>
<path d="M51.8198 21.7315L48.3964 17.8643C39.9636 8.34374 30.0439 10.5181 26.3545 22.684L14.1556 62.8779C10.4613 75.0455 17.7087 83.2861 30.2482 81.1917L72.1049 74.1899C84.6467 72.0958 88.012 62.5861 79.577 53.0652L73.3476 46.0331C91.2974 37.4676 114.932 42.7651 128.197 61.6004C130.734 65.2033 132.732 69.2745 134.186 73.5745C135.713 76.9206 140.481 84.7321 150.828 81.8811C163.871 78.2946 163.104 64.8179 159.315 55.9919C159.108 55.5072 158.98 55.088 158.886 54.6902C156.985 50.5209 154.759 46.4535 152.192 42.5301C131.87 11.4649 85.3082 0.79147 51.8198 21.7315Z" fill="#FFB800"/>
<path d="M97.1737 108.867C84.6469 111.05 81.3542 120.575 89.8544 130.036L93.9067 134.543C77.1297 140.381 56.6539 135.255 44.0543 118.861C41.3665 115.372 39.2018 111.384 37.5698 107.149C35.9046 103.869 30.8181 96.2633 20.5948 99.5424C7.71543 103.67 9.51958 116.797 13.1946 125.765C13.3944 126.251 13.571 126.656 13.677 127.049C15.7499 131.136 18.142 135.106 20.8709 138.92C41.1863 167.313 83.9266 176.725 116.056 159.189L121.282 165.004C129.783 174.459 139.685 172.217 143.289 160.029L155.19 119.758C158.796 107.566 151.496 99.381 138.97 101.564L97.1737 108.867Z" fill="#FFB800"/>
<path d="M26.7418 79.514C32.1332 80.3097 37.1472 76.5872 37.9432 71.1935C38.7388 65.8021 35.0141 60.7877 29.6227 59.9921C24.229 59.1961 19.2146 62.9208 18.419 68.3123C17.623 73.706 21.3481 78.7181 26.7418 79.514Z" fill="white"/>
<path d="M142.587 74.8202C141.134 70.518 139.136 66.449 136.598 62.8461C127.942 50.5579 114.875 44.0714 101.85 43.397C111.912 45.9028 121.412 51.9729 128.196 61.6061C130.733 65.2091 132.731 69.2803 134.185 73.5802C135.625 76.7357 139.952 83.8547 149.124 82.2629C145.513 80.2832 143.484 76.7857 142.587 74.8202Z" fill="white"/>
<path d="M22.5556 64.1193L34.7545 23.9254C36.4881 18.2065 39.6071 14.7289 43.2924 13.6011C36.2936 9.609 29.3156 12.9175 26.3546 22.6858L14.1557 62.8797C10.6556 74.4134 16.9896 82.4021 28.3393 81.4221C22.5735 78.7685 20.0558 72.3496 22.5556 64.1193Z" fill="white"/>
<path d="M56.6792 18.9887C56.7173 19.0318 56.7568 19.0658 56.7949 19.1088L60.2206 22.9764C74.2075 14.2311 90.4732 11.0172 106.154 12.4837C89.7504 9.14063 72.1088 10.9855 56.6792 18.9887Z" fill="white"/>
<path d="M120.806 156.342C119.416 157.162 117.849 158.197 116.035 159.208L121.281 165.006C125.757 169.987 130.617 171.692 134.747 170.438C133.042 169.47 131.336 168.087 129.683 166.246L120.806 156.342Z" fill="white"/>
<path d="M89.8535 130.04L93.9058 134.547C88.7969 136.327 80.5499 136.938 74.6093 136.548C80.9421 138.263 93.3096 137.746 100.68 134.395L98.256 131.277C89.7581 121.817 93.0508 112.292 105.575 110.109L147.366 102.807C148.056 102.687 148.72 102.611 149.377 102.554C146.596 101.268 143.068 100.852 138.966 101.568L97.1754 108.869C84.646 111.054 81.3556 120.58 89.8535 130.04Z" fill="white"/>
<path d="M29.2704 140.162C26.5418 136.346 24.1494 132.378 22.0766 128.291C21.9703 127.901 21.7936 127.496 21.5941 127.007C17.9214 118.039 14.6246 101.797 27.7549 100.077C28.8483 99.9342 30.3749 100.171 31.2383 100.238C28.5851 98.7669 25.0866 98.1055 20.5964 99.5476C7.71701 103.676 9.52116 116.802 13.1962 125.77C13.396 126.256 13.5726 126.662 13.6786 127.054C15.7514 131.141 18.1436 135.111 20.8725 138.925C32.8439 155.657 52.6045 165.788 73.39 167.706C55.7766 164.14 39.6133 154.619 29.2704 140.162Z" fill="white"/>
</svg>
